<svg width="370" height="430" viewBox="0 0 370 430" fill="none" xmlns="http://www.w3.org/2000/svg">
<path d="M0.5 14C0.5 6.54416 6.54416 0.5 14 0.5H356C363.456 0.5 369.5 6.54416 369.5 14V416C369.5 423.456 363.456 429.5 356 429.5H14C6.54416 429.5 0.5 423.456 0.5 416V14Z" fill="#D5E9F8" stroke="#0A0F0D"/>
<g clip-path="url(#clip0_1_217)">
<path d="M70.4537 37.247V68.7448C70.4688 71.6275 68.1442 73.9767 65.2615 73.992C65.0464 73.9932 64.8315 73.9809 64.618 73.9556C61.944 73.5601 59.9845 71.2329 60.0496 68.5306V37.4609C59.985 34.7557 61.9494 32.4275 64.6271 32.0359C67.4903 31.7008 70.0832 33.7502 70.4184 36.6135C70.4429 36.8237 70.4548 37.0353 70.4537 37.2469V37.247ZM37.7157 63.5961C34.8427 63.5961 32.5137 65.9253 32.5137 68.7981C32.5137 71.6711 34.8427 74.0002 37.7157 74.0002C40.5887 74.0002 42.9178 71.6711 42.9178 68.7981C42.9178 65.9252 40.5885 63.5961 37.7157 63.5961ZM51.4932 47.8289C51.4632 47.8289 51.4333 47.8289 51.4034 47.8295C48.5167 47.9877 46.2771 50.409 46.3441 53.2993V67.2723C46.3441 71.0646 48.0127 73.3667 50.4575 73.8576C53.2782 74.4291 56.0281 72.606 56.5997 69.7853C56.6697 69.4399 56.7047 69.0883 56.7034 68.7357V53.0583C56.7087 50.1753 54.3759 47.8342 51.4932 47.8289Z" fill="#0A0F0D"/>
</g>
<g clip-path="url(#clip1_1_217)">
<path d="M254.75 53.1277C254.75 41.5305 245.347 32.1277 233.75 32.1277C222.153 32.1277 212.75 41.5305 212.75 53.1277C212.75 63.6102 220.429 72.2972 230.469 73.8722V59.1985H225.137V53.126H230.469V48.5025C230.469 43.2402 233.605 40.3317 238.402 40.3317C240.698 40.3317 243.102 40.743 243.102 40.743V45.9107H240.452C237.843 45.9107 237.029 47.5295 237.029 49.1902V53.1277H242.854L241.923 59.2002H237.029V73.874C247.071 72.2972 254.75 63.6085 254.75 53.1277Z" fill="#0A0F0D"/>
</g>
<g clip-path="url(#clip2_1_217)">
<path d="M174.65 32.035C176.943 32 179.218 32.0175 181.493 32C181.633 34.6775 182.595 37.4075 184.555 39.2975C186.515 41.24 189.28 42.1325 191.975 42.43V49.4825C189.455 49.395 186.918 48.87 184.625 47.785C183.628 47.33 182.7 46.7525 181.79 46.1575C181.773 51.2675 181.808 56.3775 181.755 61.47C181.615 63.92 180.81 66.3525 179.393 68.365C177.1 71.725 173.128 73.9125 169.05 73.9825C166.548 74.1225 164.045 73.44 161.91 72.18C158.375 70.0975 155.89 66.2825 155.523 62.1875C155.488 61.3125 155.47 60.4375 155.505 59.58C155.82 56.255 157.465 53.07 160.02 50.9C162.925 48.38 166.985 47.1725 170.783 47.89C170.818 50.48 170.713 53.07 170.713 55.66C168.98 55.1 166.95 55.2575 165.428 56.3075C164.325 57.025 163.485 58.1275 163.048 59.37C162.68 60.2625 162.785 61.2425 162.803 62.1875C163.223 65.0575 165.988 67.4725 168.928 67.21C170.888 67.1925 172.76 66.055 173.775 64.3925C174.108 63.815 174.475 63.22 174.493 62.5375C174.668 59.405 174.598 56.29 174.615 53.1575C174.633 46.105 174.598 39.07 174.65 32.035Z" fill="#0A0F0D"/>
</g>
<g clip-path="url(#clip3_1_217)">
<path d="M112.093 33.3877C113.825 33.3877 119.7 33.8707 122.47 40.0745C123.396 42.1622 123.175 45.7077 122.993 48.5567L122.988 48.6617C122.967 48.9767 122.95 49.2655 122.936 49.5542C123.067 49.633 123.291 49.7118 123.637 49.7118C124.162 49.6838 124.791 49.5017 125.445 49.185C125.734 49.031 126.047 49.003 126.257 49.003C126.576 49.003 126.885 49.0537 127.148 49.1605C127.935 49.4212 128.432 49.9987 128.432 50.627C128.459 51.4127 127.75 52.0952 126.31 52.671C126.154 52.7217 125.944 52.8022 125.708 52.8792C124.92 53.1155 123.714 53.5092 123.375 54.2967C123.217 54.6887 123.268 55.2137 123.585 55.8157L123.611 55.842C123.716 56.08 126.282 61.9232 131.995 62.8665C132.442 62.9435 132.757 63.339 132.73 63.7572C132.73 63.8885 132.704 64.018 132.652 64.151C132.232 65.1467 130.424 65.88 127.146 66.3752C127.043 66.5345 126.936 67.0315 126.859 67.3727C126.808 67.686 126.73 68.0028 126.625 68.3405C126.492 68.8148 126.152 69.0492 125.653 69.0492H125.601C125.365 69.0492 125.053 68.995 124.659 68.9197C124.029 68.7885 123.321 68.6835 122.432 68.6835C121.907 68.6835 121.383 68.7097 120.834 68.813C119.784 68.995 118.869 69.625 117.819 70.36C116.326 71.4082 114.623 72.614 112.054 72.614C111.949 72.614 111.846 72.5877 111.739 72.5877H111.478C108.909 72.5877 107.231 71.4065 105.74 70.3337C104.692 69.5987 103.803 68.9705 102.753 68.7867C102.203 68.708 101.652 68.6572 101.129 68.6572C100.184 68.6572 99.4524 68.813 98.9029 68.918C98.5337 68.9932 98.2187 69.0475 97.9579 69.0475C97.3034 69.0475 97.0427 68.6555 96.9377 68.3125C96.8309 67.9765 96.7802 67.6317 96.7014 67.3202C96.6209 67.0035 96.5177 66.4557 96.4109 66.3228C93.0544 65.9342 91.2484 65.1992 90.8302 64.1772C90.7759 64.067 90.7392 63.9147 90.7339 63.7835C90.7077 63.3582 91.0227 62.9697 91.4689 62.8927C97.1809 61.9477 99.7464 56.1045 99.8532 55.8577L99.8812 55.807C100.196 55.2032 100.273 54.6782 100.089 54.2862C99.7482 53.5267 98.5424 53.1347 97.7584 52.8705C97.5467 52.8197 97.3384 52.741 97.1529 52.6622C95.2157 51.901 94.9532 51.0347 95.0582 50.4345C95.2157 49.5963 96.2377 49.0467 97.1022 49.0467C97.3577 49.0467 97.5747 49.0975 97.7724 49.1762C98.5074 49.5157 99.1532 49.7012 99.7044 49.7012C100.114 49.7012 100.376 49.5962 100.518 49.5175L100.438 48.5217C100.266 45.6762 100.044 42.1325 100.975 40.057C103.668 33.8847 109.525 33.4122 111.254 33.4122L111.988 33.386H112.093V33.3877Z" fill="#0A0F0D"/>
</g>
<path d="M35.876 384L38.052 377.88H48.388L50.598 384H54.1L45.09 359.418H41.384L32.408 384H35.876ZM42.812 364.722C42.982 364.212 43.152 363.634 43.22 363.294C43.288 363.668 43.458 364.246 43.628 364.722L47.402 374.99H39.072L42.812 364.722ZM62.8569 384.408C65.5089 384.408 67.7529 383.252 68.8409 380.974L69.1129 384H71.9689V358.976H68.8069V370.06C67.6849 368.02 65.5429 366.898 62.9929 366.898C58.0629 366.898 55.1049 370.638 55.1049 375.738C55.1049 380.804 58.0289 384.408 62.8569 384.408ZM63.5029 381.518C60.2389 381.518 58.3349 379.07 58.3349 375.636C58.3349 372.236 60.2389 369.788 63.5029 369.788C66.7669 369.788 68.7729 372.236 68.7729 375.636C68.7729 379.104 66.7669 381.518 63.5029 381.518ZM83.2436 384.408C85.8956 384.408 88.1396 383.252 89.2276 380.974L89.4996 384H92.3556V358.976H89.1936V370.06C88.0716 368.02 85.9296 366.898 83.3796 366.898C78.4496 366.898 75.4916 370.638 75.4916 375.738C75.4916 380.804 78.4156 384.408 83.2436 384.408ZM83.8896 381.518C80.6256 381.518 78.7216 379.07 78.7216 375.636C78.7216 372.236 80.6256 369.788 83.8896 369.788C87.1536 369.788 89.1596 372.236 89.1596 375.636C89.1596 379.104 87.1536 381.518 83.8896 381.518ZM104.665 391.446C105.515 391.65 106.399 391.786 107.453 391.786C110.003 391.786 111.669 390.596 112.791 387.74L120.645 367.374H117.347L112.417 380.77L107.589 367.374H104.223L110.921 384.884L110.343 386.482C109.561 388.59 108.337 388.828 106.807 388.828H104.665V391.446ZM121.478 375.67C121.478 380.804 125.15 384.408 130.148 384.408C135.112 384.408 138.784 380.804 138.784 375.67C138.784 370.536 135.112 366.932 130.148 366.932C125.15 366.932 121.478 370.536 121.478 375.67ZM124.708 375.67C124.708 372.202 126.918 369.788 130.148 369.788C133.344 369.788 135.588 372.202 135.588 375.67C135.588 379.138 133.344 381.552 130.148 381.552C126.918 381.552 124.708 379.138 124.708 375.67ZM153.415 367.374V376.146C153.415 379.716 151.817 381.586 148.893 381.586C146.445 381.586 144.915 380.226 144.915 376.656V367.374H141.719V377.71C141.719 381.79 143.895 384.408 147.771 384.408C150.219 384.408 152.429 383.218 153.381 381.484L153.721 384H156.577V367.374H153.415ZM170.734 367.238C170.088 367.102 169.612 367.034 169.034 367.034C166.756 367.034 165.09 368.19 164.41 369.924L164.206 367.408H161.214V384H164.41V375.194C164.41 371.998 166.28 370.162 169.306 370.162H170.734V367.238ZM181.941 375.704C181.941 380.94 185.171 384.408 190.067 384.408C194.079 384.408 197.173 381.994 197.819 378.39H194.623C194.045 380.362 192.345 381.552 190.067 381.552C187.041 381.552 185.103 379.24 185.103 375.67C185.103 372.066 187.177 369.754 190.203 369.754C192.345 369.754 194.045 370.876 194.589 372.984H197.785C197.207 369.278 194.283 366.898 190.101 366.898C185.239 366.898 181.941 370.502 181.941 375.704ZM204.387 383.966V374.922C204.387 372.066 206.053 369.822 209.147 369.822C211.527 369.822 213.125 371.182 213.125 374.548V384H216.321V373.834C216.321 369.584 214.281 366.898 210.031 366.898C207.447 366.898 205.441 368.122 204.387 369.924V358.976H201.191V383.966H204.387ZM225.61 384.408C228.296 384.408 230.574 383.218 231.424 381.314L231.764 384H234.484V373.562C234.484 369.074 231.696 366.898 227.582 366.898C223.298 366.898 220.442 369.176 220.442 372.644H223.23C223.23 370.638 224.76 369.448 227.446 369.448C229.69 369.448 231.356 370.434 231.356 373.222V373.698L226.12 374.106C222.21 374.412 219.932 376.316 219.932 379.376C219.932 382.402 222.04 384.408 225.61 384.408ZM226.528 381.926C224.454 381.926 223.162 381.042 223.162 379.274C223.162 377.642 224.318 376.554 227.14 376.282L231.39 375.942V376.826C231.39 379.954 229.554 381.926 226.528 381.926ZM242.106 384V375.194C242.106 371.964 243.84 369.822 246.832 369.822C249.28 369.822 250.844 371.182 250.844 374.548V384H254.04V373.834C254.04 369.584 252.034 366.898 247.648 366.898C245.302 366.898 243.194 368.02 242.14 369.924L241.8 367.374H238.91V384H242.106ZM261.662 384V375.194C261.662 371.964 263.396 369.822 266.388 369.822C268.836 369.822 270.4 371.182 270.4 374.548V384H273.596V373.834C273.596 369.584 271.59 366.898 267.204 366.898C264.858 366.898 262.75 368.02 261.696 369.924L261.356 367.374H258.466V384H261.662ZM285.197 384.408C289.311 384.408 292.099 382.402 292.915 378.832H289.923C289.379 380.736 287.747 381.756 285.265 381.756C282.103 381.756 280.267 379.818 280.029 376.316L292.881 376.282V375.092C292.881 370.162 289.787 366.898 285.061 366.898C280.233 366.898 276.935 370.502 276.935 375.704C276.935 380.872 280.301 384.408 285.197 384.408ZM285.061 369.584C287.883 369.584 289.685 371.42 289.685 374.174H280.097C280.505 371.25 282.273 369.584 285.061 369.584ZM299.715 384V358.976H296.519V384H299.715ZM303.059 379.172C303.059 382.334 305.541 384.408 309.451 384.408C313.395 384.408 316.115 382.402 316.115 379.24C316.115 376.758 314.721 375.466 311.899 374.786L308.975 374.072C307.343 373.664 306.527 372.916 306.527 371.794C306.527 370.264 307.649 369.38 309.655 369.38C311.593 369.38 312.715 370.434 312.783 372.1H315.843C315.775 368.938 313.395 366.898 309.757 366.898C306.085 366.898 303.501 368.836 303.501 371.896C303.501 374.344 304.895 375.806 307.853 376.52L310.777 377.2C312.511 377.642 313.055 378.322 313.055 379.444C313.055 380.974 311.763 381.892 309.519 381.892C307.411 381.892 306.119 380.872 306.119 379.172H303.059Z" fill="#0A0F0D"/>
<path d="M50.802 314.966V310.92H40.466L44.954 307.078C48.728 303.848 50.632 301.23 50.632 297.762C50.632 292.73 47.334 289.704 42.03 289.704C36.76 289.704 33.292 293.24 33.258 298.68H37.576C37.61 295.484 39.31 293.58 42.03 293.58C44.648 293.58 46.178 295.178 46.178 298C46.178 300.38 45.056 302.012 41.69 304.868L33.564 311.736V315L50.802 314.966Z" fill="#0A0F0D"/>
<defs>
<clipPath id="clip0_1_217">
<rect width="38.5" height="42" fill="white" transform="translate(32 32)"/>
</clipPath>
<clipPath id="clip1_1_217">
<rect width="42" height="42" fill="white" transform="translate(212.75 32)"/>
</clipPath>
<clipPath id="clip2_1_217">
<rect width="38.5" height="42" fill="white" transform="translate(154.25 32)"/>
</clipPath>
<clipPath id="clip3_1_217">
<rect width="43.75" height="42" fill="white" transform="translate(90.5 32)"/>
</clipPath>
</defs>
</svg>
