<svg width="571" height="596" viewBox="0 0 571 596" fill="none" xmlns="http://www.w3.org/2000/svg">
<rect x="0.5" y="0.5" width="569" height="595" rx="13.5" fill="#D5E9F8" stroke="#0A0F0D"/>
<path d="M140.5 276C140.5 268.544 146.544 262.5 154 262.5H569.5V595.5H140.5V276Z" fill="white" stroke="black"/>
<path d="M196 384C205.167 386.167 224.9 418.5 240.5 424.5C260 432 272.5 434.5 293 412C313.5 389.5 322 388.5 340 412C358 435.5 364.5 451 393 433.5C421.5 416 463.5 404 490 438C516.5 472 524 506 546 483.5C568 461 567 461.5 569 460.5" stroke="black" stroke-width="1.2" stroke-linecap="round" stroke-dasharray="1.5 1.5"/>
<path d="M194 463C199.333 477.833 213.2 510.6 226 523C242 538.5 253.5 516 268 489C282.5 462 303.5 441 326 471.5C348.5 502 360.5 526 376 507.5C391.5 489 404.5 467.5 422.5 487.5C440.5 507.5 450.5 518 458 495.5C465.5 473 477 425.5 482 411C487 396.5 495.5 392.5 501.5 414.5C507.5 436.5 517 470.5 523 483C529 495.5 530.5 500.5 542 489C553.5 477.5 566 463.5 569.5 464" stroke="#E7BC4F" stroke-width="1.2" stroke-linecap="round"/>
<path d="M194 489.5C199.333 501.5 213.8 529.3 229 544.5C248 563.5 263 560.5 283.5 535C304 509.5 315.5 485 342.5 481.5C369.5 478 372 475 386 470C400 465 408 467 427.5 482.5C447 498 455 498.5 481.5 478C508 457.5 521 438.5 544 461C562.4 479 568.833 485.667 569.5 486.5" stroke="#44B48C" stroke-width="1.2" stroke-linecap="round"/>
<path d="M194 516.5C197.667 505.5 209.1 478 225.5 456C246 428.5 249 431 264 438C279 445 273.5 447 292.5 446.5C311.5 446 314.5 449.5 325 468.5C335.5 487.5 339.5 499 351 512C362.5 525 367 522 378.5 531.5C390 541 394.5 542.5 406.5 533.5C418.5 524.5 431 515 460 537C489 559 499.5 546.5 519 521.5C538.5 496.5 544 498.5 569.5 507.5" stroke="#8766E7" stroke-width="1.2" stroke-linecap="round"/>
<path opacity="0.7" d="M191.2 572.03C191.2 573.27 191.94 574.12 193.23 574.12C194.44 574.12 195.28 573.34 195.28 572.04V566.84H194.56V572.02C194.56 572.87 194.14 573.44 193.23 573.44C192.36 573.44 191.9 572.88 191.9 572.03V571.75H191.2V572.03ZM200.218 569.16V571.73C200.218 572.88 199.668 573.5 198.738 573.5C197.968 573.5 197.458 573.09 197.458 571.94V569.15H196.758V572.16C196.758 573.34 197.378 574.12 198.518 574.12C199.278 574.12 199.948 573.74 200.218 573.18L200.308 574H200.908V569.16H200.218ZM203.065 574V566.71H202.375V574H203.065ZM204.043 576.11C204.263 576.16 204.483 576.18 204.773 576.18C205.463 576.18 205.933 575.87 206.213 575.11L208.433 569.16H207.723L206.193 573.38L204.633 569.16H203.903L205.863 574.29L205.653 574.86C205.413 575.51 204.993 575.54 204.573 575.54H204.043V576.11ZM213.103 567.49V574H213.793V566.84H211.643V567.49H213.103Z" fill="#0A0F0D"/>
<path opacity="0.7" d="M160.54 478.99H161.07V478.11C162.38 478.01 163.21 477.24 163.21 476.09C163.21 475.13 162.64 474.5 161.51 474.22L161.07 474.11V471.36C161.84 471.44 162.3 471.88 162.37 472.63H163.09C162.99 471.5 162.23 470.8 161.07 470.72V469.85H160.54V470.72C159.27 470.82 158.44 471.59 158.44 472.7C158.44 473.68 159.03 474.31 160.15 474.58L160.54 474.68V477.46C159.68 477.39 159.13 476.92 159.09 476.22H158.35C158.43 477.32 159.28 478.04 160.54 478.11V478.99ZM160.28 473.92C159.52 473.73 159.15 473.32 159.15 472.69C159.15 471.96 159.69 471.46 160.54 471.37V473.98L160.28 473.92ZM161.36 474.88C162.13 475.06 162.5 475.48 162.5 476.13C162.5 476.87 161.95 477.37 161.07 477.46V474.81L161.36 474.88ZM168.805 478V477.33H165.195L166.865 475.87C168.295 474.62 168.765 473.93 168.765 472.89C168.765 471.58 167.865 470.71 166.515 470.71C165.105 470.71 164.155 471.7 164.115 473.2H164.835C164.865 472.09 165.515 471.37 166.505 471.37C167.455 471.37 168.035 471.96 168.035 472.93C168.035 473.78 167.695 474.28 166.375 475.43L164.085 477.43V478H168.805ZM169.8 474.42C169.8 476.65 170.87 478.13 172.67 478.13C174.46 478.13 175.53 476.65 175.53 474.42C175.53 472.2 174.44 470.7 172.67 470.7C170.89 470.7 169.8 472.2 169.8 474.42ZM170.51 474.42C170.51 472.55 171.3 471.36 172.67 471.36C174.04 471.36 174.83 472.55 174.83 474.42C174.83 476.28 174.04 477.48 172.67 477.48C171.3 477.48 170.51 476.28 170.51 474.42ZM176.626 474.42C176.626 476.65 177.696 478.13 179.496 478.13C181.286 478.13 182.356 476.65 182.356 474.42C182.356 472.2 181.266 470.7 179.496 470.7C177.716 470.7 176.626 472.2 176.626 474.42ZM177.336 474.42C177.336 472.55 178.126 471.36 179.496 471.36C180.866 471.36 181.656 472.55 181.656 474.42C181.656 476.28 180.866 477.48 179.496 477.48C178.126 477.48 177.336 476.28 177.336 474.42ZM184.342 478V476.55L185.282 475.58L186.822 478H187.622L185.752 475.09L187.612 473.16H186.742L184.342 475.66V470.71H183.652V478H184.342Z" fill="#0A0F0D"/>
<path opacity="0.7" d="M160.54 386.99H161.07V386.11C162.38 386.01 163.21 385.24 163.21 384.09C163.21 383.13 162.64 382.5 161.51 382.22L161.07 382.11V379.36C161.84 379.44 162.3 379.88 162.37 380.63H163.09C162.99 379.5 162.23 378.8 161.07 378.72V377.85H160.54V378.72C159.27 378.82 158.44 379.59 158.44 380.7C158.44 381.68 159.03 382.31 160.15 382.58L160.54 382.68V385.46C159.68 385.39 159.13 384.92 159.09 384.22H158.35C158.43 385.32 159.28 386.04 160.54 386.11V386.99ZM160.28 381.92C159.52 381.73 159.15 381.32 159.15 380.69C159.15 379.96 159.69 379.46 160.54 379.37V381.98L160.28 381.92ZM161.36 382.88C162.13 383.06 162.5 383.48 162.5 384.13C162.5 384.87 161.95 385.37 161.07 385.46V382.81L161.36 382.88ZM169.335 384.48V383.84H168.495V378.84H167.535L164.035 383.84V384.48H167.795V386H168.495V384.48H169.335ZM164.815 383.84L167.795 379.58V383.84H164.815ZM170.454 382.42C170.454 384.65 171.524 386.13 173.324 386.13C175.114 386.13 176.184 384.65 176.184 382.42C176.184 380.2 175.094 378.7 173.324 378.7C171.544 378.7 170.454 380.2 170.454 382.42ZM171.164 382.42C171.164 380.55 171.954 379.36 173.324 379.36C174.694 379.36 175.484 380.55 175.484 382.42C175.484 384.28 174.694 385.48 173.324 385.48C171.954 385.48 171.164 384.28 171.164 382.42ZM177.28 382.42C177.28 384.65 178.35 386.13 180.15 386.13C181.94 386.13 183.01 384.65 183.01 382.42C183.01 380.2 181.92 378.7 180.15 378.7C178.37 378.7 177.28 380.2 177.28 382.42ZM177.99 382.42C177.99 380.55 178.78 379.36 180.15 379.36C181.52 379.36 182.31 380.55 182.31 382.42C182.31 384.28 181.52 385.48 180.15 385.48C178.78 385.48 177.99 384.28 177.99 382.42ZM184.997 386V384.55L185.937 383.58L187.477 386H188.277L186.407 383.09L188.267 381.16H187.397L184.997 383.66V378.71H184.307V386H184.997Z" fill="#0A0F0D"/>
<path opacity="0.7" d="M368.87 574L369.57 572.1H372.87L373.57 574H374.32L371.66 566.84H370.77L368.14 574H368.87ZM371.12 567.85C371.16 567.75 371.2 567.62 371.21 567.56C371.22 567.63 371.27 567.75 371.3 567.85L372.64 571.47H369.79L371.12 567.85ZM378.477 569.16V571.73C378.477 572.88 377.927 573.5 376.997 573.5C376.227 573.5 375.717 573.09 375.717 571.94V569.15H375.017V572.16C375.017 573.34 375.637 574.12 376.777 574.12C377.537 574.12 378.207 573.74 378.477 573.18L378.567 574H379.167V569.16H378.477ZM380.275 571.44C380.275 572.76 381.115 573.85 382.495 573.85C383.325 573.85 383.995 573.45 384.325 572.77V573.92C384.325 574.93 383.665 575.6 382.675 575.6C381.805 575.6 381.205 575.14 381.055 574.36H380.365C380.555 575.53 381.425 576.23 382.665 576.23C384.085 576.23 385.005 575.29 385.005 573.85V569.16H384.405L384.335 570.13C384.025 569.42 383.385 569.03 382.545 569.03C381.125 569.03 380.275 570.12 380.275 571.44ZM380.965 571.43C380.965 570.45 381.565 569.64 382.605 569.64C383.665 569.64 384.265 570.4 384.265 571.43C384.265 572.47 383.645 573.23 382.595 573.23C381.575 573.23 380.965 572.42 380.965 571.43ZM390.308 567.49V574H390.998V566.84H388.848V567.49H390.308Z" fill="#0A0F0D"/>
<path opacity="0.7" d="M545.44 568.7C545.44 569.68 546.03 570.32 547.15 570.59L548.36 570.89C549.13 571.07 549.49 571.49 549.49 572.13C549.49 572.95 548.82 573.46 547.77 573.46C546.79 573.46 546.13 572.97 546.09 572.22H545.35C545.44 573.39 546.38 574.12 547.77 574.12C549.25 574.12 550.21 573.33 550.21 572.09C550.21 571.12 549.63 570.48 548.51 570.21L547.28 569.91C546.53 569.72 546.16 569.32 546.16 568.69C546.16 567.88 546.82 567.36 547.83 567.36C548.73 567.36 549.28 567.82 549.36 568.63H550.09C549.98 567.43 549.13 566.71 547.84 566.71C546.4 566.71 545.44 567.5 545.44 568.7ZM553.385 574.12C554.525 574.12 555.275 573.57 555.535 572.55H554.875C554.695 573.19 554.185 573.53 553.395 573.53C552.355 573.53 551.735 572.85 551.685 571.67H555.535V571.33C555.535 569.96 554.645 569.03 553.335 569.03C551.955 569.03 551.015 570.07 551.015 571.58C551.015 573.1 551.965 574.12 553.385 574.12ZM553.335 569.62C554.245 569.62 554.845 570.24 554.845 571.17H551.705C551.825 570.22 552.425 569.62 553.335 569.62ZM556.638 576.11H557.328V573.07C557.668 573.77 558.318 574.12 559.138 574.12C560.568 574.12 561.378 573.02 561.378 571.56C561.378 570.1 560.538 569.03 559.138 569.03C558.328 569.03 557.648 569.39 557.308 570.14L557.238 569.16H556.638V576.11ZM557.338 571.58C557.338 570.46 557.958 569.66 559.018 569.66C560.068 569.66 560.678 570.46 560.678 571.58C560.678 572.69 560.068 573.5 559.018 573.5C557.958 573.5 557.338 572.69 557.338 571.58Z" fill="#0A0F0D"/>
<path opacity="0.1" d="M249 315V353" stroke="black" stroke-linecap="round"/>
<path opacity="0.5" d="M164.12 315.5H166.32V322H167.04V315.5H169.25V314.84H164.12V315.5ZM169.009 319.58C169.009 321.05 170.049 322.12 171.469 322.12C172.889 322.12 173.929 321.05 173.929 319.58C173.929 318.1 172.889 317.03 171.469 317.03C170.049 317.03 169.009 318.1 169.009 319.58ZM169.709 319.57C169.709 318.45 170.429 317.65 171.469 317.65C172.499 317.65 173.229 318.45 173.229 319.57C173.229 320.71 172.499 321.5 171.469 321.5C170.429 321.5 169.709 320.71 169.709 319.57ZM176.094 322V317.74H177.064V317.16H176.094V315.63H175.414V317.16H174.444V317.74H175.414V322H176.094ZM179.274 322.12C180.094 322.12 180.754 321.76 181.054 321.15L181.144 322H181.724V318.87C181.724 317.59 180.904 317.03 179.784 317.03C178.594 317.03 177.794 317.66 177.794 318.64H178.424C178.424 317.99 178.924 317.61 179.764 317.61C180.474 317.61 181.044 317.91 181.044 318.86V319.02L179.444 319.15C178.314 319.24 177.634 319.8 177.634 320.69C177.634 321.54 178.244 322.12 179.274 322.12ZM179.434 321.56C178.774 321.56 178.334 321.26 178.334 320.67C178.334 320.13 178.704 319.73 179.614 319.65L181.044 319.54V319.8C181.044 320.85 180.454 321.56 179.434 321.56ZM183.829 322V314.71H183.139V322H183.829ZM187.66 320.64C187.66 321.54 188.34 322.12 189.43 322.12C190.53 322.12 191.27 321.55 191.27 320.68C191.27 319.98 190.89 319.59 190.05 319.38L189.22 319.17C188.69 319.04 188.43 318.78 188.43 318.41C188.43 317.89 188.81 317.6 189.49 317.6C190.14 317.6 190.53 317.93 190.55 318.49H191.22C191.19 317.59 190.53 317.03 189.51 317.03C188.47 317.03 187.76 317.57 187.76 318.42C187.76 319.08 188.17 319.52 189.01 319.73L189.84 319.94C190.41 320.08 190.61 320.31 190.61 320.71C190.61 321.23 190.17 321.55 189.42 321.55C188.74 321.55 188.32 321.2 188.32 320.64H187.66ZM192.406 324.11H193.096V321.07C193.436 321.77 194.086 322.12 194.906 322.12C196.336 322.12 197.146 321.02 197.146 319.56C197.146 318.1 196.306 317.03 194.906 317.03C194.096 317.03 193.416 317.39 193.076 318.14L193.006 317.16H192.406V324.11ZM193.106 319.58C193.106 318.46 193.726 317.66 194.786 317.66C195.836 317.66 196.446 318.46 196.446 319.58C196.446 320.69 195.836 321.5 194.786 321.5C193.726 321.5 193.106 320.69 193.106 319.58ZM200.275 322.12C201.415 322.12 202.165 321.57 202.425 320.55H201.765C201.585 321.19 201.075 321.53 200.285 321.53C199.245 321.53 198.625 320.85 198.575 319.67H202.425V319.33C202.425 317.96 201.535 317.03 200.225 317.03C198.845 317.03 197.905 318.07 197.905 319.58C197.905 321.1 198.855 322.12 200.275 322.12ZM200.225 317.62C201.135 317.62 201.735 318.24 201.735 319.17H198.595C198.715 318.22 199.315 317.62 200.225 317.62ZM204.219 322V319.47C204.219 318.38 204.779 317.66 205.769 317.66C206.569 317.66 207.079 318.06 207.079 319.19V322H207.769V319.04C207.769 317.82 207.219 317.03 205.889 317.03C205.189 317.03 204.549 317.38 204.229 318L204.129 317.16H203.529V322H204.219ZM211.044 322.12C211.854 322.12 212.534 321.76 212.874 321.01L212.944 322H213.544V314.71H212.854V318.08C212.514 317.38 211.874 317.03 211.074 317.03C209.634 317.03 208.804 318.13 208.804 319.59C208.804 321.04 209.634 322.12 211.044 322.12ZM211.164 321.49C210.114 321.49 209.504 320.69 209.504 319.57C209.504 318.46 210.114 317.65 211.164 317.65C212.224 317.65 212.844 318.46 212.844 319.57C212.844 320.69 212.224 321.49 211.164 321.49Z" fill="#0A0F0D"/>
<path opacity="0.8" d="M168.112 342.552H169.136V341.16C171.248 340.968 172.608 339.688 172.608 337.784C172.608 336.184 171.68 335.176 169.76 334.744L169.136 334.6V330.632C170.176 330.776 170.8 331.432 170.864 332.456H172.416C172.304 330.6 171.072 329.416 169.136 329.24V327.864H168.112V329.256C166.032 329.432 164.672 330.728 164.672 332.552C164.672 334.2 165.648 335.256 167.536 335.688L168.112 335.816V339.8C166.896 339.672 166.144 339 166.112 337.976H164.512C164.608 339.848 166 341.048 168.112 341.176V342.552ZM167.856 334.296C166.736 334.024 166.208 333.432 166.208 332.504C166.208 331.48 166.928 330.792 168.112 330.632V334.36L167.856 334.296ZM169.44 336.136C170.544 336.392 171.072 336.984 171.072 337.912C171.072 338.92 170.336 339.608 169.136 339.768V336.072L169.44 336.136ZM177.33 335.016C179.17 335.016 180.13 335.944 180.13 337.336C180.13 338.824 179.154 339.784 177.65 339.784C176.194 339.784 175.266 338.904 175.266 337.4H173.714C173.714 339.8 175.346 341.192 177.618 341.192C179.97 341.192 181.73 339.704 181.73 337.368C181.73 335.288 180.242 333.96 178.274 333.72L181.442 330.696V329.432H174.258V330.824H179.458L176.178 333.976V335.016H177.33ZM191.72 338.664V337.272H190.345V329.432H188.313L182.857 337.272V338.664H188.841V341H190.345V338.664H191.72ZM184.553 337.272L188.841 331.096V337.272H184.553ZM196.985 341.192C199.481 341.192 201.193 339.512 201.193 337.112C201.193 334.888 199.673 333.24 197.321 333.24C196.457 333.24 195.689 333.48 195.081 333.944L195.849 330.872H200.505V329.432H194.713L193.305 335.368L194.633 335.704C195.161 335.048 196.057 334.584 197.033 334.584C198.649 334.584 199.593 335.688 199.593 337.176C199.593 338.744 198.585 339.784 197.016 339.784C195.545 339.784 194.633 338.872 194.633 337.384H193.081C193.081 339.688 194.617 341.192 196.985 341.192ZM204.766 340.376C204.766 339.496 204.222 338.936 203.55 338.936C202.91 338.936 202.478 339.4 202.478 340.04C202.478 340.632 202.926 341.016 203.454 341.016C203.646 341.016 203.774 340.984 203.886 340.92C203.886 341.416 203.422 341.848 202.766 341.96V342.632C203.902 342.488 204.766 341.528 204.766 340.376ZM210.172 341.192C212.668 341.192 214.38 339.512 214.38 337.112C214.38 334.888 212.86 333.24 210.508 333.24C209.644 333.24 208.876 333.48 208.268 333.944L209.036 330.872H213.692V329.432H207.9L206.492 335.368L207.82 335.704C208.348 335.048 209.244 334.584 210.22 334.584C211.836 334.584 212.78 335.688 212.78 337.176C212.78 338.744 211.772 339.784 210.204 339.784C208.732 339.784 207.82 338.872 207.82 337.384H206.268C206.268 339.688 207.804 341.192 210.172 341.192ZM215.737 335.224C215.737 338.824 217.513 341.208 220.505 341.208C223.481 341.208 225.257 338.824 225.257 335.224C225.257 331.64 223.401 329.208 220.505 329.208C217.593 329.208 215.737 331.64 215.737 335.224ZM217.289 335.224C217.289 332.344 218.473 330.616 220.505 330.616C222.537 330.616 223.705 332.344 223.705 335.224C223.705 338.072 222.537 339.8 220.505 339.8C218.473 339.8 217.289 338.072 217.289 335.224ZM226.831 335.224C226.831 338.824 228.607 341.208 231.599 341.208C234.575 341.208 236.351 338.824 236.351 335.224C236.351 331.64 234.495 329.208 231.599 329.208C228.687 329.208 226.831 331.64 226.831 335.224ZM228.383 335.224C228.383 332.344 229.567 330.616 231.599 330.616C233.631 330.616 234.799 332.344 234.799 335.224C234.799 338.072 233.631 339.8 231.599 339.8C229.567 339.8 228.383 338.072 228.383 335.224Z" fill="#0A0F0D"/>
<line opacity="0.8" x1="164" y1="350.25" x2="237" y2="350.25" stroke="#0A0F0D" stroke-width="1.5" stroke-dasharray="3 3"/>
<path opacity="0.5" d="M269.44 316.7C269.44 317.68 270.03 318.32 271.15 318.59L272.36 318.89C273.13 319.07 273.49 319.49 273.49 320.13C273.49 320.95 272.82 321.46 271.77 321.46C270.79 321.46 270.13 320.97 270.09 320.22H269.35C269.44 321.39 270.38 322.12 271.77 322.12C273.25 322.12 274.21 321.33 274.21 320.09C274.21 319.12 273.63 318.48 272.51 318.21L271.28 317.91C270.53 317.72 270.16 317.32 270.16 316.69C270.16 315.88 270.82 315.36 271.83 315.36C272.73 315.36 273.28 315.82 273.36 316.63H274.09C273.98 315.43 273.13 314.71 271.84 314.71C270.4 314.71 269.44 315.5 269.44 316.7ZM276.045 322V319.47C276.045 318.38 276.605 317.66 277.595 317.66C278.395 317.66 278.905 318.06 278.905 319.19V322H279.595V319.04C279.595 317.82 279.045 317.03 277.715 317.03C277.015 317.03 276.375 317.38 276.055 318L275.955 317.16H275.355V322H276.045ZM282.36 322.12C283.18 322.12 283.84 321.76 284.14 321.15L284.23 322H284.81V318.87C284.81 317.59 283.99 317.03 282.87 317.03C281.68 317.03 280.88 317.66 280.88 318.64H281.51C281.51 317.99 282.01 317.61 282.85 317.61C283.56 317.61 284.13 317.91 284.13 318.86V319.02L282.53 319.15C281.4 319.24 280.72 319.8 280.72 320.69C280.72 321.54 281.33 322.12 282.36 322.12ZM282.52 321.56C281.86 321.56 281.42 321.26 281.42 320.67C281.42 320.13 281.79 319.73 282.7 319.65L284.13 319.54V319.8C284.13 320.85 283.54 321.56 282.52 321.56ZM286.195 324.11H286.885V321.07C287.225 321.77 287.875 322.12 288.695 322.12C290.125 322.12 290.935 321.02 290.935 319.56C290.935 318.1 290.095 317.03 288.695 317.03C287.885 317.03 287.205 317.39 286.865 318.14L286.795 317.16H286.195V324.11ZM286.895 319.58C286.895 318.46 287.515 317.66 288.575 317.66C289.625 317.66 290.235 318.46 290.235 319.58C290.235 320.69 289.625 321.5 288.575 321.5C287.515 321.5 286.895 320.69 286.895 319.58ZM291.694 319.59C291.694 321.11 292.624 322.12 293.994 322.12C295.094 322.12 295.954 321.47 296.184 320.48H295.484C295.294 321.1 294.714 321.5 293.994 321.5C293.014 321.5 292.374 320.73 292.374 319.58C292.374 318.39 293.064 317.64 294.044 317.64C294.714 317.64 295.294 318.01 295.474 318.68H296.164C295.974 317.68 295.154 317.03 294.034 317.03C292.624 317.03 291.694 318.07 291.694 319.59ZM297.92 321.99V319.36C297.92 318.43 298.46 317.66 299.5 317.66C300.25 317.66 300.78 318.06 300.78 319.19V322H301.47V319.04C301.47 317.82 300.9 317.03 299.63 317.03C298.82 317.03 298.23 317.42 297.92 318V314.71H297.23V321.99H297.92ZM304.235 322.12C305.055 322.12 305.715 321.76 306.015 321.15L306.105 322H306.685V318.87C306.685 317.59 305.865 317.03 304.745 317.03C303.555 317.03 302.755 317.66 302.755 318.64H303.385C303.385 317.99 303.885 317.61 304.725 317.61C305.435 317.61 306.005 317.91 306.005 318.86V319.02L304.405 319.15C303.275 319.24 302.595 319.8 302.595 320.69C302.595 321.54 303.205 322.12 304.235 322.12ZM304.395 321.56C303.735 321.56 303.295 321.26 303.295 320.67C303.295 320.13 303.665 319.73 304.575 319.65L306.005 319.54V319.8C306.005 320.85 305.415 321.56 304.395 321.56ZM309.092 322V317.74H310.062V317.16H309.092V315.63H308.412V317.16H307.442V317.74H308.412V322H309.092Z" fill="#0A0F0D"/>
<path opacity="0.8" d="M273.112 342.552H274.136V341.16C276.248 340.968 277.608 339.688 277.608 337.784C277.608 336.184 276.68 335.176 274.76 334.744L274.136 334.6V330.632C275.176 330.776 275.8 331.432 275.864 332.456H277.416C277.304 330.6 276.072 329.416 274.136 329.24V327.864H273.112V329.256C271.032 329.432 269.672 330.728 269.672 332.552C269.672 334.2 270.648 335.256 272.536 335.688L273.112 335.816V339.8C271.896 339.672 271.144 339 271.112 337.976H269.512C269.608 339.848 271 341.048 273.112 341.176V342.552ZM272.856 334.296C271.736 334.024 271.208 333.432 271.208 332.504C271.208 331.48 271.928 330.792 273.112 330.632V334.36L272.856 334.296ZM274.44 336.136C275.544 336.392 276.072 336.984 276.072 337.912C276.072 338.92 275.336 339.608 274.136 339.768V336.072L274.44 336.136ZM286.778 340.984V339.528H281.434L283.834 337.448C285.882 335.672 286.698 334.504 286.698 332.856C286.698 330.632 285.21 329.224 282.89 329.224C280.538 329.224 278.97 330.84 278.922 333.32H280.49C280.522 331.672 281.45 330.632 282.874 330.632C284.266 330.632 285.098 331.496 285.098 332.952C285.098 334.184 284.57 334.968 282.698 336.584L278.97 339.8V341L286.778 340.984ZM294.958 337.336C296.142 335.72 296.558 334.744 296.558 333.384C296.558 331.032 294.702 329.224 292.302 329.224C289.918 329.224 288.094 330.968 288.094 333.368C288.094 335.672 289.71 337.4 292.11 337.4C292.51 337.4 292.926 337.32 293.326 337.16L290.43 341H292.254L294.958 337.336ZM294.958 333.368C294.958 334.952 293.87 336.072 292.302 336.072C290.766 336.072 289.678 334.952 289.678 333.368C289.678 331.784 290.766 330.632 292.302 330.632C293.87 330.632 294.958 331.784 294.958 333.368ZM306.205 338.664V337.272H304.829V329.432H302.797L297.341 337.272V338.664H303.325V341H304.829V338.664H306.205ZM299.037 337.272L303.325 331.096V337.272H299.037ZM309.969 340.376C309.969 339.496 309.425 338.936 308.753 338.936C308.113 338.936 307.681 339.4 307.681 340.04C307.681 340.632 308.129 341.016 308.657 341.016C308.849 341.016 308.977 340.984 309.089 340.92C309.089 341.416 308.625 341.848 307.969 341.96V342.632C309.105 342.488 309.969 341.528 309.969 340.376ZM319.591 340.984V339.528H314.247L316.647 337.448C318.695 335.672 319.511 334.504 319.511 332.856C319.511 330.632 318.023 329.224 315.703 329.224C313.351 329.224 311.783 330.84 311.735 333.32H313.303C313.335 331.672 314.263 330.632 315.687 330.632C317.079 330.632 317.911 331.496 317.911 332.952C317.911 334.184 317.383 334.968 315.511 336.584L311.783 339.8V341L319.591 340.984ZM328.857 340.984V339.528H323.513L325.913 337.448C327.961 335.672 328.777 334.504 328.777 332.856C328.777 330.632 327.289 329.224 324.969 329.224C322.617 329.224 321.049 330.84 321.001 333.32H322.569C322.601 331.672 323.529 330.632 324.953 330.632C326.345 330.632 327.177 331.496 327.177 332.952C327.177 334.184 326.649 334.968 324.777 336.584L321.049 339.8V341L328.857 340.984ZM330.3 335.224C330.3 338.824 332.076 341.208 335.068 341.208C338.044 341.208 339.82 338.824 339.82 335.224C339.82 331.64 337.964 329.208 335.068 329.208C332.156 329.208 330.3 331.64 330.3 335.224ZM331.852 335.224C331.852 332.344 333.036 330.616 335.068 330.616C337.1 330.616 338.268 332.344 338.268 335.224C338.268 338.072 337.1 339.8 335.068 339.8C333.036 339.8 331.852 338.072 331.852 335.224Z" fill="#0A0F0D"/>
<line x1="269.75" y1="350.25" x2="339.25" y2="350.25" stroke="#E7BC4F" stroke-width="1.5" stroke-linecap="round"/>
<path opacity="0.5" d="M365.52 318.85V318.2H362.59V315.5H366.09V314.84H361.87V322H362.59V318.85H365.52ZM368.139 322.12C368.959 322.12 369.619 321.76 369.919 321.15L370.009 322H370.589V318.87C370.589 317.59 369.769 317.03 368.649 317.03C367.459 317.03 366.659 317.66 366.659 318.64H367.289C367.289 317.99 367.789 317.61 368.629 317.61C369.339 317.61 369.909 317.91 369.909 318.86V319.02L368.309 319.15C367.179 319.24 366.499 319.8 366.499 320.69C366.499 321.54 367.109 322.12 368.139 322.12ZM368.299 321.56C367.639 321.56 367.199 321.26 367.199 320.67C367.199 320.13 367.569 319.73 368.479 319.65L369.909 319.54V319.8C369.909 320.85 369.319 321.56 368.299 321.56ZM371.634 319.59C371.634 321.11 372.564 322.12 373.934 322.12C375.034 322.12 375.894 321.47 376.124 320.48H375.424C375.234 321.1 374.654 321.5 373.934 321.5C372.954 321.5 372.314 320.73 372.314 319.58C372.314 318.39 373.004 317.64 373.984 317.64C374.654 317.64 375.234 318.01 375.414 318.68H376.104C375.914 317.68 375.094 317.03 373.974 317.03C372.564 317.03 371.634 318.07 371.634 319.59ZM379.199 322.12C380.339 322.12 381.089 321.57 381.349 320.55H380.689C380.509 321.19 379.999 321.53 379.209 321.53C378.169 321.53 377.549 320.85 377.499 319.67H381.349V319.33C381.349 317.96 380.459 317.03 379.149 317.03C377.769 317.03 376.829 318.07 376.829 319.58C376.829 321.1 377.779 322.12 379.199 322.12ZM379.149 317.62C380.059 317.62 380.659 318.24 380.659 319.17H377.519C377.639 318.22 378.239 317.62 379.149 317.62ZM383.052 322L383.122 321.01C383.462 321.76 384.132 322.12 384.942 322.12C386.352 322.12 387.192 321.04 387.192 319.59C387.192 318.13 386.372 317.03 384.962 317.03C384.142 317.03 383.482 317.39 383.142 318.1V314.71H382.452V322H383.052ZM383.152 319.57C383.152 318.46 383.772 317.65 384.832 317.65C385.882 317.65 386.492 318.46 386.492 319.57C386.492 320.69 385.882 321.49 384.832 321.49C383.772 321.49 383.152 320.69 383.152 319.57ZM387.952 319.58C387.952 321.05 388.992 322.12 390.412 322.12C391.832 322.12 392.872 321.05 392.872 319.58C392.872 318.1 391.832 317.03 390.412 317.03C388.992 317.03 387.952 318.1 387.952 319.58ZM388.652 319.57C388.652 318.45 389.372 317.65 390.412 317.65C391.442 317.65 392.172 318.45 392.172 319.57C392.172 320.71 391.442 321.5 390.412 321.5C389.372 321.5 388.652 320.71 388.652 319.57ZM393.636 319.58C393.636 321.05 394.676 322.12 396.096 322.12C397.516 322.12 398.556 321.05 398.556 319.58C398.556 318.1 397.516 317.03 396.096 317.03C394.676 317.03 393.636 318.1 393.636 319.58ZM394.336 319.57C394.336 318.45 395.056 317.65 396.096 317.65C397.126 317.65 397.856 318.45 397.856 319.57C397.856 320.71 397.126 321.5 396.096 321.5C395.056 321.5 394.336 320.71 394.336 319.57ZM400.379 322V320.55L401.319 319.58L402.859 322H403.659L401.789 319.09L403.649 317.16H402.779L400.379 319.66V314.71H399.689V322H400.379Z" fill="#0A0F0D"/>
<path opacity="0.8" d="M365.112 342.552H366.136V341.16C368.248 340.968 369.608 339.688 369.608 337.784C369.608 336.184 368.68 335.176 366.76 334.744L366.136 334.6V330.632C367.176 330.776 367.8 331.432 367.864 332.456H369.416C369.304 330.6 368.072 329.416 366.136 329.24V327.864H365.112V329.256C363.032 329.432 361.672 330.728 361.672 332.552C361.672 334.2 362.648 335.256 364.536 335.688L365.112 335.816V339.8C363.896 339.672 363.144 339 363.112 337.976H361.512C361.608 339.848 363 341.048 365.112 341.176V342.552ZM364.856 334.296C363.736 334.024 363.208 333.432 363.208 332.504C363.208 331.48 363.928 330.792 365.112 330.632V334.36L364.856 334.296ZM366.44 336.136C367.544 336.392 368.072 336.984 368.072 337.912C368.072 338.92 367.336 339.608 366.136 339.768V336.072L366.44 336.136ZM378.778 340.984V339.528H373.434L375.834 337.448C377.882 335.672 378.698 334.504 378.698 332.856C378.698 330.632 377.21 329.224 374.89 329.224C372.538 329.224 370.97 330.84 370.922 333.32H372.49C372.522 331.672 373.45 330.632 374.874 330.632C376.266 330.632 377.098 331.496 377.098 332.952C377.098 334.184 376.57 334.968 374.698 336.584L370.97 339.8V341L378.778 340.984ZM386.958 337.336C388.142 335.72 388.558 334.744 388.558 333.384C388.558 331.032 386.702 329.224 384.302 329.224C381.918 329.224 380.094 330.968 380.094 333.368C380.094 335.672 381.71 337.4 384.11 337.4C384.51 337.4 384.926 337.32 385.326 337.16L382.43 341H384.254L386.958 337.336ZM386.958 333.368C386.958 334.952 385.87 336.072 384.302 336.072C382.766 336.072 381.678 334.952 381.678 333.368C381.678 331.784 382.766 330.632 384.302 330.632C385.87 330.632 386.958 331.784 386.958 333.368ZM397.7 340.984V339.528H392.356L394.756 337.448C396.804 335.672 397.62 334.504 397.62 332.856C397.62 330.632 396.132 329.224 393.812 329.224C391.46 329.224 389.892 330.84 389.844 333.32H391.412C391.444 331.672 392.372 330.632 393.796 330.632C395.188 330.632 396.02 331.496 396.02 332.952C396.02 334.184 395.492 334.968 393.62 336.584L389.892 339.8V341L397.7 340.984ZM401.844 340.376C401.844 339.496 401.3 338.936 400.628 338.936C399.988 338.936 399.556 339.4 399.556 340.04C399.556 340.632 400.004 341.016 400.532 341.016C400.724 341.016 400.852 340.984 400.964 340.92C400.964 341.416 400.5 341.848 399.844 341.96V342.632C400.98 342.488 401.844 341.528 401.844 340.376ZM404.617 330.84V341H406.121V329.432H402.185V330.84H404.617ZM408.143 337.784C408.143 339.832 409.823 341.192 412.399 341.192C414.959 341.192 416.655 339.832 416.655 337.8C416.655 336.376 415.823 335.224 414.527 334.808C415.615 334.376 416.223 333.464 416.223 332.28C416.223 330.456 414.687 329.224 412.415 329.224C410.111 329.224 408.559 330.456 408.559 332.264C408.559 333.432 409.151 334.344 410.239 334.808C408.959 335.272 408.143 336.392 408.143 337.784ZM409.999 332.36C409.999 331.288 410.943 330.584 412.383 330.584C413.839 330.584 414.751 331.288 414.751 332.392C414.751 333.512 413.839 334.232 412.383 334.232C410.943 334.232 409.999 333.496 409.999 332.36ZM409.679 337.672C409.679 336.392 410.735 335.576 412.383 335.576C414.047 335.576 415.103 336.392 415.103 337.672C415.103 338.968 414.031 339.8 412.399 339.8C410.751 339.8 409.679 338.968 409.679 337.672ZM424.911 337.336C426.095 335.72 426.511 334.744 426.511 333.384C426.511 331.032 424.655 329.224 422.255 329.224C419.871 329.224 418.047 330.968 418.047 333.368C418.047 335.672 419.663 337.4 422.063 337.4C422.463 337.4 422.879 337.32 423.279 337.16L420.383 341H422.207L424.911 337.336ZM424.911 333.368C424.911 334.952 423.823 336.072 422.255 336.072C420.719 336.072 419.631 334.952 419.631 333.368C419.631 331.784 420.719 330.632 422.255 330.632C423.823 330.632 424.911 331.784 424.911 333.368Z" fill="#0A0F0D"/>
<line opacity="0.8" x1="361.75" y1="350.25" x2="426.25" y2="350.25" stroke="#8766E7" stroke-width="1.5" stroke-linecap="round"/>
<path opacity="0.5" d="M451.87 315.4C452.92 315.4 453.76 315.9 454.06 316.88H454.84C454.56 315.58 453.39 314.72 451.88 314.72C449.83 314.72 448.43 316.26 448.43 318.45C448.43 320.66 449.83 322.12 451.86 322.12C453.02 322.12 453.92 321.58 454.3 320.87L454.37 322.01H454.94V318.13H451.67V318.77H454.26V319.14C454.26 320.86 453.09 321.44 451.89 321.44C450.28 321.44 449.18 320.31 449.18 318.45C449.18 316.62 450.22 315.4 451.87 315.4ZM455.88 319.58C455.88 321.05 456.92 322.12 458.34 322.12C459.76 322.12 460.8 321.05 460.8 319.58C460.8 318.1 459.76 317.03 458.34 317.03C456.92 317.03 455.88 318.1 455.88 319.58ZM456.58 319.57C456.58 318.45 457.3 317.65 458.34 317.65C459.37 317.65 460.1 318.45 460.1 319.57C460.1 320.71 459.37 321.5 458.34 321.5C457.3 321.5 456.58 320.71 456.58 319.57ZM461.564 319.58C461.564 321.05 462.604 322.12 464.024 322.12C465.444 322.12 466.484 321.05 466.484 319.58C466.484 318.1 465.444 317.03 464.024 317.03C462.604 317.03 461.564 318.1 461.564 319.58ZM462.264 319.57C462.264 318.45 462.984 317.65 464.024 317.65C465.054 317.65 465.784 318.45 465.784 319.57C465.784 320.71 465.054 321.5 464.024 321.5C462.984 321.5 462.264 320.71 462.264 319.57ZM467.257 319.44C467.257 320.76 468.097 321.85 469.477 321.85C470.307 321.85 470.977 321.45 471.307 320.77V321.92C471.307 322.93 470.647 323.6 469.657 323.6C468.787 323.6 468.187 323.14 468.037 322.36H467.347C467.537 323.53 468.407 324.23 469.647 324.23C471.067 324.23 471.987 323.29 471.987 321.85V317.16H471.387L471.317 318.13C471.007 317.42 470.367 317.03 469.527 317.03C468.107 317.03 467.257 318.12 467.257 319.44ZM467.947 319.43C467.947 318.45 468.547 317.64 469.587 317.64C470.647 317.64 471.247 318.4 471.247 319.43C471.247 320.47 470.627 321.23 469.577 321.23C468.557 321.23 467.947 320.42 467.947 319.43ZM474.147 322V314.71H473.457V322H474.147ZM477.645 322.12C478.785 322.12 479.535 321.57 479.795 320.55H479.135C478.955 321.19 478.445 321.53 477.655 321.53C476.615 321.53 475.995 320.85 475.945 319.67H479.795V319.33C479.795 317.96 478.905 317.03 477.595 317.03C476.215 317.03 475.275 318.07 475.275 319.58C475.275 321.1 476.225 322.12 477.645 322.12ZM477.595 317.62C478.505 317.62 479.105 318.24 479.105 319.17H475.965C476.085 318.22 476.685 317.62 477.595 317.62ZM483.821 322L484.521 320.1H487.821L488.521 322H489.271L486.611 314.84H485.721L483.091 322H483.821ZM486.071 315.85C486.111 315.75 486.151 315.62 486.161 315.56C486.171 315.63 486.221 315.75 486.251 315.85L487.591 319.47H484.741L486.071 315.85ZM491.85 322.12C492.66 322.12 493.34 321.76 493.68 321.01L493.75 322H494.35V314.71H493.66V318.08C493.32 317.38 492.68 317.03 491.88 317.03C490.44 317.03 489.61 318.13 489.61 319.59C489.61 321.04 490.44 322.12 491.85 322.12ZM491.97 321.49C490.92 321.49 490.31 320.69 490.31 319.57C490.31 318.46 490.92 317.65 491.97 317.65C493.03 317.65 493.65 318.46 493.65 319.57C493.65 320.69 493.03 321.49 491.97 321.49ZM495.38 320.64C495.38 321.54 496.06 322.12 497.15 322.12C498.25 322.12 498.99 321.55 498.99 320.68C498.99 319.98 498.61 319.59 497.77 319.38L496.94 319.17C496.41 319.04 496.15 318.78 496.15 318.41C496.15 317.89 496.53 317.6 497.21 317.6C497.86 317.6 498.25 317.93 498.27 318.49H498.94C498.91 317.59 498.25 317.03 497.23 317.03C496.19 317.03 495.48 317.57 495.48 318.42C495.48 319.08 495.89 319.52 496.73 319.73L497.56 319.94C498.13 320.08 498.33 320.31 498.33 320.71C498.33 321.23 497.89 321.55 497.14 321.55C496.46 321.55 496.04 321.2 496.04 320.64H495.38Z" fill="#0A0F0D"/>
<path opacity="0.8" d="M452.112 342.552H453.136V341.16C455.248 340.968 456.608 339.688 456.608 337.784C456.608 336.184 455.68 335.176 453.76 334.744L453.136 334.6V330.632C454.176 330.776 454.8 331.432 454.864 332.456H456.416C456.304 330.6 455.072 329.416 453.136 329.24V327.864H452.112V329.256C450.032 329.432 448.672 330.728 448.672 332.552C448.672 334.2 449.648 335.256 451.536 335.688L452.112 335.816V339.8C450.896 339.672 450.144 339 450.112 337.976H448.512C448.608 339.848 450 341.048 452.112 341.176V342.552ZM451.856 334.296C450.736 334.024 450.208 333.432 450.208 332.504C450.208 331.48 450.928 330.792 452.112 330.632V334.36L451.856 334.296ZM453.44 336.136C454.544 336.392 455.072 336.984 455.072 337.912C455.072 338.92 454.336 339.608 453.136 339.768V336.072L453.44 336.136ZM465.778 340.984V339.528H460.434L462.834 337.448C464.882 335.672 465.698 334.504 465.698 332.856C465.698 330.632 464.21 329.224 461.89 329.224C459.538 329.224 457.97 330.84 457.922 333.32H459.49C459.522 331.672 460.45 330.632 461.874 330.632C463.266 330.632 464.098 331.496 464.098 332.952C464.098 334.184 463.57 334.968 461.698 336.584L457.97 339.8V341L465.778 340.984ZM466.472 329.432V330.872H472.968L468.536 341H470.168L474.552 330.872V329.432H466.472ZM475.252 337.784C475.252 339.832 476.932 341.192 479.508 341.192C482.068 341.192 483.764 339.832 483.764 337.8C483.764 336.376 482.932 335.224 481.636 334.808C482.724 334.376 483.332 333.464 483.332 332.28C483.332 330.456 481.796 329.224 479.524 329.224C477.22 329.224 475.668 330.456 475.668 332.264C475.668 333.432 476.26 334.344 477.348 334.808C476.068 335.272 475.252 336.392 475.252 337.784ZM477.108 332.36C477.108 331.288 478.052 330.584 479.492 330.584C480.948 330.584 481.86 331.288 481.86 332.392C481.86 333.512 480.948 334.232 479.492 334.232C478.052 334.232 477.108 333.496 477.108 332.36ZM476.788 337.672C476.788 336.392 477.844 335.576 479.492 335.576C481.156 335.576 482.212 336.392 482.212 337.672C482.212 338.968 481.14 339.8 479.508 339.8C477.86 339.8 476.788 338.968 476.788 337.672ZM487.672 340.376C487.672 339.496 487.128 338.936 486.456 338.936C485.816 338.936 485.384 339.4 485.384 340.04C485.384 340.632 485.832 341.016 486.36 341.016C486.552 341.016 486.68 340.984 486.792 340.92C486.792 341.416 486.328 341.848 485.672 341.96V342.632C486.808 342.488 487.672 341.528 487.672 340.376ZM490.445 330.84V341H491.949V329.432H488.013V330.84H490.445ZM497.891 341.192C500.387 341.192 502.099 339.512 502.099 337.112C502.099 334.888 500.579 333.24 498.227 333.24C497.363 333.24 496.595 333.48 495.987 333.944L496.755 330.872H501.411V329.432H495.619L494.211 335.368L495.539 335.704C496.067 335.048 496.963 334.584 497.939 334.584C499.555 334.584 500.499 335.688 500.499 337.176C500.499 338.744 499.491 339.784 497.923 339.784C496.451 339.784 495.539 338.872 495.539 337.384H493.987C493.987 339.688 495.523 341.192 497.891 341.192ZM503.424 337.784C503.424 339.832 505.104 341.192 507.68 341.192C510.24 341.192 511.936 339.832 511.936 337.8C511.936 336.376 511.104 335.224 509.808 334.808C510.896 334.376 511.504 333.464 511.504 332.28C511.504 330.456 509.968 329.224 507.696 329.224C505.392 329.224 503.84 330.456 503.84 332.264C503.84 333.432 504.432 334.344 505.52 334.808C504.24 335.272 503.424 336.392 503.424 337.784ZM505.28 332.36C505.28 331.288 506.224 330.584 507.664 330.584C509.12 330.584 510.032 331.288 510.032 332.392C510.032 333.512 509.12 334.232 507.664 334.232C506.224 334.232 505.28 333.496 505.28 332.36ZM504.96 337.672C504.96 336.392 506.016 335.576 507.664 335.576C509.328 335.576 510.384 336.392 510.384 337.672C510.384 338.968 509.312 339.8 507.68 339.8C506.032 339.8 504.96 338.968 504.96 337.672Z" fill="#0A0F0D"/>
<line x1="448.75" y1="350.25" x2="511.25" y2="350.25" stroke="#44B48C" stroke-width="1.5" stroke-linecap="round"/>
<path opacity="0.6" d="M164.528 290.64C164.528 291.816 165.236 292.584 166.58 292.908L168.032 293.268C168.956 293.484 169.388 293.988 169.388 294.756C169.388 295.74 168.584 296.352 167.324 296.352C166.148 296.352 165.356 295.764 165.308 294.864H164.42C164.528 296.268 165.656 297.144 167.324 297.144C169.1 297.144 170.252 296.196 170.252 294.708C170.252 293.544 169.556 292.776 168.212 292.452L166.736 292.092C165.836 291.864 165.392 291.384 165.392 290.628C165.392 289.656 166.184 289.032 167.396 289.032C168.476 289.032 169.136 289.584 169.232 290.556H170.108C169.976 289.116 168.956 288.252 167.408 288.252C165.68 288.252 164.528 289.2 164.528 290.64ZM171.386 299.532H172.214V295.884C172.622 296.724 173.402 297.144 174.386 297.144C176.102 297.144 177.074 295.824 177.074 294.072C177.074 292.32 176.066 291.036 174.386 291.036C173.414 291.036 172.598 291.468 172.19 292.368L172.106 291.192H171.386V299.532ZM172.226 294.096C172.226 292.752 172.97 291.792 174.242 291.792C175.502 291.792 176.234 292.752 176.234 294.096C176.234 295.428 175.502 296.4 174.242 296.4C172.97 296.4 172.226 295.428 172.226 294.096ZM180.59 297.144C181.958 297.144 182.858 296.484 183.17 295.26H182.378C182.162 296.028 181.55 296.436 180.602 296.436C179.354 296.436 178.61 295.62 178.55 294.204H183.17V293.796C183.17 292.152 182.102 291.036 180.53 291.036C178.874 291.036 177.746 292.284 177.746 294.096C177.746 295.92 178.886 297.144 180.59 297.144ZM180.53 291.744C181.622 291.744 182.342 292.488 182.342 293.604H178.574C178.718 292.464 179.438 291.744 180.53 291.744ZM185.081 297V293.964C185.081 292.656 185.753 291.792 186.941 291.792C187.901 291.792 188.513 292.272 188.513 293.628V297H189.341V293.448C189.341 291.984 188.681 291.036 187.085 291.036C186.245 291.036 185.477 291.456 185.093 292.2L184.973 291.192H184.253V297H185.081ZM193.032 297.144C194.004 297.144 194.82 296.712 195.228 295.812L195.312 297H196.032V288.252H195.204V292.296C194.796 291.456 194.028 291.036 193.068 291.036C191.34 291.036 190.344 292.356 190.344 294.108C190.344 295.848 191.34 297.144 193.032 297.144ZM193.176 296.388C191.916 296.388 191.184 295.428 191.184 294.084C191.184 292.752 191.916 291.78 193.176 291.78C194.448 291.78 195.192 292.752 195.192 294.084C195.192 295.428 194.448 296.388 193.176 296.388ZM200.788 297H204.112C205.744 297 206.776 296.124 206.776 294.744C206.776 293.688 206.272 292.992 205.276 292.668C206.164 292.32 206.608 291.636 206.608 290.628C206.608 289.248 205.588 288.408 203.932 288.408H200.788V297ZM203.92 289.176C205.072 289.176 205.72 289.74 205.72 290.7C205.72 291.72 205.108 292.32 204.028 292.32H201.652V289.176H203.92ZM204.112 293.076C205.228 293.076 205.9 293.664 205.9 294.636C205.9 295.632 205.24 296.22 204.112 296.22H201.652V293.076H204.112ZM207.209 299.532C207.473 299.592 207.737 299.616 208.085 299.616C208.913 299.616 209.477 299.244 209.813 298.332L212.477 291.192H211.625L209.789 296.256L207.917 291.192H207.041L209.393 297.348L209.141 298.032C208.853 298.812 208.349 298.848 207.845 298.848H207.209V299.532ZM219.978 297.132C221.826 297.132 223.326 296.04 223.722 294.42H222.798C222.426 295.572 221.346 296.304 219.99 296.304C218.106 296.304 216.846 294.864 216.846 292.704C216.846 290.532 218.106 289.092 219.99 289.092C221.334 289.092 222.39 289.848 222.75 291.084H223.674C223.326 289.38 221.874 288.264 220.026 288.264C217.602 288.264 215.946 290.064 215.946 292.704C215.946 295.344 217.578 297.132 219.978 297.132ZM225.565 296.988V293.832C225.565 292.716 226.213 291.792 227.461 291.792C228.361 291.792 228.997 292.272 228.997 293.628V297H229.825V293.448C229.825 291.984 229.141 291.036 227.617 291.036C226.645 291.036 225.937 291.504 225.565 292.2V288.252H224.737V296.988H225.565ZM232.904 297.144C233.888 297.144 234.68 296.712 235.04 295.98L235.148 297H235.844V293.244C235.844 291.708 234.86 291.036 233.516 291.036C232.088 291.036 231.128 291.792 231.128 292.968H231.884C231.884 292.188 232.484 291.732 233.492 291.732C234.344 291.732 235.028 292.092 235.028 293.232V293.424L233.108 293.58C231.752 293.688 230.936 294.36 230.936 295.428C230.936 296.448 231.668 297.144 232.904 297.144ZM233.096 296.472C232.304 296.472 231.776 296.112 231.776 295.404C231.776 294.756 232.22 294.276 233.312 294.18L235.028 294.048V294.36C235.028 295.62 234.32 296.472 233.096 296.472ZM238.093 297V293.964C238.093 292.656 238.765 291.792 239.953 291.792C240.913 291.792 241.525 292.272 241.525 293.628V297H242.353V293.448C242.353 291.984 241.693 291.036 240.097 291.036C239.257 291.036 238.489 291.456 238.105 292.2L237.985 291.192H237.265V297H238.093ZM244.592 297V293.964C244.592 292.656 245.264 291.792 246.452 291.792C247.412 291.792 248.024 292.272 248.024 293.628V297H248.852V293.448C248.852 291.984 248.192 291.036 246.596 291.036C245.756 291.036 244.988 291.456 244.604 292.2L244.484 291.192H243.764V297H244.592ZM252.698 297.144C254.066 297.144 254.966 296.484 255.278 295.26H254.486C254.27 296.028 253.658 296.436 252.71 296.436C251.462 296.436 250.718 295.62 250.658 294.204H255.278V293.796C255.278 292.152 254.21 291.036 252.638 291.036C250.982 291.036 249.854 292.284 249.854 294.096C249.854 295.92 250.994 297.144 252.698 297.144ZM252.638 291.744C253.73 291.744 254.45 292.488 254.45 293.604H250.682C250.826 292.464 251.546 291.744 252.638 291.744ZM257.226 297V288.252H256.398V297H257.226Z" fill="#0A0F0D"/>
<path d="M74.544 118H75.744L80.096 106.544H78.912L75.872 114.496C75.696 114.928 75.408 115.728 75.168 116.56C74.912 115.76 74.688 115.136 74.448 114.512L71.392 106.544H70.16L74.544 118ZM81.946 108.128C82.394 108.128 82.778 107.76 82.778 107.312C82.778 106.864 82.394 106.48 81.946 106.48C81.498 106.48 81.13 106.864 81.13 107.312C81.13 107.76 81.498 108.128 81.946 108.128ZM81.402 118H82.506V110.256H81.402V118ZM84.1523 115.824C84.1523 117.264 85.2403 118.192 86.9843 118.192C88.7443 118.192 89.9283 117.28 89.9283 115.888C89.9283 114.768 89.3203 114.144 87.9763 113.808L86.6483 113.472C85.8003 113.264 85.3843 112.848 85.3843 112.256C85.3843 111.424 85.9923 110.96 87.0803 110.96C88.1203 110.96 88.7443 111.488 88.7763 112.384H89.8483C89.8003 110.944 88.7443 110.048 87.1123 110.048C85.4483 110.048 84.3123 110.912 84.3123 112.272C84.3123 113.328 84.9683 114.032 86.3123 114.368L87.6403 114.704C88.5523 114.928 88.8723 115.296 88.8723 115.936C88.8723 116.768 88.1683 117.28 86.9683 117.28C85.8803 117.28 85.2083 116.72 85.2083 115.824H84.1523ZM97.1858 110.256V114.368C97.1858 116.208 96.3058 117.2 94.8177 117.2C93.5858 117.2 92.7698 116.544 92.7698 114.704V110.24H91.6497V115.056C91.6497 116.944 92.6418 118.192 94.4658 118.192C95.6818 118.192 96.7538 117.584 97.1858 116.688L97.3298 118H98.2898V110.256H97.1858ZM102.814 118.192C104.126 118.192 105.182 117.616 105.662 116.64L105.806 118H106.734V112.992C106.734 110.944 105.422 110.048 103.63 110.048C101.726 110.048 100.446 111.056 100.446 112.624H101.454C101.454 111.584 102.254 110.976 103.598 110.976C104.734 110.976 105.646 111.456 105.646 112.976V113.232L103.086 113.44C101.278 113.584 100.19 114.48 100.19 115.904C100.19 117.264 101.166 118.192 102.814 118.192ZM103.07 117.296C102.014 117.296 101.31 116.816 101.31 115.872C101.31 115.008 101.902 114.368 103.358 114.24L105.646 114.064V114.48C105.646 116.16 104.702 117.296 103.07 117.296ZM110.101 118V106.336H108.997V118H110.101ZM113.601 118V106.336H112.497V118H113.601ZM115.165 121.376C115.517 121.456 115.869 121.488 116.333 121.488C117.437 121.488 118.189 120.992 118.637 119.776L122.189 110.256H121.053L118.605 117.008L116.109 110.256H114.941L118.077 118.464L117.741 119.376C117.357 120.416 116.685 120.464 116.013 120.464H115.165V121.376ZM127.374 114.144C127.374 116.576 128.862 118.192 131.054 118.192C132.814 118.192 134.19 117.152 134.558 115.568H133.438C133.134 116.56 132.206 117.2 131.054 117.2C129.486 117.2 128.462 115.968 128.462 114.128C128.462 112.224 129.566 111.024 131.134 111.024C132.206 111.024 133.134 111.616 133.422 112.688H134.526C134.222 111.088 132.91 110.048 131.118 110.048C128.862 110.048 127.374 111.712 127.374 114.144ZM135.686 114.128C135.686 116.48 137.35 118.192 139.622 118.192C141.894 118.192 143.558 116.48 143.558 114.128C143.558 111.76 141.894 110.048 139.622 110.048C137.35 110.048 135.686 111.76 135.686 114.128ZM136.806 114.112C136.806 112.32 137.958 111.04 139.622 111.04C141.27 111.04 142.438 112.32 142.438 114.112C142.438 115.936 141.27 117.2 139.622 117.2C137.958 117.2 136.806 115.936 136.806 114.112ZM146.428 118V113.2C146.428 112.016 147.212 111.056 148.508 111.056C149.676 111.056 150.428 111.824 150.428 113.136V118H151.516V113.216C151.516 112.016 152.284 111.04 153.58 111.04C154.764 111.04 155.5 111.824 155.5 113.152V118H156.572V112.928C156.572 111.136 155.468 110.048 153.788 110.048C152.54 110.048 151.596 110.688 151.244 111.696C150.876 110.688 149.964 110.048 148.748 110.048C147.66 110.048 146.796 110.544 146.412 111.36L146.284 110.256H145.324V118H146.428ZM158.793 121.376H159.897V116.512C160.441 117.632 161.481 118.192 162.793 118.192C165.081 118.192 166.377 116.432 166.377 114.096C166.377 111.76 165.033 110.048 162.793 110.048C161.497 110.048 160.409 110.624 159.865 111.824L159.753 110.256H158.793V121.376ZM159.913 114.128C159.913 112.336 160.905 111.056 162.601 111.056C164.281 111.056 165.257 112.336 165.257 114.128C165.257 115.904 164.281 117.2 162.601 117.2C160.905 117.2 159.913 115.904 159.913 114.128ZM170.36 118.192C171.672 118.192 172.728 117.616 173.208 116.64L173.352 118H174.28V112.992C174.28 110.944 172.968 110.048 171.176 110.048C169.272 110.048 167.992 111.056 167.992 112.624H169C169 111.584 169.8 110.976 171.144 110.976C172.28 110.976 173.192 111.456 173.192 112.976V113.232L170.632 113.44C168.824 113.584 167.736 114.48 167.736 115.904C167.736 117.264 168.712 118.192 170.36 118.192ZM170.616 117.296C169.56 117.296 168.856 116.816 168.856 115.872C168.856 115.008 169.448 114.368 170.904 114.24L173.192 114.064V114.48C173.192 116.16 172.248 117.296 170.616 117.296ZM180.544 110.16C180.272 110.096 180.064 110.08 179.824 110.08C178.736 110.08 177.92 110.624 177.616 111.456L177.536 110.256H176.496V118H177.6V113.584C177.6 112.112 178.512 111.152 179.936 111.152H180.544V110.16ZM184.963 118.192C186.787 118.192 187.987 117.312 188.403 115.68H187.347C187.059 116.704 186.243 117.248 184.979 117.248C183.315 117.248 182.323 116.16 182.243 114.272H188.403V113.728C188.403 111.536 186.979 110.048 184.883 110.048C182.674 110.048 181.171 111.712 181.171 114.128C181.171 116.56 182.691 118.192 184.963 118.192ZM184.883 110.992C186.339 110.992 187.299 111.984 187.299 113.472H182.275C182.467 111.952 183.427 110.992 184.883 110.992ZM193.821 121.376C194.173 121.456 194.525 121.488 194.989 121.488C196.093 121.488 196.845 120.992 197.293 119.776L200.845 110.256H199.709L197.261 117.008L194.765 110.256H193.597L196.733 118.464L196.397 119.376C196.013 120.416 195.341 120.464 194.669 120.464H193.821V121.376ZM201.327 114.128C201.327 116.48 202.991 118.192 205.263 118.192C207.535 118.192 209.199 116.48 209.199 114.128C209.199 111.76 207.535 110.048 205.263 110.048C202.991 110.048 201.327 111.76 201.327 114.128ZM202.447 114.112C202.447 112.32 203.599 111.04 205.263 111.04C206.911 111.04 208.079 112.32 208.079 114.112C208.079 115.936 206.911 117.2 205.263 117.2C203.599 117.2 202.447 115.936 202.447 114.112ZM216.217 110.256V114.368C216.217 116.208 215.337 117.2 213.849 117.2C212.617 117.2 211.801 116.544 211.801 114.704V110.24H210.681V115.056C210.681 116.944 211.673 118.192 213.497 118.192C214.713 118.192 215.785 117.584 216.217 116.688L216.361 118H217.321V110.256H216.217ZM223.669 110.16C223.397 110.096 223.189 110.08 222.949 110.08C221.861 110.08 221.045 110.624 220.741 111.456L220.661 110.256H219.621V118H220.725V113.584C220.725 112.112 221.637 111.152 223.061 111.152H223.669V110.16ZM231.798 118.192C233.11 118.192 234.166 117.616 234.646 116.64L234.79 118H235.718V112.992C235.718 110.944 234.406 110.048 232.614 110.048C230.71 110.048 229.43 111.056 229.43 112.624H230.438C230.438 111.584 231.238 110.976 232.582 110.976C233.718 110.976 234.63 111.456 234.63 112.976V113.232L232.07 113.44C230.262 113.584 229.174 114.48 229.174 115.904C229.174 117.264 230.15 118.192 231.798 118.192ZM232.054 117.296C230.998 117.296 230.294 116.816 230.294 115.872C230.294 115.008 230.886 114.368 232.342 114.24L234.63 114.064V114.48C234.63 116.16 233.686 117.296 232.054 117.296ZM240.973 118.192C242.269 118.192 243.357 117.616 243.901 116.416L244.013 118H244.973V106.336H243.869V111.728C243.325 110.608 242.301 110.048 241.021 110.048C238.717 110.048 237.389 111.808 237.389 114.144C237.389 116.464 238.717 118.192 240.973 118.192ZM241.165 117.184C239.485 117.184 238.509 115.904 238.509 114.112C238.509 112.336 239.485 111.04 241.165 111.04C242.861 111.04 243.853 112.336 243.853 114.112C243.853 115.904 242.861 117.184 241.165 117.184ZM251.059 115.824C251.059 117.264 252.147 118.192 253.891 118.192C255.651 118.192 256.835 117.28 256.835 115.888C256.835 114.768 256.227 114.144 254.883 113.808L253.555 113.472C252.707 113.264 252.291 112.848 252.291 112.256C252.291 111.424 252.899 110.96 253.987 110.96C255.027 110.96 255.651 111.488 255.683 112.384H256.755C256.707 110.944 255.651 110.048 254.019 110.048C252.355 110.048 251.219 110.912 251.219 112.272C251.219 113.328 251.875 114.032 253.219 114.368L254.547 114.704C255.459 114.928 255.779 115.296 255.779 115.936C255.779 116.768 255.075 117.28 253.875 117.28C252.787 117.28 252.115 116.72 252.115 115.824H251.059ZM258.652 121.376H259.756V116.512C260.3 117.632 261.34 118.192 262.652 118.192C264.94 118.192 266.236 116.432 266.236 114.096C266.236 111.76 264.892 110.048 262.652 110.048C261.356 110.048 260.268 110.624 259.724 111.824L259.612 110.256H258.652V121.376ZM259.772 114.128C259.772 112.336 260.764 111.056 262.46 111.056C264.14 111.056 265.116 112.336 265.116 114.128C265.116 115.904 264.14 117.2 262.46 117.2C260.764 117.2 259.772 115.904 259.772 114.128ZM271.244 118.192C273.068 118.192 274.268 117.312 274.684 115.68H273.628C273.34 116.704 272.524 117.248 271.26 117.248C269.596 117.248 268.604 116.16 268.524 114.272H274.684V113.728C274.684 111.536 273.26 110.048 271.164 110.048C268.956 110.048 267.452 111.712 267.452 114.128C267.452 116.56 268.972 118.192 271.244 118.192ZM271.164 110.992C272.62 110.992 273.58 111.984 273.58 113.472H268.556C268.748 111.952 269.708 110.992 271.164 110.992ZM277.553 118V113.952C277.553 112.208 278.449 111.056 280.033 111.056C281.313 111.056 282.129 111.696 282.129 113.504V118H283.233V113.264C283.233 111.312 282.353 110.048 280.225 110.048C279.105 110.048 278.081 110.608 277.569 111.6L277.409 110.256H276.449V118H277.553ZM288.473 118.192C289.769 118.192 290.857 117.616 291.401 116.416L291.513 118H292.473V106.336H291.369V111.728C290.825 110.608 289.801 110.048 288.521 110.048C286.217 110.048 284.889 111.808 284.889 114.144C284.889 116.464 286.217 118.192 288.473 118.192ZM288.665 117.184C286.985 117.184 286.009 115.904 286.009 114.112C286.009 112.336 286.985 111.04 288.665 111.04C290.361 111.04 291.353 112.336 291.353 114.112C291.353 115.904 290.361 117.184 288.665 117.184ZM298.671 114.128C298.671 116.48 300.335 118.192 302.607 118.192C304.879 118.192 306.543 116.48 306.543 114.128C306.543 111.76 304.879 110.048 302.607 110.048C300.335 110.048 298.671 111.76 298.671 114.128ZM299.791 114.112C299.791 112.32 300.943 111.04 302.607 111.04C304.255 111.04 305.423 112.32 305.423 114.112C305.423 115.936 304.255 117.2 302.607 117.2C300.943 117.2 299.791 115.936 299.791 114.112ZM309.412 118V113.952C309.412 112.208 310.308 111.056 311.892 111.056C313.172 111.056 313.988 111.696 313.988 113.504V118H315.092V113.264C315.092 111.312 314.212 110.048 312.084 110.048C310.964 110.048 309.94 110.608 309.428 111.6L309.268 110.256H308.308V118H309.412ZM324.978 118.192C326.802 118.192 328.002 117.312 328.418 115.68H327.362C327.074 116.704 326.258 117.248 324.994 117.248C323.33 117.248 322.338 116.16 322.258 114.272H328.418V113.728C328.418 111.536 326.994 110.048 324.898 110.048C322.69 110.048 321.186 111.712 321.186 114.128C321.186 116.56 322.706 118.192 324.978 118.192ZM324.898 110.992C326.354 110.992 327.314 111.984 327.314 113.472H322.29C322.482 111.952 323.442 110.992 324.898 110.992ZM332.329 118.192C333.641 118.192 334.697 117.616 335.177 116.64L335.321 118H336.249V112.992C336.249 110.944 334.937 110.048 333.145 110.048C331.241 110.048 329.961 111.056 329.961 112.624H330.969C330.969 111.584 331.769 110.976 333.113 110.976C334.249 110.976 335.161 111.456 335.161 112.976V113.232L332.601 113.44C330.793 113.584 329.705 114.48 329.705 115.904C329.705 117.264 330.681 118.192 332.329 118.192ZM332.585 117.296C331.529 117.296 330.825 116.816 330.825 115.872C330.825 115.008 331.417 114.368 332.873 114.24L335.161 114.064V114.48C335.161 116.16 334.217 117.296 332.585 117.296ZM337.921 114.144C337.921 116.576 339.409 118.192 341.601 118.192C343.361 118.192 344.737 117.152 345.105 115.568H343.985C343.681 116.56 342.753 117.2 341.601 117.2C340.033 117.2 339.009 115.968 339.009 114.128C339.009 112.224 340.113 111.024 341.681 111.024C342.753 111.024 343.681 111.616 343.969 112.688H345.073C344.769 111.088 343.457 110.048 341.665 110.048C339.409 110.048 337.921 111.712 337.921 114.144ZM347.881 117.984V113.776C347.881 112.288 348.745 111.056 350.409 111.056C351.609 111.056 352.457 111.696 352.457 113.504V118H353.561V113.264C353.561 111.312 352.649 110.048 350.617 110.048C349.321 110.048 348.377 110.672 347.881 111.6V106.336H346.777V117.984H347.881ZM359.655 114.144C359.655 116.576 361.143 118.192 363.335 118.192C365.095 118.192 366.471 117.152 366.839 115.568H365.719C365.415 116.56 364.487 117.2 363.335 117.2C361.767 117.2 360.743 115.968 360.743 114.128C360.743 112.224 361.847 111.024 363.415 111.024C364.487 111.024 365.415 111.616 365.703 112.688H366.807C366.503 111.088 365.191 110.048 363.399 110.048C361.143 110.048 359.655 111.712 359.655 114.144ZM369.615 117.984V113.776C369.615 112.288 370.479 111.056 372.143 111.056C373.343 111.056 374.191 111.696 374.191 113.504V118H375.295V113.264C375.295 111.312 374.383 110.048 372.351 110.048C371.055 110.048 370.111 110.672 369.615 111.6V106.336H368.511V117.984H369.615ZM379.72 118.192C381.032 118.192 382.088 117.616 382.568 116.64L382.712 118H383.64V112.992C383.64 110.944 382.328 110.048 380.536 110.048C378.632 110.048 377.352 111.056 377.352 112.624H378.36C378.36 111.584 379.16 110.976 380.504 110.976C381.64 110.976 382.552 111.456 382.552 112.976V113.232L379.992 113.44C378.184 113.584 377.096 114.48 377.096 115.904C377.096 117.264 378.072 118.192 379.72 118.192ZM379.976 117.296C378.92 117.296 378.216 116.816 378.216 115.872C378.216 115.008 378.808 114.368 380.264 114.24L382.552 114.064V114.48C382.552 116.16 381.608 117.296 379.976 117.296ZM386.959 118V113.952C386.959 112.208 387.855 111.056 389.439 111.056C390.719 111.056 391.535 111.696 391.535 113.504V118H392.639V113.264C392.639 111.312 391.759 110.048 389.631 110.048C388.511 110.048 387.487 110.608 386.975 111.6L386.815 110.256H385.855V118H386.959ZM395.944 118V113.952C395.944 112.208 396.84 111.056 398.424 111.056C399.704 111.056 400.52 111.696 400.52 113.504V118H401.624V113.264C401.624 111.312 400.744 110.048 398.616 110.048C397.496 110.048 396.472 110.608 395.96 111.6L395.799 110.256H394.84V118H395.944ZM407.072 118.192C408.896 118.192 410.096 117.312 410.512 115.68H409.456C409.168 116.704 408.352 117.248 407.088 117.248C405.424 117.248 404.432 116.16 404.352 114.272H410.512V113.728C410.512 111.536 409.088 110.048 406.992 110.048C404.784 110.048 403.28 111.712 403.28 114.128C403.28 116.56 404.8 118.192 407.072 118.192ZM406.992 110.992C408.448 110.992 409.408 111.984 409.408 113.472H404.384C404.576 111.952 405.536 110.992 406.992 110.992ZM413.429 118V106.336H412.325V118H413.429ZM416.721 118.176C417.265 118.176 417.729 117.728 417.729 117.2C417.729 116.656 417.265 116.192 416.721 116.192C416.177 116.192 415.713 116.656 415.713 117.2C415.713 117.728 416.177 118.176 416.721 118.176Z" fill="#0A0F0D" fill-opacity="0.8"/>
<path d="M41.5996 112.105H46.0803V107.6H49.9189V112.105H54.3996V115.896H49.9189V120.4H46.0803V115.896H41.5996V112.105Z" fill="black"/>
<path d="M41.5996 150.105H46.0803V145.6H49.9189V150.105H54.3996V153.896H49.9189V158.4H46.0803V153.896H41.5996V150.105Z" fill="black"/>
<path d="M41.5996 188.105H46.0803V183.6H49.9189V188.105H54.3996V191.896H49.9189V196.4H46.0803V191.896H41.5996V188.105Z" fill="black"/>
<path d="M74.88 156C78.32 156 80.608 153.696 80.608 150.272C80.608 146.848 78.304 144.544 74.848 144.544H71.392V156H74.88ZM74.8 145.6C77.632 145.6 79.424 147.408 79.424 150.272C79.424 153.12 77.632 154.944 74.832 154.944H72.544V145.6H74.8ZM85.6969 156.192C87.5209 156.192 88.7209 155.312 89.1369 153.68H88.0809C87.7929 154.704 86.9769 155.248 85.7129 155.248C84.0489 155.248 83.0569 154.16 82.9769 152.272H89.1369V151.728C89.1369 149.536 87.7129 148.048 85.6169 148.048C83.4089 148.048 81.9049 149.712 81.9049 152.128C81.9049 154.56 83.4249 156.192 85.6969 156.192ZM85.6169 148.992C87.0729 148.992 88.0329 149.984 88.0329 151.472H83.0089C83.2009 149.952 84.1609 148.992 85.6169 148.992ZM92.5999 156V149.184H94.1519V148.256H92.5999V145.808H91.5119V148.256H89.9599V149.184H91.5119V156H92.5999ZM98.7594 156.192C100.583 156.192 101.783 155.312 102.199 153.68H101.143C100.855 154.704 100.039 155.248 98.7754 155.248C97.1114 155.248 96.1194 154.16 96.0394 152.272H102.199V151.728C102.199 149.536 100.775 148.048 98.6794 148.048C96.4714 148.048 94.9674 149.712 94.9674 152.128C94.9674 154.56 96.4874 156.192 98.7594 156.192ZM98.6794 148.992C100.135 148.992 101.095 149.984 101.095 151.472H96.0714C96.2634 149.952 97.2234 148.992 98.6794 148.992ZM108.013 148.16C107.741 148.096 107.533 148.08 107.293 148.08C106.205 148.08 105.389 148.624 105.085 149.456L105.005 148.256H103.965V156H105.069V151.584C105.069 150.112 105.981 149.152 107.405 149.152H108.013V148.16ZM110.584 156V151.2C110.584 150.016 111.368 149.056 112.664 149.056C113.832 149.056 114.584 149.824 114.584 151.136V156H115.672V151.216C115.672 150.016 116.44 149.04 117.736 149.04C118.92 149.04 119.656 149.824 119.656 151.152V156H120.728V150.928C120.728 149.136 119.624 148.048 117.944 148.048C116.696 148.048 115.752 148.688 115.4 149.696C115.032 148.688 114.12 148.048 112.904 148.048C111.816 148.048 110.952 148.544 110.568 149.36L110.44 148.256H109.48V156H110.584ZM123.493 146.128C123.941 146.128 124.325 145.76 124.325 145.312C124.325 144.864 123.941 144.48 123.493 144.48C123.045 144.48 122.677 144.864 122.677 145.312C122.677 145.76 123.045 146.128 123.493 146.128ZM122.949 156H124.053V148.256H122.949V156ZM127.459 156V151.952C127.459 150.208 128.355 149.056 129.939 149.056C131.219 149.056 132.035 149.696 132.035 151.504V156H133.139V151.264C133.139 149.312 132.259 148.048 130.131 148.048C129.011 148.048 127.987 148.608 127.475 149.6L127.315 148.256H126.355V156H127.459ZM138.588 156.192C140.412 156.192 141.612 155.312 142.028 153.68H140.972C140.684 154.704 139.868 155.248 138.604 155.248C136.94 155.248 135.948 154.16 135.868 152.272H142.028V151.728C142.028 149.536 140.604 148.048 138.508 148.048C136.299 148.048 134.796 149.712 134.796 152.128C134.796 154.56 136.316 156.192 138.588 156.192ZM138.508 148.992C139.964 148.992 140.924 149.984 140.924 151.472H135.9C136.092 149.952 137.052 148.992 138.508 148.992ZM150.006 156V149.184H151.558V148.256H150.006V145.808H148.918V148.256H147.366V149.184H148.918V156H150.006ZM154.1 155.984V151.776C154.1 150.288 154.964 149.056 156.628 149.056C157.828 149.056 158.676 149.696 158.676 151.504V156H159.78V151.264C159.78 149.312 158.868 148.048 156.836 148.048C155.54 148.048 154.596 148.672 154.1 149.6V144.336H152.996V155.984H154.1ZM165.228 156.192C167.052 156.192 168.252 155.312 168.668 153.68H167.612C167.324 154.704 166.508 155.248 165.244 155.248C163.58 155.248 162.588 154.16 162.508 152.272H168.668V151.728C168.668 149.536 167.244 148.048 165.148 148.048C162.94 148.048 161.436 149.712 161.436 152.128C161.436 154.56 162.956 156.192 165.228 156.192ZM165.148 148.992C166.604 148.992 167.564 149.984 167.564 151.472H162.54C162.732 149.952 163.692 148.992 165.148 148.992ZM174.871 159.376H175.975V154.512C176.519 155.632 177.559 156.192 178.871 156.192C181.159 156.192 182.455 154.432 182.455 152.096C182.455 149.76 181.111 148.048 178.871 148.048C177.575 148.048 176.487 148.624 175.943 149.824L175.831 148.256H174.871V159.376ZM175.991 152.128C175.991 150.336 176.983 149.056 178.679 149.056C180.359 149.056 181.335 150.336 181.335 152.128C181.335 153.904 180.359 155.2 178.679 155.2C176.983 155.2 175.991 153.904 175.991 152.128ZM187.463 156.192C189.287 156.192 190.487 155.312 190.903 153.68H189.847C189.559 154.704 188.743 155.248 187.479 155.248C185.815 155.248 184.823 154.16 184.743 152.272H190.903V151.728C190.903 149.536 189.479 148.048 187.383 148.048C185.174 148.048 183.671 149.712 183.671 152.128C183.671 154.56 185.191 156.192 187.463 156.192ZM187.383 148.992C188.839 148.992 189.799 149.984 189.799 151.472H184.775C184.967 149.952 185.927 148.992 187.383 148.992ZM196.716 148.16C196.444 148.096 196.236 148.08 195.996 148.08C194.908 148.08 194.092 148.624 193.788 149.456L193.708 148.256H192.668V156H193.772V151.584C193.772 150.112 194.684 149.152 196.108 149.152H196.716V148.16ZM197.342 152.144C197.342 154.576 198.83 156.192 201.022 156.192C202.782 156.192 204.158 155.152 204.526 153.568H203.406C203.102 154.56 202.174 155.2 201.022 155.2C199.454 155.2 198.43 153.968 198.43 152.128C198.43 150.224 199.534 149.024 201.102 149.024C202.174 149.024 203.102 149.616 203.39 150.688H204.494C204.19 149.088 202.878 148.048 201.086 148.048C198.83 148.048 197.342 149.712 197.342 152.144ZM209.447 156.192C211.271 156.192 212.471 155.312 212.887 153.68H211.831C211.543 154.704 210.727 155.248 209.463 155.248C207.799 155.248 206.807 154.16 206.727 152.272H212.887V151.728C212.887 149.536 211.463 148.048 209.367 148.048C207.159 148.048 205.655 149.712 205.655 152.128C205.655 154.56 207.175 156.192 209.447 156.192ZM209.367 148.992C210.823 148.992 211.783 149.984 211.783 151.472H206.759C206.951 149.952 207.911 148.992 209.367 148.992ZM215.756 156V151.952C215.756 150.208 216.652 149.056 218.236 149.056C219.516 149.056 220.332 149.696 220.332 151.504V156H221.436V151.264C221.436 149.312 220.556 148.048 218.428 148.048C217.308 148.048 216.284 148.608 215.772 149.6L215.612 148.256H214.652V156H215.756ZM225.412 156V149.184H226.964V148.256H225.412V145.808H224.324V148.256H222.772V149.184H224.324V156H225.412ZM230.501 156.192C231.813 156.192 232.869 155.616 233.349 154.64L233.493 156H234.421V150.992C234.421 148.944 233.109 148.048 231.317 148.048C229.413 148.048 228.133 149.056 228.133 150.624H229.141C229.141 149.584 229.941 148.976 231.285 148.976C232.421 148.976 233.333 149.456 233.333 150.976V151.232L230.773 151.44C228.965 151.584 227.877 152.48 227.877 153.904C227.877 155.264 228.853 156.192 230.501 156.192ZM230.757 155.296C229.701 155.296 228.997 154.816 228.997 153.872C228.997 153.008 229.589 152.368 231.045 152.24L233.333 152.064V152.48C233.333 154.16 232.389 155.296 230.757 155.296ZM236.108 151.904C236.108 154.016 237.452 155.76 239.66 155.76C240.988 155.76 242.06 155.12 242.588 154.032V155.872C242.588 157.488 241.532 158.56 239.948 158.56C238.556 158.56 237.596 157.824 237.356 156.576H236.252C236.556 158.448 237.948 159.568 239.932 159.568C242.204 159.568 243.676 158.064 243.676 155.76V148.256H242.716L242.604 149.808C242.108 148.672 241.084 148.048 239.74 148.048C237.468 148.048 236.108 149.792 236.108 151.904ZM237.212 151.888C237.212 150.32 238.172 149.024 239.836 149.024C241.532 149.024 242.492 150.24 242.492 151.888C242.492 153.552 241.5 154.768 239.82 154.768C238.188 154.768 237.212 153.472 237.212 151.888ZM249.228 156.192C251.052 156.192 252.252 155.312 252.668 153.68H251.612C251.324 154.704 250.508 155.248 249.244 155.248C247.58 155.248 246.588 154.16 246.508 152.272H252.668V151.728C252.668 149.536 251.244 148.048 249.148 148.048C246.94 148.048 245.436 149.712 245.436 152.128C245.436 154.56 246.956 156.192 249.228 156.192ZM249.148 148.992C250.604 148.992 251.564 149.984 251.564 151.472H246.54C246.732 149.952 247.692 148.992 249.148 148.992ZM258.327 152.128C258.327 154.48 259.991 156.192 262.263 156.192C264.535 156.192 266.199 154.48 266.199 152.128C266.199 149.76 264.535 148.048 262.263 148.048C259.991 148.048 258.327 149.76 258.327 152.128ZM259.447 152.112C259.447 150.32 260.599 149.04 262.263 149.04C263.911 149.04 265.079 150.32 265.079 152.112C265.079 153.936 263.911 155.2 262.263 155.2C260.599 155.2 259.447 153.936 259.447 152.112ZM267.038 148.256V149.184H268.222V156H269.326V149.184H271.15V148.256H269.326V146.752C269.326 145.84 269.582 145.344 270.558 145.344H271.214V144.4C270.958 144.352 270.638 144.336 270.366 144.336C269.182 144.336 268.222 145.008 268.222 146.752V148.256H267.038ZM276.546 152.128C276.546 154.48 278.21 156.192 280.482 156.192C282.754 156.192 284.418 154.48 284.418 152.128C284.418 149.76 282.754 148.048 280.482 148.048C278.21 148.048 276.546 149.76 276.546 152.128ZM277.666 152.112C277.666 150.32 278.818 149.04 280.482 149.04C282.13 149.04 283.298 150.32 283.298 152.112C283.298 153.936 282.13 155.2 280.482 155.2C278.818 155.2 277.666 153.936 277.666 152.112ZM290.231 148.16C289.959 148.096 289.751 148.08 289.511 148.08C288.423 148.08 287.607 148.624 287.303 149.456L287.223 148.256H286.183V156H287.287V151.584C287.287 150.112 288.199 149.152 289.623 149.152H290.231V148.16ZM291.03 151.904C291.03 154.016 292.374 155.76 294.582 155.76C295.91 155.76 296.982 155.12 297.51 154.032V155.872C297.51 157.488 296.454 158.56 294.87 158.56C293.478 158.56 292.518 157.824 292.278 156.576H291.174C291.478 158.448 292.87 159.568 294.854 159.568C297.126 159.568 298.598 158.064 298.598 155.76V148.256H297.638L297.526 149.808C297.03 148.672 296.006 148.048 294.662 148.048C292.39 148.048 291.03 149.792 291.03 151.904ZM292.134 151.888C292.134 150.32 293.094 149.024 294.758 149.024C296.454 149.024 297.414 150.24 297.414 151.888C297.414 153.552 296.422 154.768 294.742 154.768C293.11 154.768 292.134 153.472 292.134 151.888ZM303.126 156.192C304.438 156.192 305.494 155.616 305.974 154.64L306.118 156H307.046V150.992C307.046 148.944 305.734 148.048 303.942 148.048C302.038 148.048 300.758 149.056 300.758 150.624H301.766C301.766 149.584 302.566 148.976 303.91 148.976C305.046 148.976 305.958 149.456 305.958 150.976V151.232L303.398 151.44C301.59 151.584 300.502 152.48 300.502 153.904C300.502 155.264 301.478 156.192 303.126 156.192ZM303.382 155.296C302.326 155.296 301.622 154.816 301.622 153.872C301.622 153.008 302.214 152.368 303.67 152.24L305.958 152.064V152.48C305.958 154.16 305.014 155.296 303.382 155.296ZM310.365 156V151.952C310.365 150.208 311.261 149.056 312.845 149.056C314.125 149.056 314.941 149.696 314.941 151.504V156H316.045V151.264C316.045 149.312 315.165 148.048 313.037 148.048C311.917 148.048 310.893 148.608 310.381 149.6L310.221 148.256H309.261V156H310.365ZM318.79 146.128C319.238 146.128 319.622 145.76 319.622 145.312C319.622 144.864 319.238 144.48 318.79 144.48C318.342 144.48 317.974 144.864 317.974 145.312C317.974 145.76 318.342 146.128 318.79 146.128ZM318.246 156H319.35V148.256H318.246V156ZM321.108 152.144C321.108 154.576 322.596 156.192 324.788 156.192C326.548 156.192 327.924 155.152 328.292 153.568H327.172C326.868 154.56 325.94 155.2 324.788 155.2C323.22 155.2 322.196 153.968 322.196 152.128C322.196 150.224 323.3 149.024 324.868 149.024C325.94 149.024 326.868 149.616 327.156 150.688H328.26C327.956 149.088 326.644 148.048 324.852 148.048C322.596 148.048 321.108 149.712 321.108 152.144Z" fill="#0A0F0D" fill-opacity="0.8"/>
<path d="M76.192 183.44C77.872 183.44 79.216 184.24 79.696 185.808H80.944C80.496 183.728 78.624 182.352 76.208 182.352C72.928 182.352 70.688 184.816 70.688 188.32C70.688 191.856 72.928 194.192 76.176 194.192C78.032 194.192 79.472 193.328 80.08 192.192L80.192 194.016H81.104V187.808H75.872V188.832H80.016V189.424C80.016 192.176 78.144 193.104 76.224 193.104C73.648 193.104 71.888 191.296 71.888 188.32C71.888 185.392 73.552 183.44 76.192 183.44ZM86.4 194.192C88.224 194.192 89.424 193.312 89.84 191.68H88.784C88.496 192.704 87.68 193.248 86.416 193.248C84.752 193.248 83.76 192.16 83.68 190.272H89.84V189.728C89.84 187.536 88.416 186.048 86.32 186.048C84.112 186.048 82.608 187.712 82.608 190.128C82.608 192.56 84.128 194.192 86.4 194.192ZM86.32 186.992C87.776 186.992 88.736 187.984 88.736 189.472H83.712C83.904 187.952 84.864 186.992 86.32 186.992ZM93.303 194V187.184H94.855V186.256H93.303V183.808H92.215V186.256H90.663V187.184H92.215V194H93.303ZM102.954 194.192C104.266 194.192 105.322 193.616 105.802 192.64L105.946 194H106.874V188.992C106.874 186.944 105.562 186.048 103.77 186.048C101.866 186.048 100.586 187.056 100.586 188.624H101.594C101.594 187.584 102.394 186.976 103.738 186.976C104.874 186.976 105.786 187.456 105.786 188.976V189.232L103.226 189.44C101.418 189.584 100.33 190.48 100.33 191.904C100.33 193.264 101.306 194.192 102.954 194.192ZM103.21 193.296C102.154 193.296 101.45 192.816 101.45 191.872C101.45 191.008 102.042 190.368 103.498 190.24L105.786 190.064V190.48C105.786 192.16 104.842 193.296 103.21 193.296ZM113.527 197.376H114.631V192.512C115.175 193.632 116.215 194.192 117.527 194.192C119.815 194.192 121.111 192.432 121.111 190.096C121.111 187.76 119.767 186.048 117.527 186.048C116.231 186.048 115.143 186.624 114.599 187.824L114.487 186.256H113.527V197.376ZM114.647 190.128C114.647 188.336 115.639 187.056 117.335 187.056C119.015 187.056 119.991 188.336 119.991 190.128C119.991 191.904 119.015 193.2 117.335 193.2C115.639 193.2 114.647 191.904 114.647 190.128ZM126.119 194.192C127.943 194.192 129.143 193.312 129.559 191.68H128.503C128.215 192.704 127.399 193.248 126.135 193.248C124.471 193.248 123.479 192.16 123.399 190.272H129.559V189.728C129.559 187.536 128.135 186.048 126.039 186.048C123.831 186.048 122.327 187.712 122.327 190.128C122.327 192.56 123.847 194.192 126.119 194.192ZM126.039 186.992C127.495 186.992 128.455 187.984 128.455 189.472H123.431C123.623 187.952 124.583 186.992 126.039 186.992ZM135.372 186.16C135.1 186.096 134.892 186.08 134.652 186.08C133.564 186.08 132.748 186.624 132.444 187.456L132.364 186.256H131.324V194H132.428V189.584C132.428 188.112 133.34 187.152 134.764 187.152H135.372V186.16ZM136.288 186.256V187.184H137.472V194H138.576V187.184H140.4V186.256H138.576V184.752C138.576 183.84 138.832 183.344 139.808 183.344H140.464V182.4C140.208 182.352 139.888 182.336 139.616 182.336C138.432 182.336 137.472 183.008 137.472 184.752V186.256H136.288ZM141.124 190.128C141.124 192.48 142.788 194.192 145.06 194.192C147.332 194.192 148.996 192.48 148.996 190.128C148.996 187.76 147.332 186.048 145.06 186.048C142.788 186.048 141.124 187.76 141.124 190.128ZM142.244 190.112C142.244 188.32 143.396 187.04 145.06 187.04C146.708 187.04 147.876 188.32 147.876 190.112C147.876 191.936 146.708 193.2 145.06 193.2C143.396 193.2 142.244 191.936 142.244 190.112ZM154.809 186.16C154.537 186.096 154.329 186.08 154.089 186.08C153.001 186.08 152.185 186.624 151.881 187.456L151.801 186.256H150.761V194H151.865V189.584C151.865 188.112 152.777 187.152 154.201 187.152H154.809V186.16ZM157.381 194V189.2C157.381 188.016 158.165 187.056 159.461 187.056C160.629 187.056 161.381 187.824 161.381 189.136V194H162.469V189.216C162.469 188.016 163.237 187.04 164.533 187.04C165.717 187.04 166.453 187.824 166.453 189.152V194H167.525V188.928C167.525 187.136 166.421 186.048 164.741 186.048C163.493 186.048 162.549 186.688 162.197 187.696C161.829 186.688 160.917 186.048 159.701 186.048C158.613 186.048 157.749 186.544 157.365 187.36L157.237 186.256H156.277V194H157.381ZM171.97 194.192C173.282 194.192 174.338 193.616 174.818 192.64L174.962 194H175.89V188.992C175.89 186.944 174.578 186.048 172.786 186.048C170.882 186.048 169.602 187.056 169.602 188.624H170.61C170.61 187.584 171.41 186.976 172.754 186.976C173.89 186.976 174.802 187.456 174.802 188.976V189.232L172.242 189.44C170.434 189.584 169.346 190.48 169.346 191.904C169.346 193.264 170.322 194.192 171.97 194.192ZM172.226 193.296C171.17 193.296 170.466 192.816 170.466 191.872C170.466 191.008 171.058 190.368 172.514 190.24L174.802 190.064V190.48C174.802 192.16 173.858 193.296 172.226 193.296ZM179.209 194V189.952C179.209 188.208 180.105 187.056 181.689 187.056C182.969 187.056 183.785 187.696 183.785 189.504V194H184.889V189.264C184.889 187.312 184.009 186.048 181.881 186.048C180.761 186.048 179.737 186.608 179.225 187.6L179.065 186.256H178.105V194H179.209ZM186.546 190.144C186.546 192.576 188.034 194.192 190.226 194.192C191.986 194.192 193.362 193.152 193.73 191.568H192.61C192.306 192.56 191.378 193.2 190.226 193.2C188.658 193.2 187.634 191.968 187.634 190.128C187.634 188.224 188.738 187.024 190.306 187.024C191.378 187.024 192.306 187.616 192.594 188.688H193.698C193.394 187.088 192.082 186.048 190.29 186.048C188.034 186.048 186.546 187.712 186.546 190.144ZM198.65 194.192C200.474 194.192 201.674 193.312 202.09 191.68H201.034C200.746 192.704 199.93 193.248 198.666 193.248C197.002 193.248 196.01 192.16 195.93 190.272H202.09V189.728C202.09 187.536 200.666 186.048 198.57 186.048C196.362 186.048 194.858 187.712 194.858 190.128C194.858 192.56 196.378 194.192 198.65 194.192ZM198.57 186.992C200.026 186.992 200.986 187.984 200.986 189.472H195.962C196.154 187.952 197.114 186.992 198.57 186.992ZM209.253 194L209.365 192.416C209.909 193.616 210.981 194.192 212.277 194.192C214.533 194.192 215.877 192.464 215.877 190.144C215.877 187.808 214.565 186.048 212.309 186.048C210.997 186.048 209.941 186.624 209.397 187.76V182.336H208.293V194H209.253ZM209.413 190.112C209.413 188.336 210.405 187.04 212.101 187.04C213.781 187.04 214.757 188.336 214.757 190.112C214.757 191.904 213.781 193.184 212.101 193.184C210.405 193.184 209.413 191.904 209.413 190.112ZM220.884 194.192C222.708 194.192 223.908 193.312 224.324 191.68H223.268C222.98 192.704 222.164 193.248 220.9 193.248C219.236 193.248 218.244 192.16 218.164 190.272H224.324V189.728C224.324 187.536 222.9 186.048 220.804 186.048C218.596 186.048 217.092 187.712 217.092 190.128C217.092 192.56 218.612 194.192 220.884 194.192ZM220.804 186.992C222.26 186.992 223.22 187.984 223.22 189.472H218.196C218.388 187.952 219.348 186.992 220.804 186.992ZM227.194 194V189.952C227.194 188.208 228.09 187.056 229.674 187.056C230.954 187.056 231.77 187.696 231.77 189.504V194H232.874V189.264C232.874 187.312 231.994 186.048 229.866 186.048C228.746 186.048 227.722 186.608 227.21 187.6L227.049 186.256H226.09V194H227.194ZM234.53 190.144C234.53 192.576 236.018 194.192 238.21 194.192C239.97 194.192 241.346 193.152 241.714 191.568H240.594C240.29 192.56 239.362 193.2 238.21 193.2C236.642 193.2 235.618 191.968 235.618 190.128C235.618 188.224 236.722 187.024 238.29 187.024C239.362 187.024 240.29 187.616 240.578 188.688H241.682C241.378 187.088 240.066 186.048 238.274 186.048C236.018 186.048 234.53 187.712 234.53 190.144ZM244.49 193.984V189.776C244.49 188.288 245.354 187.056 247.018 187.056C248.218 187.056 249.066 187.696 249.066 189.504V194H250.17V189.264C250.17 187.312 249.258 186.048 247.226 186.048C245.93 186.048 244.986 186.672 244.49 187.6V182.336H243.386V193.984H244.49ZM253.475 194V189.2C253.475 188.016 254.259 187.056 255.555 187.056C256.723 187.056 257.475 187.824 257.475 189.136V194H258.563V189.216C258.563 188.016 259.331 187.04 260.627 187.04C261.811 187.04 262.547 187.824 262.547 189.152V194H263.619V188.928C263.619 187.136 262.515 186.048 260.835 186.048C259.587 186.048 258.643 186.688 258.291 187.696C257.923 186.688 257.011 186.048 255.795 186.048C254.707 186.048 253.843 186.544 253.459 187.36L253.331 186.256H252.371V194H253.475ZM268.064 194.192C269.376 194.192 270.432 193.616 270.912 192.64L271.056 194H271.984V188.992C271.984 186.944 270.672 186.048 268.88 186.048C266.976 186.048 265.696 187.056 265.696 188.624H266.704C266.704 187.584 267.504 186.976 268.848 186.976C269.984 186.976 270.896 187.456 270.896 188.976V189.232L268.336 189.44C266.528 189.584 265.44 190.48 265.44 191.904C265.44 193.264 266.416 194.192 268.064 194.192ZM268.32 193.296C267.264 193.296 266.56 192.816 266.56 191.872C266.56 191.008 267.152 190.368 268.608 190.24L270.896 190.064V190.48C270.896 192.16 269.952 193.296 268.32 193.296ZM278.247 186.16C277.975 186.096 277.767 186.08 277.527 186.08C276.439 186.08 275.623 186.624 275.319 187.456L275.239 186.256H274.199V194H275.303V189.584C275.303 188.112 276.215 187.152 277.639 187.152H278.247V186.16ZM280.867 194V191.68L282.371 190.128L284.835 194H286.115L283.123 189.344L286.099 186.256H284.707L280.867 190.256V182.336H279.763V194H280.867ZM291.007 186.256V187.184H292.191V194H293.295V187.184H295.119V186.256H293.295V184.752C293.295 183.84 293.551 183.344 294.527 183.344H295.183V182.4C294.927 182.352 294.607 182.336 294.335 182.336C293.151 182.336 292.191 183.008 292.191 184.752V186.256H291.007ZM295.842 190.128C295.842 192.48 297.506 194.192 299.778 194.192C302.05 194.192 303.714 192.48 303.714 190.128C303.714 187.76 302.05 186.048 299.778 186.048C297.506 186.048 295.842 187.76 295.842 190.128ZM296.962 190.112C296.962 188.32 298.114 187.04 299.778 187.04C301.426 187.04 302.594 188.32 302.594 190.112C302.594 191.936 301.426 193.2 299.778 193.2C298.114 193.2 296.962 191.936 296.962 190.112ZM309.528 186.16C309.256 186.096 309.048 186.08 308.808 186.08C307.72 186.08 306.904 186.624 306.6 187.456L306.52 186.256H305.48V194H306.584V189.584C306.584 188.112 307.496 187.152 308.92 187.152H309.528V186.16ZM318.681 194.192C320.505 194.192 321.705 193.312 322.121 191.68H321.065C320.777 192.704 319.961 193.248 318.697 193.248C317.033 193.248 316.041 192.16 315.961 190.272H322.121V189.728C322.121 187.536 320.697 186.048 318.601 186.048C316.393 186.048 314.889 187.712 314.889 190.128C314.889 192.56 316.409 194.192 318.681 194.192ZM318.601 186.992C320.057 186.992 321.017 187.984 321.017 189.472H315.993C316.185 187.952 317.145 186.992 318.601 186.992ZM326.032 194.192C327.344 194.192 328.4 193.616 328.88 192.64L329.024 194H329.952V188.992C329.952 186.944 328.64 186.048 326.848 186.048C324.944 186.048 323.664 187.056 323.664 188.624H324.672C324.672 187.584 325.472 186.976 326.816 186.976C327.952 186.976 328.864 187.456 328.864 188.976V189.232L326.304 189.44C324.496 189.584 323.408 190.48 323.408 191.904C323.408 193.264 324.384 194.192 326.032 194.192ZM326.288 193.296C325.232 193.296 324.528 192.816 324.528 191.872C324.528 191.008 325.12 190.368 326.576 190.24L328.864 190.064V190.48C328.864 192.16 327.92 193.296 326.288 193.296ZM331.624 190.144C331.624 192.576 333.112 194.192 335.304 194.192C337.064 194.192 338.44 193.152 338.808 191.568H337.688C337.384 192.56 336.456 193.2 335.304 193.2C333.736 193.2 332.712 191.968 332.712 190.128C332.712 188.224 333.816 187.024 335.384 187.024C336.456 187.024 337.384 187.616 337.672 188.688H338.776C338.472 187.088 337.16 186.048 335.368 186.048C333.112 186.048 331.624 187.712 331.624 190.144ZM341.584 193.984V189.776C341.584 188.288 342.448 187.056 344.112 187.056C345.312 187.056 346.16 187.696 346.16 189.504V194H347.264V189.264C347.264 187.312 346.352 186.048 344.32 186.048C343.024 186.048 342.08 186.672 341.584 187.6V182.336H340.48V193.984H341.584ZM353.358 190.144C353.358 192.576 354.846 194.192 357.038 194.192C358.798 194.192 360.174 193.152 360.542 191.568H359.422C359.118 192.56 358.19 193.2 357.038 193.2C355.47 193.2 354.446 191.968 354.446 190.128C354.446 188.224 355.55 187.024 357.118 187.024C358.19 187.024 359.118 187.616 359.406 188.688H360.51C360.206 187.088 358.894 186.048 357.102 186.048C354.846 186.048 353.358 187.712 353.358 190.144ZM363.319 193.984V189.776C363.319 188.288 364.183 187.056 365.847 187.056C367.047 187.056 367.895 187.696 367.895 189.504V194H368.999V189.264C368.999 187.312 368.087 186.048 366.055 186.048C364.759 186.048 363.815 186.672 363.319 187.6V182.336H362.215V193.984H363.319ZM373.423 194.192C374.735 194.192 375.791 193.616 376.271 192.64L376.415 194H377.343V188.992C377.343 186.944 376.031 186.048 374.239 186.048C372.335 186.048 371.055 187.056 371.055 188.624H372.063C372.063 187.584 372.863 186.976 374.207 186.976C375.343 186.976 376.255 187.456 376.255 188.976V189.232L373.695 189.44C371.887 189.584 370.799 190.48 370.799 191.904C370.799 193.264 371.775 194.192 373.423 194.192ZM373.679 193.296C372.623 193.296 371.919 192.816 371.919 191.872C371.919 191.008 372.511 190.368 373.967 190.24L376.255 190.064V190.48C376.255 192.16 375.311 193.296 373.679 193.296ZM380.662 194V189.952C380.662 188.208 381.558 187.056 383.142 187.056C384.422 187.056 385.238 187.696 385.238 189.504V194H386.342V189.264C386.342 187.312 385.462 186.048 383.334 186.048C382.214 186.048 381.19 186.608 380.678 187.6L380.518 186.256H379.558V194H380.662ZM389.647 194V189.952C389.647 188.208 390.543 187.056 392.127 187.056C393.407 187.056 394.223 187.696 394.223 189.504V194H395.327V189.264C395.327 187.312 394.447 186.048 392.319 186.048C391.199 186.048 390.175 186.608 389.663 187.6L389.503 186.256H388.543V194H389.647ZM400.775 194.192C402.599 194.192 403.799 193.312 404.215 191.68H403.159C402.871 192.704 402.055 193.248 400.791 193.248C399.127 193.248 398.135 192.16 398.055 190.272H404.215V189.728C404.215 187.536 402.791 186.048 400.695 186.048C398.487 186.048 396.983 187.712 396.983 190.128C396.983 192.56 398.503 194.192 400.775 194.192ZM400.695 186.992C402.151 186.992 403.111 187.984 403.111 189.472H398.087C398.279 187.952 399.239 186.992 400.695 186.992ZM407.132 194V182.336H406.028V194H407.132ZM410.424 194.176C410.968 194.176 411.432 193.728 411.432 193.2C411.432 192.656 410.968 192.192 410.424 192.192C409.88 192.192 409.416 192.656 409.416 193.2C409.416 193.728 409.88 194.176 410.424 194.176Z" fill="#0A0F0D" fill-opacity="0.8"/>
<path d="M53.056 70.374C58.598 70.374 62.984 67.11 64.038 62.214H60.502C59.584 65.24 56.728 67.178 53.124 67.178C48.16 67.178 44.896 63.438 44.896 57.692C44.896 51.946 48.16 48.206 53.124 48.206C56.694 48.206 59.448 50.144 60.366 53.34H63.936C63.018 48.308 58.768 45.01 53.226 45.01C46.188 45.01 41.394 50.144 41.394 57.726C41.394 65.342 46.052 70.374 53.056 70.374ZM70.6096 69.966V60.922C70.6096 58.066 72.2756 55.822 75.3696 55.822C77.7496 55.822 79.3476 57.182 79.3476 60.548V70H82.5436V59.834C82.5436 55.584 80.5036 52.898 76.2536 52.898C73.6696 52.898 71.6636 54.122 70.6096 55.924V44.976H67.4136V69.966H70.6096ZM91.8322 70.408C94.5182 70.408 96.7962 69.218 97.6462 67.314L97.9862 70H100.706V59.562C100.706 55.074 97.9182 52.898 93.8042 52.898C89.5202 52.898 86.6642 55.176 86.6642 58.644H89.4522C89.4522 56.638 90.9822 55.448 93.6682 55.448C95.9122 55.448 97.5782 56.434 97.5782 59.222V59.698L92.3422 60.106C88.4322 60.412 86.1542 62.316 86.1542 65.376C86.1542 68.402 88.2622 70.408 91.8322 70.408ZM92.7502 67.926C90.6762 67.926 89.3842 67.042 89.3842 65.274C89.3842 63.642 90.5402 62.554 93.3622 62.282L97.6122 61.942V62.826C97.6122 65.954 95.7762 67.926 92.7502 67.926ZM108.328 70V61.194C108.328 57.964 110.062 55.822 113.054 55.822C115.502 55.822 117.066 57.182 117.066 60.548V70H120.262V59.834C120.262 55.584 118.256 52.898 113.87 52.898C111.524 52.898 109.416 54.02 108.362 55.924L108.022 53.374H105.132V70H108.328ZM127.885 70V61.194C127.885 57.964 129.619 55.822 132.611 55.822C135.059 55.822 136.623 57.182 136.623 60.548V70H139.819V59.834C139.819 55.584 137.813 52.898 133.427 52.898C131.081 52.898 128.973 54.02 127.919 55.924L127.579 53.374H124.689V70H127.885ZM151.42 70.408C155.534 70.408 158.322 68.402 159.138 64.832H156.146C155.602 66.736 153.97 67.756 151.488 67.756C148.326 67.756 146.49 65.818 146.252 62.316L159.104 62.282V61.092C159.104 56.162 156.01 52.898 151.284 52.898C146.456 52.898 143.158 56.502 143.158 61.704C143.158 66.872 146.524 70.408 151.42 70.408ZM151.284 55.584C154.106 55.584 155.908 57.42 155.908 60.174H146.32C146.728 57.25 148.496 55.584 151.284 55.584ZM165.937 70V44.976H162.741V70H165.937ZM195.477 70V66.906H183.815V59.12H194.321V56.162H183.815V48.478H195.477V45.418H180.483V70H195.477ZM197.993 53.374V56.06H200.441V70H203.637V56.06H211.015V70H214.177V56.06H221.589V70H224.751V53.374H214.177V50.722C214.177 48.92 214.721 47.866 216.659 47.866H218.087V45.112C217.441 45.01 216.727 44.976 216.115 44.976C213.225 44.976 211.015 46.642 211.015 50.722V53.374H203.637V50.722C203.637 48.92 204.147 47.866 206.221 47.866H207.649V45.112C207.037 45.01 206.323 44.976 205.711 44.976C202.651 44.976 200.441 46.642 200.441 50.722V53.374H197.993ZM223.153 49.056C224.309 49.056 225.193 48.172 225.193 47.016C225.193 45.894 224.309 44.976 223.153 44.976C221.997 44.976 221.147 45.894 221.147 47.016C221.147 48.172 221.997 49.056 223.153 49.056ZM228.224 61.704C228.224 66.94 231.454 70.408 236.35 70.408C240.362 70.408 243.456 67.994 244.102 64.39H240.906C240.328 66.362 238.628 67.552 236.35 67.552C233.324 67.552 231.386 65.24 231.386 61.67C231.386 58.066 233.46 55.754 236.486 55.754C238.628 55.754 240.328 56.876 240.872 58.984H244.068C243.49 55.278 240.566 52.898 236.384 52.898C231.522 52.898 228.224 56.502 228.224 61.704ZM249.038 49.43C250.194 49.43 251.146 48.478 251.146 47.322C251.146 46.132 250.194 45.214 249.038 45.214C247.882 45.214 246.93 46.132 246.93 47.322C246.93 48.478 247.882 49.43 249.038 49.43ZM247.474 70H250.67V53.374H247.474V70ZM262.484 70.408C266.598 70.408 269.386 68.402 270.202 64.832H267.21C266.666 66.736 265.034 67.756 262.552 67.756C259.39 67.756 257.554 65.818 257.316 62.316L270.168 62.282V61.092C270.168 56.162 267.074 52.898 262.348 52.898C257.52 52.898 254.222 56.502 254.222 61.704C254.222 66.872 257.588 70.408 262.484 70.408ZM262.348 55.584C265.17 55.584 266.972 57.42 266.972 60.174H257.384C257.792 57.25 259.56 55.584 262.348 55.584ZM276.934 70V61.194C276.934 57.964 278.668 55.822 281.66 55.822C284.108 55.822 285.672 57.182 285.672 60.548V70H288.868V59.834C288.868 55.584 286.862 52.898 282.476 52.898C280.13 52.898 278.022 54.02 276.968 55.924L276.628 53.374H273.738V70H276.934ZM292.206 61.704C292.206 66.94 295.436 70.408 300.332 70.408C304.344 70.408 307.438 67.994 308.084 64.39H304.888C304.31 66.362 302.61 67.552 300.332 67.552C297.306 67.552 295.368 65.24 295.368 61.67C295.368 58.066 297.442 55.754 300.468 55.754C302.61 55.754 304.31 56.876 304.854 58.984H308.05C307.472 55.278 304.548 52.898 300.366 52.898C295.504 52.898 292.206 56.502 292.206 61.704ZM309.527 77.446C310.377 77.65 311.261 77.786 312.315 77.786C314.865 77.786 316.531 76.596 317.653 73.74L325.507 53.374H322.209L317.279 66.77L312.451 53.374H309.085L315.783 70.884L315.205 72.482C314.423 74.59 313.199 74.828 311.669 74.828H309.527V77.446Z" fill="#0A0F0D"/>
</svg>
