<svg width="370" height="430" viewBox="0 0 370 430" fill="none" xmlns="http://www.w3.org/2000/svg">
<rect x="0.5" y="0.5" width="369" height="429" rx="13.5" fill="#C5B6F0" stroke="#0A0F0D"/>
<path d="M57.3214 73.9632L69.9494 71.2315C69.9494 71.2315 65.3924 40.4088 65.3557 40.204C65.3242 40.001 65.1562 39.868 64.9864 39.868C64.8167 39.868 61.6107 39.63 61.6107 39.63C61.6107 39.63 59.3794 37.4005 59.0924 37.1607C59.0137 37.096 58.9612 37.061 58.8807 37.0312L57.2812 73.9632H57.3214ZM50.9742 51.7838C50.9742 51.7838 49.5567 51.0417 47.8696 51.0417C45.3374 51.0417 45.2376 52.6273 45.2376 53.0385C45.2376 55.1945 50.9077 56.0397 50.9077 61.1392C50.9077 65.1555 48.3876 67.7192 44.9471 67.7192C40.8276 67.7192 38.7521 65.1555 38.7521 65.1555L39.8826 61.505C39.8826 61.505 42.0614 63.3705 43.8726 63.3705C45.0539 63.3705 45.5789 62.4167 45.5789 61.7395C45.5789 58.9062 40.9344 58.775 40.9344 54.1112C40.8749 50.1965 43.6836 46.3832 49.3816 46.3832C51.5814 46.3832 52.6629 47.015 52.6629 47.015L51.0092 51.7663L50.9742 51.7838ZM50.0292 33.4525C50.2672 33.4525 50.5034 33.519 50.7379 33.6887C49.0159 34.5025 47.1259 36.557 46.3489 40.6747C45.2009 41.0475 44.0861 41.3835 43.0431 41.6862C43.9514 38.5625 46.1459 33.47 50.0292 33.47V33.4525ZM52.1904 38.6133V38.8495C50.8709 39.2555 49.4201 39.6965 48.0009 40.1375C48.8164 37.0278 50.3337 35.5087 51.6497 34.9383C51.9874 35.815 52.1904 36.9963 52.1904 38.6133ZM53.1337 34.7037C54.3482 34.8333 55.1304 36.221 55.6344 37.775C55.0237 37.9745 54.3482 38.1792 53.6079 38.4155V37.9745C53.6079 36.6585 53.4399 35.5752 53.1337 34.7002V34.7037ZM58.3697 36.9595C58.3347 36.9595 58.2647 36.9963 58.2332 36.9963C58.2017 36.9963 57.7274 37.1275 56.9837 37.3637C56.2434 35.206 54.9257 33.2162 52.5947 33.2162H52.3934C51.7179 32.3657 50.9024 32 50.1954 32C44.7599 32 42.1629 38.7848 41.3491 42.2305C39.2596 42.8693 37.7389 43.3435 37.5691 43.41C36.3879 43.7828 36.3546 43.816 36.2181 44.9325C36.0869 45.741 33.0156 69.5427 33.0156 69.5427L56.7474 74L58.3697 36.9595Z" fill="#0A0F0D"/>
<path d="M34.862 342.112H33.566V355H34.862V342.112ZM39.7237 355V347.332H41.4697V346.288H39.7237V343.534H38.4997V346.288H36.7537V347.332H38.4997V355H39.7237ZM50.5812 355.216C52.0572 355.216 53.2452 354.568 53.7852 353.47L53.9472 355H54.9912V349.366C54.9912 347.062 53.5152 346.054 51.4992 346.054C49.3572 346.054 47.9172 347.188 47.9172 348.952H49.0512C49.0512 347.782 49.9512 347.098 51.4632 347.098C52.7412 347.098 53.7672 347.638 53.7672 349.348V349.636L50.8872 349.87C48.8532 350.032 47.6292 351.04 47.6292 352.642C47.6292 354.172 48.7272 355.216 50.5812 355.216ZM50.8692 354.208C49.6812 354.208 48.8892 353.668 48.8892 352.606C48.8892 351.634 49.5552 350.914 51.1932 350.77L53.7672 350.572V351.04C53.7672 352.93 52.7052 354.208 50.8692 354.208ZM58.7795 355V341.878H57.5375V355H58.7795ZM62.717 355V341.878H61.475V355H62.717ZM69.6127 352.552C69.6127 354.172 70.8367 355.216 72.7987 355.216C74.7787 355.216 76.1107 354.19 76.1107 352.624C76.1107 351.364 75.4267 350.662 73.9147 350.284L72.4207 349.906C71.4667 349.672 70.9987 349.204 70.9987 348.538C70.9987 347.602 71.6827 347.08 72.9067 347.08C74.0767 347.08 74.7787 347.674 74.8147 348.682H76.0207C75.9667 347.062 74.7787 346.054 72.9427 346.054C71.0707 346.054 69.7927 347.026 69.7927 348.556C69.7927 349.744 70.5307 350.536 72.0427 350.914L73.5367 351.292C74.5627 351.544 74.9227 351.958 74.9227 352.678C74.9227 353.614 74.1307 354.19 72.7807 354.19C71.5567 354.19 70.8007 353.56 70.8007 352.552H69.6127ZM80.1534 355V347.332H81.8994V346.288H80.1534V343.534H78.9294V346.288H77.1834V347.332H78.9294V355H80.1534ZM85.8781 355.216C87.3541 355.216 88.5421 354.568 89.0821 353.47L89.2441 355H90.2881V349.366C90.2881 347.062 88.8121 346.054 86.7961 346.054C84.6541 346.054 83.2141 347.188 83.2141 348.952H84.3481C84.3481 347.782 85.2481 347.098 86.7601 347.098C88.0381 347.098 89.0641 347.638 89.0641 349.348V349.636L86.1841 349.87C84.1501 350.032 82.9261 351.04 82.9261 352.642C82.9261 354.172 84.0241 355.216 85.8781 355.216ZM86.1661 354.208C84.9781 354.208 84.1861 353.668 84.1861 352.606C84.1861 351.634 84.8521 350.914 86.4901 350.77L89.0641 350.572V351.04C89.0641 352.93 88.0021 354.208 86.1661 354.208ZM97.3344 346.18C97.0284 346.108 96.7944 346.09 96.5244 346.09C95.3004 346.09 94.3824 346.702 94.0404 347.638L93.9504 346.288H92.7804V355H94.0224V350.032C94.0224 348.376 95.0484 347.296 96.6504 347.296H97.3344V346.18ZM101.335 355V347.332H103.081V346.288H101.335V343.534H100.111V346.288H98.365V347.332H100.111V355H101.335ZM103.96 352.552C103.96 354.172 105.184 355.216 107.146 355.216C109.126 355.216 110.458 354.19 110.458 352.624C110.458 351.364 109.774 350.662 108.262 350.284L106.768 349.906C105.814 349.672 105.346 349.204 105.346 348.538C105.346 347.602 106.03 347.08 107.254 347.08C108.424 347.08 109.126 347.674 109.162 348.682H110.368C110.314 347.062 109.126 346.054 107.29 346.054C105.418 346.054 104.14 347.026 104.14 348.556C104.14 349.744 104.878 350.536 106.39 350.914L107.884 351.292C108.91 351.544 109.27 351.958 109.27 352.678C109.27 353.614 108.478 354.19 107.128 354.19C105.904 354.19 105.148 353.56 105.148 352.552H103.96ZM119.331 355H120.573L122.373 349.528C122.607 348.808 122.751 348.286 122.877 347.818C122.985 348.34 123.129 348.88 123.345 349.528L125.145 355H126.351L129.303 346.288H128.007L126.279 351.544C125.973 352.48 125.937 352.696 125.757 353.416C125.595 352.768 125.379 352.012 125.217 351.544L123.507 346.288H122.229L120.501 351.544C120.411 351.832 120.123 352.714 119.979 353.416C119.799 352.714 119.637 352.12 119.439 351.544L117.729 346.288H116.451L119.331 355ZM131.467 343.894C131.971 343.894 132.403 343.48 132.403 342.976C132.403 342.472 131.971 342.04 131.467 342.04C130.963 342.04 130.549 342.472 130.549 342.976C130.549 343.48 130.963 343.894 131.467 343.894ZM130.855 355H132.097V346.288H130.855V355ZM136.685 355V347.332H138.431V346.288H136.685V343.534H135.461V346.288H133.715V347.332H135.461V355H136.685ZM141.29 354.982V350.248C141.29 348.574 142.262 347.188 144.134 347.188C145.484 347.188 146.438 347.908 146.438 349.942V355H147.68V349.672C147.68 347.476 146.654 346.054 144.368 346.054C142.91 346.054 141.848 346.756 141.29 347.8V341.878H140.048V354.982H141.29ZM154.644 345.46C154.644 347.224 155.706 348.376 157.722 348.862L159.9 349.402C161.286 349.726 161.934 350.482 161.934 351.634C161.934 353.11 160.728 354.028 158.838 354.028C157.074 354.028 155.886 353.146 155.814 351.796H154.482C154.644 353.902 156.336 355.216 158.838 355.216C161.502 355.216 163.23 353.794 163.23 351.562C163.23 349.816 162.186 348.664 160.17 348.178L157.956 347.638C156.606 347.296 155.94 346.576 155.94 345.442C155.94 343.984 157.128 343.048 158.946 343.048C160.566 343.048 161.556 343.876 161.7 345.334H163.014C162.816 343.174 161.286 341.878 158.964 341.878C156.372 341.878 154.644 343.3 154.644 345.46ZM166.532 354.982V350.248C166.532 348.574 167.504 347.188 169.376 347.188C170.726 347.188 171.68 347.908 171.68 349.942V355H172.922V349.672C172.922 347.476 171.896 346.054 169.61 346.054C168.152 346.054 167.09 346.756 166.532 347.8V341.878H165.29V354.982H166.532ZM174.786 350.644C174.786 353.29 176.658 355.216 179.214 355.216C181.77 355.216 183.642 353.29 183.642 350.644C183.642 347.98 181.77 346.054 179.214 346.054C176.658 346.054 174.786 347.98 174.786 350.644ZM176.046 350.626C176.046 348.61 177.342 347.17 179.214 347.17C181.068 347.17 182.382 348.61 182.382 350.626C182.382 352.678 181.068 354.1 179.214 354.1C177.342 354.1 176.046 352.678 176.046 350.626ZM185.628 358.798H186.87V353.326C187.482 354.586 188.652 355.216 190.128 355.216C192.702 355.216 194.16 353.236 194.16 350.608C194.16 347.98 192.648 346.054 190.128 346.054C188.67 346.054 187.446 346.702 186.834 348.052L186.708 346.288H185.628V358.798ZM186.888 350.644C186.888 348.628 188.004 347.188 189.912 347.188C191.802 347.188 192.9 348.628 192.9 350.644C192.9 352.642 191.802 354.1 189.912 354.1C188.004 354.1 186.888 352.642 186.888 350.644ZM196.752 343.894C197.256 343.894 197.688 343.48 197.688 342.976C197.688 342.472 197.256 342.04 196.752 342.04C196.248 342.04 195.834 342.472 195.834 342.976C195.834 343.48 196.248 343.894 196.752 343.894ZM196.14 355H197.382V346.288H196.14V355ZM199 346.288V347.332H200.332V355H201.574V347.332H203.626V346.288H201.574V344.596C201.574 343.57 201.862 343.012 202.96 343.012H203.698V341.95C203.41 341.896 203.05 341.878 202.744 341.878C201.412 341.878 200.332 342.634 200.332 344.596V346.288H199ZM204.434 358.798C204.83 358.888 205.226 358.924 205.748 358.924C206.99 358.924 207.836 358.366 208.34 356.998L212.336 346.288H211.058L208.304 353.884L205.496 346.288H204.182L207.71 355.522L207.332 356.548C206.9 357.718 206.144 357.772 205.388 357.772H204.434V358.798ZM213.479 355.198C214.091 355.198 214.613 354.694 214.613 354.1C214.613 353.488 214.091 352.966 213.479 352.966C212.867 352.966 212.345 353.488 212.345 354.1C212.345 354.694 212.867 355.198 213.479 355.198ZM227.646 355.198C230.418 355.198 232.668 353.56 233.262 351.13H231.876C231.318 352.858 229.698 353.956 227.664 353.956C224.838 353.956 222.948 351.796 222.948 348.556C222.948 345.298 224.838 343.138 227.664 343.138C229.68 343.138 231.264 344.272 231.804 346.126H233.19C232.668 343.57 230.49 341.896 227.718 341.896C224.082 341.896 221.598 344.596 221.598 348.556C221.598 352.516 224.046 355.198 227.646 355.198ZM234.622 350.644C234.622 353.29 236.494 355.216 239.05 355.216C241.606 355.216 243.478 353.29 243.478 350.644C243.478 347.98 241.606 346.054 239.05 346.054C236.494 346.054 234.622 347.98 234.622 350.644ZM235.882 350.626C235.882 348.61 237.178 347.17 239.05 347.17C240.904 347.17 242.218 348.61 242.218 350.626C242.218 352.678 240.904 354.1 239.05 354.1C237.178 354.1 235.882 352.678 235.882 350.626ZM246.706 355V350.446C246.706 348.484 247.714 347.188 249.496 347.188C250.936 347.188 251.854 347.908 251.854 349.942V355H253.096V349.672C253.096 347.476 252.106 346.054 249.712 346.054C248.452 346.054 247.3 346.684 246.724 347.8L246.544 346.288H245.464V355H246.706ZM256.813 355V350.446C256.813 348.484 257.821 347.188 259.603 347.188C261.043 347.188 261.961 347.908 261.961 349.942V355H263.203V349.672C263.203 347.476 262.213 346.054 259.819 346.054C258.559 346.054 257.407 346.684 256.831 347.8L256.651 346.288H255.571V355H256.813ZM269.333 355.216C271.385 355.216 272.735 354.226 273.203 352.39H272.015C271.691 353.542 270.773 354.154 269.351 354.154C267.479 354.154 266.363 352.93 266.273 350.806H273.203V350.194C273.203 347.728 271.601 346.054 269.243 346.054C266.759 346.054 265.067 347.926 265.067 350.644C265.067 353.38 266.777 355.216 269.333 355.216ZM269.243 347.116C270.881 347.116 271.961 348.232 271.961 349.906H266.309C266.525 348.196 267.605 347.116 269.243 347.116ZM274.577 350.662C274.577 353.398 276.251 355.216 278.717 355.216C280.697 355.216 282.245 354.046 282.659 352.264H281.399C281.057 353.38 280.013 354.1 278.717 354.1C276.953 354.1 275.801 352.714 275.801 350.644C275.801 348.502 277.043 347.152 278.807 347.152C280.013 347.152 281.057 347.818 281.381 349.024H282.623C282.281 347.224 280.805 346.054 278.789 346.054C276.251 346.054 274.577 347.926 274.577 350.662ZM286.538 355V347.332H288.284V346.288H286.538V343.534H285.314V346.288H283.568V347.332H285.314V355H286.538ZM294.012 358.798C294.408 358.888 294.804 358.924 295.326 358.924C296.568 358.924 297.414 358.366 297.918 356.998L301.914 346.288H300.636L297.882 353.884L295.074 346.288H293.76L297.288 355.522L296.91 356.548C296.478 357.718 295.722 357.772 294.966 357.772H294.012V358.798ZM302.455 350.644C302.455 353.29 304.327 355.216 306.883 355.216C309.439 355.216 311.311 353.29 311.311 350.644C311.311 347.98 309.439 346.054 306.883 346.054C304.327 346.054 302.455 347.98 302.455 350.644ZM303.715 350.626C303.715 348.61 305.011 347.17 306.883 347.17C308.737 347.17 310.051 348.61 310.051 350.626C310.051 352.678 308.737 354.1 306.883 354.1C305.011 354.1 303.715 352.678 303.715 350.626ZM319.207 346.288V350.914C319.207 352.984 318.217 354.1 316.543 354.1C315.157 354.1 314.239 353.362 314.239 351.292V346.27H312.979V351.688C312.979 353.812 314.095 355.216 316.147 355.216C317.515 355.216 318.721 354.532 319.207 353.524L319.369 355H320.449V346.288H319.207ZM327.59 346.18C327.284 346.108 327.05 346.09 326.78 346.09C325.556 346.09 324.638 346.702 324.296 347.638L324.206 346.288H323.036V355H324.278V350.032C324.278 348.376 325.304 347.296 326.906 347.296H327.59V346.18ZM32.558 380.552C32.558 382.172 33.782 383.216 35.744 383.216C37.724 383.216 39.056 382.19 39.056 380.624C39.056 379.364 38.372 378.662 36.86 378.284L35.366 377.906C34.412 377.672 33.944 377.204 33.944 376.538C33.944 375.602 34.628 375.08 35.852 375.08C37.022 375.08 37.724 375.674 37.76 376.682H38.966C38.912 375.062 37.724 374.054 35.888 374.054C34.016 374.054 32.738 375.026 32.738 376.556C32.738 377.744 33.476 378.536 34.988 378.914L36.482 379.292C37.508 379.544 37.868 379.958 37.868 380.678C37.868 381.614 37.076 382.19 35.726 382.19C34.502 382.19 33.746 381.56 33.746 380.552H32.558ZM43.0987 383V375.332H44.8447V374.288H43.0987V371.534H41.8747V374.288H40.1287V375.332H41.8747V383H43.0987ZM45.7621 378.644C45.7621 381.29 47.6341 383.216 50.1901 383.216C52.7461 383.216 54.6181 381.29 54.6181 378.644C54.6181 375.98 52.7461 374.054 50.1901 374.054C47.6341 374.054 45.7621 375.98 45.7621 378.644ZM47.0221 378.626C47.0221 376.61 48.3181 375.17 50.1901 375.17C52.0441 375.17 53.3581 376.61 53.3581 378.626C53.3581 380.678 52.0441 382.1 50.1901 382.1C48.3181 382.1 47.0221 380.678 47.0221 378.626ZM61.1586 374.18C60.8526 374.108 60.6186 374.09 60.3486 374.09C59.1246 374.09 58.2066 374.702 57.8646 375.638L57.7746 374.288H56.6046V383H57.8466V378.032C57.8466 376.376 58.8726 375.296 60.4746 375.296H61.1586V374.18ZM66.1297 383.216C68.1817 383.216 69.5317 382.226 69.9997 380.39H68.8117C68.4877 381.542 67.5697 382.154 66.1477 382.154C64.2757 382.154 63.1597 380.93 63.0697 378.806H69.9997V378.194C69.9997 375.728 68.3977 374.054 66.0397 374.054C63.5557 374.054 61.8637 375.926 61.8637 378.644C61.8637 381.38 63.5737 383.216 66.1297 383.216ZM66.0397 375.116C67.6777 375.116 68.7577 376.232 68.7577 377.906H63.1057C63.3217 376.196 64.4017 375.116 66.0397 375.116ZM78.9756 383V375.332H80.7216V374.288H78.9756V371.534H77.7516V374.288H76.0056V375.332H77.7516V383H78.9756ZM81.6391 378.644C81.6391 381.29 83.5111 383.216 86.0671 383.216C88.6231 383.216 90.4951 381.29 90.4951 378.644C90.4951 375.98 88.6231 374.054 86.0671 374.054C83.5111 374.054 81.6391 375.98 81.6391 378.644ZM82.8991 378.626C82.8991 376.61 84.1951 375.17 86.0671 375.17C87.9211 375.17 89.2351 376.61 89.2351 378.626C89.2351 380.678 87.9211 382.1 86.0671 382.1C84.1951 382.1 82.8991 380.678 82.8991 378.626ZM103.144 371.12C105.034 371.12 106.546 372.02 107.086 373.784H108.49C107.986 371.444 105.88 369.896 103.162 369.896C99.4717 369.896 96.9517 372.668 96.9517 376.61C96.9517 380.588 99.4717 383.216 103.126 383.216C105.214 383.216 106.834 382.244 107.518 380.966L107.644 383.018H108.67V376.034H102.784V377.186H107.446V377.852C107.446 380.948 105.34 381.992 103.18 381.992C100.282 381.992 98.3017 379.958 98.3017 376.61C98.3017 373.316 100.174 371.12 103.144 371.12ZM110.974 386.798H112.216V381.326C112.828 382.586 113.998 383.216 115.474 383.216C118.048 383.216 119.506 381.236 119.506 378.608C119.506 375.98 117.994 374.054 115.474 374.054C114.016 374.054 112.792 374.702 112.18 376.052L112.054 374.288H110.974V386.798ZM112.234 378.644C112.234 376.628 113.35 375.188 115.258 375.188C117.148 375.188 118.246 376.628 118.246 378.644C118.246 380.642 117.148 382.1 115.258 382.1C113.35 382.1 112.234 380.642 112.234 378.644ZM126.039 374.18C125.733 374.108 125.499 374.09 125.229 374.09C124.005 374.09 123.087 374.702 122.745 375.638L122.655 374.288H121.485V383H122.727V378.032C122.727 376.376 123.753 375.296 125.355 375.296H126.039V374.18ZM128.303 371.894C128.807 371.894 129.239 371.48 129.239 370.976C129.239 370.472 128.807 370.04 128.303 370.04C127.799 370.04 127.385 370.472 127.385 370.976C127.385 371.48 127.799 371.894 128.303 371.894ZM127.691 383H128.933V374.288H127.691V383ZM130.929 378.392C130.929 380.768 132.441 382.73 134.925 382.73C136.419 382.73 137.625 382.01 138.219 380.786V382.856C138.219 384.674 137.031 385.88 135.249 385.88C133.683 385.88 132.603 385.052 132.333 383.648H131.091C131.433 385.754 132.999 387.014 135.231 387.014C137.787 387.014 139.443 385.322 139.443 382.73V374.288H138.363L138.237 376.034C137.679 374.756 136.527 374.054 135.015 374.054C132.459 374.054 130.929 376.016 130.929 378.392ZM132.171 378.374C132.171 376.61 133.251 375.152 135.123 375.152C137.031 375.152 138.111 376.52 138.111 378.374C138.111 380.246 136.995 381.614 135.105 381.614C133.269 381.614 132.171 380.156 132.171 378.374ZM143.078 370.994C143.15 370.364 142.718 370.076 142.34 370.076C141.944 370.076 141.494 370.364 141.566 370.994L141.926 374.576H142.736L143.078 370.994ZM144.109 380.552C144.109 382.172 145.333 383.216 147.295 383.216C149.275 383.216 150.607 382.19 150.607 380.624C150.607 379.364 149.923 378.662 148.411 378.284L146.917 377.906C145.963 377.672 145.495 377.204 145.495 376.538C145.495 375.602 146.179 375.08 147.403 375.08C148.573 375.08 149.275 375.674 149.311 376.682H150.517C150.463 375.062 149.275 374.054 147.439 374.054C145.567 374.054 144.289 375.026 144.289 376.556C144.289 377.744 145.027 378.536 146.539 378.914L148.033 379.292C149.059 379.544 149.419 379.958 149.419 380.678C149.419 381.614 148.627 382.19 147.277 382.19C146.053 382.19 145.297 381.56 145.297 380.552H144.109ZM162.828 378.266C165.294 378.266 166.878 376.502 166.878 374.162C166.878 371.732 165.312 370.112 162.828 370.112H157.914V383H159.21V378.266H162.828ZM162.648 371.282C164.43 371.282 165.528 372.362 165.528 374.144C165.528 375.908 164.448 377.096 162.576 377.096H159.21V371.282H162.648ZM169.996 383V369.878H168.754V383H169.996ZM175.14 383.216C176.616 383.216 177.804 382.568 178.344 381.47L178.506 383H179.55V377.366C179.55 375.062 178.074 374.054 176.058 374.054C173.916 374.054 172.476 375.188 172.476 376.952H173.61C173.61 375.782 174.51 375.098 176.022 375.098C177.3 375.098 178.326 375.638 178.326 377.348V377.636L175.446 377.87C173.412 378.032 172.188 379.04 172.188 380.642C172.188 382.172 173.286 383.216 175.14 383.216ZM175.428 382.208C174.24 382.208 173.448 381.668 173.448 380.606C173.448 379.634 174.114 378.914 175.752 378.77L178.326 378.572V379.04C178.326 380.93 177.264 382.208 175.428 382.208ZM183.882 383V375.332H185.628V374.288H183.882V371.534H182.658V374.288H180.912V375.332H182.658V383H183.882ZM186.344 374.288V375.332H187.676V383H188.918V375.332H190.97V374.288H188.918V372.596C188.918 371.57 189.206 371.012 190.304 371.012H191.042V369.95C190.754 369.896 190.394 369.878 190.088 369.878C188.756 369.878 187.676 370.634 187.676 372.596V374.288H186.344ZM191.784 378.644C191.784 381.29 193.656 383.216 196.212 383.216C198.768 383.216 200.64 381.29 200.64 378.644C200.64 375.98 198.768 374.054 196.212 374.054C193.656 374.054 191.784 375.98 191.784 378.644ZM193.044 378.626C193.044 376.61 194.34 375.17 196.212 375.17C198.066 375.17 199.38 376.61 199.38 378.626C199.38 380.678 198.066 382.1 196.212 382.1C194.34 382.1 193.044 380.678 193.044 378.626ZM207.18 374.18C206.874 374.108 206.64 374.09 206.37 374.09C205.146 374.09 204.228 374.702 203.886 375.638L203.796 374.288H202.626V383H203.868V378.032C203.868 376.376 204.894 375.296 206.496 375.296H207.18V374.18ZM210.073 383V377.6C210.073 376.268 210.955 375.188 212.413 375.188C213.727 375.188 214.573 376.052 214.573 377.528V383H215.797V377.618C215.797 376.268 216.661 375.17 218.119 375.17C219.451 375.17 220.279 376.052 220.279 377.546V383H221.485V377.294C221.485 375.278 220.243 374.054 218.353 374.054C216.949 374.054 215.887 374.774 215.491 375.908C215.077 374.774 214.051 374.054 212.683 374.054C211.459 374.054 210.487 374.612 210.055 375.53L209.911 374.288H208.831V383H210.073ZM225.046 383.198C225.658 383.198 226.18 382.694 226.18 382.1C226.18 381.488 225.658 380.966 225.046 380.966C224.434 380.966 223.912 381.488 223.912 382.1C223.912 382.694 224.434 383.198 225.046 383.198Z" fill="#0A0F0D"/>
<line x1="32" y1="321.5" x2="338" y2="321.5" stroke="#0A0F0D"/>
<path d="M45.056 300.374C50.598 300.374 54.984 297.11 56.038 292.214H52.502C51.584 295.24 48.728 297.178 45.124 297.178C40.16 297.178 36.896 293.438 36.896 287.692C36.896 281.946 40.16 278.206 45.124 278.206C48.694 278.206 51.448 280.144 52.366 283.34H55.936C55.018 278.308 50.768 275.01 45.226 275.01C38.188 275.01 33.394 280.144 33.394 287.726C33.394 295.342 38.052 300.374 45.056 300.374ZM58.4916 291.67C58.4916 296.804 62.1636 300.408 67.1616 300.408C72.1256 300.408 75.7976 296.804 75.7976 291.67C75.7976 286.536 72.1256 282.932 67.1616 282.932C62.1636 282.932 58.4916 286.536 58.4916 291.67ZM61.7216 291.67C61.7216 288.202 63.9316 285.788 67.1616 285.788C70.3576 285.788 72.6016 288.202 72.6016 291.67C72.6016 295.138 70.3576 297.552 67.1616 297.552C63.9316 297.552 61.7216 295.138 61.7216 291.67ZM82.5314 300V291.194C82.5314 287.964 84.2654 285.822 87.2574 285.822C89.7054 285.822 91.2694 287.182 91.2694 290.548V300H94.4654V289.834C94.4654 285.584 92.4594 282.898 88.0734 282.898C85.7274 282.898 83.6194 284.02 82.5654 285.924L82.2254 283.374H79.3354V300H82.5314ZM102.088 300V291.194C102.088 287.964 103.822 285.822 106.814 285.822C109.262 285.822 110.826 287.182 110.826 290.548V300H114.022V289.834C114.022 285.584 112.016 282.898 107.63 282.898C105.284 282.898 103.176 284.02 102.122 285.924L101.782 283.374H98.8921V300H102.088ZM125.623 300.408C129.737 300.408 132.525 298.402 133.341 294.832H130.349C129.805 296.736 128.173 297.756 125.691 297.756C122.529 297.756 120.693 295.818 120.455 292.316L133.307 292.282V291.092C133.307 286.162 130.213 282.898 125.487 282.898C120.659 282.898 117.361 286.502 117.361 291.704C117.361 296.872 120.727 300.408 125.623 300.408ZM125.487 285.584C128.309 285.584 130.111 287.42 130.111 290.174H120.523C120.931 287.25 122.699 285.584 125.487 285.584ZM135.788 291.704C135.788 296.94 139.018 300.408 143.914 300.408C147.926 300.408 151.02 297.994 151.666 294.39H148.47C147.892 296.362 146.192 297.552 143.914 297.552C140.888 297.552 138.95 295.24 138.95 291.67C138.95 288.066 141.024 285.754 144.05 285.754C146.192 285.754 147.892 286.876 148.436 288.984H151.632C151.054 285.278 148.13 282.898 143.948 282.898C139.086 282.898 135.788 286.502 135.788 291.704ZM159.731 300V286.06H162.995V283.374H159.731V278.172H156.535V283.374H153.271V286.06H156.535V300H159.731ZM174.276 282.048C174.276 285.584 176.35 287.896 180.362 288.814L184.408 289.732C186.754 290.276 187.808 291.5 187.808 293.438C187.808 295.886 185.734 297.416 182.47 297.416C179.376 297.416 177.404 295.92 177.336 293.574H173.936C174.14 297.79 177.472 300.408 182.47 300.408C187.706 300.408 191.14 297.586 191.14 293.166C191.14 289.698 189.1 287.522 185.088 286.604L181.042 285.652C178.73 285.108 177.608 283.918 177.608 281.946C177.608 279.532 179.614 277.968 182.708 277.968C185.462 277.968 187.196 279.396 187.366 281.844H190.732C190.46 277.594 187.434 274.976 182.742 274.976C177.676 274.976 174.276 277.832 174.276 282.048ZM197.979 299.966V290.922C197.979 288.066 199.645 285.822 202.739 285.822C205.119 285.822 206.717 287.182 206.717 290.548V300H209.913V289.834C209.913 285.584 207.873 282.898 203.623 282.898C201.039 282.898 199.033 284.122 197.979 285.924V274.976H194.783V299.966H197.979ZM213.251 291.67C213.251 296.804 216.923 300.408 221.921 300.408C226.885 300.408 230.557 296.804 230.557 291.67C230.557 286.536 226.885 282.932 221.921 282.932C216.923 282.932 213.251 286.536 213.251 291.67ZM216.481 291.67C216.481 288.202 218.691 285.788 221.921 285.788C225.117 285.788 227.361 288.202 227.361 291.67C227.361 295.138 225.117 297.552 221.921 297.552C218.691 297.552 216.481 295.138 216.481 291.67ZM234.095 307.446H237.291V297.28C238.379 299.32 240.589 300.442 243.241 300.442C248.171 300.442 250.959 296.634 250.959 291.568C250.959 286.468 248.001 282.898 243.241 282.898C240.589 282.898 238.345 284.088 237.223 286.366L236.985 283.374H234.095V307.446ZM237.325 291.704C237.325 288.236 239.297 285.822 242.561 285.822C245.825 285.822 247.763 288.27 247.763 291.704C247.763 295.104 245.825 297.552 242.561 297.552C239.297 297.552 237.325 295.104 237.325 291.704ZM256.046 279.43C257.202 279.43 258.154 278.478 258.154 277.322C258.154 276.132 257.202 275.214 256.046 275.214C254.89 275.214 253.938 276.132 253.938 277.322C253.938 278.478 254.89 279.43 256.046 279.43ZM254.482 300H257.678V283.374H254.482V300ZM260.55 283.374V286.06H262.998V300H266.194V286.06H270.138V283.374H266.194V280.722C266.194 278.92 266.738 277.866 268.812 277.866H270.24V275.112C269.594 275.01 268.88 274.976 268.268 274.976C265.242 274.976 262.998 276.642 262.998 280.722V283.374H260.55ZM271.511 307.446C272.361 307.65 273.245 307.786 274.299 307.786C276.849 307.786 278.515 306.596 279.637 303.74L287.491 283.374H284.193L279.263 296.77L274.435 283.374H271.069L277.767 300.884L277.189 302.482C276.407 304.59 275.183 304.828 273.653 304.828H271.511V307.446Z" fill="#0A0F0D"/>
<path d="M38.596 210.056V231H42.778V206.146H33.156V210.056H38.596Z" fill="#0A0F0D"/>
</svg>
