<svg width="370" height="537" viewBox="0 0 370 537" fill="none" xmlns="http://www.w3.org/2000/svg">
<path d="M0.5 14.0002C0.5 6.54441 6.54416 0.500244 14 0.500244H356C363.456 0.500244 369.5 6.5444 369.5 14.0002V523C369.5 530.456 363.456 536.5 356 536.5H14C6.54416 536.5 0.5 530.456 0.5 523V14.0002Z" fill="#D5E9F8" stroke="#0A0F0D"/>
<g clip-path="url(#clip0_1_575)">
<ellipse cx="165.509" cy="62.3231" rx="102.23" ry="41.0666" transform="rotate(18 165.509 62.3231)" fill="#C5B6F0" stroke="#191919" stroke-width="1.64361"/>
<ellipse cx="174.86" cy="55.9924" rx="105.673" ry="40.8935" transform="rotate(18 174.86 55.9924)" fill="white" stroke="#191919" stroke-width="1.64361"/>
<path opacity="0.9" d="M142.743 51.1397L144.334 46.2452L132.757 42.4838L135.509 34.0143L149.299 38.4948L150.93 33.4727L131.693 27.2222L121.584 58.3337L127.032 60.1038L131.167 47.3783L142.743 51.1397ZM151.18 67.9499L154.955 56.331L161.637 58.5021L163.14 71.8358L169.098 73.7718L167.331 59.0815C171.475 58.7812 174.401 56.4381 175.756 52.2672C177.747 46.1385 174.78 41.2221 167.715 38.9265L155.841 35.0683L145.732 66.1798L151.18 67.9499ZM159.712 41.6902L166.139 43.7784C169.586 44.8985 171.062 47.3072 170.053 50.4141C169.029 53.5636 166.392 54.7299 162.945 53.6098L156.518 51.5217L159.712 41.6902ZM193.567 81.7222L195.199 76.7001L181.324 72.1919L184.007 63.9352L196.434 67.9732L197.997 63.1639L185.569 59.1259L188.169 51.1246L202.044 55.6328L203.676 50.6106L184.353 44.3324L174.244 75.444L193.567 81.7222ZM218.795 89.9194L220.427 84.8973L206.553 80.3892L209.235 72.1325L221.663 76.1705L223.226 71.3612L210.798 67.3232L213.398 59.3219L227.272 63.83L228.904 58.8079L209.582 52.5297L199.473 83.6412L218.795 89.9194Z" fill="#191919"/>
<rect x="95.2988" y="128.262" width="209.281" height="77.5542" rx="38.7771" transform="rotate(-5 95.2988 128.262)" fill="#FFFBA0" stroke="#191919" stroke-width="1.53883"/>
<rect x="102.971" y="122.116" width="209.281" height="73.864" rx="36.932" transform="rotate(-5 102.971 122.116)" fill="white" stroke="#191919" stroke-width="1.53883"/>
<path opacity="0.9" d="M165.807 160.831L165.027 154.338L149.671 156.182L148.322 144.947L166.614 142.751L165.814 136.089L140.295 139.153L145.251 180.423L152.477 179.555L150.45 162.675L165.807 160.831ZM184.51 175.709L182.659 160.296L191.523 159.232L200.375 173.804L208.279 172.855L198.397 156.86C203.015 154.301 205.138 150.037 204.473 144.504C203.497 136.374 197.451 132.29 188.079 133.415L172.328 135.307L177.284 176.577L184.51 175.709ZM180.327 140.875L188.852 139.851C193.425 139.302 196.413 141.291 196.908 145.413C197.41 149.591 194.991 152.344 190.418 152.893L181.893 153.916L180.327 140.875ZM240.737 168.957L239.937 162.295L221.532 164.505L220.217 153.553L236.702 151.573L235.936 145.193L219.451 147.173L218.176 136.559L236.581 134.349L235.781 127.687L210.15 130.765L215.106 172.035L240.737 168.957ZM274.203 164.938L273.403 158.276L254.998 160.487L253.683 149.534L270.169 147.554L269.403 141.175L252.917 143.154L251.643 132.54L270.048 130.33L269.248 123.668L243.616 126.746L248.572 168.016L274.203 164.938Z" fill="#191919"/>
<rect x="66.6543" y="187.32" width="194.001" height="81.5058" rx="6.25327" transform="rotate(5 66.6543 187.32)" fill="#EBFFDB" stroke="#191919" stroke-width="1.56332"/>
<rect x="75.9395" y="185.643" width="191.506" height="75.0393" rx="6.25327" transform="rotate(5 75.9395 185.643)" fill="white" stroke="#191919" stroke-width="1.56332"/>
<path opacity="0.9" d="M127.922 232.364L128.458 226.236L113.964 224.968L114.892 214.364L132.157 215.875L132.707 209.587L108.622 207.48L105.214 246.432L112.034 247.029L113.428 231.096L127.922 232.364ZM142.268 249.674L143.541 235.127L151.906 235.859L157.241 250.984L164.701 251.636L158.693 235.003C163.439 233.539 166.216 230.023 166.673 224.801C167.345 217.128 162.567 212.2 153.722 211.426L138.855 210.125L135.447 249.077L142.268 249.674ZM145.144 216.796L153.19 217.5C157.507 217.878 159.873 220.286 159.533 224.176C159.188 228.119 156.43 230.187 152.114 229.809L144.067 229.105L145.144 216.796ZM195.337 254.317L195.887 248.029L178.515 246.509L179.42 236.172L194.979 237.533L195.506 231.512L179.947 230.15L180.823 220.133L198.194 221.652L198.744 215.365L174.553 213.248L171.145 252.2L195.337 254.317ZM226.923 257.08L227.473 250.792L210.102 249.273L211.006 238.935L226.566 240.296L227.093 234.275L211.533 232.914L212.41 222.896L229.781 224.416L230.331 218.128L206.139 216.012L202.731 254.964L226.923 257.08Z" fill="#191919"/>
<path d="M85.1846 121.524L87.5766 123.964L90.0171 126.356M85.1846 121.524L82.7926 123.964L80.352 126.356M85.1846 121.524V114.8M90.0171 126.356L87.5766 128.748L85.1846 131.189M90.0171 126.356H96.9742M85.1846 131.189L82.7926 128.748L80.352 126.356M85.1846 131.189V137.913M80.352 126.356H73.4414" stroke="#191919" stroke-width="1.23955" stroke-linecap="round" stroke-linejoin="round"/>
<path d="M35.5453 48.27L37.3937 50.1559L39.2797 52.0043M35.5453 48.27L33.6969 50.1559L31.8109 52.0043M35.5453 48.27V43.0742M39.2797 52.0043L37.3937 53.8528L35.5453 55.7387M39.2797 52.0043H44.6558M35.5453 55.7387L33.6969 53.8528L31.8109 52.0043M35.5453 55.7387V60.9346M31.8109 52.0043H26.4707" stroke="#191919" stroke-width="1.23955" stroke-linecap="round" stroke-linejoin="round"/>
<path d="M338.729 39.3398L340.577 41.2257L342.463 43.0742M338.729 39.3398L336.88 41.2257L334.995 43.0742M338.729 39.3398V34.144M342.463 43.0742L340.577 44.9226L338.729 46.8086M342.463 43.0742H347.839M338.729 46.8086L336.88 44.9226L334.995 43.0742M338.729 46.8086V52.0045M334.995 43.0742H329.654" stroke="#191919" stroke-width="1.23955" stroke-linecap="round" stroke-linejoin="round"/>
</g>
<path d="M32.476 331.478H39.888V353H43.22V331.478H50.598V328.418H32.476V331.478ZM56.5998 352.966V343.922C56.5998 341.066 58.2658 338.822 61.3598 338.822C63.7398 338.822 65.3378 340.182 65.3378 343.548V353H68.5338V342.834C68.5338 338.584 66.4938 335.898 62.2438 335.898C59.6598 335.898 57.6538 337.122 56.5998 338.924V327.976H53.4038V352.966H56.5998ZM80.1344 353.408C84.2484 353.408 87.0364 351.402 87.8524 347.832H84.8604C84.3164 349.736 82.6844 350.756 80.2024 350.756C77.0404 350.756 75.2044 348.818 74.9664 345.316L87.8184 345.282V344.092C87.8184 339.162 84.7244 335.898 79.9984 335.898C75.1704 335.898 71.8724 339.502 71.8724 344.704C71.8724 349.872 75.2384 353.408 80.1344 353.408ZM79.9984 338.584C82.8204 338.584 84.6224 340.42 84.6224 343.174H75.0344C75.4424 340.25 77.2104 338.584 79.9984 338.584ZM102.249 332.43C103.405 332.43 104.357 331.478 104.357 330.322C104.357 329.132 103.405 328.214 102.249 328.214C101.093 328.214 100.141 329.132 100.141 330.322C100.141 331.478 101.093 332.43 102.249 332.43ZM100.685 353H103.881V336.374H100.685V353ZM107.161 348.172C107.161 351.334 109.643 353.408 113.553 353.408C117.497 353.408 120.217 351.402 120.217 348.24C120.217 345.758 118.823 344.466 116.001 343.786L113.077 343.072C111.445 342.664 110.629 341.916 110.629 340.794C110.629 339.264 111.751 338.38 113.757 338.38C115.695 338.38 116.817 339.434 116.885 341.1H119.945C119.877 337.938 117.497 335.898 113.859 335.898C110.187 335.898 107.603 337.836 107.603 340.896C107.603 343.344 108.997 344.806 111.955 345.52L114.879 346.2C116.613 346.642 117.157 347.322 117.157 348.444C117.157 349.974 115.865 350.892 113.621 350.892C111.513 350.892 110.221 349.872 110.221 348.172H107.161ZM135.948 353L136.186 349.974C137.274 352.252 139.484 353.408 142.102 353.408C146.93 353.408 149.922 349.804 149.922 344.772C149.922 339.638 147.066 335.898 142.306 335.898C139.586 335.898 137.342 337.054 136.254 339.23V327.976H133.058V353H135.948ZM136.288 344.636C136.288 341.236 138.26 338.788 141.524 338.788C144.788 338.788 146.726 341.236 146.726 344.636C146.726 348.07 144.788 350.518 141.524 350.518C138.26 350.518 136.288 348.104 136.288 344.636ZM158.307 353.408C160.993 353.408 163.271 352.218 164.121 350.314L164.461 353H167.181V342.562C167.181 338.074 164.393 335.898 160.279 335.898C155.995 335.898 153.139 338.176 153.139 341.644H155.927C155.927 339.638 157.457 338.448 160.143 338.448C162.387 338.448 164.053 339.434 164.053 342.222V342.698L158.817 343.106C154.907 343.412 152.629 345.316 152.629 348.376C152.629 351.402 154.737 353.408 158.307 353.408ZM159.225 350.926C157.151 350.926 155.859 350.042 155.859 348.274C155.859 346.642 157.015 345.554 159.837 345.282L164.087 344.942V345.826C164.087 348.954 162.251 350.926 159.225 350.926ZM170.247 348.172C170.247 351.334 172.729 353.408 176.639 353.408C180.583 353.408 183.303 351.402 183.303 348.24C183.303 345.758 181.909 344.466 179.087 343.786L176.163 343.072C174.531 342.664 173.715 341.916 173.715 340.794C173.715 339.264 174.837 338.38 176.843 338.38C178.781 338.38 179.903 339.434 179.971 341.1H183.031C182.963 337.938 180.583 335.898 176.945 335.898C173.273 335.898 170.689 337.836 170.689 340.896C170.689 343.344 172.083 344.806 175.041 345.52L177.965 346.2C179.699 346.642 180.243 347.322 180.243 348.444C180.243 349.974 178.951 350.892 176.707 350.892C174.599 350.892 173.307 349.872 173.307 348.172H170.247ZM188.411 332.43C189.567 332.43 190.519 331.478 190.519 330.322C190.519 329.132 189.567 328.214 188.411 328.214C187.255 328.214 186.303 329.132 186.303 330.322C186.303 331.478 187.255 332.43 188.411 332.43ZM186.847 353H190.043V336.374H186.847V353ZM193.595 344.704C193.595 349.94 196.825 353.408 201.721 353.408C205.733 353.408 208.827 350.994 209.473 347.39H206.277C205.699 349.362 203.999 350.552 201.721 350.552C198.695 350.552 196.757 348.24 196.757 344.67C196.757 341.066 198.831 338.754 201.857 338.754C203.999 338.754 205.699 339.876 206.243 341.984H209.439C208.861 338.278 205.937 335.898 201.755 335.898C196.893 335.898 193.595 339.502 193.595 344.704ZM211.485 348.172C211.485 351.334 213.967 353.408 217.877 353.408C221.821 353.408 224.541 351.402 224.541 348.24C224.541 345.758 223.147 344.466 220.325 343.786L217.401 343.072C215.769 342.664 214.953 341.916 214.953 340.794C214.953 339.264 216.075 338.38 218.081 338.38C220.019 338.38 221.141 339.434 221.209 341.1H224.269C224.201 337.938 221.821 335.898 218.183 335.898C214.511 335.898 211.927 337.836 211.927 340.896C211.927 343.344 213.321 344.806 216.279 345.52L219.203 346.2C220.937 346.642 221.481 347.322 221.481 348.444C221.481 349.974 220.189 350.892 217.945 350.892C215.837 350.892 214.545 349.872 214.545 348.172H211.485ZM242.244 353.408C244.93 353.408 247.208 352.218 248.058 350.314L248.398 353H251.118V342.562C251.118 338.074 248.33 335.898 244.216 335.898C239.932 335.898 237.076 338.176 237.076 341.644H239.864C239.864 339.638 241.394 338.448 244.08 338.448C246.324 338.448 247.99 339.434 247.99 342.222V342.698L242.754 343.106C238.844 343.412 236.566 345.316 236.566 348.376C236.566 351.402 238.674 353.408 242.244 353.408ZM243.162 350.926C241.088 350.926 239.796 350.042 239.796 348.274C239.796 346.642 240.952 345.554 243.774 345.282L248.024 344.942V345.826C248.024 348.954 246.188 350.926 243.162 350.926ZM265.064 336.238C264.418 336.102 263.942 336.034 263.364 336.034C261.086 336.034 259.42 337.19 258.74 338.924L258.536 336.408H255.544V353H258.74V344.194C258.74 340.998 260.61 339.162 263.636 339.162H265.064V336.238ZM274.638 353.408C278.752 353.408 281.54 351.402 282.356 347.832H279.364C278.82 349.736 277.188 350.756 274.706 350.756C271.544 350.756 269.708 348.818 269.47 345.316L282.322 345.282V344.092C282.322 339.162 279.228 335.898 274.502 335.898C269.674 335.898 266.376 339.502 266.376 344.704C266.376 349.872 269.742 353.408 274.638 353.408ZM274.502 338.584C277.324 338.584 279.126 340.42 279.126 343.174H269.538C269.946 340.25 271.714 338.584 274.502 338.584ZM39.174 391.408C41.86 391.408 44.138 390.218 44.988 388.314L45.328 391H48.048V380.562C48.048 376.074 45.26 373.898 41.146 373.898C36.862 373.898 34.006 376.176 34.006 379.644H36.794C36.794 377.638 38.324 376.448 41.01 376.448C43.254 376.448 44.92 377.434 44.92 380.222V380.698L39.684 381.106C35.774 381.412 33.496 383.316 33.496 386.376C33.496 389.402 35.604 391.408 39.174 391.408ZM40.092 388.926C38.018 388.926 36.726 388.042 36.726 386.274C36.726 384.642 37.882 383.554 40.704 383.282L44.954 382.942V383.826C44.954 386.954 43.118 388.926 40.092 388.926ZM55.7381 391V365.976H52.5421V391H55.7381ZM64.0129 391H67.1749L70.0649 382.126C70.6769 380.12 70.9829 379.032 71.1529 378.216C71.3229 379.134 71.6629 380.426 72.2069 382.092L75.0969 391H78.1229L83.8009 374.374H80.4689L77.6809 383.01C77.2049 384.472 76.8989 385.628 76.6269 386.954C76.3549 385.764 75.8109 383.826 75.5389 383.01L72.7849 374.374H69.5209L66.7329 383.01C66.3589 384.098 65.9169 385.492 65.6449 386.954C65.3389 385.492 64.9989 384.234 64.6249 383.01L61.8709 374.374H58.5729L64.0129 391ZM90.6388 391.408C93.3248 391.408 95.6028 390.218 96.4528 388.314L96.7928 391H99.5128V380.562C99.5128 376.074 96.7248 373.898 92.6108 373.898C88.3268 373.898 85.4708 376.176 85.4708 379.644H88.2588C88.2588 377.638 89.7888 376.448 92.4748 376.448C94.7188 376.448 96.3848 377.434 96.3848 380.222V380.698L91.1488 381.106C87.2388 381.412 84.9608 383.316 84.9608 386.376C84.9608 389.402 87.0688 391.408 90.6388 391.408ZM91.5568 388.926C89.4828 388.926 88.1908 388.042 88.1908 386.274C88.1908 384.642 89.3468 383.554 92.1688 383.282L96.4188 382.942V383.826C96.4188 386.954 94.5828 388.926 91.5568 388.926ZM101.943 398.446C102.793 398.65 103.677 398.786 104.731 398.786C107.281 398.786 108.947 397.596 110.069 394.74L117.923 374.374H114.625L109.695 387.77L104.867 374.374H101.501L108.199 391.884L107.621 393.482C106.839 395.59 105.615 395.828 104.085 395.828H101.943V398.446ZM118.882 386.172C118.882 389.334 121.364 391.408 125.274 391.408C129.218 391.408 131.938 389.402 131.938 386.24C131.938 383.758 130.544 382.466 127.722 381.786L124.798 381.072C123.166 380.664 122.35 379.916 122.35 378.794C122.35 377.264 123.472 376.38 125.478 376.38C127.416 376.38 128.538 377.434 128.606 379.1H131.666C131.598 375.938 129.218 373.898 125.58 373.898C121.908 373.898 119.324 375.836 119.324 378.896C119.324 381.344 120.718 382.806 123.676 383.52L126.6 384.2C128.334 384.642 128.878 385.322 128.878 386.444C128.878 387.974 127.586 388.892 125.342 388.892C123.234 388.892 121.942 387.872 121.942 386.172H118.882ZM143.011 374.374V377.06H145.459V391H148.655V377.06H152.599V374.374H148.655V371.722C148.655 369.92 149.199 368.866 151.273 368.866H152.701V366.112C152.055 366.01 151.341 365.976 150.729 365.976C147.703 365.976 145.459 367.642 145.459 371.722V374.374H143.011ZM165.09 374.238C164.444 374.102 163.968 374.034 163.39 374.034C161.112 374.034 159.446 375.19 158.766 376.924L158.562 374.408H155.57V391H158.766V382.194C158.766 378.998 160.636 377.162 163.662 377.162H165.09V374.238ZM174.664 391.408C178.778 391.408 181.566 389.402 182.382 385.832H179.39C178.846 387.736 177.214 388.756 174.732 388.756C171.57 388.756 169.734 386.818 169.496 383.316L182.348 383.282V382.092C182.348 377.162 179.254 373.898 174.528 373.898C169.7 373.898 166.402 377.502 166.402 382.704C166.402 387.872 169.768 391.408 174.664 391.408ZM174.528 376.584C177.35 376.584 179.152 378.42 179.152 381.174H169.564C169.972 378.25 171.74 376.584 174.528 376.584ZM193.091 391.408C197.205 391.408 199.993 389.402 200.809 385.832H197.817C197.273 387.736 195.641 388.756 193.159 388.756C189.997 388.756 188.161 386.818 187.923 383.316L200.775 383.282V382.092C200.775 377.162 197.681 373.898 192.955 373.898C188.127 373.898 184.829 377.502 184.829 382.704C184.829 387.872 188.195 391.408 193.091 391.408ZM192.955 376.584C195.777 376.584 197.579 378.42 197.579 381.174H187.991C188.399 378.25 190.167 376.584 192.955 376.584Z" fill="#0A0F0D"/>
<path d="M37.49 434C41.36 434 43.934 431.408 43.934 427.556C43.934 423.704 41.342 421.112 37.454 421.112H33.566V434H37.49ZM37.4 422.3C40.586 422.3 42.602 424.334 42.602 427.556C42.602 430.76 40.586 432.812 37.436 432.812H34.862V422.3H37.4ZM48.507 434.216C49.983 434.216 51.171 433.568 51.711 432.47L51.873 434H52.917V428.366C52.917 426.062 51.441 425.054 49.425 425.054C47.283 425.054 45.843 426.188 45.843 427.952H46.977C46.977 426.782 47.877 426.098 49.389 426.098C50.667 426.098 51.693 426.638 51.693 428.348V428.636L48.813 428.87C46.779 429.032 45.555 430.04 45.555 431.642C45.555 433.172 46.653 434.216 48.507 434.216ZM48.795 433.208C47.607 433.208 46.815 432.668 46.815 431.606C46.815 430.634 47.481 429.914 49.119 429.77L51.693 429.572V430.04C51.693 431.93 50.631 433.208 48.795 433.208ZM57.2491 434V426.332H58.9951V425.288H57.2491V422.534H56.0251V425.288H54.2791V426.332H56.0251V434H57.2491ZM62.9738 434.216C64.4498 434.216 65.6378 433.568 66.1778 432.47L66.3398 434H67.3838V428.366C67.3838 426.062 65.9078 425.054 63.8918 425.054C61.7498 425.054 60.3098 426.188 60.3098 427.952H61.4438C61.4438 426.782 62.3438 426.098 63.8558 426.098C65.1338 426.098 66.1598 426.638 66.1598 428.348V428.636L63.2798 428.87C61.2458 429.032 60.0218 430.04 60.0218 431.642C60.0218 433.172 61.1198 434.216 62.9738 434.216ZM63.2618 433.208C62.0738 433.208 61.2818 432.668 61.2818 431.606C61.2818 430.634 61.9478 429.914 63.5858 429.77L66.1598 429.572V430.04C66.1598 431.93 65.0978 433.208 63.2618 433.208ZM77.2983 434H78.5403L82.1583 425.288H80.8803L78.5943 430.904C78.3423 431.534 78.1083 432.11 77.9463 432.704C77.7843 432.128 77.5503 431.534 77.3163 430.904L75.0663 425.288H73.7343L77.2983 434ZM84.2342 422.894C84.7382 422.894 85.1702 422.48 85.1702 421.976C85.1702 421.472 84.7382 421.04 84.2342 421.04C83.7302 421.04 83.3162 421.472 83.3162 421.976C83.3162 422.48 83.7302 422.894 84.2342 422.894ZM83.6222 434H84.8642V425.288H83.6222V434ZM86.7162 431.552C86.7162 433.172 87.9402 434.216 89.9022 434.216C91.8822 434.216 93.2142 433.19 93.2142 431.624C93.2142 430.364 92.5302 429.662 91.0182 429.284L89.5242 428.906C88.5702 428.672 88.1022 428.204 88.1022 427.538C88.1022 426.602 88.7862 426.08 90.0102 426.08C91.1802 426.08 91.8822 426.674 91.9182 427.682H93.1242C93.0702 426.062 91.8822 425.054 90.0462 425.054C88.1742 425.054 86.8962 426.026 86.8962 427.556C86.8962 428.744 87.6342 429.536 89.1462 429.914L90.6402 430.292C91.6662 430.544 92.0262 430.958 92.0262 431.678C92.0262 432.614 91.2342 433.19 89.8842 433.19C88.6602 433.19 87.9042 432.56 87.9042 431.552H86.7162ZM101.379 425.288V429.914C101.379 431.984 100.389 433.1 98.7149 433.1C97.3289 433.1 96.4109 432.362 96.4109 430.292V425.27H95.1509V430.688C95.1509 432.812 96.2669 434.216 98.3189 434.216C99.6869 434.216 100.893 433.532 101.379 432.524L101.541 434H102.621V425.288H101.379ZM107.71 434.216C109.186 434.216 110.374 433.568 110.914 432.47L111.076 434H112.12V428.366C112.12 426.062 110.644 425.054 108.628 425.054C106.486 425.054 105.046 426.188 105.046 427.952H106.18C106.18 426.782 107.08 426.098 108.592 426.098C109.87 426.098 110.896 426.638 110.896 428.348V428.636L108.016 428.87C105.982 429.032 104.758 430.04 104.758 431.642C104.758 433.172 105.856 434.216 107.71 434.216ZM107.998 433.208C106.81 433.208 106.018 432.668 106.018 431.606C106.018 430.634 106.684 429.914 108.322 429.77L110.896 429.572V430.04C110.896 431.93 109.834 433.208 107.998 433.208ZM115.908 434V420.878H114.666V434H115.908ZM119.162 422.894C119.666 422.894 120.098 422.48 120.098 421.976C120.098 421.472 119.666 421.04 119.162 421.04C118.658 421.04 118.244 421.472 118.244 421.976C118.244 422.48 118.658 422.894 119.162 422.894ZM118.55 434H119.792V425.288H118.55V434ZM128.358 434V432.956H123.3L128.358 426.296V425.288H121.788V426.332H126.828L121.788 433.01V434H128.358ZM132.864 434.216C134.34 434.216 135.528 433.568 136.068 432.47L136.23 434H137.274V428.366C137.274 426.062 135.798 425.054 133.782 425.054C131.64 425.054 130.2 426.188 130.2 427.952H131.334C131.334 426.782 132.234 426.098 133.746 426.098C135.024 426.098 136.05 426.638 136.05 428.348V428.636L133.17 428.87C131.136 429.032 129.912 430.04 129.912 431.642C129.912 433.172 131.01 434.216 132.864 434.216ZM133.152 433.208C131.964 433.208 131.172 432.668 131.172 431.606C131.172 430.634 131.838 429.914 133.476 429.77L136.05 429.572V430.04C136.05 431.93 134.988 433.208 133.152 433.208ZM141.607 434V426.332H143.353V425.288H141.607V422.534H140.383V425.288H138.637V426.332H140.383V434H141.607ZM145.582 422.894C146.086 422.894 146.518 422.48 146.518 421.976C146.518 421.472 146.086 421.04 145.582 421.04C145.078 421.04 144.664 421.472 144.664 421.976C144.664 422.48 145.078 422.894 145.582 422.894ZM144.97 434H146.212V425.288H144.97V434ZM148.19 429.644C148.19 432.29 150.062 434.216 152.618 434.216C155.174 434.216 157.046 432.29 157.046 429.644C157.046 426.98 155.174 425.054 152.618 425.054C150.062 425.054 148.19 426.98 148.19 429.644ZM149.45 429.626C149.45 427.61 150.746 426.17 152.618 426.17C154.472 426.17 155.786 427.61 155.786 429.626C155.786 431.678 154.472 433.1 152.618 433.1C150.746 433.1 149.45 431.678 149.45 429.626ZM160.274 434V429.446C160.274 427.484 161.282 426.188 163.064 426.188C164.504 426.188 165.422 426.908 165.422 428.942V434H166.664V428.672C166.664 426.476 165.674 425.054 163.28 425.054C162.02 425.054 160.868 425.684 160.292 426.8L160.112 425.288H159.032V434H160.274ZM168.296 431.552C168.296 433.172 169.52 434.216 171.482 434.216C173.462 434.216 174.794 433.19 174.794 431.624C174.794 430.364 174.11 429.662 172.598 429.284L171.104 428.906C170.15 428.672 169.682 428.204 169.682 427.538C169.682 426.602 170.366 426.08 171.59 426.08C172.76 426.08 173.462 426.674 173.498 427.682H174.704C174.65 426.062 173.462 425.054 171.626 425.054C169.754 425.054 168.476 426.026 168.476 427.556C168.476 428.744 169.214 429.536 170.726 429.914L172.22 430.292C173.246 430.544 173.606 430.958 173.606 431.678C173.606 432.614 172.814 433.19 171.464 433.19C170.24 433.19 169.484 432.56 169.484 431.552H168.296ZM183.829 434V426.332H185.575V425.288H183.829V422.534H182.605V425.288H180.859V426.332H182.605V434H183.829ZM188.434 433.982V429.248C188.434 427.574 189.406 426.188 191.278 426.188C192.628 426.188 193.582 426.908 193.582 428.942V434H194.824V428.672C194.824 426.476 193.798 425.054 191.512 425.054C190.054 425.054 188.992 425.756 188.434 426.8V420.878H187.192V433.982H188.434ZM199.802 434.216C201.278 434.216 202.466 433.568 203.006 432.47L203.168 434H204.212V428.366C204.212 426.062 202.736 425.054 200.72 425.054C198.578 425.054 197.138 426.188 197.138 427.952H198.272C198.272 426.782 199.172 426.098 200.684 426.098C201.962 426.098 202.988 426.638 202.988 428.348V428.636L200.108 428.87C198.074 429.032 196.85 430.04 196.85 431.642C196.85 433.172 197.948 434.216 199.802 434.216ZM200.09 433.208C198.902 433.208 198.11 432.668 198.11 431.606C198.11 430.634 198.776 429.914 200.414 429.77L202.988 429.572V430.04C202.988 431.93 201.926 433.208 200.09 433.208ZM208.544 434V426.332H210.29V425.288H208.544V422.534H207.32V425.288H205.574V426.332H207.32V434H208.544ZM218.736 434H219.978L221.778 428.528C222.012 427.808 222.156 427.286 222.282 426.818C222.39 427.34 222.534 427.88 222.75 428.528L224.55 434H225.756L228.708 425.288H227.412L225.684 430.544C225.378 431.48 225.342 431.696 225.162 432.416C225 431.768 224.784 431.012 224.622 430.544L222.912 425.288H221.634L219.906 430.544C219.816 430.832 219.528 431.714 219.384 432.416C219.204 431.714 219.042 431.12 218.844 430.544L217.134 425.288H215.856L218.736 434ZM229.26 429.644C229.26 432.29 231.132 434.216 233.688 434.216C236.244 434.216 238.116 432.29 238.116 429.644C238.116 426.98 236.244 425.054 233.688 425.054C231.132 425.054 229.26 426.98 229.26 429.644ZM230.52 429.626C230.52 427.61 231.816 426.17 233.688 426.17C235.542 426.17 236.856 427.61 236.856 429.626C236.856 431.678 235.542 433.1 233.688 433.1C231.816 433.1 230.52 431.678 230.52 429.626ZM244.657 425.18C244.351 425.108 244.117 425.09 243.847 425.09C242.623 425.09 241.705 425.702 241.363 426.638L241.273 425.288H240.103V434H241.345V429.032C241.345 427.376 242.371 426.296 243.973 426.296H244.657V425.18ZM247.604 434V431.39L249.296 429.644L252.068 434H253.508L250.142 428.762L253.49 425.288H251.924L247.604 429.788V420.878H246.362V434H247.604ZM259.012 425.288V426.332H260.344V434H261.586V426.332H263.638V425.288H261.586V423.596C261.586 422.57 261.874 422.012 262.972 422.012H263.71V420.95C263.422 420.896 263.062 420.878 262.756 420.878C261.424 420.878 260.344 421.634 260.344 423.596V425.288H259.012ZM264.452 429.644C264.452 432.29 266.324 434.216 268.88 434.216C271.436 434.216 273.308 432.29 273.308 429.644C273.308 426.98 271.436 425.054 268.88 425.054C266.324 425.054 264.452 426.98 264.452 429.644ZM265.712 429.626C265.712 427.61 267.008 426.17 268.88 426.17C270.734 426.17 272.048 427.61 272.048 429.626C272.048 431.678 270.734 433.1 268.88 433.1C267.008 433.1 265.712 431.678 265.712 429.626ZM279.848 425.18C279.542 425.108 279.308 425.09 279.038 425.09C277.814 425.09 276.896 425.702 276.554 426.638L276.464 425.288H275.294V434H276.536V429.032C276.536 427.376 277.562 426.296 279.164 426.296H279.848V425.18ZM290.145 434.216C292.197 434.216 293.547 433.226 294.015 431.39H292.827C292.503 432.542 291.585 433.154 290.163 433.154C288.291 433.154 287.175 431.93 287.085 429.806H294.015V429.194C294.015 426.728 292.413 425.054 290.055 425.054C287.571 425.054 285.879 426.926 285.879 429.644C285.879 432.38 287.589 434.216 290.145 434.216ZM290.055 426.116C291.693 426.116 292.773 427.232 292.773 428.906H287.121C287.337 427.196 288.417 426.116 290.055 426.116ZM298.203 434H299.445L303.063 425.288H301.785L299.499 430.904C299.247 431.534 299.013 432.11 298.851 432.704C298.689 432.128 298.455 431.534 298.221 430.904L295.971 425.288H294.639L298.203 434ZM307.794 434.216C309.846 434.216 311.196 433.226 311.664 431.39H310.476C310.152 432.542 309.234 433.154 307.812 433.154C305.94 433.154 304.824 431.93 304.734 429.806H311.664V429.194C311.664 426.728 310.062 425.054 307.704 425.054C305.22 425.054 303.528 426.926 303.528 429.644C303.528 432.38 305.238 434.216 307.794 434.216ZM307.704 426.116C309.342 426.116 310.422 427.232 310.422 428.906H304.77C304.986 427.196 306.066 426.116 307.704 426.116ZM318.204 425.18C317.898 425.108 317.664 425.09 317.394 425.09C316.17 425.09 315.252 425.702 314.91 426.638L314.82 425.288H313.65V434H314.892V429.032C314.892 427.376 315.918 426.296 317.52 426.296H318.204V425.18ZM319.236 437.798C319.632 437.888 320.028 437.924 320.55 437.924C321.792 437.924 322.638 437.366 323.142 435.998L327.138 425.288H325.86L323.106 432.884L320.298 425.288H318.984L322.512 434.522L322.134 435.548C321.702 436.718 320.946 436.772 320.19 436.772H319.236V437.798ZM32.558 459.552C32.558 461.172 33.782 462.216 35.744 462.216C37.724 462.216 39.056 461.19 39.056 459.624C39.056 458.364 38.372 457.662 36.86 457.284L35.366 456.906C34.412 456.672 33.944 456.204 33.944 455.538C33.944 454.602 34.628 454.08 35.852 454.08C37.022 454.08 37.724 454.674 37.76 455.682H38.966C38.912 454.062 37.724 453.054 35.888 453.054C34.016 453.054 32.738 454.026 32.738 455.556C32.738 456.744 33.476 457.536 34.988 457.914L36.482 458.292C37.508 458.544 37.868 458.958 37.868 459.678C37.868 460.614 37.076 461.19 35.726 461.19C34.502 461.19 33.746 460.56 33.746 459.552H32.558ZM43.0987 462V454.332H44.8447V453.288H43.0987V450.534H41.8747V453.288H40.1287V454.332H41.8747V462H43.0987ZM45.7621 457.644C45.7621 460.29 47.6341 462.216 50.1901 462.216C52.7461 462.216 54.6181 460.29 54.6181 457.644C54.6181 454.98 52.7461 453.054 50.1901 453.054C47.6341 453.054 45.7621 454.98 45.7621 457.644ZM47.0221 457.626C47.0221 455.61 48.3181 454.17 50.1901 454.17C52.0441 454.17 53.3581 455.61 53.3581 457.626C53.3581 459.678 52.0441 461.1 50.1901 461.1C48.3181 461.1 47.0221 459.678 47.0221 457.626ZM61.1586 453.18C60.8526 453.108 60.6186 453.09 60.3486 453.09C59.1246 453.09 58.2066 453.702 57.8646 454.638L57.7746 453.288H56.6046V462H57.8466V457.032C57.8466 455.376 58.8726 454.296 60.4746 454.296H61.1586V453.18ZM66.1297 462.216C68.1817 462.216 69.5317 461.226 69.9997 459.39H68.8117C68.4877 460.542 67.5697 461.154 66.1477 461.154C64.2757 461.154 63.1597 459.93 63.0697 457.806H69.9997V457.194C69.9997 454.728 68.3977 453.054 66.0397 453.054C63.5557 453.054 61.8637 454.926 61.8637 457.644C61.8637 460.38 63.5737 462.216 66.1297 462.216ZM66.0397 454.116C67.6777 454.116 68.7577 455.232 68.7577 456.906H63.1057C63.3217 455.196 64.4017 454.116 66.0397 454.116ZM79.4796 462.216C80.9556 462.216 82.1436 461.568 82.6836 460.47L82.8456 462H83.8896V456.366C83.8896 454.062 82.4136 453.054 80.3976 453.054C78.2556 453.054 76.8156 454.188 76.8156 455.952H77.9496C77.9496 454.782 78.8496 454.098 80.3616 454.098C81.6396 454.098 82.6656 454.638 82.6656 456.348V456.636L79.7856 456.87C77.7516 457.032 76.5276 458.04 76.5276 459.642C76.5276 461.172 77.6256 462.216 79.4796 462.216ZM79.7676 461.208C78.5796 461.208 77.7876 460.668 77.7876 459.606C77.7876 458.634 78.4536 457.914 80.0916 457.77L82.6656 457.572V458.04C82.6656 459.93 81.6036 461.208 79.7676 461.208ZM87.6239 462V457.446C87.6239 455.484 88.6319 454.188 90.4139 454.188C91.8539 454.188 92.7719 454.908 92.7719 456.942V462H94.0139V456.672C94.0139 454.476 93.0239 453.054 90.6299 453.054C89.3699 453.054 88.2179 453.684 87.6419 454.8L87.4619 453.288H86.3819V462H87.6239ZM99.9094 462.216C101.367 462.216 102.591 461.568 103.203 460.218L103.329 462H104.409V448.878H103.167V454.944C102.555 453.684 101.403 453.054 99.9634 453.054C97.3714 453.054 95.8774 455.034 95.8774 457.662C95.8774 460.272 97.3714 462.216 99.9094 462.216ZM100.125 461.082C98.2354 461.082 97.1374 459.642 97.1374 457.626C97.1374 455.628 98.2354 454.17 100.125 454.17C102.033 454.17 103.149 455.628 103.149 457.626C103.149 459.642 102.033 461.082 100.125 461.082ZM111.255 459.552C111.255 461.172 112.479 462.216 114.441 462.216C116.421 462.216 117.753 461.19 117.753 459.624C117.753 458.364 117.069 457.662 115.557 457.284L114.063 456.906C113.109 456.672 112.641 456.204 112.641 455.538C112.641 454.602 113.325 454.08 114.549 454.08C115.719 454.08 116.421 454.674 116.457 455.682H117.663C117.609 454.062 116.421 453.054 114.585 453.054C112.713 453.054 111.435 454.026 111.435 455.556C111.435 456.744 112.173 457.536 113.685 457.914L115.179 458.292C116.205 458.544 116.565 458.958 116.565 459.678C116.565 460.614 115.773 461.19 114.423 461.19C113.199 461.19 112.443 460.56 112.443 459.552H111.255ZM120.41 450.894C120.914 450.894 121.346 450.48 121.346 449.976C121.346 449.472 120.914 449.04 120.41 449.04C119.906 449.04 119.492 449.472 119.492 449.976C119.492 450.48 119.906 450.894 120.41 450.894ZM119.798 462H121.04V453.288H119.798V462ZM129.606 462V460.956H124.548L129.606 454.296V453.288H123.036V454.332H128.076L123.036 461.01V462H129.606ZM134.983 462.216C137.035 462.216 138.385 461.226 138.853 459.39H137.665C137.341 460.542 136.423 461.154 135.001 461.154C133.129 461.154 132.013 459.93 131.923 457.806H138.853V457.194C138.853 454.728 137.251 453.054 134.893 453.054C132.409 453.054 130.717 454.926 130.717 457.644C130.717 460.38 132.427 462.216 134.983 462.216ZM134.893 454.116C136.531 454.116 137.611 455.232 137.611 456.906H131.959C132.175 455.196 133.255 454.116 134.893 454.116ZM141.356 462.198C141.968 462.198 142.49 461.694 142.49 461.1C142.49 460.488 141.968 459.966 141.356 459.966C140.744 459.966 140.222 460.488 140.222 461.1C140.222 461.694 140.744 462.198 141.356 462.198ZM150.177 457.518C150.177 460.452 151.977 462.216 154.965 462.216C157.899 462.216 159.699 460.434 159.699 457.518V449.112H158.403V457.464C158.403 459.696 157.161 460.956 154.965 460.956C152.715 460.956 151.473 459.732 151.473 457.464V449.112H150.177V457.518ZM163.72 462V457.446C163.72 455.484 164.728 454.188 166.51 454.188C167.95 454.188 168.868 454.908 168.868 456.942V462H170.11V456.672C170.11 454.476 169.12 453.054 166.726 453.054C165.466 453.054 164.314 453.684 163.738 454.8L163.558 453.288H162.478V462H163.72ZM173.881 462V448.878H172.639V462H173.881ZM175.911 457.644C175.911 460.29 177.783 462.216 180.339 462.216C182.895 462.216 184.767 460.29 184.767 457.644C184.767 454.98 182.895 453.054 180.339 453.054C177.783 453.054 175.911 454.98 175.911 457.644ZM177.171 457.626C177.171 455.61 178.467 454.17 180.339 454.17C182.193 454.17 183.507 455.61 183.507 457.626C183.507 459.678 182.193 461.1 180.339 461.1C178.467 461.1 177.171 459.678 177.171 457.626ZM186.141 457.662C186.141 460.398 187.815 462.216 190.281 462.216C192.261 462.216 193.809 461.046 194.223 459.264H192.963C192.621 460.38 191.577 461.1 190.281 461.1C188.517 461.1 187.365 459.714 187.365 457.644C187.365 455.502 188.607 454.152 190.371 454.152C191.577 454.152 192.621 454.818 192.945 456.024H194.187C193.845 454.224 192.369 453.054 190.353 453.054C187.815 453.054 186.141 454.926 186.141 457.662ZM197.401 462V459.39L199.093 457.644L201.865 462H203.305L199.939 456.762L203.287 453.288H201.721L197.401 457.788V448.878H196.159V462H197.401ZM209.276 452.46C209.276 454.224 210.338 455.376 212.354 455.862L214.532 456.402C215.918 456.726 216.566 457.482 216.566 458.634C216.566 460.11 215.36 461.028 213.47 461.028C211.706 461.028 210.518 460.146 210.446 458.796H209.114C209.276 460.902 210.968 462.216 213.47 462.216C216.134 462.216 217.862 460.794 217.862 458.562C217.862 456.816 216.818 455.664 214.802 455.178L212.588 454.638C211.238 454.296 210.572 453.576 210.572 452.442C210.572 450.984 211.76 450.048 213.578 450.048C215.198 450.048 216.188 450.876 216.332 452.334H217.646C217.448 450.174 215.918 448.878 213.596 448.878C211.004 448.878 209.276 450.3 209.276 452.46ZM221.921 462V454.332H223.667V453.288H221.921V450.534H220.697V453.288H218.951V454.332H220.697V462H221.921ZM224.584 457.644C224.584 460.29 226.456 462.216 229.012 462.216C231.568 462.216 233.44 460.29 233.44 457.644C233.44 454.98 231.568 453.054 229.012 453.054C226.456 453.054 224.584 454.98 224.584 457.644ZM225.844 457.626C225.844 455.61 227.14 454.17 229.012 454.17C230.866 454.17 232.18 455.61 232.18 457.626C232.18 459.678 230.866 461.1 229.012 461.1C227.14 461.1 225.844 459.678 225.844 457.626ZM239.981 453.18C239.675 453.108 239.441 453.09 239.171 453.09C237.947 453.09 237.029 453.702 236.687 454.638L236.597 453.288H235.427V462H236.669V457.032C236.669 455.376 237.695 454.296 239.297 454.296H239.981V453.18ZM244.952 462.216C247.004 462.216 248.354 461.226 248.822 459.39H247.634C247.31 460.542 246.392 461.154 244.97 461.154C243.098 461.154 241.982 459.93 241.892 457.806H248.822V457.194C248.822 454.728 247.22 453.054 244.862 453.054C242.378 453.054 240.686 454.926 240.686 457.644C240.686 460.38 242.396 462.216 244.952 462.216ZM244.862 454.116C246.5 454.116 247.58 455.232 247.58 456.906H241.928C242.144 455.196 243.224 454.116 244.862 454.116ZM267.554 455.556C267.554 451.632 265.034 448.878 261.416 448.878C257.816 448.878 255.278 451.65 255.278 455.556C255.278 459.462 257.798 462.216 261.416 462.216C265.016 462.216 267.554 459.462 267.554 455.556ZM266.222 455.556C266.222 458.76 264.26 460.974 261.416 460.974C258.572 460.974 256.628 458.778 256.628 455.556C256.628 452.334 258.572 450.138 261.416 450.138C264.26 450.138 266.222 452.334 266.222 455.556ZM272.064 462H273.306L276.924 453.288H275.646L273.36 458.904C273.108 459.534 272.874 460.11 272.712 460.704C272.55 460.128 272.316 459.534 272.082 458.904L269.832 453.288H268.5L272.064 462ZM281.655 462.216C283.707 462.216 285.057 461.226 285.525 459.39H284.337C284.013 460.542 283.095 461.154 281.673 461.154C279.801 461.154 278.685 459.93 278.595 457.806H285.525V457.194C285.525 454.728 283.923 453.054 281.565 453.054C279.081 453.054 277.389 454.926 277.389 457.644C277.389 460.38 279.099 462.216 281.655 462.216ZM281.565 454.116C283.203 454.116 284.283 455.232 284.283 456.906H278.631C278.847 455.196 279.927 454.116 281.565 454.116ZM292.065 453.18C291.759 453.108 291.525 453.09 291.255 453.09C290.031 453.09 289.113 453.702 288.771 454.638L288.681 453.288H287.511V462H288.753V457.032C288.753 455.376 289.779 454.296 291.381 454.296H292.065V453.18ZM296.41 462H297.652L301.27 453.288H299.992L297.706 458.904C297.454 459.534 297.22 460.11 297.058 460.704C296.896 460.128 296.662 459.534 296.428 458.904L294.178 453.288H292.846L296.41 462ZM303.346 450.894C303.85 450.894 304.282 450.48 304.282 449.976C304.282 449.472 303.85 449.04 303.346 449.04C302.842 449.04 302.428 449.472 302.428 449.976C302.428 450.48 302.842 450.894 303.346 450.894ZM302.734 462H303.976V453.288H302.734V462ZM310.22 462.216C312.272 462.216 313.622 461.226 314.09 459.39H312.902C312.578 460.542 311.66 461.154 310.238 461.154C308.366 461.154 307.25 459.93 307.16 457.806H314.09V457.194C314.09 454.728 312.488 453.054 310.13 453.054C307.646 453.054 305.954 454.926 305.954 457.644C305.954 460.38 307.664 462.216 310.22 462.216ZM310.13 454.116C311.768 454.116 312.848 455.232 312.848 456.906H307.196C307.412 455.196 308.492 454.116 310.13 454.116ZM317.683 462H318.925L320.725 456.528C320.959 455.808 321.103 455.286 321.229 454.818C321.337 455.34 321.481 455.88 321.697 456.528L323.497 462H324.703L327.655 453.288H326.359L324.631 458.544C324.325 459.48 324.289 459.696 324.109 460.416C323.947 459.768 323.731 459.012 323.569 458.544L321.859 453.288H320.581L318.853 458.544C318.763 458.832 318.475 459.714 318.331 460.416C318.151 459.714 317.989 459.12 317.791 458.544L316.081 453.288H314.803L317.683 462ZM35.798 490.216C37.274 490.216 38.462 489.568 39.002 488.47L39.164 490H40.208V484.366C40.208 482.062 38.732 481.054 36.716 481.054C34.574 481.054 33.134 482.188 33.134 483.952H34.268C34.268 482.782 35.168 482.098 36.68 482.098C37.958 482.098 38.984 482.638 38.984 484.348V484.636L36.104 484.87C34.07 485.032 32.846 486.04 32.846 487.642C32.846 489.172 33.944 490.216 35.798 490.216ZM36.086 489.208C34.898 489.208 34.106 488.668 34.106 487.606C34.106 486.634 34.772 485.914 36.41 485.77L38.984 485.572V486.04C38.984 487.93 37.922 489.208 36.086 489.208ZM43.9423 490V485.446C43.9423 483.484 44.9503 482.188 46.7323 482.188C48.1723 482.188 49.0903 482.908 49.0903 484.942V490H50.3323V484.672C50.3323 482.476 49.3423 481.054 46.9483 481.054C45.6883 481.054 44.5363 481.684 43.9603 482.8L43.7803 481.288H42.7003V490H43.9423ZM56.2277 490.216C57.6857 490.216 58.9097 489.568 59.5217 488.218L59.6477 490H60.7277V476.878H59.4857V482.944C58.8737 481.684 57.7217 481.054 56.2817 481.054C53.6897 481.054 52.1957 483.034 52.1957 485.662C52.1957 488.272 53.6897 490.216 56.2277 490.216ZM56.4437 489.082C54.5537 489.082 53.4557 487.642 53.4557 485.626C53.4557 483.628 54.5537 482.17 56.4437 482.17C58.3517 482.17 59.4677 483.628 59.4677 485.626C59.4677 487.642 58.3517 489.082 56.4437 489.082ZM76.3036 490V488.812H69.8776V484.114H75.6916V482.944H69.8776V478.3H76.2856V477.112H68.5816V490H76.3036ZM79.9071 490V484.6C79.9071 483.268 80.7891 482.188 82.2471 482.188C83.5611 482.188 84.4071 483.052 84.4071 484.528V490H85.6311V484.618C85.6311 483.268 86.4951 482.17 87.9531 482.17C89.2851 482.17 90.1131 483.052 90.1131 484.546V490H91.3191V484.294C91.3191 482.278 90.0771 481.054 88.1871 481.054C86.7831 481.054 85.7211 481.774 85.3251 482.908C84.9111 481.774 83.8851 481.054 82.5171 481.054C81.2931 481.054 80.3211 481.612 79.8891 482.53L79.7451 481.288H78.6651V490H79.9071ZM96.3195 490.216C97.7955 490.216 98.9835 489.568 99.5235 488.47L99.6855 490H100.729V484.366C100.729 482.062 99.2535 481.054 97.2375 481.054C95.0955 481.054 93.6555 482.188 93.6555 483.952H94.7895C94.7895 482.782 95.6895 482.098 97.2015 482.098C98.4795 482.098 99.5055 482.638 99.5055 484.348V484.636L96.6255 484.87C94.5915 485.032 93.3675 486.04 93.3675 487.642C93.3675 489.172 94.4655 490.216 96.3195 490.216ZM96.6075 489.208C95.4195 489.208 94.6275 488.668 94.6275 487.606C94.6275 486.634 95.2935 485.914 96.9315 485.77L99.5055 485.572V486.04C99.5055 487.93 98.4435 489.208 96.6075 489.208ZM103.834 478.894C104.338 478.894 104.77 478.48 104.77 477.976C104.77 477.472 104.338 477.04 103.834 477.04C103.33 477.04 102.916 477.472 102.916 477.976C102.916 478.48 103.33 478.894 103.834 478.894ZM103.222 490H104.464V481.288H103.222V490ZM108.35 490V476.878H107.108V490H108.35ZM117.55 490V484.654H121.312L123.939 490H125.38L122.626 484.438C124.282 483.988 125.254 482.692 125.254 480.838C125.254 478.552 123.67 477.112 121.06 477.112H116.254V490H117.55ZM117.55 478.282H121.06C122.824 478.282 123.922 479.2 123.922 480.874C123.922 482.512 122.878 483.484 121.096 483.484H117.55V478.282ZM130.518 490.216C132.57 490.216 133.92 489.226 134.388 487.39H133.2C132.876 488.542 131.958 489.154 130.536 489.154C128.664 489.154 127.548 487.93 127.458 485.806H134.388V485.194C134.388 482.728 132.786 481.054 130.428 481.054C127.944 481.054 126.252 482.926 126.252 485.644C126.252 488.38 127.962 490.216 130.518 490.216ZM130.428 482.116C132.066 482.116 133.146 483.232 133.146 484.906H127.494C127.71 483.196 128.79 482.116 130.428 482.116ZM136.374 493.798H137.616V488.326C138.228 489.586 139.398 490.216 140.874 490.216C143.448 490.216 144.906 488.236 144.906 485.608C144.906 482.98 143.394 481.054 140.874 481.054C139.416 481.054 138.192 481.702 137.58 483.052L137.454 481.288H136.374V493.798ZM137.634 485.644C137.634 483.628 138.75 482.188 140.658 482.188C142.548 482.188 143.646 483.628 143.646 485.644C143.646 487.642 142.548 489.1 140.658 489.1C138.75 489.1 137.634 487.642 137.634 485.644ZM146.274 485.644C146.274 488.29 148.146 490.216 150.702 490.216C153.258 490.216 155.13 488.29 155.13 485.644C155.13 482.98 153.258 481.054 150.702 481.054C148.146 481.054 146.274 482.98 146.274 485.644ZM147.534 485.626C147.534 483.61 148.83 482.17 150.702 482.17C152.556 482.17 153.87 483.61 153.87 485.626C153.87 487.678 152.556 489.1 150.702 489.1C148.83 489.1 147.534 487.678 147.534 485.626ZM161.67 481.18C161.364 481.108 161.13 481.09 160.86 481.09C159.636 481.09 158.718 481.702 158.376 482.638L158.286 481.288H157.116V490H158.358V485.032C158.358 483.376 159.384 482.296 160.986 482.296H161.67V481.18ZM165.671 490V482.332H167.417V481.288H165.671V478.534H164.447V481.288H162.701V482.332H164.447V490H165.671ZM168.296 487.552C168.296 489.172 169.52 490.216 171.482 490.216C173.462 490.216 174.794 489.19 174.794 487.624C174.794 486.364 174.11 485.662 172.598 485.284L171.104 484.906C170.15 484.672 169.682 484.204 169.682 483.538C169.682 482.602 170.366 482.08 171.59 482.08C172.76 482.08 173.462 482.674 173.498 483.682H174.704C174.65 482.062 173.462 481.054 171.626 481.054C169.754 481.054 168.476 482.026 168.476 483.556C168.476 484.744 169.214 485.536 170.726 485.914L172.22 486.292C173.246 486.544 173.606 486.958 173.606 487.678C173.606 488.614 172.814 489.19 171.464 489.19C170.24 489.19 169.484 488.56 169.484 487.552H168.296ZM184.333 490.216C185.809 490.216 186.997 489.568 187.537 488.47L187.699 490H188.743V484.366C188.743 482.062 187.267 481.054 185.251 481.054C183.109 481.054 181.669 482.188 181.669 483.952H182.803C182.803 482.782 183.703 482.098 185.215 482.098C186.493 482.098 187.519 482.638 187.519 484.348V484.636L184.639 484.87C182.605 485.032 181.381 486.04 181.381 487.642C181.381 489.172 182.479 490.216 184.333 490.216ZM184.621 489.208C183.433 489.208 182.641 488.668 182.641 487.606C182.641 486.634 183.307 485.914 184.945 485.77L187.519 485.572V486.04C187.519 487.93 186.457 489.208 184.621 489.208ZM193.075 490V482.332H194.821V481.288H193.075V478.534H191.851V481.288H190.105V482.332H191.851V490H193.075ZM202.673 490V485.446C202.673 483.484 203.681 482.188 205.463 482.188C206.903 482.188 207.821 482.908 207.821 484.942V490H209.063V484.672C209.063 482.476 208.073 481.054 205.679 481.054C204.419 481.054 203.267 481.684 202.691 482.8L202.511 481.288H201.431V490H202.673ZM210.926 485.644C210.926 488.29 212.798 490.216 215.354 490.216C217.91 490.216 219.782 488.29 219.782 485.644C219.782 482.98 217.91 481.054 215.354 481.054C212.798 481.054 210.926 482.98 210.926 485.644ZM212.186 485.626C212.186 483.61 213.482 482.17 215.354 482.17C217.208 482.17 218.522 483.61 218.522 485.626C218.522 487.678 217.208 489.1 215.354 489.1C213.482 489.1 212.186 487.678 212.186 485.626ZM230.415 490.216C232.467 490.216 233.817 489.226 234.285 487.39H233.097C232.773 488.542 231.855 489.154 230.433 489.154C228.561 489.154 227.445 487.93 227.355 485.806H234.285V485.194C234.285 482.728 232.683 481.054 230.325 481.054C227.841 481.054 226.149 482.926 226.149 485.644C226.149 488.38 227.859 490.216 230.415 490.216ZM230.325 482.116C231.963 482.116 233.043 483.232 233.043 484.906H227.391C227.607 483.196 228.687 482.116 230.325 482.116ZM236.314 490L238.744 486.508L241.192 490H242.668L239.59 485.662L242.686 481.288H241.246L238.798 484.78L236.332 481.288H234.874L237.97 485.644L234.856 490H236.314ZM246.513 490V482.332H248.259V481.288H246.513V478.534H245.289V481.288H243.543V482.332H245.289V490H246.513ZM254.43 481.18C254.124 481.108 253.89 481.09 253.62 481.09C252.396 481.09 251.478 481.702 251.136 482.638L251.046 481.288H249.876V490H251.118V485.032C251.118 483.376 252.144 482.296 253.746 482.296H254.43V481.18ZM258.232 490.216C259.708 490.216 260.896 489.568 261.436 488.47L261.598 490H262.642V484.366C262.642 482.062 261.166 481.054 259.15 481.054C257.008 481.054 255.568 482.188 255.568 483.952H256.702C256.702 482.782 257.602 482.098 259.114 482.098C260.392 482.098 261.418 482.638 261.418 484.348V484.636L258.538 484.87C256.504 485.032 255.28 486.04 255.28 487.642C255.28 489.172 256.378 490.216 258.232 490.216ZM258.52 489.208C257.332 489.208 256.54 488.668 256.54 487.606C256.54 486.634 257.206 485.914 258.844 485.77L261.418 485.572V486.04C261.418 487.93 260.356 489.208 258.52 489.208ZM269.514 485.662C269.514 488.398 271.188 490.216 273.654 490.216C275.634 490.216 277.182 489.046 277.596 487.264H276.336C275.994 488.38 274.95 489.1 273.654 489.1C271.89 489.1 270.738 487.714 270.738 485.644C270.738 483.502 271.98 482.152 273.744 482.152C274.95 482.152 275.994 482.818 276.318 484.024H277.56C277.218 482.224 275.742 481.054 273.726 481.054C271.188 481.054 269.514 482.926 269.514 485.662ZM278.866 485.644C278.866 488.29 280.738 490.216 283.294 490.216C285.85 490.216 287.722 488.29 287.722 485.644C287.722 482.98 285.85 481.054 283.294 481.054C280.738 481.054 278.866 482.98 278.866 485.644ZM280.126 485.626C280.126 483.61 281.422 482.17 283.294 482.17C285.148 482.17 286.462 483.61 286.462 485.626C286.462 487.678 285.148 489.1 283.294 489.1C281.422 489.1 280.126 487.678 280.126 485.626ZM288.97 487.552C288.97 489.172 290.194 490.216 292.156 490.216C294.136 490.216 295.468 489.19 295.468 487.624C295.468 486.364 294.784 485.662 293.272 485.284L291.778 484.906C290.824 484.672 290.356 484.204 290.356 483.538C290.356 482.602 291.04 482.08 292.264 482.08C293.434 482.08 294.136 482.674 294.172 483.682H295.378C295.324 482.062 294.136 481.054 292.3 481.054C290.428 481.054 289.15 482.026 289.15 483.556C289.15 484.744 289.888 485.536 291.4 485.914L292.894 486.292C293.92 486.544 294.28 486.958 294.28 487.678C294.28 488.614 293.488 489.19 292.138 489.19C290.914 489.19 290.158 488.56 290.158 487.552H288.97ZM299.511 490V482.332H301.257V481.288H299.511V478.534H298.287V481.288H296.541V482.332H298.287V490H299.511ZM303.391 490.198C304.003 490.198 304.525 489.694 304.525 489.1C304.525 488.488 304.003 487.966 303.391 487.966C302.779 487.966 302.257 488.488 302.257 489.1C302.257 489.694 302.779 490.198 303.391 490.198Z" fill="#0A0F0D" fill-opacity="0.8"/>
<defs>
<clipPath id="clip0_1_575">
<rect width="322" height="286" fill="white" transform="translate(26)"/>
</clipPath>
</defs>
</svg>
