<svg width="32" height="32" viewBox="0 0 32 32" fill="none" xmlns="http://www.w3.org/2000/svg">
<circle cx="16" cy="16" r="16" fill="#0A0F0D"/>
<path d="M11.6259 23.7401H8.53685V13.6473H11.6259V23.7401ZM10.1027 12.2809C9.10325 12.2809 8.32031 11.4883 8.32031 10.475C8.32031 9.46166 9.10218 8.66699 10.1038 8.66699C11.1043 8.66699 11.8872 9.46059 11.8872 10.4739C11.8872 11.4446 11.1043 12.2809 10.1038 12.2809H10.1027ZM23.2419 23.7401H20.1528V18.8483C20.1528 17.6579 20.1528 16.1603 18.5422 16.1603C16.9336 16.1603 16.6723 17.4382 16.6723 18.7598V23.7411H13.5832V13.6462H16.5422V15.0126H16.5848C16.9774 14.219 18.0206 13.3817 19.5 13.3817C22.6328 13.3817 23.1982 15.4531 23.1982 18.1859V23.739H23.2408L23.2419 23.7401Z" fill="#EBFFDB"/>
</svg>
