<svg width="34" height="34" viewBox="0 0 34 34" fill="none" xmlns="http://www.w3.org/2000/svg">
<circle cx="17" cy="17" r="16" stroke="#0A0F0D" stroke-opacity="0.8"/>
<path d="M17.9529 9.31348C19.2329 9.31684 19.5192 9.32779 20.1904 9.35895C21.4072 9.41537 22.4758 9.71684 23.3331 10.5859C24.1904 11.4549 24.4885 12.5371 24.544 13.7691C24.5752 14.4537 24.5861 14.7442 24.5887 16.0646V17.7269C24.5853 19.0474 24.5752 19.3371 24.544 20.0217C24.4885 21.2545 24.1904 22.3375 23.3331 23.2057C22.475 24.0747 21.4064 24.3762 20.1904 24.4326C19.392 24.4697 19.1377 24.4781 17.1049 24.4781H16.8691C15.0501 24.4781 14.7857 24.468 14.0186 24.4326C12.8017 24.3762 11.7339 24.0747 10.8767 23.2057C10.0186 22.3366 9.7213 21.2545 9.66488 20.0225C9.63457 19.3371 9.62362 19.0474 9.62109 17.7269V16.0646C9.62362 14.7434 9.63457 14.4537 9.66488 13.7691C9.7213 12.5371 10.0186 11.4541 10.8767 10.5859C11.7339 9.716 12.8026 9.41537 14.0186 9.35895C14.6897 9.32779 14.9769 9.31684 16.256 9.31348H17.9529ZM17.7516 10.6794H16.4573C15.0417 10.6819 14.7748 10.6912 14.0809 10.7232C13.2287 10.7627 12.4388 10.9354 11.8299 11.5518C11.2219 12.1682 11.051 12.9691 11.0131 13.8322C10.9811 14.5354 10.971 14.8057 10.9693 16.2406V17.5518C10.971 18.9859 10.9811 19.2562 11.0123 19.9602C11.051 20.8225 11.2228 21.6234 11.8299 22.2398C12.4379 22.8554 13.2287 23.0288 14.0809 23.0676C14.7748 23.0996 15.0409 23.1097 16.4573 23.1114H17.7516C19.168 23.1097 19.4341 23.0996 20.1289 23.0676C20.9803 23.0288 21.771 22.8554 22.379 22.2398C22.987 21.6234 23.1579 20.8225 23.1967 19.9594C23.2287 19.2562 23.2388 18.9859 23.2396 17.5509V16.2406C23.2379 14.8065 23.2287 14.5362 23.1975 13.8322C23.1579 12.9699 22.987 12.1691 22.379 11.5526C21.771 10.9362 20.9811 10.7636 20.1289 10.724C19.4341 10.692 19.168 10.6819 17.7516 10.6802V10.6794ZM17.1049 13.0019C19.227 13.0019 20.9474 14.7451 20.9474 16.8958C20.9474 19.0457 19.227 20.7888 17.1049 20.7888C14.9828 20.7888 13.2615 19.0457 13.2615 16.8958C13.2615 14.7459 14.9819 13.0019 17.1049 13.0019ZM17.1049 14.3686C15.7272 14.3686 14.6097 15.4996 14.6097 16.8949C14.6097 18.2912 15.7264 19.4229 17.1049 19.4229C18.4826 19.4229 19.5992 18.292 19.5992 16.8958C19.5992 15.4996 18.4834 14.3686 17.1049 14.3686ZM21.0998 11.9383C21.5958 11.9383 21.9984 12.3451 21.9984 12.8478C21.9984 13.3505 21.5958 13.7573 21.0998 13.7573C20.8603 13.7555 20.6312 13.6587 20.4629 13.4882C20.2946 13.3177 20.2008 13.0874 20.2021 12.8478C20.2021 12.3451 20.6038 11.9383 21.0998 11.9383Z" fill="#0A0F0D" fill-opacity="0.8"/>
</svg>
