<svg width="570" height="596" viewBox="0 0 570 596" fill="none" xmlns="http://www.w3.org/2000/svg">
<rect x="0.5" y="0.5" width="569" height="595" rx="13.5" fill="#FEF4DB" stroke="#0A0F0D"/>
<path d="M120.5 295C120.5 287.544 126.544 281.5 134 281.5H485C492.456 281.5 498.5 287.544 498.5 295V595.5H120.5V295Z" fill="white" stroke="black"/>
<path d="M462 435C465.2 419.4 473.333 410.5 477 408V576.5H121V470C125 462.5 141.5 459 158.5 475C175.5 491 170 473 187 460C204 447 209.5 473 218.5 480C227.5 487 236 476 246 461C256 446 263.5 454 268 466.5C272.5 479 276.5 460.5 279 449.5C281.5 438.5 287.5 437 294 442C300.5 447 304.5 451 310.5 445.5C316.5 440 318.5 441.5 321 446C323.5 450.5 324 452 329.5 475.5C335 499 337 475.5 345.5 455C354 434.5 363 436.5 368 448C373 459.5 371.5 461 381 503C390.5 545 405 527 417.5 508.5C430 490 434.5 472.5 446 466.5C457.5 460.5 458 454.5 462 435Z" fill="url(#paint0_linear_1_254)"/>
<path opacity="0.2" d="M253 418V576" stroke="black" stroke-linecap="round"/>
<path d="M477 475.5C472.5 480.333 460 491.3 446 496.5C428.5 503 421 499 408 486.5C402.5 480.5 398.5 487.5 387 477.5C378.5 470 378.5 464.5 370.5 456.5C362.5 448.5 353.5 455.5 350 471C346.5 486.5 344 503 342 511.5C340 520 333.5 532.5 324 516.5C314.5 500.5 317.5 503 312.5 495.5C307.5 488 306.5 490.5 303 476C299.5 461.5 294.5 453 290.5 473.5C286.5 494 282.5 527 273 531C259 536.895 260 526 240.5 536C219.5 546.769 229 546.5 208.5 554C186.854 561.919 180 528.5 170 506C160 483.5 156 473.5 123 508" stroke="#44B48C" stroke-width="1.2" stroke-linecap="round"/>
<path d="M477 408C473.333 410.5 465.2 419.4 462 435C458 454.5 457.5 460.5 446 466.5C434.5 472.5 430 490 417.5 508.5C405 527 390.5 545 381 503C371.5 461 373 459.5 368 448C363 436.5 354 434.5 345.5 455C337 475.5 335 499 329.5 475.5C324 452 323.5 450.5 321 446C318.5 441.5 316.5 440 310.5 445.5C304.5 451 300.5 447 294 442C287.5 437 281.5 438.5 279 449.5C276.5 460.5 272.5 479 268 466.5C263.5 454 256 446 246 461C236 476 227.5 487 218.5 480C209.5 473 204 447 187 460C170 473 175.5 491 158.5 475C141.5 459 125 462.5 121 470" stroke="black" stroke-width="1.2" stroke-linecap="round" stroke-dasharray="5 5"/>
<circle cx="253" cy="538" r="3.5" fill="#9F84EB"/>
<circle cx="253" cy="526" r="3.5" fill="black"/>
<circle cx="253" cy="447" r="3.5" fill="black"/>
<path d="M468 412.5L468 575.5" stroke="#9F84EB" stroke-width="3" stroke-linecap="round"/>
<path d="M366 492.5L366 575.5" stroke="#9F84EB" stroke-width="3" stroke-linecap="round"/>
<path d="M261 542.5L261 575.5" stroke="#9F84EB" stroke-width="3" stroke-linecap="round"/>
<path opacity="0.5" d="M143.132 345.85H145.552V353H146.344V345.85H148.775V345.124H143.132V345.85ZM151.828 347.61C151.641 347.566 151.498 347.555 151.333 347.555C150.585 347.555 150.024 347.929 149.815 348.501L149.76 347.676H149.045V353H149.804V349.964C149.804 348.952 150.431 348.292 151.41 348.292H151.828V347.61ZM154.151 353.132C155.053 353.132 155.779 352.736 156.109 352.065L156.208 353H156.846V349.557C156.846 348.149 155.944 347.533 154.712 347.533C153.403 347.533 152.523 348.226 152.523 349.304H153.216C153.216 348.589 153.766 348.171 154.69 348.171C155.471 348.171 156.098 348.501 156.098 349.546V349.722L154.338 349.865C153.095 349.964 152.347 350.58 152.347 351.559C152.347 352.494 153.018 353.132 154.151 353.132ZM154.327 352.516C153.601 352.516 153.117 352.186 153.117 351.537C153.117 350.943 153.524 350.503 154.525 350.415L156.098 350.294V350.58C156.098 351.735 155.449 352.516 154.327 352.516ZM157.732 347.676V348.314H158.546V353H159.305V348.314H161.835V353H162.594V348.314H165.124V353H165.883V347.676H162.594V346.642C162.594 346.015 162.77 345.685 163.419 345.685H163.87V345.025C163.694 344.992 163.474 344.981 163.287 344.981C162.495 344.981 161.835 345.443 161.835 346.642V347.676H159.305V346.642C159.305 346.015 159.481 345.685 160.141 345.685H160.603V345.025C160.427 344.992 160.207 344.981 160.02 344.981C159.195 344.981 158.546 345.443 158.546 346.642V347.676H157.732ZM165.498 346.048C165.806 346.048 166.026 345.828 166.026 345.531C166.026 345.223 165.806 344.981 165.498 344.981C165.201 344.981 164.97 345.223 164.97 345.531C164.97 345.828 165.201 346.048 165.498 346.048ZM167.062 350.349C167.062 352.021 168.085 353.132 169.592 353.132C170.802 353.132 171.748 352.417 172.001 351.328H171.231C171.022 352.01 170.384 352.45 169.592 352.45C168.514 352.45 167.81 351.603 167.81 350.338C167.81 349.029 168.569 348.204 169.647 348.204C170.384 348.204 171.022 348.611 171.22 349.348H171.979C171.77 348.248 170.868 347.533 169.636 347.533C168.085 347.533 167.062 348.677 167.062 350.349Z" fill="#0A0F0D"/>
<path opacity="0.8" d="M146.179 362.205V373H147.777V360.709H143.595V362.205H146.179ZM158.27 372.983V371.436H152.592L155.142 369.226C157.318 367.339 158.185 366.098 158.185 364.347C158.185 361.984 156.604 360.488 154.139 360.488C151.64 360.488 149.974 362.205 149.923 364.84H151.589C151.623 363.089 152.609 361.984 154.122 361.984C155.601 361.984 156.485 362.902 156.485 364.449C156.485 365.758 155.924 366.591 153.935 368.308L149.974 371.725V373L158.27 372.983ZM162.673 372.337C162.673 371.402 162.095 370.807 161.381 370.807C160.701 370.807 160.242 371.3 160.242 371.98C160.242 372.609 160.718 373.017 161.279 373.017C161.483 373.017 161.619 372.983 161.738 372.915C161.738 373.442 161.245 373.901 160.548 374.02V374.734C161.755 374.581 162.673 373.561 162.673 372.337ZM163.954 366.863C163.954 370.688 165.841 373.221 169.02 373.221C172.182 373.221 174.069 370.688 174.069 366.863C174.069 363.055 172.097 360.471 169.02 360.471C165.926 360.471 163.954 363.055 163.954 366.863ZM165.603 366.863C165.603 363.803 166.861 361.967 169.02 361.967C171.179 361.967 172.42 363.803 172.42 366.863C172.42 369.889 171.179 371.725 169.02 371.725C166.861 371.725 165.603 369.889 165.603 366.863ZM183.986 372.983V371.436H178.308L180.858 369.226C183.034 367.339 183.901 366.098 183.901 364.347C183.901 361.984 182.32 360.488 179.855 360.488C177.356 360.488 175.69 362.205 175.639 364.84H177.305C177.339 363.089 178.325 361.984 179.838 361.984C181.317 361.984 182.201 362.902 182.201 364.449C182.201 365.758 181.64 366.591 179.651 368.308L175.69 371.725V373L183.986 372.983ZM189.105 366.642C191.06 366.642 192.08 367.628 192.08 369.107C192.08 370.688 191.043 371.708 189.445 371.708C187.898 371.708 186.912 370.773 186.912 369.175H185.263C185.263 371.725 186.997 373.204 189.411 373.204C191.91 373.204 193.78 371.623 193.78 369.141C193.78 366.931 192.199 365.52 190.108 365.265L193.474 362.052V360.709H185.841V362.188H191.366L187.881 365.537V366.642H189.105Z" fill="#0A0F0D"/>
<line opacity="0.8" x1="143" y1="383.5" x2="196" y2="383.5" stroke="#0A0F0D"/>
<path opacity="0.5" d="M229.975 349.062C229.975 346.664 228.435 344.981 226.224 344.981C224.024 344.981 222.473 346.675 222.473 349.062C222.473 351.449 224.013 353.132 226.224 353.132C228.424 353.132 229.975 351.449 229.975 349.062ZM229.161 349.062C229.161 351.02 227.962 352.373 226.224 352.373C224.486 352.373 223.298 351.031 223.298 349.062C223.298 347.093 224.486 345.751 226.224 345.751C227.962 345.751 229.161 347.093 229.161 349.062ZM234.029 347.61C233.842 347.566 233.699 347.555 233.534 347.555C232.786 347.555 232.225 347.929 232.016 348.501L231.961 347.676H231.246V353H232.005V349.964C232.005 348.952 232.632 348.292 233.611 348.292H234.029V347.61ZM236.924 353.132C237.815 353.132 238.563 352.736 238.937 351.911L239.014 353H239.674V344.981H238.915V348.688C238.541 347.918 237.837 347.533 236.957 347.533C235.373 347.533 234.46 348.743 234.46 350.349C234.46 351.944 235.373 353.132 236.924 353.132ZM237.056 352.439C235.901 352.439 235.23 351.559 235.23 350.327C235.23 349.106 235.901 348.215 237.056 348.215C238.222 348.215 238.904 349.106 238.904 350.327C238.904 351.559 238.222 352.439 237.056 352.439ZM243.491 353.132C244.745 353.132 245.57 352.527 245.856 351.405H245.13C244.932 352.109 244.371 352.483 243.502 352.483C242.358 352.483 241.676 351.735 241.621 350.437H245.856V350.063C245.856 348.556 244.877 347.533 243.436 347.533C241.918 347.533 240.884 348.677 240.884 350.338C240.884 352.01 241.929 353.132 243.491 353.132ZM243.436 348.182C244.437 348.182 245.097 348.864 245.097 349.887H241.643C241.775 348.842 242.435 348.182 243.436 348.182ZM249.852 347.61C249.665 347.566 249.522 347.555 249.357 347.555C248.609 347.555 248.048 347.929 247.839 348.501L247.784 347.676H247.069V353H247.828V349.964C247.828 348.952 248.455 348.292 249.434 348.292H249.852V347.61ZM250.41 351.504C250.41 352.494 251.158 353.132 252.357 353.132C253.567 353.132 254.381 352.505 254.381 351.548C254.381 350.778 253.963 350.349 253.039 350.118L252.126 349.887C251.543 349.744 251.257 349.458 251.257 349.051C251.257 348.479 251.675 348.16 252.423 348.16C253.138 348.16 253.567 348.523 253.589 349.139H254.326C254.293 348.149 253.567 347.533 252.445 347.533C251.301 347.533 250.52 348.127 250.52 349.062C250.52 349.788 250.971 350.272 251.895 350.503L252.808 350.734C253.435 350.888 253.655 351.141 253.655 351.581C253.655 352.153 253.171 352.505 252.346 352.505C251.598 352.505 251.136 352.12 251.136 351.504H250.41Z" fill="#0A0F0D"/>
<path opacity="0.8" d="M226.964 373.204C229.616 373.204 231.435 371.419 231.435 368.869C231.435 366.506 229.82 364.755 227.321 364.755C226.403 364.755 225.587 365.01 224.941 365.503L225.757 362.239H230.704V360.709H224.55L223.054 367.016L224.465 367.373C225.026 366.676 225.978 366.183 227.015 366.183C228.732 366.183 229.735 367.356 229.735 368.937C229.735 370.603 228.664 371.708 226.998 371.708C225.434 371.708 224.465 370.739 224.465 369.158H222.816C222.816 371.606 224.448 373.204 226.964 373.204ZM232.843 369.583C232.843 371.759 234.628 373.204 237.365 373.204C240.085 373.204 241.887 371.759 241.887 369.6C241.887 368.087 241.003 366.863 239.626 366.421C240.782 365.962 241.428 364.993 241.428 363.735C241.428 361.797 239.796 360.488 237.382 360.488C234.934 360.488 233.285 361.797 233.285 363.718C233.285 364.959 233.914 365.928 235.07 366.421C233.71 366.914 232.843 368.104 232.843 369.583ZM234.815 363.82C234.815 362.681 235.818 361.933 237.348 361.933C238.895 361.933 239.864 362.681 239.864 363.854C239.864 365.044 238.895 365.809 237.348 365.809C235.818 365.809 234.815 365.027 234.815 363.82ZM234.475 369.464C234.475 368.104 235.597 367.237 237.348 367.237C239.116 367.237 240.238 368.104 240.238 369.464C240.238 370.841 239.099 371.725 237.365 371.725C235.614 371.725 234.475 370.841 234.475 369.464ZM250.659 369.107C251.917 367.39 252.359 366.353 252.359 364.908C252.359 362.409 250.387 360.488 247.837 360.488C245.304 360.488 243.366 362.341 243.366 364.891C243.366 367.339 245.083 369.175 247.633 369.175C248.058 369.175 248.5 369.09 248.925 368.92L245.848 373H247.786L250.659 369.107ZM250.659 364.891C250.659 366.574 249.503 367.764 247.837 367.764C246.205 367.764 245.049 366.574 245.049 364.891C245.049 363.208 246.205 361.984 247.837 361.984C249.503 361.984 250.659 363.208 250.659 364.891Z" fill="#0A0F0D"/>
<line opacity="0.8" x1="222.5" y1="383.5" x2="254.5" y2="383.5" stroke="#0A0F0D" stroke-linecap="round" stroke-dasharray="3 3"/>
<path opacity="0.5" d="M285.169 353.121C286.863 353.121 288.238 352.12 288.601 350.635H287.754C287.413 351.691 286.423 352.362 285.18 352.362C283.453 352.362 282.298 351.042 282.298 349.062C282.298 347.071 283.453 345.751 285.18 345.751C286.412 345.751 287.38 346.444 287.71 347.577H288.557C288.238 346.015 286.907 344.992 285.213 344.992C282.991 344.992 281.473 346.642 281.473 349.062C281.473 351.482 282.969 353.121 285.169 353.121ZM289.432 350.338C289.432 351.955 290.576 353.132 292.138 353.132C293.7 353.132 294.844 351.955 294.844 350.338C294.844 348.71 293.7 347.533 292.138 347.533C290.576 347.533 289.432 348.71 289.432 350.338ZM290.202 350.327C290.202 349.095 290.994 348.215 292.138 348.215C293.271 348.215 294.074 349.095 294.074 350.327C294.074 351.581 293.271 352.45 292.138 352.45C290.994 352.45 290.202 351.581 290.202 350.327ZM296.817 353V350.217C296.817 349.018 297.433 348.226 298.522 348.226C299.402 348.226 299.963 348.666 299.963 349.909V353H300.722V349.744C300.722 348.402 300.117 347.533 298.654 347.533C297.884 347.533 297.18 347.918 296.828 348.6L296.718 347.676H296.058V353H296.817ZM303.612 353H304.371L306.582 347.676H305.801L304.404 351.108C304.25 351.493 304.107 351.845 304.008 352.208C303.909 351.856 303.766 351.493 303.623 351.108L302.248 347.676H301.434L303.612 353ZM309.473 353.132C310.727 353.132 311.552 352.527 311.838 351.405H311.112C310.914 352.109 310.353 352.483 309.484 352.483C308.34 352.483 307.658 351.735 307.603 350.437H311.838V350.063C311.838 348.556 310.859 347.533 309.418 347.533C307.9 347.533 306.866 348.677 306.866 350.338C306.866 352.01 307.911 353.132 309.473 353.132ZM309.418 348.182C310.419 348.182 311.079 348.864 311.079 349.887H307.625C307.757 348.842 308.417 348.182 309.418 348.182ZM315.835 347.61C315.648 347.566 315.505 347.555 315.34 347.555C314.592 347.555 314.031 347.929 313.822 348.501L313.767 347.676H313.052V353H313.811V349.964C313.811 348.952 314.438 348.292 315.417 348.292H315.835V347.61ZM316.393 351.504C316.393 352.494 317.141 353.132 318.34 353.132C319.55 353.132 320.364 352.505 320.364 351.548C320.364 350.778 319.946 350.349 319.022 350.118L318.109 349.887C317.526 349.744 317.24 349.458 317.24 349.051C317.24 348.479 317.658 348.16 318.406 348.16C319.121 348.16 319.55 348.523 319.572 349.139H320.309C320.276 348.149 319.55 347.533 318.428 347.533C317.284 347.533 316.503 348.127 316.503 349.062C316.503 349.788 316.954 350.272 317.878 350.503L318.791 350.734C319.418 350.888 319.638 351.141 319.638 351.581C319.638 352.153 319.154 352.505 318.329 352.505C317.581 352.505 317.119 352.12 317.119 351.504H316.393ZM321.987 346.213C322.295 346.213 322.559 345.96 322.559 345.652C322.559 345.344 322.295 345.08 321.987 345.08C321.679 345.08 321.426 345.344 321.426 345.652C321.426 345.96 321.679 346.213 321.987 346.213ZM321.613 353H322.372V347.676H321.613V353ZM323.581 350.338C323.581 351.955 324.725 353.132 326.287 353.132C327.849 353.132 328.993 351.955 328.993 350.338C328.993 348.71 327.849 347.533 326.287 347.533C324.725 347.533 323.581 348.71 323.581 350.338ZM324.351 350.327C324.351 349.095 325.143 348.215 326.287 348.215C327.42 348.215 328.223 349.095 328.223 350.327C328.223 351.581 327.42 352.45 326.287 352.45C325.143 352.45 324.351 351.581 324.351 350.327ZM330.966 353V350.217C330.966 349.018 331.582 348.226 332.671 348.226C333.551 348.226 334.112 348.666 334.112 349.909V353H334.871V349.744C334.871 348.402 334.266 347.533 332.803 347.533C332.033 347.533 331.329 347.918 330.977 348.6L330.867 347.676H330.207V353H330.966ZM342.218 347.61C342.031 347.566 341.888 347.555 341.723 347.555C340.975 347.555 340.414 347.929 340.205 348.501L340.15 347.676H339.435V353H340.194V349.964C340.194 348.952 340.821 348.292 341.8 348.292H342.218V347.61ZM344.541 353.132C345.443 353.132 346.169 352.736 346.499 352.065L346.598 353H347.236V349.557C347.236 348.149 346.334 347.533 345.102 347.533C343.793 347.533 342.913 348.226 342.913 349.304H343.606C343.606 348.589 344.156 348.171 345.08 348.171C345.861 348.171 346.488 348.501 346.488 349.546V349.722L344.728 349.865C343.485 349.964 342.737 350.58 342.737 351.559C342.737 352.494 343.408 353.132 344.541 353.132ZM344.717 352.516C343.991 352.516 343.507 352.186 343.507 351.537C343.507 350.943 343.914 350.503 344.915 350.415L346.488 350.294V350.58C346.488 351.735 345.839 352.516 344.717 352.516ZM349.883 353V348.314H350.95V347.676H349.883V345.993H349.135V347.676H348.068V348.314H349.135V353H349.883ZM354.118 353.132C355.372 353.132 356.197 352.527 356.483 351.405H355.757C355.559 352.109 354.998 352.483 354.129 352.483C352.985 352.483 352.303 351.735 352.248 350.437H356.483V350.063C356.483 348.556 355.504 347.533 354.063 347.533C352.545 347.533 351.511 348.677 351.511 350.338C351.511 352.01 352.556 353.132 354.118 353.132ZM354.063 348.182C355.064 348.182 355.724 348.864 355.724 349.887H352.27C352.402 348.842 353.062 348.182 354.063 348.182Z" fill="#0A0F0D"/>
<path opacity="0.8" d="M284.179 362.205V373H285.777V360.709H281.595V362.205H284.179ZM289.538 373.204C290.184 373.204 290.745 372.66 290.745 372.014C290.745 371.351 290.184 370.807 289.538 370.807C288.875 370.807 288.314 371.351 288.314 372.014C288.314 372.66 288.875 373.204 289.538 373.204ZM300.969 372.983V371.436H295.291L297.841 369.226C300.017 367.339 300.884 366.098 300.884 364.347C300.884 361.984 299.303 360.488 296.838 360.488C294.339 360.488 292.673 362.205 292.622 364.84H294.288C294.322 363.089 295.308 361.984 296.821 361.984C298.3 361.984 299.184 362.902 299.184 364.449C299.184 365.758 298.623 366.591 296.634 368.308L292.673 371.725V373L300.969 372.983ZM308.588 363.616C308.588 361.78 307.296 360.471 305.477 360.471C303.675 360.471 302.383 361.78 302.383 363.616C302.383 365.435 303.675 366.744 305.477 366.744C307.296 366.744 308.588 365.435 308.588 363.616ZM315.065 360.726H313.433L304.1 373H305.732L315.065 360.726ZM307.279 363.616C307.279 364.704 306.531 365.469 305.477 365.469C304.423 365.469 303.692 364.704 303.692 363.616C303.692 362.511 304.423 361.746 305.477 361.746C306.548 361.746 307.279 362.511 307.279 363.616ZM316.816 370.093C316.816 368.257 315.507 366.965 313.705 366.965C311.903 366.965 310.594 368.257 310.594 370.093C310.594 371.912 311.903 373.221 313.705 373.221C315.507 373.221 316.816 371.912 316.816 370.093ZM315.49 370.093C315.49 371.181 314.759 371.946 313.705 371.946C312.651 371.946 311.92 371.181 311.92 370.093C311.92 368.988 312.651 368.223 313.705 368.223C314.776 368.223 315.49 368.988 315.49 370.093Z" fill="#0A0F0D"/>
<line opacity="0.8" x1="281.5" y1="383.5" x2="366.5" y2="383.5" stroke="#8766E7" stroke-linecap="round"/>
<path opacity="0.1" d="M209 345V383" stroke="black" stroke-linecap="round"/>
<path opacity="0.1" d="M268 345V383" stroke="black" stroke-linecap="round"/>
<path opacity="0.8" d="M142.546 308.136C142.546 309.488 143.339 310.372 144.873 310.723L146.42 311.074C147.317 311.282 147.72 311.75 147.72 312.491C147.72 313.427 146.927 314.012 145.679 314.012C144.496 314.012 143.742 313.44 143.716 312.543H142.416C142.494 314.155 143.768 315.156 145.679 315.156C147.681 315.156 148.994 314.077 148.994 312.387C148.994 311.061 148.214 310.229 146.68 309.878L145.133 309.514C144.249 309.306 143.82 308.851 143.82 308.097C143.82 307.174 144.587 306.576 145.77 306.576C146.823 306.576 147.486 307.122 147.551 308.058H148.838C148.734 306.433 147.577 305.432 145.783 305.432C143.846 305.432 142.546 306.524 142.546 308.136ZM150.985 307.135C151.427 307.135 151.791 306.771 151.791 306.329C151.791 305.874 151.427 305.523 150.985 305.523C150.543 305.523 150.179 305.874 150.179 306.329C150.179 306.771 150.543 307.135 150.985 307.135ZM150.387 315H151.609V308.643H150.387V315ZM155.177 315V309.67H156.425V308.643H155.177V306.654H153.955V308.643H152.707V309.67H153.955V315H155.177ZM160.201 315.156C161.774 315.156 162.84 314.389 163.152 313.024H162.008C161.8 313.752 161.176 314.142 160.227 314.142C159.018 314.142 158.316 313.401 158.225 312.062L163.139 312.049V311.594C163.139 309.709 161.956 308.461 160.149 308.461C158.303 308.461 157.042 309.839 157.042 311.828C157.042 313.804 158.329 315.156 160.201 315.156ZM160.149 309.488C161.228 309.488 161.917 310.19 161.917 311.243H158.251C158.407 310.125 159.083 309.488 160.149 309.488ZM168.059 317.847H169.281V313.96C169.697 314.74 170.542 315.169 171.556 315.169C173.441 315.169 174.507 313.713 174.507 311.776C174.507 309.826 173.376 308.461 171.556 308.461C170.542 308.461 169.684 308.916 169.255 309.787L169.164 308.643H168.059V317.847ZM169.294 311.828C169.294 310.502 170.048 309.579 171.296 309.579C172.544 309.579 173.285 310.515 173.285 311.828C173.285 313.128 172.544 314.064 171.296 314.064C170.048 314.064 169.294 313.128 169.294 311.828ZM178.597 315.156C180.17 315.156 181.236 314.389 181.548 313.024H180.404C180.196 313.752 179.572 314.142 178.623 314.142C177.414 314.142 176.712 313.401 176.621 312.062L181.535 312.049V311.594C181.535 309.709 180.352 308.461 178.545 308.461C176.699 308.461 175.438 309.839 175.438 311.828C175.438 313.804 176.725 315.156 178.597 315.156ZM178.545 309.488C179.624 309.488 180.313 310.19 180.313 311.243H176.647C176.803 310.125 177.479 309.488 178.545 309.488ZM186.54 308.591C186.293 308.539 186.111 308.513 185.89 308.513C185.019 308.513 184.382 308.955 184.122 309.618L184.044 308.656H182.9V315H184.122V311.633C184.122 310.411 184.837 309.709 185.994 309.709H186.54V308.591ZM187.264 308.643V309.67H188.2V315H189.422V309.67H190.93V308.643H189.422V307.629C189.422 306.94 189.63 306.537 190.423 306.537H190.969V305.484C190.722 305.445 190.449 305.432 190.215 305.432C189.058 305.432 188.2 306.069 188.2 307.629V308.643H187.264ZM191.459 311.815C191.459 313.778 192.863 315.156 194.774 315.156C196.672 315.156 198.076 313.778 198.076 311.815C198.076 309.852 196.672 308.474 194.774 308.474C192.863 308.474 191.459 309.852 191.459 311.815ZM192.694 311.815C192.694 310.489 193.539 309.566 194.774 309.566C195.996 309.566 196.854 310.489 196.854 311.815C196.854 313.141 195.996 314.064 194.774 314.064C193.539 314.064 192.694 313.141 192.694 311.815ZM203.069 308.591C202.822 308.539 202.64 308.513 202.419 308.513C201.548 308.513 200.911 308.955 200.651 309.618L200.573 308.656H199.429V315H200.651V311.633C200.651 310.411 201.366 309.709 202.523 309.709H203.069V308.591ZM205.437 315V311.23C205.437 310.216 206.048 309.579 206.971 309.579C207.829 309.579 208.375 310.125 208.375 311.126V315H209.584V311.23C209.584 310.216 210.195 309.566 211.118 309.566C211.976 309.566 212.535 310.138 212.535 311.139V315H213.731V310.84C213.731 309.371 212.847 308.461 211.391 308.461C210.403 308.461 209.636 308.955 209.337 309.748C209.012 308.955 208.31 308.461 207.322 308.461C206.425 308.461 205.749 308.877 205.424 309.475L205.307 308.643H204.215V315H205.437ZM217.284 315.156C218.311 315.156 219.182 314.701 219.507 313.973L219.637 315H220.677V311.009C220.677 309.293 219.611 308.461 218.038 308.461C216.4 308.461 215.308 309.332 215.308 310.658H216.374C216.374 309.891 216.959 309.436 217.986 309.436C218.844 309.436 219.481 309.813 219.481 310.879V311.061L217.479 311.217C215.984 311.334 215.113 312.062 215.113 313.232C215.113 314.389 215.919 315.156 217.284 315.156ZM217.635 314.207C216.842 314.207 216.348 313.869 216.348 313.193C216.348 312.569 216.79 312.153 217.869 312.049L219.494 311.919V312.257C219.494 313.453 218.792 314.207 217.635 314.207ZM223.591 315V311.633C223.591 310.398 224.254 309.579 225.398 309.579C226.334 309.579 226.932 310.099 226.932 311.386V315H228.154V311.113C228.154 309.488 227.387 308.461 225.71 308.461C224.813 308.461 224.007 308.89 223.604 309.618L223.474 308.643H222.369V315H223.591ZM229.431 311.828C229.431 313.83 230.666 315.156 232.538 315.156C234.072 315.156 235.255 314.233 235.502 312.855H234.28C234.059 313.609 233.409 314.064 232.538 314.064C231.381 314.064 230.64 313.18 230.64 311.815C230.64 310.437 231.433 309.553 232.59 309.553C233.409 309.553 234.059 309.982 234.267 310.788H235.489C235.268 309.371 234.15 308.461 232.551 308.461C230.692 308.461 229.431 309.839 229.431 311.828ZM239.534 315.156C241.107 315.156 242.173 314.389 242.485 313.024H241.341C241.133 313.752 240.509 314.142 239.56 314.142C238.351 314.142 237.649 313.401 237.558 312.062L242.472 312.049V311.594C242.472 309.709 241.289 308.461 239.482 308.461C237.636 308.461 236.375 309.839 236.375 311.828C236.375 313.804 237.662 315.156 239.534 315.156ZM239.482 309.488C240.561 309.488 241.25 310.19 241.25 311.243H237.584C237.74 310.125 238.416 309.488 239.482 309.488Z" fill="#0A0F0D"/>
<path opacity="0.7" d="M354.83 314V309.74H355.8V309.16H354.83V307.63H354.15V309.16H353.18V309.74H354.15V314H354.83ZM357.389 313.99V311.36C357.389 310.43 357.929 309.66 358.969 309.66C359.719 309.66 360.249 310.06 360.249 311.19V314H360.939V311.04C360.939 309.82 360.369 309.03 359.099 309.03C358.289 309.03 357.699 309.42 357.389 310V306.71H356.699V313.99H357.389ZM362.654 307.83C362.934 307.83 363.174 307.6 363.174 307.32C363.174 307.04 362.934 306.8 362.654 306.8C362.374 306.8 362.144 307.04 362.144 307.32C362.144 307.6 362.374 307.83 362.654 307.83ZM362.314 314H363.004V309.16H362.314V314ZM364.033 312.64C364.033 313.54 364.713 314.12 365.803 314.12C366.903 314.12 367.643 313.55 367.643 312.68C367.643 311.98 367.263 311.59 366.423 311.38L365.593 311.17C365.063 311.04 364.803 310.78 364.803 310.41C364.803 309.89 365.183 309.6 365.863 309.6C366.513 309.6 366.903 309.93 366.923 310.49H367.593C367.563 309.59 366.903 309.03 365.883 309.03C364.843 309.03 364.133 309.57 364.133 310.42C364.133 311.08 364.543 311.52 365.383 311.73L366.213 311.94C366.783 312.08 366.983 312.31 366.983 312.71C366.983 313.23 366.543 313.55 365.793 313.55C365.113 313.55 364.693 313.2 364.693 312.64H364.033ZM372.242 314V311C372.242 310.26 372.732 309.66 373.542 309.66C374.272 309.66 374.742 310.14 374.742 310.96V314H375.422V311.01C375.422 310.26 375.902 309.65 376.712 309.65C377.452 309.65 377.912 310.14 377.912 310.97V314H378.582V310.83C378.582 309.71 377.892 309.03 376.842 309.03C376.062 309.03 375.472 309.43 375.252 310.06C375.022 309.43 374.452 309.03 373.692 309.03C373.012 309.03 372.472 309.34 372.232 309.85L372.152 309.16H371.552V314H372.242ZM379.63 311.58C379.63 313.05 380.67 314.12 382.09 314.12C383.51 314.12 384.55 313.05 384.55 311.58C384.55 310.1 383.51 309.03 382.09 309.03C380.67 309.03 379.63 310.1 379.63 311.58ZM380.33 311.57C380.33 310.45 381.05 309.65 382.09 309.65C383.12 309.65 383.85 310.45 383.85 311.57C383.85 312.71 383.12 313.5 382.09 313.5C381.05 313.5 380.33 312.71 380.33 311.57ZM386.344 314V311.47C386.344 310.38 386.904 309.66 387.894 309.66C388.694 309.66 389.204 310.06 389.204 311.19V314H389.894V311.04C389.894 309.82 389.344 309.03 388.014 309.03C387.314 309.03 386.674 309.38 386.354 310L386.254 309.16H385.654V314H386.344ZM392.379 314V309.74H393.349V309.16H392.379V307.63H391.699V309.16H390.729V309.74H391.699V314H392.379ZM394.937 313.99V311.36C394.937 310.43 395.477 309.66 396.517 309.66C397.267 309.66 397.797 310.06 397.797 311.19V314H398.487V311.04C398.487 309.82 397.917 309.03 396.647 309.03C395.837 309.03 395.247 309.42 394.937 310V306.71H394.247V313.99H394.937Z" fill="#0A0F0D"/>
<path opacity="0.7" d="M435.584 315L435.668 313.812C436.076 314.712 436.88 315.144 437.852 315.144C439.544 315.144 440.552 313.848 440.552 312.108C440.552 310.356 439.568 309.036 437.876 309.036C436.892 309.036 436.1 309.468 435.692 310.32V306.252H434.864V315H435.584ZM435.704 312.084C435.704 310.752 436.448 309.78 437.72 309.78C438.98 309.78 439.712 310.752 439.712 312.084C439.712 313.428 438.98 314.388 437.72 314.388C436.448 314.388 435.704 313.428 435.704 312.084ZM441.096 317.532C441.36 317.592 441.624 317.616 441.972 317.616C442.8 317.616 443.364 317.244 443.7 316.332L446.364 309.192H445.512L443.676 314.256L441.804 309.192H440.928L443.28 315.348L443.028 316.032C442.74 316.812 442.236 316.848 441.732 316.848H441.096V317.532ZM454.741 309.192V312.276C454.741 313.656 454.081 314.4 452.965 314.4C452.041 314.4 451.429 313.908 451.429 312.528V309.18H450.589V312.792C450.589 314.208 451.333 315.144 452.701 315.144C453.613 315.144 454.417 314.688 454.741 314.016L454.849 315H455.569V309.192H454.741ZM458.122 315V311.964C458.122 310.656 458.794 309.792 459.982 309.792C460.942 309.792 461.554 310.272 461.554 311.628V315H462.382V311.448C462.382 309.984 461.722 309.036 460.126 309.036C459.286 309.036 458.518 309.456 458.134 310.2L458.014 309.192H457.294V315H458.122ZM464.44 307.596C464.776 307.596 465.064 307.32 465.064 306.984C465.064 306.648 464.776 306.36 464.44 306.36C464.104 306.36 463.828 306.648 463.828 306.984C463.828 307.32 464.104 307.596 464.44 307.596ZM464.032 315H464.86V309.192H464.032V315ZM467.919 315V309.888H469.083V309.192H467.919V307.356H467.103V309.192H465.939V309.888H467.103V315H467.919ZM469.669 313.368C469.669 314.448 470.485 315.144 471.793 315.144C473.113 315.144 474.001 314.46 474.001 313.416C474.001 312.576 473.545 312.108 472.537 311.856L471.541 311.604C470.905 311.448 470.593 311.136 470.593 310.692C470.593 310.068 471.049 309.72 471.865 309.72C472.645 309.72 473.113 310.116 473.137 310.788H473.941C473.905 309.708 473.113 309.036 471.889 309.036C470.641 309.036 469.789 309.684 469.789 310.704C469.789 311.496 470.281 312.024 471.289 312.276L472.285 312.528C472.969 312.696 473.209 312.972 473.209 313.452C473.209 314.076 472.681 314.46 471.781 314.46C470.965 314.46 470.461 314.04 470.461 313.368H469.669Z" fill="#0A0F0D"/>
<g opacity="0.7">
<path d="M346.375 305.188H337.625C337.383 305.188 337.188 305.383 337.188 305.625V314.375C337.188 314.617 337.383 314.812 337.625 314.812H346.375C346.617 314.812 346.812 314.617 346.812 314.375V305.625C346.812 305.383 346.617 305.188 346.375 305.188Z" stroke="#0A0F0D" stroke-linecap="round" stroke-linejoin="round"/>
<path d="M344.625 304.312V306.062" stroke="#0A0F0D" stroke-linecap="round" stroke-linejoin="round"/>
<path d="M339.375 304.312V306.062" stroke="#0A0F0D" stroke-linecap="round" stroke-linejoin="round"/>
<path d="M337.188 307.812H346.812" stroke="#0A0F0D" stroke-linecap="round" stroke-linejoin="round"/>
</g>
<g opacity="0.7">
<path d="M428.25 314.375H417.75V305.625" stroke="#0A0F0D" stroke-linecap="round" stroke-linejoin="round"/>
<path d="M428.25 308.25L424.75 311.312L421.25 308.688L417.75 311.75" stroke="#0A0F0D" stroke-linecap="round" stroke-linejoin="round"/>
</g>
<line opacity="0.08" x1="144" y1="330.5" x2="475" y2="330.5" stroke="black"/>
<rect x="71.5" y="401.5" width="169" height="157" rx="13.5" fill="white" stroke="black"/>
<path opacity="0.6" d="M94.738 431V427.139C94.738 425.94 94.716 425.071 94.672 424.774L97.235 431H97.994L100.557 424.741C100.513 425.28 100.491 425.885 100.491 427.26V431H101.272V423.124H100.48L97.609 430.065L94.738 423.124H93.957V431H94.738ZM102.646 428.338C102.646 429.955 103.79 431.132 105.352 431.132C106.914 431.132 108.058 429.955 108.058 428.338C108.058 426.71 106.914 425.533 105.352 425.533C103.79 425.533 102.646 426.71 102.646 428.338ZM103.416 428.327C103.416 427.095 104.208 426.215 105.352 426.215C106.485 426.215 107.288 427.095 107.288 428.327C107.288 429.581 106.485 430.45 105.352 430.45C104.208 430.45 103.416 429.581 103.416 428.327ZM110.03 431V428.217C110.03 427.018 110.646 426.226 111.735 426.226C112.615 426.226 113.176 426.666 113.176 427.909V431H113.935V427.744C113.935 426.402 113.33 425.533 111.867 425.533C111.097 425.533 110.393 425.918 110.041 426.6L109.931 425.676H109.271V431H110.03ZM116.79 430.626C116.79 430.076 116.449 429.757 116.053 429.757C115.668 429.757 115.404 430.032 115.404 430.417C115.404 430.791 115.668 431.011 115.976 431.011C116.108 431.011 116.196 430.978 116.262 430.934C116.262 431.242 115.976 431.528 115.58 431.594V432.001C116.262 431.902 116.79 431.308 116.79 430.626ZM121.763 424.213C122.06 424.213 122.324 423.96 122.324 423.652C122.324 423.344 122.06 423.08 121.763 423.08C121.444 423.08 121.191 423.344 121.191 423.652C121.191 423.96 121.444 424.213 121.763 424.213ZM119.959 433.332C120.234 433.409 120.388 433.431 120.674 433.431C121.609 433.431 122.137 432.815 122.137 431.803V425.676H121.378V431.759C121.378 432.408 121.147 432.716 120.619 432.716C120.454 432.716 120.322 432.694 120.102 432.639L119.959 433.332ZM127.46 425.676V428.503C127.46 429.768 126.855 430.45 125.832 430.45C124.985 430.45 124.424 429.999 124.424 428.734V425.665H123.654V428.976C123.654 430.274 124.336 431.132 125.59 431.132C126.426 431.132 127.163 430.714 127.46 430.098L127.559 431H128.219V425.676H127.46ZM130.592 431V422.981H129.833V431H130.592ZM131.667 433.321C131.909 433.376 132.151 433.398 132.47 433.398C133.229 433.398 133.746 433.057 134.054 432.221L136.496 425.676H135.715L134.032 430.318L132.316 425.676H131.513L133.669 431.319L133.438 431.946C133.174 432.661 132.712 432.694 132.25 432.694H131.667V433.321ZM144.78 428.338C145.528 427.337 145.77 426.699 145.77 425.786C145.77 424.202 144.527 422.981 142.943 422.981C141.37 422.981 140.149 424.169 140.149 425.775C140.149 427.315 141.238 428.514 142.877 428.514C143.251 428.514 143.592 428.448 143.955 428.25L141.887 431H142.811L144.78 428.338ZM144.978 425.775C144.978 426.963 144.142 427.821 142.943 427.821C141.777 427.821 140.941 426.963 140.941 425.775C140.941 424.576 141.777 423.707 142.943 423.707C144.142 423.707 144.978 424.576 144.978 425.775ZM147.9 430.626C147.9 430.076 147.559 429.757 147.163 429.757C146.778 429.757 146.514 430.032 146.514 430.417C146.514 430.791 146.778 431.011 147.086 431.011C147.218 431.011 147.306 430.978 147.372 430.934C147.372 431.242 147.086 431.528 146.69 431.594V432.001C147.372 431.902 147.9 431.308 147.9 430.626ZM157.382 431V430.263H153.411L155.248 428.657C156.821 427.282 157.338 426.523 157.338 425.379C157.338 423.938 156.348 422.981 154.863 422.981C153.312 422.981 152.267 424.07 152.223 425.72H153.015C153.048 424.499 153.763 423.707 154.852 423.707C155.897 423.707 156.535 424.356 156.535 425.423C156.535 426.358 156.161 426.908 154.709 428.173L152.19 430.373V431H157.382ZM158.477 427.062C158.477 429.515 159.654 431.143 161.634 431.143C163.603 431.143 164.78 429.515 164.78 427.062C164.78 424.62 163.581 422.97 161.634 422.97C159.676 422.97 158.477 424.62 158.477 427.062ZM159.258 427.062C159.258 425.005 160.127 423.696 161.634 423.696C163.141 423.696 164.01 425.005 164.01 427.062C164.01 429.108 163.141 430.428 161.634 430.428C160.127 430.428 159.258 429.108 159.258 427.062ZM171.068 431V430.263H167.097L168.934 428.657C170.507 427.282 171.024 426.523 171.024 425.379C171.024 423.938 170.034 422.981 168.549 422.981C166.998 422.981 165.953 424.07 165.909 425.72H166.701C166.734 424.499 167.449 423.707 168.538 423.707C169.583 423.707 170.221 424.356 170.221 425.423C170.221 426.358 169.847 426.908 168.395 428.173L165.876 430.373V431H171.068ZM177.266 431V430.263H173.295L175.132 428.657C176.705 427.282 177.222 426.523 177.222 425.379C177.222 423.938 176.232 422.981 174.747 422.981C173.196 422.981 172.151 424.07 172.107 425.72H172.899C172.932 424.499 173.647 423.707 174.736 423.707C175.781 423.707 176.419 424.356 176.419 425.423C176.419 426.358 176.045 426.908 174.593 428.173L172.074 430.373V431H177.266Z" fill="#0A0F0D"/>
<path opacity="0.8" d="M101.096 492.018C101.096 489.598 99.523 487.904 97.268 487.904C95.024 487.904 93.451 489.609 93.451 492.018C93.451 494.438 95.013 496.132 97.257 496.132C99.512 496.132 101.096 494.438 101.096 492.018ZM99.963 492.018C99.963 493.855 98.885 495.098 97.268 495.098C95.651 495.098 94.584 493.866 94.584 492.018C94.584 490.17 95.651 488.949 97.268 488.949C98.885 488.949 99.963 490.17 99.963 492.018ZM105.049 490.577C104.84 490.533 104.686 490.511 104.499 490.511C103.762 490.511 103.223 490.885 103.003 491.446L102.937 490.632H101.969V496H103.003V493.151C103.003 492.117 103.608 491.523 104.587 491.523H105.049V490.577ZM107.651 496.132C108.509 496.132 109.235 495.758 109.587 495.021L109.675 496H110.599V487.904H109.576V491.49C109.213 490.83 108.52 490.467 107.695 490.467C106.1 490.467 105.143 491.677 105.143 493.327C105.143 494.966 106.089 496.132 107.651 496.132ZM107.86 495.197C106.804 495.197 106.188 494.405 106.188 493.294C106.188 492.194 106.804 491.402 107.86 491.402C108.916 491.402 109.565 492.194 109.565 493.294C109.565 494.416 108.916 495.197 107.86 495.197ZM114.082 496.132C115.413 496.132 116.315 495.483 116.579 494.328H115.611C115.435 494.944 114.907 495.274 114.104 495.274C113.081 495.274 112.487 494.647 112.41 493.514L116.568 493.503V493.118C116.568 491.523 115.567 490.467 114.038 490.467C112.476 490.467 111.409 491.633 111.409 493.316C111.409 494.988 112.498 496.132 114.082 496.132ZM114.038 491.336C114.951 491.336 115.534 491.93 115.534 492.821H112.432C112.564 491.875 113.136 491.336 114.038 491.336ZM120.473 490.577C120.264 490.533 120.11 490.511 119.923 490.511C119.186 490.511 118.647 490.885 118.427 491.446L118.361 490.632H117.393V496H118.427V493.151C118.427 492.117 119.032 491.523 120.011 491.523H120.473V490.577ZM120.673 494.438C120.673 495.461 121.476 496.132 122.741 496.132C124.017 496.132 124.897 495.483 124.897 494.46C124.897 493.657 124.446 493.239 123.533 493.019L122.587 492.788C122.059 492.656 121.795 492.414 121.795 492.051C121.795 491.556 122.158 491.27 122.807 491.27C123.434 491.27 123.797 491.611 123.819 492.15H124.809C124.787 491.127 124.017 490.467 122.84 490.467C121.652 490.467 120.816 491.094 120.816 492.084C120.816 492.876 121.267 493.349 122.224 493.58L123.17 493.8C123.731 493.943 123.907 494.163 123.907 494.526C123.907 495.021 123.489 495.318 122.763 495.318C122.081 495.318 121.663 494.988 121.663 494.438H120.673ZM126.593 492.007C127.011 492.007 127.374 491.655 127.374 491.248C127.374 490.819 127.011 490.467 126.593 490.467C126.164 490.467 125.801 490.819 125.801 491.248C125.801 491.655 126.164 492.007 126.593 492.007ZM126.593 496.132C127.011 496.132 127.374 495.78 127.374 495.362C127.374 494.933 127.011 494.581 126.593 494.581C126.164 494.581 125.801 494.933 125.801 495.362C125.801 495.78 126.164 496.132 126.593 496.132ZM133.384 491.886C134.649 491.886 135.309 492.524 135.309 493.481C135.309 494.504 134.638 495.164 133.604 495.164C132.603 495.164 131.965 494.559 131.965 493.525H130.898C130.898 495.175 132.02 496.132 133.582 496.132C135.199 496.132 136.409 495.109 136.409 493.503C136.409 492.073 135.386 491.16 134.033 490.995L136.211 488.916V488.047H131.272V489.004H134.847L132.592 491.171V491.886H133.384ZM142.192 495.989V494.988H138.518L140.168 493.558C141.576 492.337 142.137 491.534 142.137 490.401C142.137 488.872 141.114 487.904 139.519 487.904C137.902 487.904 136.824 489.015 136.791 490.72H137.869C137.891 489.587 138.529 488.872 139.508 488.872C140.465 488.872 141.037 489.466 141.037 490.467C141.037 491.314 140.674 491.853 139.387 492.964L136.824 495.175V496L142.192 495.989ZM144.415 489.015V496H145.449V488.047H142.743V489.015H144.415Z" fill="#0A0F0D"/>
<path opacity="0.8" d="M93.182 455.771H96.016V464H97.29V455.771H100.111V454.601H93.182V455.771ZM103.659 457.591C103.412 457.539 103.23 457.513 103.009 457.513C102.138 457.513 101.501 457.955 101.241 458.618L101.163 457.656H100.019V464H101.241V460.633C101.241 459.411 101.956 458.709 103.113 458.709H103.659V457.591ZM106.021 464.156C107.048 464.156 107.919 463.701 108.244 462.973L108.374 464H109.414V460.009C109.414 458.293 108.348 457.461 106.775 457.461C105.137 457.461 104.045 458.332 104.045 459.658H105.111C105.111 458.891 105.696 458.436 106.723 458.436C107.581 458.436 108.218 458.813 108.218 459.879V460.061L106.216 460.217C104.721 460.334 103.85 461.062 103.85 462.232C103.85 463.389 104.656 464.156 106.021 464.156ZM106.372 463.207C105.579 463.207 105.085 462.869 105.085 462.193C105.085 461.569 105.527 461.153 106.606 461.049L108.231 460.919V461.257C108.231 462.453 107.529 463.207 106.372 463.207ZM110.002 457.643V458.67H110.938V464H112.16V458.67H114.981V464H116.19V458.67H119.024V464H120.233V457.643H116.19V456.629C116.19 455.94 116.398 455.537 117.139 455.537H117.685V454.484C117.438 454.445 117.165 454.432 116.931 454.432C115.826 454.432 114.981 455.069 114.981 456.629V457.643H112.16V456.629C112.16 455.94 112.355 455.537 113.148 455.537H113.694V454.484C113.46 454.445 113.187 454.432 112.953 454.432C111.783 454.432 110.938 455.069 110.938 456.629V457.643H110.002ZM119.622 455.992C120.064 455.992 120.402 455.654 120.402 455.212C120.402 454.783 120.064 454.432 119.622 454.432C119.18 454.432 118.855 454.783 118.855 455.212C118.855 455.654 119.18 455.992 119.622 455.992ZM121.171 460.828C121.171 462.83 122.406 464.156 124.278 464.156C125.812 464.156 126.995 463.233 127.242 461.855H126.02C125.799 462.609 125.149 463.064 124.278 463.064C123.121 463.064 122.38 462.18 122.38 460.815C122.38 459.437 123.173 458.553 124.33 458.553C125.149 458.553 125.799 458.982 126.007 459.788H127.229C127.008 458.371 125.89 457.461 124.291 457.461C122.432 457.461 121.171 458.839 121.171 460.828ZM129.181 459.281C129.675 459.281 130.104 458.865 130.104 458.384C130.104 457.877 129.675 457.461 129.181 457.461C128.674 457.461 128.245 457.877 128.245 458.384C128.245 458.865 128.674 459.281 129.181 459.281ZM129.181 464.156C129.675 464.156 130.104 463.74 130.104 463.246C130.104 462.739 129.675 462.323 129.181 462.323C128.674 462.323 128.245 462.739 128.245 463.246C128.245 463.74 128.674 464.156 129.181 464.156ZM137.219 465.261H138.051V464.13C139.767 463.974 140.872 462.934 140.872 461.387C140.872 460.087 140.118 459.268 138.558 458.917L138.051 458.8V455.576C138.896 455.693 139.403 456.226 139.455 457.058H140.716C140.625 455.55 139.624 454.588 138.051 454.445V453.327H137.219V454.458C135.529 454.601 134.424 455.654 134.424 457.136C134.424 458.475 135.217 459.333 136.751 459.684L137.219 459.788V463.025C136.231 462.921 135.62 462.375 135.594 461.543H134.294C134.372 463.064 135.503 464.039 137.219 464.143V465.261ZM137.011 458.553C136.101 458.332 135.672 457.851 135.672 457.097C135.672 456.265 136.257 455.706 137.219 455.576V458.605L137.011 458.553ZM138.298 460.048C139.195 460.256 139.624 460.737 139.624 461.491C139.624 462.31 139.026 462.869 138.051 462.999V459.996L138.298 460.048ZM143.422 455.745V464H144.644V454.601H141.446V455.745H143.422ZM148.665 459.138C150.16 459.138 150.94 459.892 150.94 461.023C150.94 462.232 150.147 463.012 148.925 463.012C147.742 463.012 146.988 462.297 146.988 461.075H145.727C145.727 463.025 147.053 464.156 148.899 464.156C150.81 464.156 152.24 462.947 152.24 461.049C152.24 459.359 151.031 458.28 149.432 458.085L152.006 455.628V454.601H146.169V455.732H150.394L147.729 458.293V459.138H148.665ZM154.837 463.493C154.837 462.778 154.395 462.323 153.849 462.323C153.329 462.323 152.978 462.7 152.978 463.22C152.978 463.701 153.342 464.013 153.771 464.013C153.927 464.013 154.031 463.987 154.122 463.935C154.122 464.338 153.745 464.689 153.212 464.78V465.326C154.135 465.209 154.837 464.429 154.837 463.493ZM162.75 462.102V460.971H161.632V454.601H159.981L155.548 460.971V462.102H160.41V464H161.632V462.102H162.75ZM156.926 460.971L160.41 455.953V460.971H156.926ZM163.618 459.307C163.618 462.232 165.061 464.169 167.492 464.169C169.91 464.169 171.353 462.232 171.353 459.307C171.353 456.395 169.845 454.419 167.492 454.419C165.126 454.419 163.618 456.395 163.618 459.307ZM164.879 459.307C164.879 456.967 165.841 455.563 167.492 455.563C169.143 455.563 170.092 456.967 170.092 459.307C170.092 461.621 169.143 463.025 167.492 463.025C165.841 463.025 164.879 461.621 164.879 459.307ZM174.857 459.138C176.352 459.138 177.132 459.892 177.132 461.023C177.132 462.232 176.339 463.012 175.117 463.012C173.934 463.012 173.18 462.297 173.18 461.075H171.919C171.919 463.025 173.245 464.156 175.091 464.156C177.002 464.156 178.432 462.947 178.432 461.049C178.432 459.359 177.223 458.28 175.624 458.085L178.198 455.628V454.601H172.361V455.732H176.586L173.921 458.293V459.138H174.857Z" fill="#0A0F0D"/>
<path opacity="0.8" d="M97.992 531.143C100.111 531.143 101.788 529.895 102.191 528.023H100.839C100.488 529.18 99.396 529.921 98.018 529.921C96.12 529.921 94.872 528.491 94.872 526.294C94.872 524.097 96.12 522.667 98.018 522.667C99.383 522.667 100.436 523.408 100.787 524.63H102.152C101.801 522.706 100.176 521.445 98.057 521.445C95.366 521.445 93.533 523.408 93.533 526.307C93.533 529.219 95.314 531.143 97.992 531.143ZM102.739 527.815C102.739 529.778 104.143 531.156 106.054 531.156C107.952 531.156 109.356 529.778 109.356 527.815C109.356 525.852 107.952 524.474 106.054 524.474C104.143 524.474 102.739 525.852 102.739 527.815ZM103.974 527.815C103.974 526.489 104.819 525.566 106.054 525.566C107.276 525.566 108.134 526.489 108.134 527.815C108.134 529.141 107.276 530.064 106.054 530.064C104.819 530.064 103.974 529.141 103.974 527.815ZM111.541 531V527.633C111.541 526.398 112.204 525.579 113.348 525.579C114.284 525.579 114.882 526.099 114.882 527.386V531H116.104V527.113C116.104 525.488 115.337 524.461 113.66 524.461C112.763 524.461 111.957 524.89 111.554 525.618L111.424 524.643H110.319V531H111.541ZM119.06 531H120.269L122.921 524.643H121.647L120.23 528.192C120.009 528.751 119.801 529.297 119.697 529.713C119.593 529.323 119.411 528.79 119.19 528.192L117.799 524.643H116.499L119.06 531ZM125.955 531.156C127.528 531.156 128.594 530.389 128.906 529.024H127.762C127.554 529.752 126.93 530.142 125.981 530.142C124.772 530.142 124.07 529.401 123.979 528.062L128.893 528.049V527.594C128.893 525.709 127.71 524.461 125.903 524.461C124.057 524.461 122.796 525.839 122.796 527.828C122.796 529.804 124.083 531.156 125.955 531.156ZM125.903 525.488C126.982 525.488 127.671 526.19 127.671 527.243H124.005C124.161 526.125 124.837 525.488 125.903 525.488ZM133.508 524.591C133.261 524.539 133.079 524.513 132.858 524.513C131.987 524.513 131.35 524.955 131.09 525.618L131.012 524.656H129.868V531H131.09V527.633C131.09 526.411 131.805 525.709 132.962 525.709H133.508V524.591ZM133.744 529.154C133.744 530.363 134.693 531.156 136.188 531.156C137.696 531.156 138.736 530.389 138.736 529.18C138.736 528.231 138.203 527.737 137.124 527.477L136.006 527.204C135.382 527.048 135.07 526.762 135.07 526.333C135.07 525.748 135.499 525.41 136.266 525.41C137.007 525.41 137.436 525.813 137.462 526.45H138.632C138.606 525.241 137.696 524.461 136.305 524.461C134.901 524.461 133.913 525.202 133.913 526.372C133.913 527.308 134.446 527.867 135.577 528.14L136.695 528.4C137.358 528.569 137.566 528.829 137.566 529.258C137.566 529.843 137.072 530.194 136.214 530.194C135.408 530.194 134.914 529.804 134.914 529.154H133.744ZM140.299 523.135C140.741 523.135 141.105 522.771 141.105 522.329C141.105 521.874 140.741 521.523 140.299 521.523C139.857 521.523 139.493 521.874 139.493 522.329C139.493 522.771 139.857 523.135 140.299 523.135ZM139.701 531H140.923V524.643H139.701V531ZM141.891 527.815C141.891 529.778 143.295 531.156 145.206 531.156C147.104 531.156 148.508 529.778 148.508 527.815C148.508 525.852 147.104 524.474 145.206 524.474C143.295 524.474 141.891 525.852 141.891 527.815ZM143.126 527.815C143.126 526.489 143.971 525.566 145.206 525.566C146.428 525.566 147.286 526.489 147.286 527.815C147.286 529.141 146.428 530.064 145.206 530.064C143.971 530.064 143.126 529.141 143.126 527.815ZM150.693 531V527.633C150.693 526.398 151.356 525.579 152.5 525.579C153.436 525.579 154.034 526.099 154.034 527.386V531H155.256V527.113C155.256 525.488 154.489 524.461 152.812 524.461C151.915 524.461 151.109 524.89 150.706 525.618L150.576 524.643H149.471V531H150.693ZM163.363 524.591C163.116 524.539 162.934 524.513 162.713 524.513C161.842 524.513 161.205 524.955 160.945 525.618L160.867 524.656H159.723V531H160.945V527.633C160.945 526.411 161.66 525.709 162.817 525.709H163.363V524.591ZM165.724 531.156C166.751 531.156 167.622 530.701 167.947 529.973L168.077 531H169.117V527.009C169.117 525.293 168.051 524.461 166.478 524.461C164.84 524.461 163.748 525.332 163.748 526.658H164.814C164.814 525.891 165.399 525.436 166.426 525.436C167.284 525.436 167.921 525.813 167.921 526.879V527.061L165.919 527.217C164.424 527.334 163.553 528.062 163.553 529.232C163.553 530.389 164.359 531.156 165.724 531.156ZM166.075 530.207C165.282 530.207 164.788 529.869 164.788 529.193C164.788 528.569 165.23 528.153 166.309 528.049L167.934 527.919V528.257C167.934 529.453 167.232 530.207 166.075 530.207ZM172.112 531V525.67H173.36V524.643H172.112V522.654H170.89V524.643H169.642V525.67H170.89V531H172.112ZM176.746 531.156C178.319 531.156 179.385 530.389 179.697 529.024H178.553C178.345 529.752 177.721 530.142 176.772 530.142C175.563 530.142 174.861 529.401 174.77 528.062L179.684 528.049V527.594C179.684 525.709 178.501 524.461 176.694 524.461C174.848 524.461 173.587 525.839 173.587 527.828C173.587 529.804 174.874 531.156 176.746 531.156ZM176.694 525.488C177.773 525.488 178.462 526.19 178.462 527.243H174.796C174.952 526.125 175.628 525.488 176.694 525.488ZM181.699 526.281C182.193 526.281 182.622 525.865 182.622 525.384C182.622 524.877 182.193 524.461 181.699 524.461C181.192 524.461 180.763 524.877 180.763 525.384C180.763 525.865 181.192 526.281 181.699 526.281ZM181.699 531.156C182.193 531.156 182.622 530.74 182.622 530.246C182.622 529.739 182.193 529.323 181.699 529.323C181.192 529.323 180.763 529.739 180.763 530.246C180.763 530.74 181.192 531.156 181.699 531.156ZM189.737 532.261H190.569V531.13C192.285 530.974 193.39 529.934 193.39 528.387C193.39 527.087 192.636 526.268 191.076 525.917L190.569 525.8V522.576C191.414 522.693 191.921 523.226 191.973 524.058H193.234C193.143 522.55 192.142 521.588 190.569 521.445V520.327H189.737V521.458C188.047 521.601 186.942 522.654 186.942 524.136C186.942 525.475 187.735 526.333 189.269 526.684L189.737 526.788V530.025C188.749 529.921 188.138 529.375 188.112 528.543H186.812C186.89 530.064 188.021 531.039 189.737 531.143V532.261ZM189.529 525.553C188.619 525.332 188.19 524.851 188.19 524.097C188.19 523.265 188.775 522.706 189.737 522.576V525.605L189.529 525.553ZM190.816 527.048C191.713 527.256 192.142 527.737 192.142 528.491C192.142 529.31 191.544 529.869 190.569 529.999V526.996L190.816 527.048ZM195.94 522.745V531H197.162V521.601H193.964V522.745H195.94ZM199.649 531.156C200.143 531.156 200.572 530.74 200.572 530.246C200.572 529.739 200.143 529.323 199.649 529.323C199.142 529.323 198.713 529.739 198.713 530.246C198.713 530.74 199.142 531.156 199.649 531.156ZM207.999 530.987V529.804H203.657L205.607 528.114C207.271 526.671 207.934 525.722 207.934 524.383C207.934 522.576 206.725 521.432 204.84 521.432C202.929 521.432 201.655 522.745 201.616 524.76H202.89C202.916 523.421 203.67 522.576 204.827 522.576C205.958 522.576 206.634 523.278 206.634 524.461C206.634 525.462 206.205 526.099 204.684 527.412L201.655 530.025V531L207.999 530.987ZM213.436 523.824C213.436 522.42 212.448 521.419 211.057 521.419C209.679 521.419 208.691 522.42 208.691 523.824C208.691 525.215 209.679 526.216 211.057 526.216C212.448 526.216 213.436 525.215 213.436 523.824ZM218.389 521.614H217.141L210.004 531H211.252L218.389 521.614ZM212.435 523.824C212.435 524.656 211.863 525.241 211.057 525.241C210.251 525.241 209.692 524.656 209.692 523.824C209.692 522.979 210.251 522.394 211.057 522.394C211.876 522.394 212.435 522.979 212.435 523.824ZM219.728 528.777C219.728 527.373 218.727 526.385 217.349 526.385C215.971 526.385 214.97 527.373 214.97 528.777C214.97 530.168 215.971 531.169 217.349 531.169C218.727 531.169 219.728 530.168 219.728 528.777ZM218.714 528.777C218.714 529.609 218.155 530.194 217.349 530.194C216.543 530.194 215.984 529.609 215.984 528.777C215.984 527.932 216.543 527.347 217.349 527.347C218.168 527.347 218.714 527.932 218.714 528.777Z" fill="#0A0F0D"/>
<line opacity="0.8" x1="93" y1="473.25" x2="181" y2="473.25" stroke="#0A0F0D" stroke-width="1.5"/>
<line x1="93.75" y1="540.25" x2="220.25" y2="540.25" stroke="#9F84EB" stroke-width="1.5" stroke-linecap="round"/>
<line opacity="0.8" x1="93" y1="506.25" x2="147" y2="506.25" stroke="#0A0F0D" stroke-width="1.5" stroke-dasharray="2 2"/>
<path d="M76.064 194.176C78.528 194.176 80.528 192.72 81.056 190.56H79.824C79.328 192.096 77.888 193.072 76.08 193.072C73.568 193.072 71.888 191.152 71.888 188.272C71.888 185.376 73.568 183.456 76.08 183.456C77.872 183.456 79.28 184.464 79.76 186.112H80.992C80.528 183.84 78.592 182.352 76.128 182.352C72.896 182.352 70.688 184.752 70.688 188.272C70.688 191.792 72.864 194.176 76.064 194.176ZM82.2643 190.128C82.2643 192.48 83.9283 194.192 86.2003 194.192C88.4723 194.192 90.1363 192.48 90.1363 190.128C90.1363 187.76 88.4723 186.048 86.2003 186.048C83.9283 186.048 82.2643 187.76 82.2643 190.128ZM83.3843 190.112C83.3843 188.32 84.5363 187.04 86.2003 187.04C87.8483 187.04 89.0163 188.32 89.0163 190.112C89.0163 191.936 87.8483 193.2 86.2003 193.2C84.5363 193.2 83.3843 191.936 83.3843 190.112ZM93.006 194V189.2C93.006 188.016 93.79 187.056 95.086 187.056C96.254 187.056 97.006 187.824 97.006 189.136V194H98.094V189.216C98.094 188.016 98.862 187.04 100.158 187.04C101.342 187.04 102.078 187.824 102.078 189.152V194H103.15V188.928C103.15 187.136 102.046 186.048 100.366 186.048C99.118 186.048 98.174 186.688 97.822 187.696C97.454 186.688 96.542 186.048 95.326 186.048C94.238 186.048 93.374 186.544 92.99 187.36L92.862 186.256H91.902V194H93.006ZM105.371 197.376H106.475V192.512C107.019 193.632 108.059 194.192 109.371 194.192C111.659 194.192 112.955 192.432 112.955 190.096C112.955 187.76 111.611 186.048 109.371 186.048C108.075 186.048 106.987 186.624 106.443 187.824L106.331 186.256H105.371V197.376ZM106.491 190.128C106.491 188.336 107.483 187.056 109.179 187.056C110.859 187.056 111.835 188.336 111.835 190.128C111.835 191.904 110.859 193.2 109.179 193.2C107.483 193.2 106.491 191.904 106.491 190.128ZM116.939 194.192C118.251 194.192 119.307 193.616 119.787 192.64L119.931 194H120.859V188.992C120.859 186.944 119.547 186.048 117.755 186.048C115.851 186.048 114.571 187.056 114.571 188.624H115.579C115.579 187.584 116.379 186.976 117.723 186.976C118.859 186.976 119.771 187.456 119.771 188.976V189.232L117.211 189.44C115.403 189.584 114.315 190.48 114.315 191.904C114.315 193.264 115.291 194.192 116.939 194.192ZM117.195 193.296C116.139 193.296 115.435 192.816 115.435 191.872C115.435 191.008 116.027 190.368 117.483 190.24L119.771 190.064V190.48C119.771 192.16 118.827 193.296 117.195 193.296ZM127.122 186.16C126.85 186.096 126.642 186.08 126.402 186.08C125.314 186.08 124.498 186.624 124.194 187.456L124.114 186.256H123.074V194H124.178V189.584C124.178 188.112 125.09 187.152 126.514 187.152H127.122V186.16ZM131.541 194.192C133.365 194.192 134.565 193.312 134.981 191.68H133.925C133.637 192.704 132.821 193.248 131.557 193.248C129.893 193.248 128.901 192.16 128.821 190.272H134.981V189.728C134.981 187.536 133.557 186.048 131.461 186.048C129.253 186.048 127.749 187.712 127.749 190.128C127.749 192.56 129.269 194.192 131.541 194.192ZM131.461 186.992C132.917 186.992 133.877 187.984 133.877 189.472H128.853C129.045 187.952 130.005 186.992 131.461 186.992ZM144.223 194.192C145.519 194.192 146.607 193.616 147.151 192.416L147.263 194H148.223V182.336H147.119V187.728C146.575 186.608 145.551 186.048 144.271 186.048C141.967 186.048 140.639 187.808 140.639 190.144C140.639 192.464 141.967 194.192 144.223 194.192ZM144.415 193.184C142.735 193.184 141.759 191.904 141.759 190.112C141.759 188.336 142.735 187.04 144.415 187.04C146.111 187.04 147.103 188.336 147.103 190.112C147.103 191.904 146.111 193.184 144.415 193.184ZM152.751 194.192C154.063 194.192 155.119 193.616 155.599 192.64L155.743 194H156.671V188.992C156.671 186.944 155.359 186.048 153.567 186.048C151.663 186.048 150.383 187.056 150.383 188.624H151.391C151.391 187.584 152.191 186.976 153.535 186.976C154.671 186.976 155.583 187.456 155.583 188.976V189.232L153.023 189.44C151.215 189.584 150.127 190.48 150.127 191.904C150.127 193.264 151.103 194.192 152.751 194.192ZM153.007 193.296C151.951 193.296 151.247 192.816 151.247 191.872C151.247 191.008 151.839 190.368 153.295 190.24L155.583 190.064V190.48C155.583 192.16 154.639 193.296 153.007 193.296ZM160.522 194V187.184H162.074V186.256H160.522V183.808H159.434V186.256H157.882V187.184H159.434V194H160.522ZM165.61 194.192C166.922 194.192 167.978 193.616 168.458 192.64L168.602 194H169.53V188.992C169.53 186.944 168.218 186.048 166.426 186.048C164.522 186.048 163.242 187.056 163.242 188.624H164.25C164.25 187.584 165.05 186.976 166.394 186.976C167.53 186.976 168.442 187.456 168.442 188.976V189.232L165.882 189.44C164.074 189.584 162.986 190.48 162.986 191.904C162.986 193.264 163.962 194.192 165.61 194.192ZM165.866 193.296C164.81 193.296 164.106 192.816 164.106 191.872C164.106 191.008 164.698 190.368 166.154 190.24L168.442 190.064V190.48C168.442 192.16 167.498 193.296 165.866 193.296ZM176.183 197.376H177.287V192.512C177.831 193.632 178.871 194.192 180.183 194.192C182.471 194.192 183.767 192.432 183.767 190.096C183.767 187.76 182.423 186.048 180.183 186.048C178.887 186.048 177.799 186.624 177.255 187.824L177.143 186.256H176.183V197.376ZM177.303 190.128C177.303 188.336 178.295 187.056 179.991 187.056C181.671 187.056 182.647 188.336 182.647 190.128C182.647 191.904 181.671 193.2 179.991 193.2C178.295 193.2 177.303 191.904 177.303 190.128ZM184.983 190.128C184.983 192.48 186.647 194.192 188.919 194.192C191.191 194.192 192.855 192.48 192.855 190.128C192.855 187.76 191.191 186.048 188.919 186.048C186.647 186.048 184.983 187.76 184.983 190.128ZM186.103 190.112C186.103 188.32 187.255 187.04 188.919 187.04C190.567 187.04 191.735 188.32 191.735 190.112C191.735 191.936 190.567 193.2 188.919 193.2C187.255 193.2 186.103 191.936 186.103 190.112ZM195.165 184.128C195.613 184.128 195.997 183.76 195.997 183.312C195.997 182.864 195.613 182.48 195.165 182.48C194.717 182.48 194.349 182.864 194.349 183.312C194.349 183.76 194.717 184.128 195.165 184.128ZM194.621 194H195.725V186.256H194.621V194ZM199.131 194V189.952C199.131 188.208 200.027 187.056 201.611 187.056C202.891 187.056 203.707 187.696 203.707 189.504V194H204.811V189.264C204.811 187.312 203.931 186.048 201.803 186.048C200.683 186.048 199.659 186.608 199.147 187.6L198.987 186.256H198.027V194H199.131ZM208.787 194V187.184H210.339V186.256H208.787V183.808H207.699V186.256H206.147V187.184H207.699V194H208.787ZM211.121 191.824C211.121 193.264 212.209 194.192 213.953 194.192C215.713 194.192 216.897 193.28 216.897 191.888C216.897 190.768 216.289 190.144 214.945 189.808L213.617 189.472C212.769 189.264 212.353 188.848 212.353 188.256C212.353 187.424 212.961 186.96 214.049 186.96C215.089 186.96 215.713 187.488 215.745 188.384H216.817C216.769 186.944 215.713 186.048 214.081 186.048C212.417 186.048 211.281 186.912 211.281 188.272C211.281 189.328 211.937 190.032 213.281 190.368L214.609 190.704C215.521 190.928 215.841 191.296 215.841 191.936C215.841 192.768 215.137 193.28 213.937 193.28C212.849 193.28 212.177 192.72 212.177 191.824H211.121ZM222.608 190.128C222.608 192.48 224.272 194.192 226.544 194.192C228.816 194.192 230.48 192.48 230.48 190.128C230.48 187.76 228.816 186.048 226.544 186.048C224.272 186.048 222.608 187.76 222.608 190.128ZM223.728 190.112C223.728 188.32 224.88 187.04 226.544 187.04C228.192 187.04 229.36 188.32 229.36 190.112C229.36 191.936 228.192 193.2 226.544 193.2C224.88 193.2 223.728 191.936 223.728 190.112ZM234.062 194H235.166L238.382 186.256H237.246L235.214 191.248C234.99 191.808 234.782 192.32 234.638 192.848C234.494 192.336 234.286 191.808 234.078 191.248L232.078 186.256H230.894L234.062 194ZM242.588 194.192C244.412 194.192 245.612 193.312 246.028 191.68H244.972C244.684 192.704 243.868 193.248 242.604 193.248C240.94 193.248 239.948 192.16 239.868 190.272H246.028V189.728C246.028 187.536 244.604 186.048 242.508 186.048C240.299 186.048 238.796 187.712 238.796 190.128C238.796 192.56 240.316 194.192 242.588 194.192ZM242.508 186.992C243.964 186.992 244.924 187.984 244.924 189.472H239.9C240.092 187.952 241.052 186.992 242.508 186.992ZM251.841 186.16C251.569 186.096 251.361 186.08 251.121 186.08C250.033 186.08 249.217 186.624 248.913 187.456L248.833 186.256H247.793V194H248.897V189.584C248.897 188.112 249.809 187.152 251.233 187.152H251.841V186.16ZM259.97 194.192C261.282 194.192 262.338 193.616 262.818 192.64L262.962 194H263.89V188.992C263.89 186.944 262.578 186.048 260.786 186.048C258.882 186.048 257.602 187.056 257.602 188.624H258.61C258.61 187.584 259.41 186.976 260.754 186.976C261.89 186.976 262.802 187.456 262.802 188.976V189.232L260.242 189.44C258.434 189.584 257.346 190.48 257.346 191.904C257.346 193.264 258.322 194.192 259.97 194.192ZM260.226 193.296C259.17 193.296 258.466 192.816 258.466 191.872C258.466 191.008 259.058 190.368 260.514 190.24L262.802 190.064V190.48C262.802 192.16 261.858 193.296 260.226 193.296ZM267.209 194V189.952C267.209 188.208 268.105 187.056 269.689 187.056C270.969 187.056 271.785 187.696 271.785 189.504V194H272.889V189.264C272.889 187.312 272.009 186.048 269.881 186.048C268.761 186.048 267.737 186.608 267.225 187.6L267.065 186.256H266.105V194H267.209ZM274.149 197.376C274.501 197.456 274.853 197.488 275.317 197.488C276.421 197.488 277.173 196.992 277.621 195.776L281.173 186.256H280.037L277.589 193.008L275.093 186.256H273.925L277.061 194.464L276.725 195.376C276.341 196.416 275.669 196.464 274.997 196.464H274.149V197.376ZM289.942 194.192C291.238 194.192 292.326 193.616 292.87 192.416L292.982 194H293.942V182.336H292.838V187.728C292.294 186.608 291.27 186.048 289.99 186.048C287.686 186.048 286.358 187.808 286.358 190.144C286.358 192.464 287.686 194.192 289.942 194.192ZM290.134 193.184C288.454 193.184 287.478 191.904 287.478 190.112C287.478 188.336 288.454 187.04 290.134 187.04C291.83 187.04 292.822 188.336 292.822 190.112C292.822 191.904 291.83 193.184 290.134 193.184ZM298.47 194.192C299.782 194.192 300.838 193.616 301.318 192.64L301.462 194H302.39V188.992C302.39 186.944 301.078 186.048 299.286 186.048C297.382 186.048 296.102 187.056 296.102 188.624H297.11C297.11 187.584 297.91 186.976 299.254 186.976C300.39 186.976 301.302 187.456 301.302 188.976V189.232L298.742 189.44C296.934 189.584 295.846 190.48 295.846 191.904C295.846 193.264 296.822 194.192 298.47 194.192ZM298.726 193.296C297.67 193.296 296.966 192.816 296.966 191.872C296.966 191.008 297.558 190.368 299.014 190.24L301.302 190.064V190.48C301.302 192.16 300.358 193.296 298.726 193.296ZM306.241 194V187.184H307.793V186.256H306.241V183.808H305.153V186.256H303.601V187.184H305.153V194H306.241ZM312.4 194.192C314.224 194.192 315.424 193.312 315.84 191.68H314.784C314.496 192.704 313.68 193.248 312.416 193.248C310.752 193.248 309.76 192.16 309.68 190.272H315.84V189.728C315.84 187.536 314.416 186.048 312.32 186.048C310.112 186.048 308.608 187.712 308.608 190.128C308.608 192.56 310.128 194.192 312.4 194.192ZM312.32 186.992C313.776 186.992 314.736 187.984 314.736 189.472H309.712C309.904 187.952 310.864 186.992 312.32 186.992ZM326.091 186.16C325.819 186.096 325.611 186.08 325.371 186.08C324.283 186.08 323.467 186.624 323.163 187.456L323.083 186.256H322.043V194H323.147V189.584C323.147 188.112 324.059 187.152 325.483 187.152H326.091V186.16ZM329.47 194.192C330.782 194.192 331.838 193.616 332.318 192.64L332.462 194H333.39V188.992C333.39 186.944 332.078 186.048 330.286 186.048C328.382 186.048 327.102 187.056 327.102 188.624H328.11C328.11 187.584 328.91 186.976 330.254 186.976C331.39 186.976 332.302 187.456 332.302 188.976V189.232L329.742 189.44C327.934 189.584 326.846 190.48 326.846 191.904C326.846 193.264 327.822 194.192 329.47 194.192ZM329.726 193.296C328.67 193.296 327.966 192.816 327.966 191.872C327.966 191.008 328.558 190.368 330.014 190.24L332.302 190.064V190.48C332.302 192.16 331.358 193.296 329.726 193.296ZM336.709 194V189.952C336.709 188.208 337.605 187.056 339.189 187.056C340.469 187.056 341.285 187.696 341.285 189.504V194H342.389V189.264C342.389 187.312 341.509 186.048 339.381 186.048C338.261 186.048 337.237 186.608 336.725 187.6L336.565 186.256H335.605V194H336.709ZM344.062 189.904C344.062 192.016 345.406 193.76 347.614 193.76C348.942 193.76 350.014 193.12 350.542 192.032V193.872C350.542 195.488 349.486 196.56 347.902 196.56C346.51 196.56 345.549 195.824 345.31 194.576H344.206C344.51 196.448 345.902 197.568 347.886 197.568C350.158 197.568 351.63 196.064 351.63 193.76V186.256H350.67L350.558 187.808C350.062 186.672 349.038 186.048 347.694 186.048C345.422 186.048 344.062 187.792 344.062 189.904ZM345.166 189.888C345.166 188.32 346.126 187.024 347.79 187.024C349.486 187.024 350.446 188.24 350.446 189.888C350.446 191.552 349.454 192.768 347.774 192.768C346.142 192.768 345.166 191.472 345.166 189.888ZM357.181 194.192C359.005 194.192 360.205 193.312 360.621 191.68H359.565C359.277 192.704 358.461 193.248 357.197 193.248C355.533 193.248 354.541 192.16 354.461 190.272H360.621V189.728C360.621 187.536 359.197 186.048 357.101 186.048C354.893 186.048 353.389 187.712 353.389 190.128C353.389 192.56 354.909 194.192 357.181 194.192ZM357.101 186.992C358.557 186.992 359.517 187.984 359.517 189.472H354.493C354.685 187.952 355.645 186.992 357.101 186.992ZM362.846 194.176C363.39 194.176 363.854 193.728 363.854 193.2C363.854 192.656 363.39 192.192 362.846 192.192C362.302 192.192 361.838 192.656 361.838 193.2C361.838 193.728 362.302 194.176 362.846 194.176Z" fill="#0A0F0D" fill-opacity="0.8"/>
<g clip-path="url(#clip0_1_254)">
<path d="M48 193.26C46.2318 193.26 44.799 191.845 44.799 190.099V189.899C44.799 188.154 46.2318 186.738 48 186.738C49.7682 186.738 51.201 188.154 51.201 189.899V190.099C51.201 191.845 49.7682 193.26 48 193.26ZM48 182C43.5815 182 40 185.537 40 189.9V190.1C40 194.462 43.5815 198 48 198C52.4185 198 56 194.463 56 190.1V189.9C56 185.537 52.4177 182 48 182Z" fill="black"/>
</g>
<path d="M72.544 156V150.72H78.736V156H79.872V144.544H78.736V149.648H72.544V144.544H71.392V156H72.544ZM81.8893 152.128C81.8893 154.48 83.5533 156.192 85.8253 156.192C88.0973 156.192 89.7613 154.48 89.7613 152.128C89.7613 149.76 88.0973 148.048 85.8253 148.048C83.5533 148.048 81.8893 149.76 81.8893 152.128ZM83.0093 152.112C83.0093 150.32 84.1613 149.04 85.8253 149.04C87.4733 149.04 88.6413 150.32 88.6413 152.112C88.6413 153.936 87.4733 155.2 85.8253 155.2C84.1613 155.2 83.0093 153.936 83.0093 152.112ZM93.3433 156H94.4473L97.6633 148.256H96.5273L94.4953 153.248C94.2713 153.808 94.0633 154.32 93.9193 154.848C93.7753 154.336 93.5673 153.808 93.3593 153.248L91.3593 148.256H90.1753L93.3433 156ZM101.869 156.192C103.693 156.192 104.893 155.312 105.309 153.68H104.253C103.965 154.704 103.149 155.248 101.885 155.248C100.221 155.248 99.2288 154.16 99.1488 152.272H105.309V151.728C105.309 149.536 103.885 148.048 101.789 148.048C99.5807 148.048 98.0768 149.712 98.0768 152.128C98.0768 154.56 99.5968 156.192 101.869 156.192ZM101.789 148.992C103.245 148.992 104.205 149.984 104.205 151.472H99.1808C99.3728 149.952 100.333 148.992 101.789 148.992ZM111.122 148.16C110.85 148.096 110.642 148.08 110.402 148.08C109.314 148.08 108.498 148.624 108.194 149.456L108.114 148.256H107.074V156H108.178V151.584C108.178 150.112 109.09 149.152 110.514 149.152H111.122V148.16ZM116.483 152.128C116.483 154.48 118.147 156.192 120.419 156.192C122.691 156.192 124.355 154.48 124.355 152.128C124.355 149.76 122.691 148.048 120.419 148.048C118.147 148.048 116.483 149.76 116.483 152.128ZM117.603 152.112C117.603 150.32 118.755 149.04 120.419 149.04C122.067 149.04 123.235 150.32 123.235 152.112C123.235 153.936 122.067 155.2 120.419 155.2C118.755 155.2 117.603 153.936 117.603 152.112ZM127.937 156H129.041L132.257 148.256H131.121L129.089 153.248C128.865 153.808 128.657 154.32 128.513 154.848C128.369 154.336 128.161 153.808 127.953 153.248L125.953 148.256H124.769L127.937 156ZM136.463 156.192C138.287 156.192 139.487 155.312 139.903 153.68H138.847C138.559 154.704 137.743 155.248 136.479 155.248C134.815 155.248 133.823 154.16 133.743 152.272H139.903V151.728C139.903 149.536 138.479 148.048 136.383 148.048C134.174 148.048 132.671 149.712 132.671 152.128C132.671 154.56 134.191 156.192 136.463 156.192ZM136.383 148.992C137.839 148.992 138.799 149.984 138.799 151.472H133.775C133.967 149.952 134.927 148.992 136.383 148.992ZM145.716 148.16C145.444 148.096 145.236 148.08 144.996 148.08C143.908 148.08 143.092 148.624 142.788 149.456L142.708 148.256H141.668V156H142.772V151.584C142.772 150.112 143.684 149.152 145.108 149.152H145.716V148.16ZM154.661 156.192C155.957 156.192 157.045 155.616 157.589 154.416L157.701 156H158.661V144.336H157.557V149.728C157.013 148.608 155.989 148.048 154.709 148.048C152.405 148.048 151.077 149.808 151.077 152.144C151.077 154.464 152.405 156.192 154.661 156.192ZM154.853 155.184C153.173 155.184 152.197 153.904 152.197 152.112C152.197 150.336 153.173 149.04 154.853 149.04C156.549 149.04 157.541 150.336 157.541 152.112C157.541 153.904 156.549 155.184 154.853 155.184ZM163.189 156.192C164.501 156.192 165.557 155.616 166.037 154.64L166.181 156H167.109V150.992C167.109 148.944 165.797 148.048 164.005 148.048C162.101 148.048 160.821 149.056 160.821 150.624H161.829C161.829 149.584 162.629 148.976 163.973 148.976C165.109 148.976 166.021 149.456 166.021 150.976V151.232L163.461 151.44C161.653 151.584 160.565 152.48 160.565 153.904C160.565 155.264 161.541 156.192 163.189 156.192ZM163.445 155.296C162.389 155.296 161.685 154.816 161.685 153.872C161.685 153.008 162.277 152.368 163.733 152.24L166.021 152.064V152.48C166.021 154.16 165.077 155.296 163.445 155.296ZM170.959 156V149.184H172.511V148.256H170.959V145.808H169.871V148.256H168.319V149.184H169.871V156H170.959ZM176.048 156.192C177.36 156.192 178.416 155.616 178.896 154.64L179.04 156H179.968V150.992C179.968 148.944 178.656 148.048 176.864 148.048C174.96 148.048 173.68 149.056 173.68 150.624H174.688C174.688 149.584 175.488 148.976 176.832 148.976C177.968 148.976 178.88 149.456 178.88 150.976V151.232L176.32 151.44C174.512 151.584 173.424 152.48 173.424 153.904C173.424 155.264 174.4 156.192 176.048 156.192ZM176.304 155.296C175.248 155.296 174.544 154.816 174.544 153.872C174.544 153.008 175.136 152.368 176.592 152.24L178.88 152.064V152.48C178.88 154.16 177.936 155.296 176.304 155.296ZM188.781 156H189.885L193.101 148.256H191.965L189.933 153.248C189.709 153.808 189.501 154.32 189.357 154.848C189.213 154.336 189.005 153.808 188.797 153.248L186.797 148.256H185.613L188.781 156ZM194.946 146.128C195.394 146.128 195.778 145.76 195.778 145.312C195.778 144.864 195.394 144.48 194.946 144.48C194.498 144.48 194.13 144.864 194.13 145.312C194.13 145.76 194.498 146.128 194.946 146.128ZM194.402 156H195.506V148.256H194.402V156ZM197.152 153.824C197.152 155.264 198.24 156.192 199.984 156.192C201.744 156.192 202.928 155.28 202.928 153.888C202.928 152.768 202.32 152.144 200.976 151.808L199.648 151.472C198.8 151.264 198.384 150.848 198.384 150.256C198.384 149.424 198.992 148.96 200.08 148.96C201.12 148.96 201.744 149.488 201.776 150.384H202.848C202.8 148.944 201.744 148.048 200.112 148.048C198.448 148.048 197.312 148.912 197.312 150.272C197.312 151.328 197.968 152.032 199.312 152.368L200.64 152.704C201.552 152.928 201.872 153.296 201.872 153.936C201.872 154.768 201.168 155.28 199.968 155.28C198.88 155.28 198.208 154.72 198.208 153.824H197.152ZM210.186 148.256V152.368C210.186 154.208 209.306 155.2 207.818 155.2C206.586 155.2 205.77 154.544 205.77 152.704V148.24H204.65V153.056C204.65 154.944 205.642 156.192 207.466 156.192C208.682 156.192 209.754 155.584 210.186 154.688L210.33 156H211.29V148.256H210.186ZM215.814 156.192C217.126 156.192 218.182 155.616 218.662 154.64L218.806 156H219.734V150.992C219.734 148.944 218.422 148.048 216.63 148.048C214.726 148.048 213.446 149.056 213.446 150.624H214.454C214.454 149.584 215.254 148.976 216.598 148.976C217.734 148.976 218.646 149.456 218.646 150.976V151.232L216.086 151.44C214.278 151.584 213.19 152.48 213.19 153.904C213.19 155.264 214.166 156.192 215.814 156.192ZM216.07 155.296C215.014 155.296 214.31 154.816 214.31 153.872C214.31 153.008 214.902 152.368 216.358 152.24L218.646 152.064V152.48C218.646 154.16 217.702 155.296 216.07 155.296ZM223.101 156V144.336H221.997V156H223.101ZM225.993 146.128C226.441 146.128 226.825 145.76 226.825 145.312C226.825 144.864 226.441 144.48 225.993 144.48C225.545 144.48 225.177 144.864 225.177 145.312C225.177 145.76 225.545 146.128 225.993 146.128ZM225.449 156H226.553V148.256H225.449V156ZM234.167 156V155.072H229.671L234.167 149.152V148.256H228.327V149.184H232.807L228.327 155.12V156H234.167ZM238.173 156.192C239.485 156.192 240.541 155.616 241.021 154.64L241.165 156H242.093V150.992C242.093 148.944 240.781 148.048 238.989 148.048C237.085 148.048 235.805 149.056 235.805 150.624H236.813C236.813 149.584 237.613 148.976 238.957 148.976C240.093 148.976 241.005 149.456 241.005 150.976V151.232L238.445 151.44C236.637 151.584 235.549 152.48 235.549 153.904C235.549 155.264 236.525 156.192 238.173 156.192ZM238.429 155.296C237.373 155.296 236.669 154.816 236.669 153.872C236.669 153.008 237.261 152.368 238.717 152.24L241.005 152.064V152.48C241.005 154.16 240.061 155.296 238.429 155.296ZM245.944 156V149.184H247.496V148.256H245.944V145.808H244.856V148.256H243.304V149.184H244.856V156H245.944ZM249.477 146.128C249.925 146.128 250.309 145.76 250.309 145.312C250.309 144.864 249.925 144.48 249.477 144.48C249.029 144.48 248.661 144.864 248.661 145.312C248.661 145.76 249.029 146.128 249.477 146.128ZM248.933 156H250.037V148.256H248.933V156ZM251.796 152.128C251.796 154.48 253.46 156.192 255.732 156.192C258.004 156.192 259.668 154.48 259.668 152.128C259.668 149.76 258.004 148.048 255.732 148.048C253.46 148.048 251.796 149.76 251.796 152.128ZM252.916 152.112C252.916 150.32 254.068 149.04 255.732 149.04C257.38 149.04 258.548 150.32 258.548 152.112C258.548 153.936 257.38 155.2 255.732 155.2C254.068 155.2 252.916 153.936 252.916 152.112ZM262.537 156V151.952C262.537 150.208 263.433 149.056 265.017 149.056C266.297 149.056 267.113 149.696 267.113 151.504V156H268.217V151.264C268.217 149.312 267.337 148.048 265.209 148.048C264.089 148.048 263.065 148.608 262.553 149.6L262.393 148.256H261.433V156H262.537ZM269.668 153.824C269.668 155.264 270.756 156.192 272.5 156.192C274.26 156.192 275.444 155.28 275.444 153.888C275.444 152.768 274.836 152.144 273.492 151.808L272.164 151.472C271.316 151.264 270.9 150.848 270.9 150.256C270.9 149.424 271.508 148.96 272.596 148.96C273.636 148.96 274.26 149.488 274.292 150.384H275.364C275.316 148.944 274.26 148.048 272.628 148.048C270.964 148.048 269.828 148.912 269.828 150.272C269.828 151.328 270.484 152.032 271.828 152.368L273.156 152.704C274.068 152.928 274.388 153.296 274.388 153.936C274.388 154.768 273.684 155.28 272.484 155.28C271.396 155.28 270.724 154.72 270.724 153.824H269.668ZM283.475 156V149.184H285.027V148.256H283.475V145.808H282.387V148.256H280.835V149.184H282.387V156H283.475ZM285.842 152.128C285.842 154.48 287.506 156.192 289.778 156.192C292.05 156.192 293.714 154.48 293.714 152.128C293.714 149.76 292.05 148.048 289.778 148.048C287.506 148.048 285.842 149.76 285.842 152.128ZM286.962 152.112C286.962 150.32 288.114 149.04 289.778 149.04C291.426 149.04 292.594 150.32 292.594 152.112C292.594 153.936 291.426 155.2 289.778 155.2C288.114 155.2 286.962 153.936 286.962 152.112ZM299.262 153.824C299.262 155.264 300.35 156.192 302.094 156.192C303.854 156.192 305.038 155.28 305.038 153.888C305.038 152.768 304.43 152.144 303.086 151.808L301.758 151.472C300.91 151.264 300.494 150.848 300.494 150.256C300.494 149.424 301.102 148.96 302.19 148.96C303.23 148.96 303.854 149.488 303.886 150.384H304.958C304.91 148.944 303.854 148.048 302.222 148.048C300.558 148.048 299.422 148.912 299.422 150.272C299.422 151.328 300.078 152.032 301.422 152.368L302.75 152.704C303.662 152.928 303.982 153.296 303.982 153.936C303.982 154.768 303.278 155.28 302.078 155.28C300.99 155.28 300.318 154.72 300.318 153.824H299.262ZM310.103 156.192C311.927 156.192 313.127 155.312 313.543 153.68H312.487C312.199 154.704 311.383 155.248 310.119 155.248C308.455 155.248 307.463 154.16 307.383 152.272H313.543V151.728C313.543 149.536 312.119 148.048 310.023 148.048C307.815 148.048 306.311 149.712 306.311 152.128C306.311 154.56 307.831 156.192 310.103 156.192ZM310.023 148.992C311.479 148.992 312.439 149.984 312.439 151.472H307.415C307.607 149.952 308.567 148.992 310.023 148.992ZM318.556 156.192C320.38 156.192 321.58 155.312 321.996 153.68H320.94C320.652 154.704 319.836 155.248 318.572 155.248C316.908 155.248 315.916 154.16 315.836 152.272H321.996V151.728C321.996 149.536 320.572 148.048 318.476 148.048C316.268 148.048 314.764 149.712 314.764 152.128C314.764 154.56 316.284 156.192 318.556 156.192ZM318.476 148.992C319.932 148.992 320.892 149.984 320.892 151.472H315.868C316.06 149.952 317.02 148.992 318.476 148.992ZM329.975 156V149.184H331.527V148.256H329.975V145.808H328.887V148.256H327.335V149.184H328.887V156H329.975ZM334.069 155.984V151.776C334.069 150.288 334.933 149.056 336.597 149.056C337.797 149.056 338.645 149.696 338.645 151.504V156H339.749V151.264C339.749 149.312 338.837 148.048 336.805 148.048C335.509 148.048 334.565 148.672 334.069 149.6V144.336H332.965V155.984H334.069ZM345.197 156.192C347.021 156.192 348.221 155.312 348.637 153.68H347.581C347.293 154.704 346.477 155.248 345.213 155.248C343.549 155.248 342.557 154.16 342.477 152.272H348.637V151.728C348.637 149.536 347.213 148.048 345.117 148.048C342.909 148.048 341.405 149.712 341.405 152.128C341.405 154.56 342.925 156.192 345.197 156.192ZM345.117 148.992C346.573 148.992 347.533 149.984 347.533 151.472H342.509C342.701 149.952 343.661 148.992 345.117 148.992ZM358.088 156.192C359.912 156.192 361.112 155.312 361.528 153.68H360.472C360.184 154.704 359.368 155.248 358.104 155.248C356.44 155.248 355.448 154.16 355.368 152.272H361.528V151.728C361.528 149.536 360.104 148.048 358.008 148.048C355.799 148.048 354.296 149.712 354.296 152.128C354.296 154.56 355.816 156.192 358.088 156.192ZM358.008 148.992C359.464 148.992 360.424 149.984 360.424 151.472H355.4C355.592 149.952 356.552 148.992 358.008 148.992ZM363.331 156L365.491 152.896L367.667 156H368.979L366.243 152.144L368.995 148.256H367.715L365.539 151.36L363.347 148.256H362.051L364.803 152.128L362.035 156H363.331ZM372.532 156.192C373.844 156.192 374.9 155.616 375.38 154.64L375.524 156H376.452V150.992C376.452 148.944 375.14 148.048 373.348 148.048C371.444 148.048 370.164 149.056 370.164 150.624H371.172C371.172 149.584 371.972 148.976 373.316 148.976C374.452 148.976 375.364 149.456 375.364 150.976V151.232L372.804 151.44C370.996 151.584 369.908 152.48 369.908 153.904C369.908 155.264 370.884 156.192 372.532 156.192ZM372.788 155.296C371.732 155.296 371.028 154.816 371.028 153.872C371.028 153.008 371.62 152.368 373.076 152.24L375.364 152.064V152.48C375.364 154.16 374.42 155.296 372.788 155.296ZM378.124 152.144C378.124 154.576 379.612 156.192 381.804 156.192C383.564 156.192 384.94 155.152 385.308 153.568H384.188C383.884 154.56 382.956 155.2 381.804 155.2C380.236 155.2 379.212 153.968 379.212 152.128C379.212 150.224 380.316 149.024 381.884 149.024C382.956 149.024 383.884 149.616 384.172 150.688H385.276C384.972 149.088 383.66 148.048 381.868 148.048C379.612 148.048 378.124 149.712 378.124 152.144ZM388.756 156V149.184H390.308V148.256H388.756V145.808H387.668V148.256H386.116V149.184H387.668V156H388.756ZM397.287 156V151.952C397.287 150.208 398.183 149.056 399.767 149.056C401.047 149.056 401.863 149.696 401.863 151.504V156H402.967V151.264C402.967 149.312 402.087 148.048 399.959 148.048C398.839 148.048 397.815 148.608 397.303 149.6L397.143 148.256H396.183V156H397.287ZM410.608 148.256V152.368C410.608 154.208 409.728 155.2 408.24 155.2C407.008 155.2 406.192 154.544 406.192 152.704V148.24H405.072V153.056C405.072 154.944 406.064 156.192 407.888 156.192C409.104 156.192 410.176 155.584 410.608 154.688L410.752 156H411.712V148.256H410.608ZM415.115 156V151.2C415.115 150.016 415.899 149.056 417.195 149.056C418.363 149.056 419.115 149.824 419.115 151.136V156H420.203V151.216C420.203 150.016 420.971 149.04 422.267 149.04C423.451 149.04 424.187 149.824 424.187 151.152V156H425.259V150.928C425.259 149.136 424.155 148.048 422.475 148.048C421.227 148.048 420.283 148.688 419.931 149.696C419.563 148.688 418.651 148.048 417.435 148.048C416.347 148.048 415.483 148.544 415.099 149.36L414.971 148.256H414.011V156H415.115ZM428.44 156L428.552 154.416C429.096 155.616 430.168 156.192 431.464 156.192C433.72 156.192 435.064 154.464 435.064 152.144C435.064 149.808 433.752 148.048 431.496 148.048C430.184 148.048 429.128 148.624 428.584 149.76V144.336H427.48V156H428.44ZM428.6 152.112C428.6 150.336 429.592 149.04 431.288 149.04C432.968 149.04 433.944 150.336 433.944 152.112C433.944 153.904 432.968 155.184 431.288 155.184C429.592 155.184 428.6 153.904 428.6 152.112ZM440.072 156.192C441.896 156.192 443.096 155.312 443.512 153.68H442.456C442.168 154.704 441.352 155.248 440.088 155.248C438.424 155.248 437.432 154.16 437.352 152.272H443.512V151.728C443.512 149.536 442.088 148.048 439.992 148.048C437.784 148.048 436.28 149.712 436.28 152.128C436.28 154.56 437.8 156.192 440.072 156.192ZM439.992 148.992C441.448 148.992 442.408 149.984 442.408 151.472H437.384C437.576 149.952 438.536 148.992 439.992 148.992ZM449.325 148.16C449.053 148.096 448.845 148.08 448.605 148.08C447.517 148.08 446.701 148.624 446.397 149.456L446.317 148.256H445.277V156H446.381V151.584C446.381 150.112 447.293 149.152 448.717 149.152H449.325V148.16ZM450.137 153.824C450.137 155.264 451.225 156.192 452.969 156.192C454.729 156.192 455.913 155.28 455.913 153.888C455.913 152.768 455.305 152.144 453.961 151.808L452.633 151.472C451.785 151.264 451.369 150.848 451.369 150.256C451.369 149.424 451.977 148.96 453.065 148.96C454.105 148.96 454.729 149.488 454.761 150.384H455.833C455.785 148.944 454.729 148.048 453.097 148.048C451.433 148.048 450.297 148.912 450.297 150.272C450.297 151.328 450.953 152.032 452.297 152.368L453.625 152.704C454.537 152.928 454.857 153.296 454.857 153.936C454.857 154.768 454.153 155.28 452.953 155.28C451.865 155.28 451.193 154.72 451.193 153.824H450.137ZM458.549 156.176C459.093 156.176 459.557 155.728 459.557 155.2C459.557 154.656 459.093 154.192 458.549 154.192C458.005 154.192 457.541 154.656 457.541 155.2C457.541 155.728 458.005 156.176 458.549 156.176Z" fill="#0A0F0D" fill-opacity="0.8"/>
<g clip-path="url(#clip1_1_254)">
<path d="M48 155.26C46.2318 155.26 44.799 153.845 44.799 152.099V151.899C44.799 150.154 46.2318 148.738 48 148.738C49.7682 148.738 51.201 150.154 51.201 151.899V152.099C51.201 153.845 49.7682 155.26 48 155.26ZM48 144C43.5815 144 40 147.537 40 151.9V152.1C40 156.462 43.5815 160 48 160C52.4185 160 56 156.463 56 152.1V151.9C56 147.537 52.4177 144 48 144Z" fill="black"/>
</g>
<path d="M73.648 118H74.752L77.824 108.272L80.896 118H81.984L85.424 106.544H84.256L81.888 114.432C81.76 114.864 81.616 115.424 81.44 116.304C81.264 115.568 81.104 114.992 80.928 114.416L78.432 106.544H77.232L74.736 114.416C74.56 114.976 74.4 115.472 74.208 116.304C74.064 115.552 73.92 114.976 73.76 114.416L71.44 106.544H70.24L73.648 118ZM89.1656 118.192C90.9896 118.192 92.1896 117.312 92.6056 115.68H91.5496C91.2616 116.704 90.4456 117.248 89.1816 117.248C87.5176 117.248 86.5256 116.16 86.4456 114.272H92.6056V113.728C92.6056 111.536 91.1816 110.048 89.0856 110.048C86.8776 110.048 85.3736 111.712 85.3736 114.128C85.3736 116.56 86.8936 118.192 89.1656 118.192ZM89.0856 110.992C90.5416 110.992 91.5016 111.984 91.5016 113.472H86.4776C86.6696 111.952 87.6296 110.992 89.0856 110.992ZM99.9603 118V115.68L101.464 114.128L103.928 118H105.208L102.216 113.344L105.192 110.256H103.8L99.9603 114.256V106.336H98.8563V118H99.9603ZM107.631 118V113.952C107.631 112.208 108.527 111.056 110.111 111.056C111.391 111.056 112.207 111.696 112.207 113.504V118H113.311V113.264C113.311 111.312 112.431 110.048 110.303 110.048C109.183 110.048 108.159 110.608 107.647 111.6L107.487 110.256H106.527V118H107.631ZM114.967 114.128C114.967 116.48 116.631 118.192 118.903 118.192C121.175 118.192 122.839 116.48 122.839 114.128C122.839 111.76 121.175 110.048 118.903 110.048C116.631 110.048 114.967 111.76 114.967 114.128ZM116.087 114.112C116.087 112.32 117.239 111.04 118.903 111.04C120.551 111.04 121.719 112.32 121.719 114.112C121.719 115.936 120.551 117.2 118.903 117.2C117.239 117.2 116.087 115.936 116.087 114.112ZM125.893 118H126.997L128.597 113.136C128.805 112.496 128.933 112.032 129.045 111.616C129.141 112.08 129.269 112.56 129.461 113.136L131.061 118H132.133L134.757 110.256H133.605L132.069 114.928C131.797 115.76 131.765 115.952 131.605 116.592C131.461 116.016 131.269 115.344 131.125 114.928L129.605 110.256H128.469L126.933 114.928C126.853 115.184 126.597 115.968 126.469 116.592C126.309 115.968 126.165 115.44 125.989 114.928L124.469 110.256H123.333L125.893 118ZM143.822 118.192C145.646 118.192 146.846 117.312 147.262 115.68H146.206C145.918 116.704 145.102 117.248 143.838 117.248C142.174 117.248 141.182 116.16 141.102 114.272H147.262V113.728C147.262 111.536 145.838 110.048 143.742 110.048C141.534 110.048 140.03 111.712 140.03 114.128C140.03 116.56 141.55 118.192 143.822 118.192ZM143.742 110.992C145.198 110.992 146.158 111.984 146.158 113.472H141.134C141.326 111.952 142.286 110.992 143.742 110.992ZM148.483 114.144C148.483 116.576 149.971 118.192 152.163 118.192C153.923 118.192 155.299 117.152 155.667 115.568H154.547C154.243 116.56 153.315 117.2 152.163 117.2C150.595 117.2 149.571 115.968 149.571 114.128C149.571 112.224 150.675 111.024 152.243 111.024C153.315 111.024 154.243 111.616 154.531 112.688H155.635C155.331 111.088 154.019 110.048 152.227 110.048C149.971 110.048 148.483 111.712 148.483 114.144ZM156.796 114.128C156.796 116.48 158.46 118.192 160.732 118.192C163.004 118.192 164.668 116.48 164.668 114.128C164.668 111.76 163.004 110.048 160.732 110.048C158.46 110.048 156.796 111.76 156.796 114.128ZM157.916 114.112C157.916 112.32 159.068 111.04 160.732 111.04C162.38 111.04 163.548 112.32 163.548 114.112C163.548 115.936 162.38 117.2 160.732 117.2C159.068 117.2 157.916 115.936 157.916 114.112ZM167.537 118V113.2C167.537 112.016 168.321 111.056 169.617 111.056C170.785 111.056 171.537 111.824 171.537 113.136V118H172.625V113.216C172.625 112.016 173.393 111.04 174.689 111.04C175.873 111.04 176.609 111.824 176.609 113.152V118H177.681V112.928C177.681 111.136 176.577 110.048 174.897 110.048C173.649 110.048 172.705 110.688 172.353 111.696C171.985 110.688 171.073 110.048 169.857 110.048C168.769 110.048 167.905 110.544 167.521 111.36L167.393 110.256H166.433V118H167.537ZM181.006 118V113.2C181.006 112.016 181.79 111.056 183.086 111.056C184.254 111.056 185.006 111.824 185.006 113.136V118H186.094V113.216C186.094 112.016 186.862 111.04 188.158 111.04C189.342 111.04 190.078 111.824 190.078 113.152V118H191.15V112.928C191.15 111.136 190.046 110.048 188.366 110.048C187.118 110.048 186.174 110.688 185.822 111.696C185.454 110.688 184.542 110.048 183.326 110.048C182.238 110.048 181.374 110.544 180.99 111.36L180.862 110.256H179.902V118H181.006ZM196.619 118.192C198.443 118.192 199.643 117.312 200.059 115.68H199.003C198.715 116.704 197.899 117.248 196.635 117.248C194.971 117.248 193.979 116.16 193.899 114.272H200.059V113.728C200.059 111.536 198.635 110.048 196.539 110.048C194.331 110.048 192.827 111.712 192.827 114.128C192.827 116.56 194.347 118.192 196.619 118.192ZM196.539 110.992C197.995 110.992 198.955 111.984 198.955 113.472H193.931C194.123 111.952 195.083 110.992 196.539 110.992ZM205.872 110.16C205.6 110.096 205.392 110.08 205.152 110.08C204.064 110.08 203.248 110.624 202.944 111.456L202.864 110.256H201.824V118H202.928V113.584C202.928 112.112 203.84 111.152 205.264 111.152H205.872V110.16ZM206.499 114.144C206.499 116.576 207.987 118.192 210.179 118.192C211.939 118.192 213.315 117.152 213.683 115.568H212.563C212.259 116.56 211.331 117.2 210.179 117.2C208.611 117.2 207.587 115.968 207.587 114.128C207.587 112.224 208.691 111.024 210.259 111.024C211.331 111.024 212.259 111.616 212.547 112.688H213.651C213.347 111.088 212.035 110.048 210.243 110.048C207.987 110.048 206.499 111.712 206.499 114.144ZM218.603 118.192C220.427 118.192 221.627 117.312 222.043 115.68H220.987C220.699 116.704 219.883 117.248 218.619 117.248C216.955 117.248 215.963 116.16 215.883 114.272H222.043V113.728C222.043 111.536 220.619 110.048 218.523 110.048C216.315 110.048 214.811 111.712 214.811 114.128C214.811 116.56 216.331 118.192 218.603 118.192ZM218.523 110.992C219.979 110.992 220.939 111.984 220.939 113.472H215.915C216.107 111.952 217.067 110.992 218.523 110.992ZM229.35 118V113.2C229.35 112.016 230.134 111.056 231.43 111.056C232.598 111.056 233.35 111.824 233.35 113.136V118H234.438V113.216C234.438 112.016 235.206 111.04 236.502 111.04C237.686 111.04 238.422 111.824 238.422 113.152V118H239.494V112.928C239.494 111.136 238.39 110.048 236.71 110.048C235.462 110.048 234.518 110.688 234.166 111.696C233.798 110.688 232.886 110.048 231.67 110.048C230.582 110.048 229.718 110.544 229.334 111.36L229.206 110.256H228.246V118H229.35ZM244.963 118.192C246.787 118.192 247.987 117.312 248.403 115.68H247.347C247.059 116.704 246.243 117.248 244.979 117.248C243.315 117.248 242.323 116.16 242.243 114.272H248.403V113.728C248.403 111.536 246.979 110.048 244.883 110.048C242.674 110.048 241.171 111.712 241.171 114.128C241.171 116.56 242.691 118.192 244.963 118.192ZM244.883 110.992C246.339 110.992 247.299 111.984 247.299 113.472H242.275C242.467 111.952 243.427 110.992 244.883 110.992ZM251.866 118V111.184H253.418V110.256H251.866V107.808H250.778V110.256H249.226V111.184H250.778V118H251.866ZM258.903 110.16C258.631 110.096 258.423 110.08 258.183 110.08C257.095 110.08 256.279 110.624 255.975 111.456L255.895 110.256H254.855V118H255.959V113.584C255.959 112.112 256.871 111.152 258.295 111.152H258.903V110.16ZM260.915 108.128C261.363 108.128 261.747 107.76 261.747 107.312C261.747 106.864 261.363 106.48 260.915 106.48C260.467 106.48 260.099 106.864 260.099 107.312C260.099 107.76 260.467 108.128 260.915 108.128ZM260.371 118H261.475V110.256H260.371V118ZM263.233 114.144C263.233 116.576 264.721 118.192 266.913 118.192C268.673 118.192 270.049 117.152 270.417 115.568H269.297C268.993 116.56 268.065 117.2 266.913 117.2C265.345 117.2 264.321 115.968 264.321 114.128C264.321 112.224 265.425 111.024 266.993 111.024C268.065 111.024 268.993 111.616 269.281 112.688H270.385C270.081 111.088 268.769 110.048 266.977 110.048C264.721 110.048 263.233 111.712 263.233 114.144ZM271.434 115.824C271.434 117.264 272.522 118.192 274.266 118.192C276.026 118.192 277.21 117.28 277.21 115.888C277.21 114.768 276.602 114.144 275.258 113.808L273.93 113.472C273.082 113.264 272.666 112.848 272.666 112.256C272.666 111.424 273.274 110.96 274.362 110.96C275.402 110.96 276.026 111.488 276.058 112.384H277.13C277.082 110.944 276.026 110.048 274.394 110.048C272.73 110.048 271.594 110.912 271.594 112.272C271.594 113.328 272.25 114.032 273.594 114.368L274.922 114.704C275.834 114.928 276.154 115.296 276.154 115.936C276.154 116.768 275.45 117.28 274.25 117.28C273.162 117.28 272.49 116.72 272.49 115.824H271.434ZM285.689 118.192C287.001 118.192 288.057 117.616 288.537 116.64L288.681 118H289.609V112.992C289.609 110.944 288.297 110.048 286.505 110.048C284.601 110.048 283.321 111.056 283.321 112.624H284.329C284.329 111.584 285.129 110.976 286.473 110.976C287.609 110.976 288.521 111.456 288.521 112.976V113.232L285.961 113.44C284.153 113.584 283.065 114.48 283.065 115.904C283.065 117.264 284.041 118.192 285.689 118.192ZM285.945 117.296C284.889 117.296 284.185 116.816 284.185 115.872C284.185 115.008 284.777 114.368 286.233 114.24L288.521 114.064V114.48C288.521 116.16 287.577 117.296 285.945 117.296ZM295.872 110.16C295.6 110.096 295.392 110.08 295.152 110.08C294.064 110.08 293.248 110.624 292.944 111.456L292.864 110.256H291.824V118H292.928V113.584C292.928 112.112 293.84 111.152 295.264 111.152H295.872V110.16ZM300.291 118.192C302.115 118.192 303.315 117.312 303.731 115.68H302.675C302.387 116.704 301.571 117.248 300.307 117.248C298.643 117.248 297.651 116.16 297.571 114.272H303.731V113.728C303.731 111.536 302.307 110.048 300.211 110.048C298.003 110.048 296.499 111.712 296.499 114.128C296.499 116.56 298.019 118.192 300.291 118.192ZM300.211 110.992C301.667 110.992 302.627 111.984 302.627 113.472H297.603C297.795 111.952 298.755 110.992 300.211 110.992ZM309.389 114.144C309.389 116.576 310.877 118.192 313.069 118.192C314.829 118.192 316.205 117.152 316.573 115.568H315.453C315.149 116.56 314.221 117.2 313.069 117.2C311.501 117.2 310.477 115.968 310.477 114.128C310.477 112.224 311.581 111.024 313.149 111.024C314.221 111.024 315.149 111.616 315.437 112.688H316.541C316.237 111.088 314.925 110.048 313.133 110.048C310.877 110.048 309.389 111.712 309.389 114.144ZM317.702 114.128C317.702 116.48 319.366 118.192 321.638 118.192C323.91 118.192 325.574 116.48 325.574 114.128C325.574 111.76 323.91 110.048 321.638 110.048C319.366 110.048 317.702 111.76 317.702 114.128ZM318.822 114.112C318.822 112.32 319.974 111.04 321.638 111.04C323.286 111.04 324.454 112.32 324.454 114.112C324.454 115.936 323.286 117.2 321.638 117.2C319.974 117.2 318.822 115.936 318.822 114.112ZM328.444 118V113.2C328.444 112.016 329.228 111.056 330.524 111.056C331.692 111.056 332.444 111.824 332.444 113.136V118H333.532V113.216C333.532 112.016 334.3 111.04 335.595 111.04C336.78 111.04 337.516 111.824 337.516 113.152V118H338.588V112.928C338.588 111.136 337.484 110.048 335.804 110.048C334.556 110.048 333.612 110.688 333.26 111.696C332.892 110.688 331.98 110.048 330.764 110.048C329.676 110.048 328.812 110.544 328.428 111.36L328.299 110.256H327.34V118H328.444ZM340.808 121.376H341.912V116.512C342.456 117.632 343.496 118.192 344.808 118.192C347.096 118.192 348.392 116.432 348.392 114.096C348.392 111.76 347.048 110.048 344.808 110.048C343.512 110.048 342.424 110.624 341.88 111.824L341.768 110.256H340.808V121.376ZM341.928 114.128C341.928 112.336 342.92 111.056 344.616 111.056C346.296 111.056 347.272 112.336 347.272 114.128C347.272 115.904 346.296 117.2 344.616 117.2C342.92 117.2 341.928 115.904 341.928 114.128ZM351.304 118V106.336H350.2V118H351.304ZM356.9 118.192C358.724 118.192 359.924 117.312 360.34 115.68H359.284C358.996 116.704 358.18 117.248 356.916 117.248C355.252 117.248 354.26 116.16 354.18 114.272H360.34V113.728C360.34 111.536 358.916 110.048 356.82 110.048C354.612 110.048 353.108 111.712 353.108 114.128C353.108 116.56 354.628 118.192 356.9 118.192ZM356.82 110.992C358.276 110.992 359.236 111.984 359.236 113.472H354.212C354.404 111.952 355.364 110.992 356.82 110.992ZM362.144 118L364.304 114.896L366.48 118H367.792L365.056 114.144L367.808 110.256H366.528L364.352 113.36L362.16 110.256H360.864L363.616 114.128L360.848 118H362.144ZM368.493 121.376C368.845 121.456 369.197 121.488 369.661 121.488C370.765 121.488 371.517 120.992 371.965 119.776L375.517 110.256H374.381L371.933 117.008L369.437 110.256H368.269L371.405 118.464L371.069 119.376C370.685 120.416 370.013 120.464 369.341 120.464H368.493V121.376ZM376.534 118.176C377.078 118.176 377.542 117.728 377.542 117.2C377.542 116.656 377.078 116.192 376.534 116.192C375.99 116.192 375.526 116.656 375.526 117.2C375.526 117.728 375.99 118.176 376.534 118.176Z" fill="#0A0F0D" fill-opacity="0.8"/>
<g clip-path="url(#clip2_1_254)">
<path d="M48 117.26C46.2318 117.26 44.799 115.845 44.799 114.099V113.899C44.799 112.154 46.2318 110.738 48 110.738C49.7682 110.738 51.201 112.154 51.201 113.899V114.099C51.201 115.845 49.7682 117.26 48 117.26ZM48 106C43.5815 106 40 109.537 40 113.9V114.1C40 118.462 43.5815 122 48 122C52.4185 122 56 118.463 56 114.1V113.9C56 109.537 52.4177 106 48 106Z" fill="black"/>
</g>
<path d="M46.188 45.418H42.856V70H46.188V45.418ZM54.5725 70V61.194C54.5725 57.964 56.3065 55.822 59.2985 55.822C61.7465 55.822 63.3105 57.182 63.3105 60.548V70H66.5065V59.834C66.5065 55.584 64.5005 52.898 60.1145 52.898C57.7685 52.898 55.6605 54.02 54.6065 55.924L54.2665 53.374H51.3765V70H54.5725ZM75.6251 70V56.06H78.8891V53.374H75.6251V48.172H72.4291V53.374H69.1651V56.06H72.4291V70H75.6251ZM88.7653 70.408C92.8793 70.408 95.6673 68.402 96.4833 64.832H93.4913C92.9473 66.736 91.3153 67.756 88.8333 67.756C85.6713 67.756 83.8353 65.818 83.5973 62.316L96.4493 62.282V61.092C96.4493 56.162 93.3553 52.898 88.6293 52.898C83.8013 52.898 80.5033 56.502 80.5033 61.704C80.5033 66.872 83.8693 70.408 88.7653 70.408ZM88.6293 55.584C91.4513 55.584 93.2533 57.42 93.2533 60.174H83.6653C84.0733 57.25 85.8413 55.584 88.6293 55.584ZM109.539 53.238C108.893 53.102 108.417 53.034 107.839 53.034C105.561 53.034 103.895 54.19 103.215 55.924L103.011 53.408H100.019V70H103.215V61.194C103.215 57.998 105.085 56.162 108.111 56.162H109.539V53.238ZM116.735 70.408C119.421 70.408 121.699 69.218 122.549 67.314L122.889 70H125.609V59.562C125.609 55.074 122.821 52.898 118.707 52.898C114.423 52.898 111.567 55.176 111.567 58.644H114.355C114.355 56.638 115.885 55.448 118.571 55.448C120.815 55.448 122.481 56.434 122.481 59.222V59.698L117.245 60.106C113.335 60.412 111.057 62.316 111.057 65.376C111.057 68.402 113.165 70.408 116.735 70.408ZM117.653 67.926C115.579 67.926 114.287 67.042 114.287 65.274C114.287 63.642 115.443 62.554 118.265 62.282L122.515 61.942V62.826C122.515 65.954 120.679 67.926 117.653 67.926ZM128.947 61.704C128.947 66.94 132.177 70.408 137.073 70.408C141.085 70.408 144.179 67.994 144.825 64.39H141.629C141.051 66.362 139.351 67.552 137.073 67.552C134.047 67.552 132.109 65.24 132.109 61.67C132.109 58.066 134.183 55.754 137.209 55.754C139.351 55.754 141.051 56.876 141.595 58.984H144.791C144.213 55.278 141.289 52.898 137.107 52.898C132.245 52.898 128.947 56.502 128.947 61.704ZM152.889 70V56.06H156.153V53.374H152.889V48.172H149.693V53.374H146.429V56.06H149.693V70H152.889ZM160.585 49.43C161.741 49.43 162.693 48.478 162.693 47.322C162.693 46.132 161.741 45.214 160.585 45.214C159.429 45.214 158.477 46.132 158.477 47.322C158.477 48.478 159.429 49.43 160.585 49.43ZM159.021 70H162.217V53.374H159.021V70ZM171.515 70H174.677L181.613 53.374H178.281L174.575 62.656C173.997 64.118 173.453 65.546 173.181 66.634C172.909 65.614 172.433 64.22 171.855 62.656L168.217 53.374H164.817L171.515 70ZM190.566 70.408C194.68 70.408 197.468 68.402 198.284 64.832H195.292C194.748 66.736 193.116 67.756 190.634 67.756C187.472 67.756 185.636 65.818 185.398 62.316L198.25 62.282V61.092C198.25 56.162 195.156 52.898 190.43 52.898C185.602 52.898 182.304 56.502 182.304 61.704C182.304 66.872 185.67 70.408 190.566 70.408ZM190.43 55.584C193.252 55.584 195.054 57.42 195.054 60.174H185.466C185.874 57.25 187.642 55.584 190.43 55.584Z" fill="#0A0F0D"/>
<defs>
<linearGradient id="paint0_linear_1_254" x1="299" y1="408" x2="299" y2="576.5" gradientUnits="userSpaceOnUse">
<stop stop-opacity="0.04"/>
<stop offset="1" stop-opacity="0"/>
</linearGradient>
<clipPath id="clip0_1_254">
<rect width="16" height="16" fill="white" transform="translate(40 182)"/>
</clipPath>
<clipPath id="clip1_1_254">
<rect width="16" height="16" fill="white" transform="translate(40 144)"/>
</clipPath>
<clipPath id="clip2_1_254">
<rect width="16" height="16" fill="white" transform="translate(40 106)"/>
</clipPath>
</defs>
</svg>
