<svg width="36" height="36" viewBox="0 0 36 36" fill="none" xmlns="http://www.w3.org/2000/svg">
<g clip-path="url(#clip0_1_1549)">
<path d="M32.0625 4.72476C31.6757 4.47452 31.2333 4.32313 30.7743 4.2839C30.3153 4.24467 29.8537 4.31879 29.43 4.49976L15.5475 9.96726C15.2188 10.101 14.8673 10.1698 14.5125 10.1698H5.625C4.87908 10.1698 4.16371 10.4661 3.63626 10.9935C3.10882 11.521 2.8125 12.2363 2.8125 12.9823V13.2073H0V19.9573H2.8125V20.2498C2.83012 20.9839 3.1342 21.6821 3.65975 22.195C4.1853 22.7079 4.89063 22.995 5.625 22.9948L9 30.1498C9.22853 30.6316 9.58833 31.0392 10.0381 31.3257C10.4878 31.6123 11.0092 31.7662 11.5425 31.7698H12.96C13.702 31.7638 14.4116 31.4649 14.9342 30.9381C15.4568 30.4113 15.75 29.6993 15.75 28.9573V23.2648L29.43 28.7323C29.7665 28.8662 30.1254 28.9349 30.4875 28.9348C31.0493 28.9257 31.5965 28.7537 32.0625 28.4398C32.4326 28.1899 32.7378 27.8555 32.953 27.4642C33.1682 27.073 33.2872 26.6361 33.3 26.1898V7.04226C33.2979 6.58442 33.1841 6.13401 32.9685 5.73014C32.7528 5.32627 32.4418 4.98115 32.0625 4.72476ZM12.9375 12.9823V20.2498H5.625V12.9823H12.9375ZM12.9375 28.9573H11.52L8.7525 22.9948H12.9375V28.9573ZM16.5825 20.5873C16.3154 20.4507 16.0368 20.3378 15.75 20.2498V12.8248C16.034 12.7662 16.3126 12.6834 16.5825 12.5773L30.4875 7.04226V26.1223L16.5825 20.5873ZM33.3675 13.7698V19.3948C34.1134 19.3948 34.8288 19.0984 35.3562 18.571C35.8837 18.0436 36.18 17.3282 36.18 16.5823C36.18 15.8363 35.8837 15.121 35.3562 14.5935C34.8288 14.0661 34.1134 13.7698 33.3675 13.7698Z" fill="black"/>
</g>
<defs>
<clipPath id="clip0_1_1549">
<rect width="36" height="36" fill="white" transform="translate(0 -0.000244141)"/>
</clipPath>
</defs>
</svg>
