<svg width="370" height="537" viewBox="0 0 370 537" fill="none" xmlns="http://www.w3.org/2000/svg">
<rect x="0.5" y="0.5" width="369" height="536" rx="13.5" fill="#C5B6F0" stroke="#0A0F0D"/>
<rect x="51.5" y="337.5" width="217" height="43" rx="9.5" fill="white" stroke="#191919"/>
<path opacity="0.7" d="M106.568 359.294C106.568 356.434 104.709 354.432 102.044 354.432C99.392 354.432 97.533 356.447 97.533 359.294C97.533 362.154 99.379 364.156 102.031 364.156C104.696 364.156 106.568 362.154 106.568 359.294ZM105.229 359.294C105.229 361.465 103.955 362.934 102.044 362.934C100.133 362.934 98.872 361.478 98.872 359.294C98.872 357.11 100.133 355.667 102.044 355.667C103.955 355.667 105.229 357.11 105.229 359.294ZM109.64 364H110.849L113.501 357.643H112.227L110.81 361.192C110.589 361.751 110.381 362.297 110.277 362.713C110.173 362.323 109.991 361.79 109.77 361.192L108.379 357.643H107.079L109.64 364ZM116.795 364.156C118.368 364.156 119.434 363.389 119.746 362.024H118.602C118.394 362.752 117.77 363.142 116.821 363.142C115.612 363.142 114.91 362.401 114.819 361.062L119.733 361.049V360.594C119.733 358.709 118.55 357.461 116.743 357.461C114.897 357.461 113.636 358.839 113.636 360.828C113.636 362.804 114.923 364.156 116.795 364.156ZM116.743 358.488C117.822 358.488 118.511 359.19 118.511 360.243H114.845C115.001 359.125 115.677 358.488 116.743 358.488ZM124.608 357.591C124.361 357.539 124.179 357.513 123.958 357.513C123.087 357.513 122.45 357.955 122.19 358.618L122.112 357.656H120.968V364H122.19V360.633C122.19 359.411 122.905 358.709 124.062 358.709H124.608V357.591ZM127.595 364H128.804L131.456 357.643H130.182L128.765 361.192C128.544 361.751 128.336 362.297 128.232 362.713C128.128 362.323 127.946 361.79 127.725 361.192L126.334 357.643H125.034L127.595 364ZM132.896 356.135C133.338 356.135 133.702 355.771 133.702 355.329C133.702 354.874 133.338 354.523 132.896 354.523C132.454 354.523 132.09 354.874 132.09 355.329C132.09 355.771 132.454 356.135 132.896 356.135ZM132.298 364H133.52V357.643H132.298V364ZM137.908 364.156C139.481 364.156 140.547 363.389 140.859 362.024H139.715C139.507 362.752 138.883 363.142 137.934 363.142C136.725 363.142 136.023 362.401 135.932 361.062L140.846 361.049V360.594C140.846 358.709 139.663 357.461 137.856 357.461C136.01 357.461 134.749 358.839 134.749 360.828C134.749 362.804 136.036 364.156 137.908 364.156ZM137.856 358.488C138.935 358.488 139.624 359.19 139.624 360.243H135.958C136.114 359.125 136.79 358.488 137.856 358.488ZM143.23 364H144.439L145.544 360.607C145.778 359.84 145.895 359.424 145.96 359.112C146.025 359.463 146.155 359.957 146.363 360.594L147.468 364H148.625L150.796 357.643H149.522L148.456 360.945C148.274 361.504 148.157 361.946 148.053 362.453C147.949 361.998 147.741 361.257 147.637 360.945L146.584 357.643H145.336L144.27 360.945C144.127 361.361 143.958 361.894 143.854 362.453C143.737 361.894 143.607 361.413 143.464 360.945L142.411 357.643H141.15L143.23 364Z" fill="#0A0F0D"/>
<g opacity="0.7">
<path d="M73.25 362.375L80 366.312L86.75 362.375" stroke="#0A0F0D" stroke-width="1.5" stroke-linecap="round" stroke-linejoin="round"/>
<path d="M73.25 359L80 362.938L86.75 359" stroke="#0A0F0D" stroke-width="1.5" stroke-linecap="round" stroke-linejoin="round"/>
<path d="M73.25 355.625L80 359.562L86.75 355.625L80 351.688L73.25 355.625Z" stroke="#0A0F0D" stroke-width="1.5" stroke-linecap="round" stroke-linejoin="round"/>
</g>
<rect x="31.5" y="285.5" width="217" height="43" rx="9.5" stroke="#191919" stroke-linejoin="round" stroke-dasharray="3 3"/>
<path opacity="0.8" d="M78.482 312L79.314 309.66H83.266L84.111 312H85.45L82.005 302.601H80.588L77.156 312H78.482ZM81.134 304.629C81.199 304.434 81.264 304.213 81.29 304.083C81.316 304.226 81.381 304.447 81.446 304.629L82.889 308.555H79.704L81.134 304.629ZM88.6682 312.156C89.6822 312.156 90.5402 311.714 90.9562 310.843L91.0602 312H92.1522V302.432H90.9432V306.67C90.5142 305.89 89.6952 305.461 88.7202 305.461C86.8352 305.461 85.7042 306.891 85.7042 308.841C85.7042 310.778 86.8222 312.156 88.6682 312.156ZM88.9152 311.051C87.6672 311.051 86.9392 310.115 86.9392 308.802C86.9392 307.502 87.6672 306.566 88.9152 306.566C90.1632 306.566 90.9302 307.502 90.9302 308.802C90.9302 310.128 90.1632 311.051 88.9152 311.051ZM96.3331 312.156C97.3471 312.156 98.2051 311.714 98.6211 310.843L98.7251 312H99.8171V302.432H98.6081V306.67C98.1791 305.89 97.3601 305.461 96.3851 305.461C94.5001 305.461 93.3691 306.891 93.3691 308.841C93.3691 310.778 94.4871 312.156 96.3331 312.156ZM96.5801 311.051C95.3321 311.051 94.6041 310.115 94.6041 308.802C94.6041 307.502 95.3321 306.566 96.5801 306.566C97.8281 306.566 98.5951 307.502 98.5951 308.802C98.5951 310.128 97.8281 311.051 96.5801 311.051ZM106.734 312.156C107.761 312.156 108.632 311.701 108.957 310.973L109.087 312H110.127V308.009C110.127 306.293 109.061 305.461 107.488 305.461C105.85 305.461 104.758 306.332 104.758 307.658H105.824C105.824 306.891 106.409 306.436 107.436 306.436C108.294 306.436 108.931 306.813 108.931 307.879V308.061L106.929 308.217C105.434 308.334 104.563 309.062 104.563 310.232C104.563 311.389 105.369 312.156 106.734 312.156ZM107.085 311.207C106.292 311.207 105.798 310.869 105.798 310.193C105.798 309.569 106.24 309.153 107.319 309.049L108.944 308.919V309.257C108.944 310.453 108.242 311.207 107.085 311.207ZM116.336 312V308.633C116.336 307.398 116.999 306.579 118.143 306.579C119.079 306.579 119.677 307.099 119.677 308.386V312H120.899V308.113C120.899 306.488 120.132 305.461 118.455 305.461C117.558 305.461 116.752 305.89 116.349 306.618L116.219 305.643H115.114V312H116.336ZM125.204 312.156C126.777 312.156 127.843 311.389 128.155 310.024H127.011C126.803 310.752 126.179 311.142 125.23 311.142C124.021 311.142 123.319 310.401 123.228 309.062L128.142 309.049V308.594C128.142 306.709 126.959 305.461 125.152 305.461C123.306 305.461 122.045 306.839 122.045 308.828C122.045 310.804 123.332 312.156 125.204 312.156ZM125.152 306.488C126.231 306.488 126.92 307.19 126.92 308.243H123.254C123.41 307.125 124.086 306.488 125.152 306.488ZM130.526 312H131.735L132.84 308.607C133.074 307.84 133.191 307.424 133.256 307.112C133.321 307.463 133.451 307.957 133.659 308.594L134.764 312H135.921L138.092 305.643H136.818L135.752 308.945C135.57 309.504 135.453 309.946 135.349 310.453C135.245 309.998 135.037 309.257 134.933 308.945L133.88 305.643H132.632L131.566 308.945C131.423 309.361 131.254 309.894 131.15 310.453C131.033 309.894 130.903 309.413 130.76 308.945L129.707 305.643H128.446L130.526 312Z" fill="#191919"/>
<g opacity="0.8">
<path d="M60 313.75C63.7279 313.75 66.75 310.728 66.75 307C66.75 303.272 63.7279 300.25 60 300.25C56.2721 300.25 53.25 303.272 53.25 307C53.25 310.728 56.2721 313.75 60 313.75Z" stroke="#191919" stroke-width="1.5" stroke-miterlimit="10"/>
<path d="M57.1875 307H62.8125" stroke="#191919" stroke-width="1.5" stroke-linecap="round" stroke-linejoin="round"/>
<path d="M60 304.188V309.812" stroke="#191919" stroke-width="1.5" stroke-linecap="round" stroke-linejoin="round"/>
</g>
<rect x="71.5" y="389.5" width="217" height="43" rx="9.5" fill="white" stroke="#191919"/>
<path opacity="0.7" d="M119.366 416V412.282H121.771L123.526 416H124.943L123.032 412.035C124.202 411.658 124.852 410.722 124.852 409.422C124.852 407.667 123.656 406.601 121.641 406.601H118.092V416H119.366ZM119.366 407.745H121.641C122.811 407.745 123.513 408.343 123.513 409.435C123.513 410.514 122.837 411.151 121.654 411.151H119.366V407.745ZM128.546 416.156C130.119 416.156 131.185 415.389 131.497 414.024H130.353C130.145 414.752 129.521 415.142 128.572 415.142C127.363 415.142 126.661 414.401 126.57 413.062L131.484 413.049V412.594C131.484 410.709 130.301 409.461 128.494 409.461C126.648 409.461 125.387 410.839 125.387 412.828C125.387 414.804 126.674 416.156 128.546 416.156ZM128.494 410.488C129.573 410.488 130.262 411.19 130.262 412.243H126.596C126.752 411.125 127.428 410.488 128.494 410.488ZM132.719 418.847H133.941V414.96C134.357 415.74 135.202 416.169 136.216 416.169C138.101 416.169 139.167 414.713 139.167 412.776C139.167 410.826 138.036 409.461 136.216 409.461C135.202 409.461 134.344 409.916 133.915 410.787L133.824 409.643H132.719V418.847ZM133.954 412.828C133.954 411.502 134.708 410.579 135.956 410.579C137.204 410.579 137.945 411.515 137.945 412.828C137.945 414.128 137.204 415.064 135.956 415.064C134.708 415.064 133.954 414.128 133.954 412.828ZM139.968 412.815C139.968 414.778 141.372 416.156 143.283 416.156C145.181 416.156 146.585 414.778 146.585 412.815C146.585 410.852 145.181 409.474 143.283 409.474C141.372 409.474 139.968 410.852 139.968 412.815ZM141.203 412.815C141.203 411.489 142.048 410.566 143.283 410.566C144.505 410.566 145.363 411.489 145.363 412.815C145.363 414.141 144.505 415.064 143.283 415.064C142.048 415.064 141.203 414.141 141.203 412.815ZM151.447 409.591C151.2 409.539 151.018 409.513 150.797 409.513C149.926 409.513 149.289 409.955 149.029 410.618L148.951 409.656H147.807V416H149.029V412.633C149.029 411.411 149.744 410.709 150.901 410.709H151.447V409.591ZM154.511 416V410.67H155.759V409.643H154.511V407.654H153.289V409.643H152.041V410.67H153.289V416H154.511ZM156.206 414.154C156.206 415.363 157.155 416.156 158.65 416.156C160.158 416.156 161.198 415.389 161.198 414.18C161.198 413.231 160.665 412.737 159.586 412.477L158.468 412.204C157.844 412.048 157.532 411.762 157.532 411.333C157.532 410.748 157.961 410.41 158.728 410.41C159.469 410.41 159.898 410.813 159.924 411.45H161.094C161.068 410.241 160.158 409.461 158.767 409.461C157.363 409.461 156.375 410.202 156.375 411.372C156.375 412.308 156.908 412.867 158.039 413.14L159.157 413.4C159.82 413.569 160.028 413.829 160.028 414.258C160.028 414.843 159.534 415.194 158.676 415.194C157.87 415.194 157.376 414.804 157.376 414.154H156.206Z" fill="#0A0F0D"/>
<g opacity="0.7">
<path d="M101 409H97.4C97.2939 409 97.1922 409.042 97.1172 409.117C97.0421 409.192 97 409.294 97 409.4V413.667M97 417H101H97ZM97 417V413.667V417ZM97 417H93.4C93.2939 417 93.1922 416.958 93.1172 416.883C93.0421 416.808 93 416.706 93 416.6V414.067C93 413.961 93.0421 413.859 93.1172 413.784C93.1922 413.709 93.2939 413.667 93.4 413.667H97V417ZM101 417V409V417ZM101 417H104.6C104.706 417 104.808 416.958 104.883 416.883C104.958 416.808 105 416.706 105 416.6V405.4C105 405.294 104.958 405.192 104.883 405.117C104.808 405.042 104.706 405 104.6 405H101.4C101.294 405 101.192 405.042 101.117 405.117C101.042 405.192 101 405.294 101 405.4V409V417Z" stroke="#0A0F0D" stroke-width="1.5"/>
</g>
<rect x="91.5" y="441.5" width="217" height="43" rx="9.5" fill="white" stroke="#191919"/>
<path opacity="0.7" d="M141.992 468.143C144.111 468.143 145.788 466.895 146.191 465.023H144.839C144.488 466.18 143.396 466.921 142.018 466.921C140.12 466.921 138.872 465.491 138.872 463.294C138.872 461.097 140.12 459.667 142.018 459.667C143.383 459.667 144.436 460.408 144.787 461.63H146.152C145.801 459.706 144.176 458.445 142.057 458.445C139.366 458.445 137.533 460.408 137.533 463.307C137.533 466.219 139.314 468.143 141.992 468.143ZM146.999 464.815C146.999 466.778 148.403 468.156 150.314 468.156C152.212 468.156 153.616 466.778 153.616 464.815C153.616 462.852 152.212 461.474 150.314 461.474C148.403 461.474 146.999 462.852 146.999 464.815ZM148.234 464.815C148.234 463.489 149.079 462.566 150.314 462.566C151.536 462.566 152.394 463.489 152.394 464.815C152.394 466.141 151.536 467.064 150.314 467.064C149.079 467.064 148.234 466.141 148.234 464.815ZM156.061 467.987V464.529C156.061 463.437 156.698 462.579 157.881 462.579C158.791 462.579 159.402 463.099 159.402 464.386V468H160.624V464.113C160.624 462.488 159.844 461.461 158.219 461.461C157.231 461.461 156.464 461.929 156.061 462.618V458.432H154.839V467.987H156.061ZM161.77 464.815C161.77 466.778 163.174 468.156 165.085 468.156C166.983 468.156 168.387 466.778 168.387 464.815C168.387 462.852 166.983 461.474 165.085 461.474C163.174 461.474 161.77 462.852 161.77 464.815ZM163.005 464.815C163.005 463.489 163.85 462.566 165.085 462.566C166.307 462.566 167.165 463.489 167.165 464.815C167.165 466.141 166.307 467.064 165.085 467.064C163.85 467.064 163.005 466.141 163.005 464.815ZM173.25 461.591C173.003 461.539 172.821 461.513 172.6 461.513C171.729 461.513 171.092 461.955 170.832 462.618L170.754 461.656H169.61V468H170.832V464.633C170.832 463.411 171.547 462.709 172.704 462.709H173.25V461.591ZM176.314 468V462.67H177.562V461.643H176.314V459.654H175.092V461.643H173.844V462.67H175.092V468H176.314ZM178.009 466.154C178.009 467.363 178.958 468.156 180.453 468.156C181.961 468.156 183.001 467.389 183.001 466.18C183.001 465.231 182.468 464.737 181.389 464.477L180.271 464.204C179.647 464.048 179.335 463.762 179.335 463.333C179.335 462.748 179.764 462.41 180.531 462.41C181.272 462.41 181.701 462.813 181.727 463.45H182.897C182.871 462.241 181.961 461.461 180.57 461.461C179.166 461.461 178.178 462.202 178.178 463.372C178.178 464.308 178.711 464.867 179.842 465.14L180.96 465.4C181.623 465.569 181.831 465.829 181.831 466.258C181.831 466.843 181.337 467.194 180.479 467.194C179.673 467.194 179.179 466.804 179.179 466.154H178.009Z" fill="#0A0F0D"/>
<g opacity="0.7">
<path d="M117.188 465.25C119.207 465.25 120.844 463.613 120.844 461.594C120.844 459.574 119.207 457.938 117.188 457.938C115.168 457.938 113.531 459.574 113.531 461.594C113.531 463.613 115.168 465.25 117.188 465.25Z" stroke="#0A0F0D" stroke-width="1.5" stroke-miterlimit="10"/>
<path d="M121.928 458.071C122.251 457.983 122.584 457.939 122.919 457.938C123.889 457.938 124.819 458.323 125.504 459.008C126.19 459.694 126.575 460.624 126.575 461.594C126.575 462.563 126.19 463.493 125.504 464.179C124.819 464.865 123.889 465.25 122.919 465.25" stroke="#0A0F0D" stroke-width="1.5" stroke-linecap="round" stroke-linejoin="round"/>
<path d="M112.125 467.88C112.696 467.067 113.454 466.404 114.335 465.946C115.216 465.489 116.195 465.25 117.188 465.25C118.18 465.25 119.159 465.489 120.04 465.946C120.921 466.404 121.679 467.067 122.25 467.88" stroke="#0A0F0D" stroke-width="1.5" stroke-linecap="round" stroke-linejoin="round"/>
<path d="M122.918 465.25C123.911 465.249 124.89 465.488 125.771 465.946C126.652 466.404 127.41 467.067 127.98 467.88" stroke="#0A0F0D" stroke-width="1.5" stroke-linecap="round" stroke-linejoin="round"/>
</g>
<rect x="111.5" y="493.5" width="217" height="43" rx="9.5" fill="white" stroke="#191919"/>
<path opacity="0.7" d="M159.34 520V515.983C159.34 514.67 159.314 513.708 159.249 513.253L161.979 520H163.175L165.918 513.227C165.853 513.89 165.84 514.527 165.84 516.282V520H167.088V510.601H165.814L162.577 518.505L159.34 510.601H158.092V520H159.34ZM170.798 520.156C171.825 520.156 172.696 519.701 173.021 518.973L173.151 520H174.191V516.009C174.191 514.293 173.125 513.461 171.552 513.461C169.914 513.461 168.822 514.332 168.822 515.658H169.888C169.888 514.891 170.473 514.436 171.5 514.436C172.358 514.436 172.995 514.813 172.995 515.879V516.061L170.993 516.217C169.498 516.334 168.627 517.062 168.627 518.232C168.627 519.389 169.433 520.156 170.798 520.156ZM171.149 519.207C170.356 519.207 169.862 518.869 169.862 518.193C169.862 517.569 170.304 517.153 171.383 517.049L173.008 516.919V517.257C173.008 518.453 172.306 519.207 171.149 519.207ZM179.393 513.591C179.146 513.539 178.964 513.513 178.743 513.513C177.872 513.513 177.235 513.955 176.975 514.618L176.897 513.656H175.753V520H176.975V516.633C176.975 515.411 177.69 514.709 178.847 514.709H179.393V513.591ZM181.657 520V518.193L182.736 517.062L184.595 520H185.999L183.581 516.178L186.012 513.643H184.478L181.657 516.633V510.432H180.435V520H181.657ZM189.382 520.156C190.955 520.156 192.021 519.389 192.333 518.024H191.189C190.981 518.752 190.357 519.142 189.408 519.142C188.199 519.142 187.497 518.401 187.406 517.062L192.32 517.049V516.594C192.32 514.709 191.137 513.461 189.33 513.461C187.484 513.461 186.223 514.839 186.223 516.828C186.223 518.804 187.51 520.156 189.382 520.156ZM189.33 514.488C190.409 514.488 191.098 515.19 191.098 516.243H187.432C187.588 515.125 188.264 514.488 189.33 514.488ZM195.286 520V514.67H196.534V513.643H195.286V511.654H194.064V513.643H192.816V514.67H194.064V520H195.286ZM198.098 512.135C198.54 512.135 198.904 511.771 198.904 511.329C198.904 510.874 198.54 510.523 198.098 510.523C197.656 510.523 197.292 510.874 197.292 511.329C197.292 511.771 197.656 512.135 198.098 512.135ZM197.5 520H198.722V513.643H197.5V520ZM201.589 520V516.633C201.589 515.398 202.252 514.579 203.396 514.579C204.332 514.579 204.93 515.099 204.93 516.386V520H206.152V516.113C206.152 514.488 205.385 513.461 203.708 513.461C202.811 513.461 202.005 513.89 201.602 514.618L201.472 513.643H200.367V520H201.589ZM207.311 516.659C207.311 518.44 208.455 519.831 210.262 519.831C211.263 519.831 212.095 519.389 212.511 518.648V519.922C212.511 521.131 211.731 521.911 210.535 521.911C209.469 521.911 208.767 521.365 208.611 520.429H207.389C207.623 522.041 208.806 523.016 210.535 523.016C212.485 523.016 213.72 521.742 213.72 519.74V513.643H212.628L212.537 514.722C212.134 513.929 211.341 513.461 210.314 513.461C208.468 513.461 207.311 514.865 207.311 516.659ZM208.533 516.633C208.533 515.463 209.261 514.527 210.483 514.527C211.731 514.527 212.459 515.411 212.459 516.633C212.459 517.881 211.705 518.765 210.47 518.765C209.274 518.765 208.533 517.829 208.533 516.633Z" fill="#0A0F0D"/>
<g opacity="0.7" clip-path="url(#clip0_1_530)">
<path d="M147.031 508.363C146.838 508.237 146.617 508.162 146.387 508.142C146.158 508.122 145.927 508.16 145.715 508.25L138.774 510.984C138.609 511.051 138.434 511.085 138.256 511.085H133.812C133.44 511.085 133.082 511.233 132.818 511.497C132.554 511.761 132.406 512.118 132.406 512.491V512.604H131V515.979H132.406V516.125C132.415 516.492 132.567 516.841 132.83 517.098C133.093 517.354 133.445 517.498 133.812 517.498L135.5 521.075C135.614 521.316 135.794 521.52 136.019 521.663C136.244 521.806 136.505 521.883 136.771 521.885H137.48C137.851 521.882 138.206 521.733 138.467 521.469C138.728 521.206 138.875 520.85 138.875 520.479V517.633L145.715 520.366C145.883 520.433 146.063 520.468 146.244 520.468C146.525 520.463 146.798 520.377 147.031 520.22C147.216 520.095 147.369 519.928 147.477 519.732C147.584 519.537 147.644 519.318 147.65 519.095V509.521C147.649 509.292 147.592 509.067 147.484 508.865C147.376 508.663 147.221 508.491 147.031 508.363ZM137.469 512.491V516.125H133.812V512.491H137.469ZM137.469 520.479H136.76L135.376 517.498H137.469V520.479ZM139.291 516.294C139.158 516.225 139.018 516.169 138.875 516.125V512.413C139.017 512.383 139.156 512.342 139.291 512.289L146.244 509.521V519.061L139.291 516.294ZM147.684 512.885V515.698C148.057 515.698 148.414 515.549 148.678 515.286C148.942 515.022 149.09 514.664 149.09 514.291C149.09 513.918 148.942 513.561 148.678 513.297C148.414 513.033 148.057 512.885 147.684 512.885Z" fill="#0A0F0D"/>
</g>
<path d="M246.333 306C246.333 307.473 247.527 308.667 249 308.667C250.473 308.667 251.667 307.473 251.667 306C251.667 304.527 250.473 303.333 249 303.333C247.527 303.333 246.333 304.527 246.333 306ZM273 357.5L268 355.113V360.887L273 358.5V357.5ZM249 306.5H250.95V305.5H249V306.5ZM254.85 306.5H258.75V305.5H254.85V306.5ZM262.65 306.5H266.55V305.5H262.65V306.5ZM270.45 306.5H274.35V305.5H270.45V306.5ZM278.25 306.5H282.15V305.5H278.25V306.5ZM286.05 306.5H288V305.5H286.05V306.5ZM288 306.5C288.598 306.5 289.187 306.539 289.764 306.614L289.893 305.623C289.273 305.542 288.641 305.5 288 305.5V306.5ZM293.168 307.524C294.265 307.979 295.289 308.575 296.218 309.289L296.828 308.496C295.83 307.729 294.73 307.089 293.551 306.6L293.168 307.524ZM298.711 311.782C299.425 312.711 300.021 313.735 300.476 314.832L301.4 314.449C300.911 313.27 300.271 312.17 299.504 311.172L298.711 311.782ZM301.386 318.236C301.461 318.813 301.5 319.402 301.5 320H302.5C302.5 319.359 302.458 318.727 302.377 318.107L301.386 318.236ZM301.5 320V322H302.5V320H301.5ZM301.5 326V330H302.5V326H301.5ZM301.5 334V338H302.5V334H301.5ZM301.5 342V344H302.5V342H301.5ZM301.5 344C301.5 344.598 301.461 345.187 301.386 345.764L302.377 345.893C302.458 345.273 302.5 344.641 302.5 344H301.5ZM300.476 349.168C300.021 350.265 299.425 351.289 298.711 352.218L299.504 352.828C300.271 351.83 300.911 350.73 301.4 349.551L300.476 349.168ZM296.218 354.711C295.289 355.425 294.265 356.021 293.168 356.476L293.551 357.4C294.73 356.911 295.83 356.271 296.828 355.504L296.218 354.711ZM289.764 357.386C289.187 357.461 288.598 357.5 288 357.5V358.5C288.641 358.5 289.273 358.458 289.893 358.377L289.764 357.386ZM288 357.5H286.333V358.5H288V357.5ZM283 357.5H279.667V358.5H283V357.5ZM276.333 357.5H273V358.5H276.333V357.5Z" fill="black"/>
<path d="M286.333 412C286.333 413.473 287.527 414.667 289 414.667C290.473 414.667 291.667 413.473 291.667 412C291.667 410.527 290.473 409.333 289 409.333C287.527 409.333 286.333 410.527 286.333 412ZM313 463.5L308 461.113V466.887L313 464.5V463.5ZM289 412.5H290.95V411.5H289V412.5ZM294.85 412.5H298.75V411.5H294.85V412.5ZM302.65 412.5H306.55V411.5H302.65V412.5ZM310.45 412.5H314.35V411.5H310.45V412.5ZM318.25 412.5H322.15V411.5H318.25V412.5ZM326.05 412.5H328V411.5H326.05V412.5ZM328 412.5C328.598 412.5 329.187 412.539 329.764 412.614L329.893 411.623C329.273 411.542 328.641 411.5 328 411.5V412.5ZM333.168 413.524C334.265 413.979 335.289 414.575 336.218 415.289L336.828 414.496C335.83 413.729 334.73 413.089 333.551 412.6L333.168 413.524ZM338.711 417.782C339.425 418.711 340.021 419.735 340.476 420.832L341.4 420.449C340.911 419.27 340.271 418.17 339.504 417.172L338.711 417.782ZM341.386 424.236C341.461 424.813 341.5 425.402 341.5 426H342.5C342.5 425.359 342.458 424.727 342.377 424.107L341.386 424.236ZM341.5 426V428H342.5V426H341.5ZM341.5 432V436H342.5V432H341.5ZM341.5 440V444H342.5V440H341.5ZM341.5 448V450H342.5V448H341.5ZM341.5 450C341.5 450.598 341.461 451.187 341.386 451.764L342.377 451.893C342.458 451.273 342.5 450.641 342.5 450H341.5ZM340.476 455.168C340.021 456.265 339.425 457.289 338.711 458.218L339.504 458.828C340.271 457.83 340.911 456.73 341.4 455.551L340.476 455.168ZM336.218 460.711C335.289 461.425 334.265 462.021 333.168 462.476L333.551 463.4C334.73 462.911 335.83 462.271 336.828 461.504L336.218 460.711ZM329.764 463.386C329.187 463.461 328.598 463.5 328 463.5V464.5C328.641 464.5 329.273 464.458 329.893 464.377L329.764 463.386ZM328 463.5H326.333V464.5H328V463.5ZM323 463.5H319.667V464.5H323V463.5ZM316.333 463.5H313V464.5H316.333V463.5Z" fill="black"/>
<path d="M54.1667 358C54.1667 359.473 52.9728 360.667 51.5 360.667C50.0272 360.667 48.8333 359.473 48.8333 358C48.8333 356.527 50.0272 355.333 51.5 355.333C52.9728 355.333 54.1667 356.527 54.1667 358ZM67 409.5L72 407.113V412.887L67 410.5V409.5ZM66.375 410.5H62.625V409.5H66.375V410.5ZM58.875 410.5H55.125V409.5H58.875V410.5ZM51.375 410.5H47.625V409.5H51.375V410.5ZM43.875 410.5H42V409.5H43.875V410.5ZM42 410.5C41.3586 410.5 40.7266 410.458 40.1068 410.377L40.2361 409.386C40.8132 409.461 41.4019 409.5 42 409.5V410.5ZM36.4494 409.4C35.2704 408.911 34.17 408.271 33.1724 407.504L33.7817 406.711C34.7108 407.425 35.7353 408.021 36.8325 408.476L36.4494 409.4ZM30.4959 404.828C29.7293 403.83 29.0894 402.73 28.6005 401.551L29.5242 401.167C29.9792 402.265 30.5749 403.289 31.2889 404.218L30.4959 404.828ZM27.6225 397.893C27.5417 397.273 27.5 396.641 27.5 396H28.5C28.5 396.598 28.5389 397.187 28.6141 397.764L27.6225 397.893ZM27.5 396V394H28.5V396H27.5ZM27.5 390V386H28.5V390H27.5ZM27.5 382V378H28.5V382H27.5ZM27.5 374V372H28.5V374H27.5ZM27.5 372C27.5 371.359 27.5417 370.727 27.6225 370.107L28.6141 370.236C28.5389 370.813 28.5 371.402 28.5 372H27.5ZM28.6005 366.449C29.0894 365.27 29.7293 364.17 30.4959 363.172L31.2889 363.782C30.5749 364.711 29.9792 365.735 29.5242 366.832L28.6005 366.449ZM33.1724 360.496C34.17 359.729 35.2704 359.089 36.4494 358.6L36.8325 359.524C35.7353 359.979 34.7108 360.575 33.7817 361.289L33.1724 360.496ZM40.1068 357.623C40.7266 357.542 41.3586 357.5 42 357.5V358.5C41.4019 358.5 40.8132 358.539 40.2361 358.614L40.1068 357.623ZM42 357.5H44.375V358.5H42V357.5ZM49.125 357.5H51.5V358.5H49.125V357.5Z" fill="black"/>
<path d="M94.1667 463C94.1667 464.473 92.9728 465.667 91.5 465.667C90.0272 465.667 88.8333 464.473 88.8333 463C88.8333 461.527 90.0272 460.333 91.5 460.333C92.9728 460.333 94.1667 461.527 94.1667 463ZM107 514.5L112 512.113V517.887L107 515.5V514.5ZM106.375 515.5H102.625V514.5H106.375V515.5ZM98.875 515.5H95.125V514.5H98.875V515.5ZM91.375 515.5H87.625V514.5H91.375V515.5ZM83.875 515.5H82V514.5H83.875V515.5ZM82 515.5C81.3586 515.5 80.7266 515.458 80.1068 515.377L80.2361 514.386C80.8132 514.461 81.4019 514.5 82 514.5V515.5ZM76.4494 514.4C75.2704 513.911 74.17 513.271 73.1724 512.504L73.7817 511.711C74.7108 512.425 75.7353 513.021 76.8325 513.476L76.4494 514.4ZM70.4959 509.828C69.7293 508.83 69.0894 507.73 68.6005 506.551L69.5242 506.167C69.9792 507.265 70.5749 508.289 71.2889 509.218L70.4959 509.828ZM67.6225 502.893C67.5417 502.273 67.5 501.641 67.5 501H68.5C68.5 501.598 68.5389 502.187 68.6141 502.764L67.6225 502.893ZM67.5 501V499H68.5V501H67.5ZM67.5 495V491H68.5V495H67.5ZM67.5 487V483H68.5V487H67.5ZM67.5 479V477H68.5V479H67.5ZM67.5 477C67.5 476.359 67.5417 475.727 67.6225 475.107L68.6141 475.236C68.5389 475.813 68.5 476.402 68.5 477H67.5ZM68.6005 471.449C69.0894 470.27 69.7293 469.17 70.4959 468.172L71.2889 468.782C70.5749 469.711 69.9792 470.735 69.5242 471.832L68.6005 471.449ZM73.1724 465.496C74.17 464.729 75.2704 464.089 76.4494 463.6L76.8325 464.524C75.7353 464.979 74.7108 465.575 73.7817 466.289L73.1724 465.496ZM80.1068 462.623C80.7266 462.542 81.3586 462.5 82 462.5V463.5C81.4019 463.5 80.8132 463.539 80.2361 463.614L80.1068 462.623ZM82 462.5H84.375V463.5H82V462.5ZM89.125 462.5H91.5V463.5H89.125V462.5Z" fill="black"/>
<path d="M38.12 72V61.494C38.12 58.06 38.052 55.544 37.882 54.354L45.022 72H48.15L55.324 54.286C55.154 56.02 55.12 57.686 55.12 62.276V72H58.384V47.418H55.052L46.586 68.09L38.12 47.418H34.856V72H38.12ZM62.476 63.67C62.476 68.804 66.148 72.408 71.146 72.408C76.11 72.408 79.782 68.804 79.782 63.67C79.782 58.536 76.11 54.932 71.146 54.932C66.148 54.932 62.476 58.536 62.476 63.67ZM65.706 63.67C65.706 60.202 67.916 57.788 71.146 57.788C74.342 57.788 76.586 60.202 76.586 63.67C76.586 67.138 74.342 69.552 71.146 69.552C67.916 69.552 65.706 67.138 65.706 63.67ZM89.9838 72.408C92.6358 72.408 94.8798 71.252 95.9678 68.974L96.2398 72H99.0958V46.976H95.9338V58.06C94.8118 56.02 92.6698 54.898 90.1198 54.898C85.1898 54.898 82.2318 58.638 82.2318 63.738C82.2318 68.804 85.1558 72.408 89.9838 72.408ZM90.6298 69.518C87.3658 69.518 85.4618 67.07 85.4618 63.636C85.4618 60.236 87.3658 57.788 90.6298 57.788C93.8938 57.788 95.8998 60.236 95.8998 63.636C95.8998 67.104 93.8938 69.518 90.6298 69.518ZM115.199 55.374V64.146C115.199 67.716 113.601 69.586 110.677 69.586C108.229 69.586 106.699 68.226 106.699 64.656V55.374H103.503V65.71C103.503 69.79 105.679 72.408 109.555 72.408C112.003 72.408 114.213 71.218 115.165 69.484L115.505 72H118.361V55.374H115.199ZM126.262 72V46.976H123.066V72H126.262ZM135.828 72.408C138.514 72.408 140.792 71.218 141.642 69.314L141.982 72H144.702V61.562C144.702 57.074 141.914 54.898 137.8 54.898C133.516 54.898 130.66 57.176 130.66 60.644H133.448C133.448 58.638 134.978 57.448 137.664 57.448C139.908 57.448 141.574 58.434 141.574 61.222V61.698L136.338 62.106C132.428 62.412 130.15 64.316 130.15 67.376C130.15 70.402 132.258 72.408 135.828 72.408ZM136.746 69.926C134.672 69.926 133.38 69.042 133.38 67.274C133.38 65.642 134.536 64.554 137.358 64.282L141.608 63.942V64.826C141.608 67.954 139.772 69.926 136.746 69.926ZM158.648 55.238C158.002 55.102 157.526 55.034 156.948 55.034C154.67 55.034 153.004 56.19 152.324 57.924L152.12 55.408H149.128V72H152.324V63.194C152.324 59.998 154.194 58.162 157.22 58.162H158.648V55.238ZM33.224 101.704C33.224 106.94 36.454 110.408 41.35 110.408C45.362 110.408 48.456 107.994 49.102 104.39H45.906C45.328 106.362 43.628 107.552 41.35 107.552C38.324 107.552 36.386 105.24 36.386 101.67C36.386 98.066 38.46 95.754 41.486 95.754C43.628 95.754 45.328 96.876 45.872 98.984H49.068C48.49 95.278 45.566 92.898 41.384 92.898C36.522 92.898 33.224 96.502 33.224 101.704ZM63.9661 93.374V102.146C63.9661 105.716 62.3681 107.586 59.4441 107.586C56.9961 107.586 55.4661 106.226 55.4661 102.656V93.374H52.2701V103.71C52.2701 107.79 54.4461 110.408 58.3221 110.408C60.7701 110.408 62.9801 109.218 63.9321 107.484L64.2721 110H67.1281V93.374H63.9661ZM70.0731 105.172C70.0731 108.334 72.5551 110.408 76.4651 110.408C80.4091 110.408 83.1291 108.402 83.1291 105.24C83.1291 102.758 81.7351 101.466 78.9131 100.786L75.9891 100.072C74.3571 99.664 73.5411 98.916 73.5411 97.794C73.5411 96.264 74.6631 95.38 76.6691 95.38C78.6071 95.38 79.7291 96.434 79.7971 98.1H82.8571C82.7891 94.938 80.4091 92.898 76.7711 92.898C73.0991 92.898 70.5151 94.836 70.5151 97.896C70.5151 100.344 71.9091 101.806 74.8671 102.52L77.7911 103.2C79.5251 103.642 80.0691 104.322 80.0691 105.444C80.0691 106.974 78.7771 107.892 76.5331 107.892C74.4251 107.892 73.1331 106.872 73.1331 105.172H70.0731ZM91.3653 110V96.06H94.6293V93.374H91.3653V88.172H88.1693V93.374H84.9053V96.06H88.1693V110H91.3653ZM96.2435 101.67C96.2435 106.804 99.9155 110.408 104.914 110.408C109.878 110.408 113.55 106.804 113.55 101.67C113.55 96.536 109.878 92.932 104.914 92.932C99.9155 92.932 96.2435 96.536 96.2435 101.67ZM99.4735 101.67C99.4735 98.202 101.684 95.788 104.914 95.788C108.11 95.788 110.354 98.202 110.354 101.67C110.354 105.138 108.11 107.552 104.914 107.552C101.684 107.552 99.4735 105.138 99.4735 101.67ZM120.283 110V100.14C120.283 97.488 121.881 95.822 124.295 95.822C126.539 95.822 127.967 97.25 127.967 99.868V110H131.129V100.14C131.129 97.488 132.727 95.788 135.141 95.788C137.385 95.788 138.847 97.284 138.847 99.902V110H141.975V99.12C141.975 95.278 139.663 92.898 135.855 92.898C133.271 92.898 131.265 94.19 130.483 96.264C129.633 94.19 127.797 92.898 125.213 92.898C122.867 92.898 121.099 93.986 120.249 95.55L119.943 93.374H117.087V110H120.283ZM147.97 89.43C149.126 89.43 150.078 88.478 150.078 87.322C150.078 86.132 149.126 85.214 147.97 85.214C146.814 85.214 145.862 86.132 145.862 87.322C145.862 88.478 146.814 89.43 147.97 89.43ZM146.406 110H149.602V93.374H146.406V110ZM166.176 110V107.314H157.132L166.176 95.992V93.374H153.222V96.06H162.198L153.222 107.416V110H166.176ZM174.643 110.408C177.329 110.408 179.607 109.218 180.457 107.314L180.797 110H183.517V99.562C183.517 95.074 180.729 92.898 176.615 92.898C172.331 92.898 169.475 95.176 169.475 98.644H172.263C172.263 96.638 173.793 95.448 176.479 95.448C178.723 95.448 180.389 96.434 180.389 99.222V99.698L175.153 100.106C171.243 100.412 168.965 102.316 168.965 105.376C168.965 108.402 171.073 110.408 174.643 110.408ZM175.561 107.926C173.487 107.926 172.195 107.042 172.195 105.274C172.195 103.642 173.351 102.554 176.173 102.282L180.423 101.942V102.826C180.423 105.954 178.587 107.926 175.561 107.926ZM192.369 110V96.06H195.633V93.374H192.369V88.172H189.173V93.374H185.909V96.06H189.173V110H192.369ZM200.065 89.43C201.221 89.43 202.173 88.478 202.173 87.322C202.173 86.132 201.221 85.214 200.065 85.214C198.909 85.214 197.957 86.132 197.957 87.322C197.957 88.478 198.909 89.43 200.065 89.43ZM198.501 110H201.697V93.374H198.501V110ZM205.249 101.67C205.249 106.804 208.921 110.408 213.919 110.408C218.883 110.408 222.555 106.804 222.555 101.67C222.555 96.536 218.883 92.932 213.919 92.932C208.921 92.932 205.249 96.536 205.249 101.67ZM208.479 101.67C208.479 98.202 210.689 95.788 213.919 95.788C217.115 95.788 219.359 98.202 219.359 101.67C219.359 105.138 217.115 107.552 213.919 107.552C210.689 107.552 208.479 105.138 208.479 101.67ZM229.289 110V101.194C229.289 97.964 231.023 95.822 234.015 95.822C236.463 95.822 238.027 97.182 238.027 100.548V110H241.223V99.834C241.223 95.584 239.217 92.898 234.831 92.898C232.485 92.898 230.377 94.02 229.323 95.924L228.983 93.374H226.093V110H229.289Z" fill="#0A0F0D"/>
<path d="M37.49 153C41.36 153 43.934 150.408 43.934 146.556C43.934 142.704 41.342 140.112 37.454 140.112H33.566V153H37.49ZM37.4 141.3C40.586 141.3 42.602 143.334 42.602 146.556C42.602 149.76 40.586 151.812 37.436 151.812H34.862V141.3H37.4ZM48.507 153.216C49.983 153.216 51.171 152.568 51.711 151.47L51.873 153H52.917V147.366C52.917 145.062 51.441 144.054 49.425 144.054C47.283 144.054 45.843 145.188 45.843 146.952H46.977C46.977 145.782 47.877 145.098 49.389 145.098C50.667 145.098 51.693 145.638 51.693 147.348V147.636L48.813 147.87C46.779 148.032 45.555 149.04 45.555 150.642C45.555 152.172 46.653 153.216 48.507 153.216ZM48.795 152.208C47.607 152.208 46.815 151.668 46.815 150.606C46.815 149.634 47.481 148.914 49.119 148.77L51.693 148.572V149.04C51.693 150.93 50.631 152.208 48.795 152.208ZM57.2491 153V145.332H58.9951V144.288H57.2491V141.534H56.0251V144.288H54.2791V145.332H56.0251V153H57.2491ZM62.9738 153.216C64.4498 153.216 65.6378 152.568 66.1778 151.47L66.3398 153H67.3838V147.366C67.3838 145.062 65.9078 144.054 63.8918 144.054C61.7498 144.054 60.3098 145.188 60.3098 146.952H61.4438C61.4438 145.782 62.3438 145.098 63.8558 145.098C65.1338 145.098 66.1598 145.638 66.1598 147.348V147.636L63.2798 147.87C61.2458 148.032 60.0218 149.04 60.0218 150.642C60.0218 152.172 61.1198 153.216 62.9738 153.216ZM63.2618 152.208C62.0738 152.208 61.2818 151.668 61.2818 150.606C61.2818 149.634 61.9478 148.914 63.5858 148.77L66.1598 148.572V149.04C66.1598 150.93 65.0978 152.208 63.2618 152.208ZM77.2983 153H78.5403L82.1583 144.288H80.8803L78.5943 149.904C78.3423 150.534 78.1083 151.11 77.9463 151.704C77.7843 151.128 77.5503 150.534 77.3163 149.904L75.0663 144.288H73.7343L77.2983 153ZM84.2342 141.894C84.7382 141.894 85.1702 141.48 85.1702 140.976C85.1702 140.472 84.7382 140.04 84.2342 140.04C83.7302 140.04 83.3162 140.472 83.3162 140.976C83.3162 141.48 83.7302 141.894 84.2342 141.894ZM83.6222 153H84.8642V144.288H83.6222V153ZM91.1082 153.216C93.1602 153.216 94.5102 152.226 94.9782 150.39H93.7902C93.4662 151.542 92.5482 152.154 91.1262 152.154C89.2542 152.154 88.1382 150.93 88.0482 148.806H94.9782V148.194C94.9782 145.728 93.3762 144.054 91.0182 144.054C88.5342 144.054 86.8422 145.926 86.8422 148.644C86.8422 151.38 88.5522 153.216 91.1082 153.216ZM91.0182 145.116C92.6562 145.116 93.7362 146.232 93.7362 147.906H88.0842C88.3002 146.196 89.3802 145.116 91.0182 145.116ZM98.5715 153H99.8135L101.613 147.528C101.847 146.808 101.991 146.286 102.117 145.818C102.225 146.34 102.369 146.88 102.585 147.528L104.385 153H105.591L108.543 144.288H107.247L105.519 149.544C105.213 150.48 105.177 150.696 104.997 151.416C104.835 150.768 104.619 150.012 104.457 149.544L102.747 144.288H101.469L99.7415 149.544C99.6515 149.832 99.3635 150.714 99.2195 151.416C99.0395 150.714 98.8775 150.12 98.6795 149.544L96.9695 144.288H95.6915L98.5715 153ZM109.304 150.552C109.304 152.172 110.528 153.216 112.49 153.216C114.47 153.216 115.802 152.19 115.802 150.624C115.802 149.364 115.118 148.662 113.606 148.284L112.112 147.906C111.158 147.672 110.69 147.204 110.69 146.538C110.69 145.602 111.374 145.08 112.598 145.08C113.768 145.08 114.47 145.674 114.506 146.682H115.712C115.658 145.062 114.47 144.054 112.634 144.054C110.762 144.054 109.484 145.026 109.484 146.556C109.484 147.744 110.222 148.536 111.734 148.914L113.228 149.292C114.254 149.544 114.614 149.958 114.614 150.678C114.614 151.614 113.822 152.19 112.472 152.19C111.248 152.19 110.492 151.56 110.492 150.552H109.304ZM123.919 153L124.045 151.218C124.657 152.568 125.863 153.216 127.321 153.216C129.859 153.216 131.371 151.272 131.371 148.662C131.371 146.034 129.895 144.054 127.357 144.054C125.881 144.054 124.693 144.702 124.081 145.98V139.878H122.839V153H123.919ZM124.099 148.626C124.099 146.628 125.215 145.17 127.123 145.17C129.013 145.17 130.111 146.628 130.111 148.626C130.111 150.642 129.013 152.082 127.123 152.082C125.215 152.082 124.099 150.642 124.099 148.626ZM139.26 144.288V148.914C139.26 150.984 138.27 152.1 136.596 152.1C135.21 152.1 134.292 151.362 134.292 149.292V144.27H133.032V149.688C133.032 151.812 134.148 153.216 136.2 153.216C137.568 153.216 138.774 152.532 139.26 151.524L139.422 153H140.502V144.288H139.26ZM143.701 141.894C144.205 141.894 144.637 141.48 144.637 140.976C144.637 140.472 144.205 140.04 143.701 140.04C143.197 140.04 142.783 140.472 142.783 140.976C142.783 141.48 143.197 141.894 143.701 141.894ZM143.089 153H144.331V144.288H143.089V153ZM148.217 153V139.878H146.975V153H148.217ZM152.857 153V145.332H154.603V144.288H152.857V141.534H151.633V144.288H149.887V145.332H151.633V153H152.857ZM160.24 144.288V145.332H161.572V153H162.814V145.332H164.866V144.288H162.814V142.596C162.814 141.57 163.102 141.012 164.2 141.012H164.938V139.95C164.65 139.896 164.29 139.878 163.984 139.878C162.652 139.878 161.572 140.634 161.572 142.596V144.288H160.24ZM165.68 148.644C165.68 151.29 167.552 153.216 170.108 153.216C172.664 153.216 174.536 151.29 174.536 148.644C174.536 145.98 172.664 144.054 170.108 144.054C167.552 144.054 165.68 145.98 165.68 148.644ZM166.94 148.626C166.94 146.61 168.236 145.17 170.108 145.17C171.962 145.17 173.276 146.61 173.276 148.626C173.276 150.678 171.962 152.1 170.108 152.1C168.236 152.1 166.94 150.678 166.94 148.626ZM181.077 144.18C180.771 144.108 180.537 144.09 180.267 144.09C179.043 144.09 178.125 144.702 177.783 145.638L177.693 144.288H176.523V153H177.765V148.032C177.765 146.376 178.791 145.296 180.393 145.296H181.077V144.18ZM191.374 153.216C193.426 153.216 194.776 152.226 195.244 150.39H194.056C193.732 151.542 192.814 152.154 191.392 152.154C189.52 152.154 188.404 150.93 188.314 148.806H195.244V148.194C195.244 145.728 193.642 144.054 191.284 144.054C188.8 144.054 187.108 145.926 187.108 148.644C187.108 151.38 188.818 153.216 191.374 153.216ZM191.284 145.116C192.922 145.116 194.002 146.232 194.002 147.906H188.35C188.566 146.196 189.646 145.116 191.284 145.116ZM199.431 153H200.673L204.291 144.288H203.013L200.727 149.904C200.475 150.534 200.241 151.11 200.079 151.704C199.917 151.128 199.683 150.534 199.449 149.904L197.199 144.288H195.867L199.431 153ZM209.022 153.216C211.074 153.216 212.424 152.226 212.892 150.39H211.704C211.38 151.542 210.462 152.154 209.04 152.154C207.168 152.154 206.052 150.93 205.962 148.806H212.892V148.194C212.892 145.728 211.29 144.054 208.932 144.054C206.448 144.054 204.756 145.926 204.756 148.644C204.756 151.38 206.466 153.216 209.022 153.216ZM208.932 145.116C210.57 145.116 211.65 146.232 211.65 147.906H205.998C206.214 146.196 207.294 145.116 208.932 145.116ZM219.432 144.18C219.126 144.108 218.892 144.09 218.622 144.09C217.398 144.09 216.48 144.702 216.138 145.638L216.048 144.288H214.878V153H216.12V148.032C216.12 146.376 217.146 145.296 218.748 145.296H219.432V144.18ZM220.465 156.798C220.861 156.888 221.257 156.924 221.779 156.924C223.021 156.924 223.867 156.366 224.371 154.998L228.367 144.288H227.089L224.335 151.884L221.527 144.288H220.213L223.741 153.522L223.363 154.548C222.931 155.718 222.175 155.772 221.419 155.772H220.465V156.798ZM234.074 150.552C234.074 152.172 235.298 153.216 237.26 153.216C239.24 153.216 240.572 152.19 240.572 150.624C240.572 149.364 239.888 148.662 238.376 148.284L236.882 147.906C235.928 147.672 235.46 147.204 235.46 146.538C235.46 145.602 236.144 145.08 237.368 145.08C238.538 145.08 239.24 145.674 239.276 146.682H240.482C240.428 145.062 239.24 144.054 237.404 144.054C235.532 144.054 234.254 145.026 234.254 146.556C234.254 147.744 234.992 148.536 236.504 148.914L237.998 149.292C239.024 149.544 239.384 149.958 239.384 150.678C239.384 151.614 238.592 152.19 237.242 152.19C236.018 152.19 235.262 151.56 235.262 150.552H234.074ZM244.614 153V145.332H246.36V144.288H244.614V141.534H243.39V144.288H241.644V145.332H243.39V153H244.614ZM247.278 148.644C247.278 151.29 249.15 153.216 251.706 153.216C254.262 153.216 256.134 151.29 256.134 148.644C256.134 145.98 254.262 144.054 251.706 144.054C249.15 144.054 247.278 145.98 247.278 148.644ZM248.538 148.626C248.538 146.61 249.834 145.17 251.706 145.17C253.56 145.17 254.874 146.61 254.874 148.626C254.874 150.678 253.56 152.1 251.706 152.1C249.834 152.1 248.538 150.678 248.538 148.626ZM262.674 144.18C262.368 144.108 262.134 144.09 261.864 144.09C260.64 144.09 259.722 144.702 259.38 145.638L259.29 144.288H258.12V153H259.362V148.032C259.362 146.376 260.388 145.296 261.99 145.296H262.674V144.18ZM267.645 153.216C269.697 153.216 271.047 152.226 271.515 150.39H270.327C270.003 151.542 269.085 152.154 267.663 152.154C265.791 152.154 264.675 150.93 264.585 148.806H271.515V148.194C271.515 145.728 269.913 144.054 267.555 144.054C265.071 144.054 263.379 145.926 263.379 148.644C263.379 151.38 265.089 153.216 267.645 153.216ZM267.555 145.116C269.193 145.116 270.273 146.232 270.273 147.906H264.621C264.837 146.196 265.917 145.116 267.555 145.116ZM280.995 153.216C282.471 153.216 283.659 152.568 284.199 151.47L284.361 153H285.405V147.366C285.405 145.062 283.929 144.054 281.913 144.054C279.771 144.054 278.331 145.188 278.331 146.952H279.465C279.465 145.782 280.365 145.098 281.877 145.098C283.155 145.098 284.181 145.638 284.181 147.348V147.636L281.301 147.87C279.267 148.032 278.043 149.04 278.043 150.642C278.043 152.172 279.141 153.216 280.995 153.216ZM281.283 152.208C280.095 152.208 279.303 151.668 279.303 150.606C279.303 149.634 279.969 148.914 281.607 148.77L284.181 148.572V149.04C284.181 150.93 283.119 152.208 281.283 152.208ZM289.14 153V148.446C289.14 146.484 290.148 145.188 291.93 145.188C293.37 145.188 294.288 145.908 294.288 147.942V153H295.53V147.672C295.53 145.476 294.54 144.054 292.146 144.054C290.886 144.054 289.734 144.684 289.158 145.8L288.978 144.288H287.898V153H289.14ZM301.425 153.216C302.883 153.216 304.107 152.568 304.719 151.218L304.845 153H305.925V139.878H304.683V145.944C304.071 144.684 302.919 144.054 301.479 144.054C298.887 144.054 297.393 146.034 297.393 148.662C297.393 151.272 298.887 153.216 301.425 153.216ZM301.641 152.082C299.751 152.082 298.653 150.642 298.653 148.626C298.653 146.628 299.751 145.17 301.641 145.17C303.549 145.17 304.665 146.628 304.665 148.626C304.665 150.642 303.549 152.082 301.641 152.082ZM32.558 178.552C32.558 180.172 33.782 181.216 35.744 181.216C37.724 181.216 39.056 180.19 39.056 178.624C39.056 177.364 38.372 176.662 36.86 176.284L35.366 175.906C34.412 175.672 33.944 175.204 33.944 174.538C33.944 173.602 34.628 173.08 35.852 173.08C37.022 173.08 37.724 173.674 37.76 174.682H38.966C38.912 173.062 37.724 172.054 35.888 172.054C34.016 172.054 32.738 173.026 32.738 174.556C32.738 175.744 33.476 176.536 34.988 176.914L36.482 177.292C37.508 177.544 37.868 177.958 37.868 178.678C37.868 179.614 37.076 180.19 35.726 180.19C34.502 180.19 33.746 179.56 33.746 178.552H32.558ZM41.7127 169.894C42.2167 169.894 42.6487 169.48 42.6487 168.976C42.6487 168.472 42.2167 168.04 41.7127 168.04C41.2087 168.04 40.7947 168.472 40.7947 168.976C40.7947 169.48 41.2087 169.894 41.7127 169.894ZM41.1007 181H42.3427V172.288H41.1007V181ZM50.9087 181V179.956H45.8507L50.9087 173.296V172.288H44.3387V173.332H49.3787L44.3387 180.01V181H50.9087ZM56.2859 181.216C58.3379 181.216 59.6879 180.226 60.1559 178.39H58.9679C58.6439 179.542 57.7259 180.154 56.3039 180.154C54.4319 180.154 53.3159 178.93 53.2259 176.806H60.1559V176.194C60.1559 173.728 58.5539 172.054 56.1959 172.054C53.7119 172.054 52.0199 173.926 52.0199 176.644C52.0199 179.38 53.7299 181.216 56.2859 181.216ZM56.1959 173.116C57.8339 173.116 58.9139 174.232 58.9139 175.906H53.2619C53.4779 174.196 54.5579 173.116 56.1959 173.116ZM62.6588 181.198C63.2708 181.198 63.7928 180.694 63.7928 180.1C63.7928 179.488 63.2708 178.966 62.6588 178.966C62.0468 178.966 61.5248 179.488 61.5248 180.1C61.5248 180.694 62.0468 181.198 62.6588 181.198ZM72.8659 168.112H71.5699V181H72.8659V168.112ZM79.1496 181.216C80.6076 181.216 81.8316 180.568 82.4436 179.218L82.5696 181H83.6496V167.878H82.4076V173.944C81.7956 172.684 80.6436 172.054 79.2036 172.054C76.6116 172.054 75.1176 174.034 75.1176 176.662C75.1176 179.272 76.6116 181.216 79.1496 181.216ZM79.3656 180.082C77.4756 180.082 76.3776 178.642 76.3776 176.626C76.3776 174.628 77.4756 173.17 79.3656 173.17C81.2736 173.17 82.3896 174.628 82.3896 176.626C82.3896 178.642 81.2736 180.082 79.3656 180.082ZM89.8953 181.216C91.9473 181.216 93.2973 180.226 93.7653 178.39H92.5773C92.2533 179.542 91.3353 180.154 89.9133 180.154C88.0413 180.154 86.9253 178.93 86.8353 176.806H93.7653V176.194C93.7653 173.728 92.1633 172.054 89.8053 172.054C87.3213 172.054 85.6293 173.926 85.6293 176.644C85.6293 179.38 87.3393 181.216 89.8953 181.216ZM89.8053 173.116C91.4433 173.116 92.5233 174.232 92.5233 175.906H86.8713C87.0873 174.196 88.1673 173.116 89.8053 173.116ZM96.9931 181V176.446C96.9931 174.484 98.0011 173.188 99.7831 173.188C101.223 173.188 102.141 173.908 102.141 175.942V181H103.383V175.672C103.383 173.476 102.393 172.054 99.9991 172.054C98.7391 172.054 97.5871 172.684 97.0111 173.8L96.8311 172.288H95.7511V181H96.9931ZM107.857 181V173.332H109.603V172.288H107.857V169.534H106.633V172.288H104.887V173.332H106.633V181H107.857ZM111.832 169.894C112.336 169.894 112.768 169.48 112.768 168.976C112.768 168.472 112.336 168.04 111.832 168.04C111.328 168.04 110.914 168.472 110.914 168.976C110.914 169.48 111.328 169.894 111.832 169.894ZM111.22 181H112.462V172.288H111.22V181ZM114.08 172.288V173.332H115.412V181H116.654V173.332H118.706V172.288H116.654V170.596C116.654 169.57 116.942 169.012 118.04 169.012H118.778V167.95C118.49 167.896 118.13 167.878 117.824 167.878C116.492 167.878 115.412 168.634 115.412 170.596V172.288H114.08ZM119.514 184.798C119.91 184.888 120.306 184.924 120.828 184.924C122.07 184.924 122.916 184.366 123.42 182.998L127.416 172.288H126.138L123.384 179.884L120.576 172.288H119.262L122.79 181.522L122.412 182.548C121.98 183.718 121.224 183.772 120.468 183.772H119.514V184.798ZM135.696 181H136.938L138.738 175.528C138.972 174.808 139.116 174.286 139.242 173.818C139.35 174.34 139.494 174.88 139.71 175.528L141.51 181H142.716L145.668 172.288H144.372L142.644 177.544C142.338 178.48 142.302 178.696 142.122 179.416C141.96 178.768 141.744 178.012 141.582 177.544L139.872 172.288H138.594L136.866 177.544C136.776 177.832 136.488 178.714 136.344 179.416C136.164 178.714 136.002 178.12 135.804 177.544L134.094 172.288H132.816L135.696 181ZM149.335 181.216C150.811 181.216 151.999 180.568 152.539 179.47L152.701 181H153.745V175.366C153.745 173.062 152.269 172.054 150.253 172.054C148.111 172.054 146.671 173.188 146.671 174.952H147.805C147.805 173.782 148.705 173.098 150.217 173.098C151.495 173.098 152.521 173.638 152.521 175.348V175.636L149.641 175.87C147.607 176.032 146.383 177.04 146.383 178.642C146.383 180.172 147.481 181.216 149.335 181.216ZM149.623 180.208C148.435 180.208 147.643 179.668 147.643 178.606C147.643 177.634 148.309 176.914 149.947 176.77L152.521 176.572V177.04C152.521 178.93 151.459 180.208 149.623 180.208ZM158.316 181H159.558L163.176 172.288H161.898L159.612 177.904C159.36 178.534 159.126 179.11 158.964 179.704C158.802 179.128 158.568 178.534 158.334 177.904L156.084 172.288H154.752L158.316 181ZM167.907 181.216C169.959 181.216 171.309 180.226 171.777 178.39H170.589C170.265 179.542 169.347 180.154 167.925 180.154C166.053 180.154 164.937 178.93 164.847 176.806H171.777V176.194C171.777 173.728 170.175 172.054 167.817 172.054C165.333 172.054 163.641 173.926 163.641 176.644C163.641 179.38 165.351 181.216 167.907 181.216ZM167.817 173.116C169.455 173.116 170.535 174.232 170.535 175.906H164.883C165.099 174.196 166.179 173.116 167.817 173.116ZM173.025 178.552C173.025 180.172 174.249 181.216 176.211 181.216C178.191 181.216 179.523 180.19 179.523 178.624C179.523 177.364 178.839 176.662 177.327 176.284L175.833 175.906C174.879 175.672 174.411 175.204 174.411 174.538C174.411 173.602 175.095 173.08 176.319 173.08C177.489 173.08 178.191 173.674 178.227 174.682H179.433C179.379 173.062 178.191 172.054 176.355 172.054C174.483 172.054 173.205 173.026 173.205 174.556C173.205 175.744 173.943 176.536 175.455 176.914L176.949 177.292C177.975 177.544 178.335 177.958 178.335 178.678C178.335 179.614 177.543 180.19 176.193 180.19C174.969 180.19 174.213 179.56 174.213 178.552H173.025ZM185.948 176.644C185.948 179.29 187.82 181.216 190.376 181.216C192.932 181.216 194.804 179.29 194.804 176.644C194.804 173.98 192.932 172.054 190.376 172.054C187.82 172.054 185.948 173.98 185.948 176.644ZM187.208 176.626C187.208 174.61 188.504 173.17 190.376 173.17C192.23 173.17 193.544 174.61 193.544 176.626C193.544 178.678 192.23 180.1 190.376 180.1C188.504 180.1 187.208 178.678 187.208 176.626ZM195.748 172.288V173.332H197.08V181H198.322V173.332H200.374V172.288H198.322V170.596C198.322 169.57 198.61 169.012 199.708 169.012H200.446V167.95C200.158 167.896 199.798 167.878 199.492 167.878C198.16 167.878 197.08 168.634 197.08 170.596V172.288H195.748ZM206.444 176.644C206.444 179.29 208.316 181.216 210.872 181.216C213.428 181.216 215.3 179.29 215.3 176.644C215.3 173.98 213.428 172.054 210.872 172.054C208.316 172.054 206.444 173.98 206.444 176.644ZM207.704 176.626C207.704 174.61 209 173.17 210.872 173.17C212.726 173.17 214.04 174.61 214.04 176.626C214.04 178.678 212.726 180.1 210.872 180.1C209 180.1 207.704 178.678 207.704 176.626ZM217.286 184.798H218.528V179.326C219.14 180.586 220.31 181.216 221.786 181.216C224.36 181.216 225.818 179.236 225.818 176.608C225.818 173.98 224.306 172.054 221.786 172.054C220.328 172.054 219.104 172.702 218.492 174.052L218.366 172.288H217.286V184.798ZM218.546 176.644C218.546 174.628 219.662 173.188 221.57 173.188C223.46 173.188 224.558 174.628 224.558 176.644C224.558 178.642 223.46 180.1 221.57 180.1C219.662 180.1 218.546 178.642 218.546 176.644ZM227.798 184.798H229.04V179.326C229.652 180.586 230.822 181.216 232.298 181.216C234.872 181.216 236.33 179.236 236.33 176.608C236.33 173.98 234.818 172.054 232.298 172.054C230.84 172.054 229.616 172.702 229.004 174.052L228.878 172.288H227.798V184.798ZM229.058 176.644C229.058 174.628 230.174 173.188 232.082 173.188C233.972 173.188 235.07 174.628 235.07 176.644C235.07 178.642 233.972 180.1 232.082 180.1C230.174 180.1 229.058 178.642 229.058 176.644ZM237.698 176.644C237.698 179.29 239.57 181.216 242.126 181.216C244.682 181.216 246.554 179.29 246.554 176.644C246.554 173.98 244.682 172.054 242.126 172.054C239.57 172.054 237.698 173.98 237.698 176.644ZM238.958 176.626C238.958 174.61 240.254 173.17 242.126 173.17C243.98 173.17 245.294 174.61 245.294 176.626C245.294 178.678 243.98 180.1 242.126 180.1C240.254 180.1 238.958 178.678 238.958 176.626ZM253.094 172.18C252.788 172.108 252.554 172.09 252.284 172.09C251.06 172.09 250.142 172.702 249.8 173.638L249.71 172.288H248.54V181H249.782V176.032C249.782 174.376 250.808 173.296 252.41 173.296H253.094V172.18ZM257.095 181V173.332H258.841V172.288H257.095V169.534H255.871V172.288H254.125V173.332H255.871V181H257.095ZM266.578 172.288V176.914C266.578 178.984 265.588 180.1 263.914 180.1C262.528 180.1 261.61 179.362 261.61 177.292V172.27H260.35V177.688C260.35 179.812 261.466 181.216 263.518 181.216C264.886 181.216 266.092 180.532 266.578 179.524L266.74 181H267.82V172.288H266.578ZM271.649 181V176.446C271.649 174.484 272.657 173.188 274.439 173.188C275.879 173.188 276.797 173.908 276.797 175.942V181H278.039V175.672C278.039 173.476 277.049 172.054 274.655 172.054C273.395 172.054 272.243 172.684 271.667 173.8L271.487 172.288H270.407V181H271.649ZM281.127 169.894C281.631 169.894 282.063 169.48 282.063 168.976C282.063 168.472 281.631 168.04 281.127 168.04C280.623 168.04 280.209 168.472 280.209 168.976C280.209 169.48 280.623 169.894 281.127 169.894ZM280.515 181H281.757V172.288H280.515V181ZM286.345 181V173.332H288.091V172.288H286.345V169.534H285.121V172.288H283.375V173.332H285.121V181H286.345ZM290.32 169.894C290.824 169.894 291.256 169.48 291.256 168.976C291.256 168.472 290.824 168.04 290.32 168.04C289.816 168.04 289.402 168.472 289.402 168.976C289.402 169.48 289.816 169.894 290.32 169.894ZM289.708 181H290.95V172.288H289.708V181ZM297.194 181.216C299.246 181.216 300.596 180.226 301.064 178.39H299.876C299.552 179.542 298.634 180.154 297.212 180.154C295.34 180.154 294.224 178.93 294.134 176.806H301.064V176.194C301.064 173.728 299.462 172.054 297.104 172.054C294.62 172.054 292.928 173.926 292.928 176.644C292.928 179.38 294.638 181.216 297.194 181.216ZM297.104 173.116C298.742 173.116 299.822 174.232 299.822 175.906H294.17C294.386 174.196 295.466 173.116 297.104 173.116ZM302.312 178.552C302.312 180.172 303.536 181.216 305.498 181.216C307.478 181.216 308.81 180.19 308.81 178.624C308.81 177.364 308.126 176.662 306.614 176.284L305.12 175.906C304.166 175.672 303.698 175.204 303.698 174.538C303.698 173.602 304.382 173.08 305.606 173.08C306.776 173.08 307.478 173.674 307.514 174.682H308.72C308.666 173.062 307.478 172.054 305.642 172.054C303.77 172.054 302.492 173.026 302.492 174.556C302.492 175.744 303.23 176.536 304.742 176.914L306.236 177.292C307.262 177.544 307.622 177.958 307.622 178.678C307.622 179.614 306.83 180.19 305.48 180.19C304.256 180.19 303.5 179.56 303.5 178.552H302.312ZM35.798 209.216C37.274 209.216 38.462 208.568 39.002 207.47L39.164 209H40.208V203.366C40.208 201.062 38.732 200.054 36.716 200.054C34.574 200.054 33.134 201.188 33.134 202.952H34.268C34.268 201.782 35.168 201.098 36.68 201.098C37.958 201.098 38.984 201.638 38.984 203.348V203.636L36.104 203.87C34.07 204.032 32.846 205.04 32.846 206.642C32.846 208.172 33.944 209.216 35.798 209.216ZM36.086 208.208C34.898 208.208 34.106 207.668 34.106 206.606C34.106 205.634 34.772 204.914 36.41 204.77L38.984 204.572V205.04C38.984 206.93 37.922 208.208 36.086 208.208ZM43.9423 209V204.446C43.9423 202.484 44.9503 201.188 46.7323 201.188C48.1723 201.188 49.0903 201.908 49.0903 203.942V209H50.3323V203.672C50.3323 201.476 49.3423 200.054 46.9483 200.054C45.6883 200.054 44.5363 200.684 43.9603 201.8L43.7803 200.288H42.7003V209H43.9423ZM56.2277 209.216C57.6857 209.216 58.9097 208.568 59.5217 207.218L59.6477 209H60.7277V195.878H59.4857V201.944C58.8737 200.684 57.7217 200.054 56.2817 200.054C53.6897 200.054 52.1957 202.034 52.1957 204.662C52.1957 207.272 53.6897 209.216 56.2277 209.216ZM56.4437 208.082C54.5537 208.082 53.4557 206.642 53.4557 204.626C53.4557 202.628 54.5537 201.17 56.4437 201.17C58.3517 201.17 59.4677 202.628 59.4677 204.626C59.4677 206.642 58.3517 208.082 56.4437 208.082ZM72.8656 200.18C72.5596 200.108 72.3256 200.09 72.0556 200.09C70.8316 200.09 69.9136 200.702 69.5716 201.638L69.4816 200.288H68.3116V209H69.5536V204.032C69.5536 202.376 70.5796 201.296 72.1816 201.296H72.8656V200.18ZM77.8367 209.216C79.8887 209.216 81.2387 208.226 81.7067 206.39H80.5187C80.1947 207.542 79.2767 208.154 77.8547 208.154C75.9827 208.154 74.8667 206.93 74.7767 204.806H81.7067V204.194C81.7067 201.728 80.1047 200.054 77.7467 200.054C75.2627 200.054 73.5707 201.926 73.5707 204.644C73.5707 207.38 75.2807 209.216 77.8367 209.216ZM77.7467 201.116C79.3847 201.116 80.4647 202.232 80.4647 203.906H74.8127C75.0287 202.196 76.1087 201.116 77.7467 201.116ZM86.1066 209.216C87.5826 209.216 88.7706 208.568 89.3106 207.47L89.4726 209H90.5166V203.366C90.5166 201.062 89.0406 200.054 87.0246 200.054C84.8826 200.054 83.4426 201.188 83.4426 202.952H84.5766C84.5766 201.782 85.4766 201.098 86.9886 201.098C88.2666 201.098 89.2926 201.638 89.2926 203.348V203.636L86.4126 203.87C84.3786 204.032 83.1546 205.04 83.1546 206.642C83.1546 208.172 84.2526 209.216 86.1066 209.216ZM86.3946 208.208C85.2066 208.208 84.4146 207.668 84.4146 206.606C84.4146 205.634 85.0806 204.914 86.7186 204.77L89.2926 204.572V205.04C89.2926 206.93 88.2306 208.208 86.3946 208.208ZM92.3969 204.662C92.3969 207.398 94.0709 209.216 96.5369 209.216C98.5169 209.216 100.065 208.046 100.479 206.264H99.2189C98.8769 207.38 97.8329 208.1 96.5369 208.1C94.7729 208.1 93.6209 206.714 93.6209 204.644C93.6209 202.502 94.8629 201.152 96.6269 201.152C97.8329 201.152 98.8769 201.818 99.2009 203.024H100.443C100.101 201.224 98.6249 200.054 96.6089 200.054C94.0709 200.054 92.3969 201.926 92.3969 204.662ZM103.602 208.982V204.248C103.602 202.574 104.574 201.188 106.446 201.188C107.796 201.188 108.75 201.908 108.75 203.942V209H109.992V203.672C109.992 201.476 108.966 200.054 106.68 200.054C105.222 200.054 104.16 200.756 103.602 201.8V195.878H102.36V208.982H103.602ZM118.702 209V204.446C118.702 202.484 119.71 201.188 121.492 201.188C122.932 201.188 123.85 201.908 123.85 203.942V209H125.092V203.672C125.092 201.476 124.102 200.054 121.708 200.054C120.448 200.054 119.296 200.684 118.72 201.8L118.54 200.288H117.46V209H118.702ZM131.221 209.216C133.273 209.216 134.623 208.226 135.091 206.39H133.903C133.579 207.542 132.661 208.154 131.239 208.154C129.367 208.154 128.251 206.93 128.161 204.806H135.091V204.194C135.091 201.728 133.489 200.054 131.131 200.054C128.647 200.054 126.955 201.926 126.955 204.644C126.955 207.38 128.665 209.216 131.221 209.216ZM131.131 201.116C132.769 201.116 133.849 202.232 133.849 203.906H128.197C128.413 202.196 129.493 201.116 131.131 201.116ZM138.685 209H139.927L141.727 203.528C141.961 202.808 142.105 202.286 142.231 201.818C142.339 202.34 142.483 202.88 142.699 203.528L144.499 209H145.705L148.657 200.288H147.361L145.633 205.544C145.327 206.48 145.291 206.696 145.111 207.416C144.949 206.768 144.733 206.012 144.571 205.544L142.861 200.288H141.583L139.855 205.544C139.765 205.832 139.477 206.714 139.333 207.416C139.153 206.714 138.991 206.12 138.793 205.544L137.083 200.288H135.805L138.685 209ZM156.496 209V195.878H155.254V209H156.496ZM162.792 209.216C164.844 209.216 166.194 208.226 166.662 206.39H165.474C165.15 207.542 164.232 208.154 162.81 208.154C160.938 208.154 159.822 206.93 159.732 204.806H166.662V204.194C166.662 201.728 165.06 200.054 162.702 200.054C160.218 200.054 158.526 201.926 158.526 204.644C158.526 207.38 160.236 209.216 162.792 209.216ZM162.702 201.116C164.34 201.116 165.42 202.232 165.42 203.906H159.768C159.984 202.196 161.064 201.116 162.702 201.116ZM170.849 209H172.091L175.709 200.288H174.431L172.145 205.904C171.893 206.534 171.659 207.11 171.497 207.704C171.335 207.128 171.101 206.534 170.867 205.904L168.617 200.288H167.285L170.849 209ZM180.44 209.216C182.492 209.216 183.842 208.226 184.31 206.39H183.122C182.798 207.542 181.88 208.154 180.458 208.154C178.586 208.154 177.47 206.93 177.38 204.806H184.31V204.194C184.31 201.728 182.708 200.054 180.35 200.054C177.866 200.054 176.174 201.926 176.174 204.644C176.174 207.38 177.884 209.216 180.44 209.216ZM180.35 201.116C181.988 201.116 183.068 202.232 183.068 203.906H177.416C177.632 202.196 178.712 201.116 180.35 201.116ZM187.592 209V195.878H186.35V209H187.592ZM189.496 206.552C189.496 208.172 190.72 209.216 192.682 209.216C194.662 209.216 195.994 208.19 195.994 206.624C195.994 205.364 195.31 204.662 193.798 204.284L192.304 203.906C191.35 203.672 190.882 203.204 190.882 202.538C190.882 201.602 191.566 201.08 192.79 201.08C193.96 201.08 194.662 201.674 194.698 202.682H195.904C195.85 201.062 194.662 200.054 192.826 200.054C190.954 200.054 189.676 201.026 189.676 202.556C189.676 203.744 190.414 204.536 191.926 204.914L193.42 205.292C194.446 205.544 194.806 205.958 194.806 206.678C194.806 207.614 194.014 208.19 192.664 208.19C191.44 208.19 190.684 207.56 190.684 206.552H189.496ZM202.418 204.644C202.418 207.29 204.29 209.216 206.846 209.216C209.402 209.216 211.274 207.29 211.274 204.644C211.274 201.98 209.402 200.054 206.846 200.054C204.29 200.054 202.418 201.98 202.418 204.644ZM203.678 204.626C203.678 202.61 204.974 201.17 206.846 201.17C208.7 201.17 210.014 202.61 210.014 204.626C210.014 206.678 208.7 208.1 206.846 208.1C204.974 208.1 203.678 206.678 203.678 204.626ZM212.219 200.288V201.332H213.551V209H214.793V201.332H216.845V200.288H214.793V198.596C214.793 197.57 215.081 197.012 216.179 197.012H216.917V195.95C216.629 195.896 216.269 195.878 215.963 195.878C214.631 195.878 213.551 196.634 213.551 198.596V200.288H212.219ZM222.932 204.392C222.932 206.768 224.444 208.73 226.928 208.73C228.422 208.73 229.628 208.01 230.222 206.786V208.856C230.222 210.674 229.034 211.88 227.252 211.88C225.686 211.88 224.606 211.052 224.336 209.648H223.094C223.436 211.754 225.002 213.014 227.234 213.014C229.79 213.014 231.446 211.322 231.446 208.73V200.288H230.366L230.24 202.034C229.682 200.756 228.53 200.054 227.018 200.054C224.462 200.054 222.932 202.016 222.932 204.392ZM224.174 204.374C224.174 202.61 225.254 201.152 227.126 201.152C229.034 201.152 230.114 202.52 230.114 204.374C230.114 206.246 228.998 207.614 227.108 207.614C225.272 207.614 224.174 206.156 224.174 204.374ZM238.592 200.18C238.286 200.108 238.052 200.09 237.782 200.09C236.558 200.09 235.64 200.702 235.298 201.638L235.208 200.288H234.038V209H235.28V204.032C235.28 202.376 236.306 201.296 237.908 201.296H238.592V200.18ZM239.297 204.644C239.297 207.29 241.169 209.216 243.725 209.216C246.281 209.216 248.153 207.29 248.153 204.644C248.153 201.98 246.281 200.054 243.725 200.054C241.169 200.054 239.297 201.98 239.297 204.644ZM240.557 204.626C240.557 202.61 241.853 201.17 243.725 201.17C245.579 201.17 246.893 202.61 246.893 204.626C246.893 206.678 245.579 208.1 243.725 208.1C241.853 208.1 240.557 206.678 240.557 204.626ZM251.589 209H252.831L254.631 203.528C254.865 202.808 255.009 202.286 255.135 201.818C255.243 202.34 255.387 202.88 255.603 203.528L257.403 209H258.609L261.561 200.288H260.265L258.537 205.544C258.231 206.48 258.195 206.696 258.015 207.416C257.853 206.768 257.637 206.012 257.475 205.544L255.765 200.288H254.487L252.759 205.544C252.669 205.832 252.381 206.714 252.237 207.416C252.057 206.714 251.895 206.12 251.697 205.544L249.987 200.288H248.709L251.589 209ZM265.11 209V201.332H266.856V200.288H265.11V197.534H263.886V200.288H262.14V201.332H263.886V209H265.11ZM269.716 208.982V204.248C269.716 202.574 270.688 201.188 272.56 201.188C273.91 201.188 274.864 201.908 274.864 203.942V209H276.106V203.672C276.106 201.476 275.08 200.054 272.794 200.054C271.336 200.054 270.274 200.756 269.716 201.8V195.878H268.474V208.982H269.716ZM279.643 209.198C280.255 209.198 280.777 208.694 280.777 208.1C280.777 207.488 280.255 206.966 279.643 206.966C279.031 206.966 278.509 207.488 278.509 208.1C278.509 208.694 279.031 209.198 279.643 209.198Z" fill="#0A0F0D" fill-opacity="0.8"/>
<defs>
<clipPath id="clip0_1_530">
<rect width="18" height="18" fill="white" transform="translate(131 506)"/>
</clipPath>
</defs>
</svg>
