<svg width="370" height="430" viewBox="0 0 370 430" fill="none" xmlns="http://www.w3.org/2000/svg">
<rect x="0.5" y="0.5" width="369" height="429" rx="13.5" fill="#EBFFDB" stroke="#0A0F0D"/>
<g clip-path="url(#clip0_1_205)">
<path fill-rule="evenodd" clip-rule="evenodd" d="M159.783 52.9844C159.783 64.5619 150.397 73.9471 138.82 73.9471C127.243 73.9471 117.857 64.5619 117.857 52.9844C117.857 41.4072 127.243 32.0219 138.82 32.0219C150.397 32.0219 159.783 41.4072 159.783 52.9844ZM130.431 61.278H140.821C140.98 61.278 141.06 61.0792 140.98 60.9399L132.585 50.5391C132.465 50.4 132.266 50.4595 132.226 50.6186L130.212 61.0195C130.192 61.1588 130.292 61.278 130.431 61.278ZM130.236 45.5782H140.625C140.765 45.5782 140.865 45.6975 140.845 45.8368L138.831 56.2377C138.791 56.3969 138.591 56.4564 138.472 56.3173L130.076 45.8964C129.977 45.7771 130.056 45.5782 130.236 45.5782ZM141.682 45.7373C141.702 45.6578 141.781 45.5782 141.881 45.5782H149.359C149.479 45.5782 149.599 45.6975 149.579 45.8169L148.183 52.5784C148.163 52.6778 148.083 52.7375 147.983 52.7375H147.764C144.075 52.7375 141.143 49.3368 141.682 45.7373Z" fill="#0A0F0D"/>
</g>
<path d="M34.0489 50.6713L62.2954 32.9208C62.8976 32.5886 63.5817 32.4136 64.2781 32.4136C64.9748 32.4136 65.6589 32.5886 66.2608 32.9208L94.5076 50.6713C94.8882 50.8464 95.209 51.1196 95.4337 51.4597C95.6581 51.7997 95.7773 52.1929 95.7773 52.5942C95.7773 52.9955 95.6581 53.3887 95.4337 53.7287C95.209 54.0688 94.8882 54.342 94.5076 54.5171L90.7205 56.8839C87.8955 52.6504 83.9879 49.1633 79.3608 46.747C74.7337 44.3306 69.5378 43.0636 64.2558 43.0636C58.974 43.0636 53.778 44.3306 49.1509 46.747C44.5239 49.1633 40.6162 52.6504 37.7913 56.8839L34.0043 54.5171C33.6298 54.3347 33.3164 54.0569 33.099 53.715C32.8816 53.373 32.7689 52.9804 32.7736 52.5811C32.7782 52.1818 32.9 51.7917 33.1252 51.4543C33.3505 51.117 33.6703 50.8458 34.0489 50.6713ZM64.2561 50.4599C60.2671 50.4685 56.3454 51.434 52.8556 53.2665C49.3658 55.0991 46.4213 57.7391 44.2961 60.941L50.8008 65.0408C52.1941 62.8486 54.1609 61.035 56.5105 59.7763C58.8601 58.5174 61.5129 57.8559 64.2114 57.8559C66.9097 57.8559 69.5625 58.5174 71.9121 59.7763C74.2618 61.035 76.2284 62.8486 77.6218 65.0408L84.1265 60.941C82.0323 57.7312 79.1067 55.0829 75.6286 53.2483C72.1507 51.4137 68.2356 50.4539 64.2561 50.4599ZM64.2561 65.2943C62.8501 65.3033 61.4715 65.6634 60.2592 66.3386C59.0467 67.0137 58.0434 67.98 57.3501 69.1402L61.7164 71.845C62.4267 72.4149 63.3258 72.7291 64.2561 72.7325C65.1874 72.7365 66.0894 72.4212 66.7955 71.845L71.1616 69.1402C70.4742 67.9753 69.4722 67.0051 68.2584 66.3291C67.0449 65.6532 65.6633 65.2962 64.2561 65.2943Z" fill="#0A0F0D"/>
<path d="M38.12 384V373.494C38.12 370.06 38.052 367.544 37.882 366.354L45.022 384H48.15L55.324 366.286C55.154 368.02 55.12 369.686 55.12 374.276V384H58.384V359.418H55.052L46.586 380.09L38.12 359.418H34.856V384H38.12ZM75.056 367.374V376.146C75.056 379.716 73.458 381.586 70.534 381.586C68.086 381.586 66.556 380.226 66.556 376.656V367.374H63.36V377.71C63.36 381.79 65.536 384.408 69.412 384.408C71.86 384.408 74.07 383.218 75.022 381.484L75.362 384H78.218V367.374H75.056ZM86.119 384V358.976H82.923V384H86.119ZM95.5157 384V370.06H98.7797V367.374H95.5157V362.172H92.3197V367.374H89.0557V370.06H92.3197V384H95.5157ZM103.212 363.43C104.368 363.43 105.32 362.478 105.32 361.322C105.32 360.132 104.368 359.214 103.212 359.214C102.056 359.214 101.104 360.132 101.104 361.322C101.104 362.478 102.056 363.43 103.212 363.43ZM101.648 384H104.844V367.374H101.648V384ZM109.484 391.446H112.68V381.28C113.768 383.32 115.978 384.442 118.63 384.442C123.56 384.442 126.348 380.634 126.348 375.568C126.348 370.468 123.39 366.898 118.63 366.898C115.978 366.898 113.734 368.088 112.612 370.366L112.374 367.374H109.484V391.446ZM112.714 375.704C112.714 372.236 114.686 369.822 117.95 369.822C121.214 369.822 123.152 372.27 123.152 375.704C123.152 379.104 121.214 381.552 117.95 381.552C114.686 381.552 112.714 379.104 112.714 375.704ZM133.135 384V358.976H129.939V384H133.135ZM145.013 384.408C149.127 384.408 151.915 382.402 152.731 378.832H149.739C149.195 380.736 147.563 381.756 145.081 381.756C141.919 381.756 140.083 379.818 139.845 376.316L152.697 376.282V375.092C152.697 370.162 149.603 366.898 144.877 366.898C140.049 366.898 136.751 370.502 136.751 375.704C136.751 380.872 140.117 384.408 145.013 384.408ZM144.877 369.584C147.699 369.584 149.501 371.42 149.501 374.174H139.913C140.321 371.25 142.089 369.584 144.877 369.584ZM164.204 379.172C164.204 382.334 166.686 384.408 170.596 384.408C174.54 384.408 177.26 382.402 177.26 379.24C177.26 376.758 175.866 375.466 173.044 374.786L170.12 374.072C168.488 373.664 167.672 372.916 167.672 371.794C167.672 370.264 168.794 369.38 170.8 369.38C172.738 369.38 173.86 370.434 173.928 372.1H176.988C176.92 368.938 174.54 366.898 170.902 366.898C167.23 366.898 164.646 368.836 164.646 371.896C164.646 374.344 166.04 375.806 168.998 376.52L171.922 377.2C173.656 377.642 174.2 378.322 174.2 379.444C174.2 380.974 172.908 381.892 170.664 381.892C168.556 381.892 167.264 380.872 167.264 379.172H164.204ZM179.716 375.67C179.716 380.804 183.388 384.408 188.386 384.408C193.35 384.408 197.022 380.804 197.022 375.67C197.022 370.536 193.35 366.932 188.386 366.932C183.388 366.932 179.716 370.536 179.716 375.67ZM182.946 375.67C182.946 372.202 185.156 369.788 188.386 369.788C191.582 369.788 193.826 372.202 193.826 375.67C193.826 379.138 191.582 381.552 188.386 381.552C185.156 381.552 182.946 379.138 182.946 375.67ZM211.654 367.374V376.146C211.654 379.716 210.056 381.586 207.132 381.586C204.684 381.586 203.154 380.226 203.154 376.656V367.374H199.958V377.71C199.958 381.79 202.134 384.408 206.01 384.408C208.458 384.408 210.668 383.218 211.62 381.484L211.96 384H214.816V367.374H211.654ZM228.973 367.238C228.327 367.102 227.851 367.034 227.273 367.034C224.995 367.034 223.329 368.19 222.649 369.924L222.445 367.408H219.453V384H222.649V375.194C222.649 371.998 224.519 370.162 227.545 370.162H228.973V367.238ZM230.285 375.704C230.285 380.94 233.515 384.408 238.411 384.408C242.423 384.408 245.517 381.994 246.163 378.39H242.967C242.389 380.362 240.689 381.552 238.411 381.552C235.385 381.552 233.447 379.24 233.447 375.67C233.447 372.066 235.521 369.754 238.547 369.754C240.689 369.754 242.389 370.876 242.933 372.984H246.129C245.551 369.278 242.627 366.898 238.445 366.898C233.583 366.898 230.285 370.502 230.285 375.704ZM256.709 384.408C260.823 384.408 263.611 382.402 264.427 378.832H261.435C260.891 380.736 259.259 381.756 256.777 381.756C253.615 381.756 251.779 379.818 251.541 376.316L264.393 376.282V375.092C264.393 370.162 261.299 366.898 256.573 366.898C251.745 366.898 248.447 370.502 248.447 375.704C248.447 380.872 251.813 384.408 256.709 384.408ZM256.573 369.584C259.395 369.584 261.197 371.42 261.197 374.174H251.609C252.017 371.25 253.785 369.584 256.573 369.584ZM266.602 379.172C266.602 382.334 269.084 384.408 272.994 384.408C276.938 384.408 279.658 382.402 279.658 379.24C279.658 376.758 278.264 375.466 275.442 374.786L272.518 374.072C270.886 373.664 270.07 372.916 270.07 371.794C270.07 370.264 271.192 369.38 273.198 369.38C275.136 369.38 276.258 370.434 276.326 372.1H279.386C279.318 368.938 276.938 366.898 273.3 366.898C269.628 366.898 267.044 368.836 267.044 371.896C267.044 374.344 268.438 375.806 271.396 376.52L274.32 377.2C276.054 377.642 276.598 378.322 276.598 379.444C276.598 380.974 275.306 381.892 273.062 381.892C270.954 381.892 269.662 380.872 269.662 379.172H266.602Z" fill="#0A0F0D"/>
<path d="M40.806 302.692C44.274 302.692 45.906 304.528 45.906 307.044C45.906 309.798 44.104 311.566 41.384 311.566C38.732 311.566 36.964 309.934 36.964 307.078H32.68C32.68 312.45 36.454 315.442 41.316 315.442C46.348 315.442 50.326 312.212 50.326 307.112C50.326 302.726 47.368 299.938 43.56 299.19L49.612 293.614V290.146H33.836V293.988H44.172L37.78 299.87V302.692H40.806Z" fill="#0A0F0D"/>
<defs>
<clipPath id="clip0_1_205">
<rect width="43.75" height="42" fill="white" transform="translate(117.625 32)"/>
</clipPath>
</defs>
</svg>
