<svg width="370" height="537" viewBox="0 0 370 537" fill="none" xmlns="http://www.w3.org/2000/svg">
<rect x="0.5" y="0.5" width="369" height="536" rx="13.5" fill="#EBFFDB" stroke="#0A0F0D"/>
<path d="M179 428L179 469" stroke="#191919" stroke-linejoin="round" stroke-dasharray="3.5 3.5"/>
<path d="M101.5 478C101.5 471.649 106.649 466.5 113 466.5H274C280.351 466.5 285.5 471.649 285.5 478V536.5H101.5V478Z" fill="white" stroke="#191919"/>
<path d="M94.5 472C94.5 465.649 99.6487 460.5 106 460.5H267C273.351 460.5 278.5 465.649 278.5 472V536.5H94.5V472Z" fill="white" stroke="#191919"/>
<path d="M87.5 465C87.5 458.649 92.6487 453.5 99 453.5H260C266.351 453.5 271.5 458.649 271.5 465V536.5H87.5V465Z" fill="white" stroke="#191919"/>
<path opacity="0.6" d="M112.366 475.601H111.092V485H116.5V483.817H112.366V475.601ZM118.274 477.135C118.716 477.135 119.08 476.771 119.08 476.329C119.08 475.874 118.716 475.523 118.274 475.523C117.832 475.523 117.468 475.874 117.468 476.329C117.468 476.771 117.832 477.135 118.274 477.135ZM117.676 485H118.898V478.643H117.676V485ZM119.996 478.643V479.67H120.932V485H122.154V479.67H123.662V478.643H122.154V477.629C122.154 476.94 122.362 476.537 123.155 476.537H123.701V475.484C123.454 475.445 123.181 475.432 122.947 475.432C121.79 475.432 120.932 476.069 120.932 477.629V478.643H119.996ZM127.351 485.156C128.924 485.156 129.99 484.389 130.302 483.024H129.158C128.95 483.752 128.326 484.142 127.377 484.142C126.168 484.142 125.466 483.401 125.375 482.062L130.289 482.049V481.594C130.289 479.709 129.106 478.461 127.299 478.461C125.453 478.461 124.192 479.839 124.192 481.828C124.192 483.804 125.479 485.156 127.351 485.156ZM127.299 479.488C128.378 479.488 129.067 480.19 129.067 481.243H125.401C125.557 480.125 126.233 479.488 127.299 479.488ZM133.384 485V479.67H134.632V478.643H133.384V476.654H132.162V478.643H130.914V479.67H132.162V485H133.384ZM136.327 477.135C136.769 477.135 137.133 476.771 137.133 476.329C137.133 475.874 136.769 475.523 136.327 475.523C135.885 475.523 135.521 475.874 135.521 476.329C135.521 476.771 135.885 477.135 136.327 477.135ZM135.729 485H136.951V478.643H135.729V485ZM139.947 485V481.23C139.947 480.216 140.558 479.579 141.481 479.579C142.339 479.579 142.885 480.125 142.885 481.126V485H144.094V481.23C144.094 480.216 144.705 479.566 145.628 479.566C146.486 479.566 147.045 480.138 147.045 481.139V485H148.241V480.84C148.241 479.371 147.357 478.461 145.901 478.461C144.913 478.461 144.146 478.955 143.847 479.748C143.522 478.955 142.82 478.461 141.832 478.461C140.935 478.461 140.259 478.877 139.934 479.475L139.817 478.643H138.725V485H139.947ZM152.678 485.156C154.251 485.156 155.317 484.389 155.629 483.024H154.485C154.277 483.752 153.653 484.142 152.704 484.142C151.495 484.142 150.793 483.401 150.702 482.062L155.616 482.049V481.594C155.616 479.709 154.433 478.461 152.626 478.461C150.78 478.461 149.519 479.839 149.519 481.828C149.519 483.804 150.806 485.156 152.678 485.156ZM152.626 479.488C153.705 479.488 154.394 480.19 154.394 481.243H150.728C150.884 480.125 151.56 479.488 152.626 479.488ZM162.316 485H163.525L166.177 478.643H164.903L163.486 482.192C163.265 482.751 163.057 483.297 162.953 483.713C162.849 483.323 162.667 482.79 162.446 482.192L161.055 478.643H159.755L162.316 485ZM168.717 485.156C169.744 485.156 170.615 484.701 170.94 483.973L171.07 485H172.11V481.009C172.11 479.293 171.044 478.461 169.471 478.461C167.833 478.461 166.741 479.332 166.741 480.658H167.807C167.807 479.891 168.392 479.436 169.419 479.436C170.277 479.436 170.914 479.813 170.914 480.879V481.061L168.912 481.217C167.417 481.334 166.546 482.062 166.546 483.232C166.546 484.389 167.352 485.156 168.717 485.156ZM169.068 484.207C168.275 484.207 167.781 483.869 167.781 483.193C167.781 482.569 168.223 482.153 169.302 482.049L170.927 481.919V482.257C170.927 483.453 170.225 484.207 169.068 484.207ZM175.05 485V475.432H173.828V485H175.05ZM181.243 478.643V481.997C181.243 483.362 180.632 484.077 179.514 484.077C178.578 484.077 177.993 483.557 177.993 482.192V478.643H176.771V482.595C176.771 484.155 177.603 485.156 179.085 485.156C180.021 485.156 180.866 484.701 181.23 484.038L181.36 485H182.452V478.643H181.243ZM186.841 485.156C188.414 485.156 189.48 484.389 189.792 483.024H188.648C188.44 483.752 187.816 484.142 186.867 484.142C185.658 484.142 184.956 483.401 184.865 482.062L189.779 482.049V481.594C189.779 479.709 188.596 478.461 186.789 478.461C184.943 478.461 183.682 479.839 183.682 481.828C183.682 483.804 184.969 485.156 186.841 485.156ZM186.789 479.488C187.868 479.488 188.557 480.19 188.557 481.243H184.891C185.047 480.125 185.723 479.488 186.789 479.488Z" fill="#0A0F0D"/>
<path d="M116.838 524.418H119.23V522.234C122.792 521.74 125.054 519.478 125.054 516.202C125.054 513.264 123.52 511.678 119.984 510.95L119.23 510.794V506.192C120.166 506.53 120.686 507.258 120.686 508.324H124.742C124.742 505.048 122.636 502.89 119.23 502.474V500.316H116.838V502.474C113.328 502.89 110.936 505.204 110.936 508.35C110.936 511.418 112.652 513.316 116.136 514.018L116.838 514.148V518.646C115.538 518.412 114.836 517.658 114.836 516.41H110.65C110.65 519.764 113.042 522 116.838 522.312V524.418ZM115.044 508.194C115.044 507.128 115.694 506.4 116.838 506.14V510.3C115.564 509.962 115.044 509.312 115.044 508.194ZM120.972 516.618C120.972 517.554 120.322 518.23 119.23 518.542V514.642C120.374 514.876 120.972 515.5 120.972 516.618ZM131.096 506.53V522H135.126V502.76H126.728V506.53H131.096ZM149.595 516.826C151.935 513.628 152.793 511.886 152.793 509.52C152.793 505.49 149.647 502.422 145.331 502.422C141.067 502.422 137.973 505.282 137.973 509.494C137.973 513.446 140.677 516.176 144.629 516.176C144.889 516.176 145.149 516.15 145.409 516.098L141.015 522H145.825L149.595 516.826ZM148.477 509.468C148.477 511.444 147.229 512.77 145.331 512.77C143.485 512.77 142.237 511.444 142.237 509.468C142.237 507.492 143.511 506.14 145.331 506.14C147.203 506.14 148.477 507.492 148.477 509.468ZM159.179 520.674C159.179 518.88 158.139 517.632 156.631 517.632C155.279 517.632 154.395 518.594 154.395 520.024C154.395 521.168 155.331 522.078 156.553 522.078C156.839 522.078 157.099 522.026 157.307 521.922C157.229 522.988 156.293 523.69 154.993 523.924V525.354C157.437 525.094 159.179 523.17 159.179 520.674ZM160.124 502.76V506.66H170.16L163.4 522H167.768L174.398 506.66V502.76H160.124ZM175.2 516.436C175.2 520.05 178.138 522.312 182.818 522.312C187.498 522.312 190.462 520.024 190.462 516.41C190.462 514.174 189.24 512.354 187.316 511.626C188.902 510.924 189.76 509.546 189.76 507.752C189.76 504.528 187.004 502.396 182.87 502.396C178.736 502.396 175.902 504.554 175.902 507.7C175.902 509.494 176.734 510.846 178.268 511.6C176.396 512.354 175.2 514.2 175.2 516.436ZM179.698 508.116C179.698 506.79 180.894 505.958 182.792 505.958C184.69 505.958 185.886 506.79 185.886 508.116C185.886 509.416 184.69 510.222 182.792 510.222C180.894 510.222 179.698 509.416 179.698 508.116ZM179.334 516.15C179.334 514.59 180.66 513.654 182.818 513.654C184.976 513.654 186.302 514.59 186.302 516.15C186.302 517.71 185.002 518.62 182.818 518.62C180.634 518.62 179.334 517.71 179.334 516.15ZM203.804 516.826C206.144 513.628 207.002 511.886 207.002 509.52C207.002 505.49 203.856 502.422 199.54 502.422C195.276 502.422 192.182 505.282 192.182 509.494C192.182 513.446 194.886 516.176 198.838 516.176C199.098 516.176 199.358 516.15 199.618 516.098L195.224 522H200.034L203.804 516.826ZM202.686 509.468C202.686 511.444 201.438 512.77 199.54 512.77C197.694 512.77 196.446 511.444 196.446 509.468C196.446 507.492 197.72 506.14 199.54 506.14C201.412 506.14 202.686 507.492 202.686 509.468Z" fill="#0A0F0D"/>
<path d="M136 366V418C136 423.523 140.477 428 146 428H188" stroke="#191919" stroke-linejoin="round" stroke-dasharray="4.5 4.5"/>
<circle cx="136.5" cy="358.5" r="17" fill="#FFFBA0" stroke="#191919"/>
<g clip-path="url(#clip0_1_595)">
<path d="M136.5 350.5C134.327 350.5 134.055 350.51 133.202 350.548C132.35 350.588 131.77 350.722 131.26 350.92C130.734 351.124 130.287 351.398 129.843 351.843C129.398 352.287 129.123 352.733 128.92 353.26C128.722 353.77 128.587 354.35 128.548 355.202C128.508 356.055 128.5 356.327 128.5 358.5C128.5 360.673 128.51 360.945 128.548 361.798C128.588 362.649 128.722 363.23 128.92 363.74C129.124 364.265 129.398 364.713 129.843 365.157C130.287 365.601 130.733 365.877 131.26 366.08C131.771 366.277 132.351 366.413 133.202 366.452C134.055 366.492 134.327 366.5 136.5 366.5C138.673 366.5 138.945 366.49 139.798 366.452C140.649 366.412 141.23 366.277 141.74 366.08C142.265 365.876 142.713 365.601 143.157 365.157C143.601 364.713 143.877 364.267 144.08 363.74C144.277 363.23 144.413 362.649 144.452 361.798C144.492 360.945 144.5 360.673 144.5 358.5C144.5 356.327 144.49 356.055 144.452 355.202C144.412 354.351 144.277 353.769 144.08 353.26C143.876 352.734 143.601 352.287 143.157 351.843C142.713 351.398 142.267 351.123 141.74 350.92C141.23 350.722 140.649 350.587 139.798 350.548C138.945 350.508 138.673 350.5 136.5 350.5ZM136.5 351.94C138.635 351.94 138.89 351.951 139.733 351.987C140.513 352.024 140.937 352.153 141.218 352.264C141.593 352.409 141.858 352.582 142.139 352.861C142.419 353.141 142.592 353.407 142.737 353.782C142.846 354.063 142.977 354.487 143.012 355.267C143.05 356.111 143.059 356.364 143.059 358.5C143.059 360.636 143.049 360.89 143.009 361.733C142.969 362.513 142.839 362.937 142.729 363.218C142.579 363.593 142.409 363.858 142.129 364.139C141.85 364.419 141.58 364.592 141.209 364.737C140.929 364.846 140.499 364.977 139.719 365.012C138.87 365.05 138.62 365.059 136.48 365.059C134.339 365.059 134.089 365.049 133.241 365.009C132.46 364.969 132.03 364.839 131.75 364.729C131.371 364.579 131.11 364.409 130.831 364.129C130.55 363.85 130.371 363.58 130.231 363.209C130.121 362.929 129.991 362.499 129.951 361.719C129.921 360.879 129.91 360.62 129.91 358.49C129.91 356.359 129.921 356.099 129.951 355.249C129.991 354.469 130.121 354.04 130.231 353.76C130.371 353.38 130.55 353.12 130.831 352.839C131.11 352.56 131.371 352.38 131.75 352.241C132.03 352.13 132.451 352 133.231 351.96C134.081 351.93 134.331 351.92 136.47 351.92L136.5 351.94ZM136.5 354.392C134.23 354.392 132.392 356.232 132.392 358.5C132.392 360.77 134.232 362.608 136.5 362.608C138.77 362.608 140.608 360.768 140.608 358.5C140.608 356.23 138.768 354.392 136.5 354.392ZM136.5 361.167C135.027 361.167 133.833 359.973 133.833 358.5C133.833 357.027 135.027 355.833 136.5 355.833C137.973 355.833 139.167 357.027 139.167 358.5C139.167 359.973 137.973 361.167 136.5 361.167ZM141.731 354.23C141.731 354.76 141.3 355.19 140.771 355.19C140.241 355.19 139.811 354.759 139.811 354.23C139.811 353.701 140.241 353.271 140.771 353.271C141.299 353.27 141.731 353.701 141.731 354.23Z" fill="#191919"/>
</g>
<path d="M129 428.5C129.276 428.5 129.5 428.276 129.5 428C129.5 427.724 129.276 427.5 129 427.5V428.5ZM126.375 427.5C126.099 427.5 125.875 427.724 125.875 428C125.875 428.276 126.099 428.5 126.375 428.5V427.5ZM121.125 428.5C121.401 428.5 121.625 428.276 121.625 428C121.625 427.724 121.401 427.5 121.125 427.5V428.5ZM115.875 427.5C115.599 427.5 115.375 427.724 115.375 428C115.375 428.276 115.599 428.5 115.875 428.5V427.5ZM110.625 428.5C110.901 428.5 111.125 428.276 111.125 428C111.125 427.724 110.901 427.5 110.625 427.5V428.5ZM106.145 427.319C105.875 427.266 105.611 427.442 105.558 427.713C105.504 427.984 105.68 428.247 105.951 428.3L106.145 427.319ZM102.166 426.731C102.395 426.885 102.706 426.823 102.859 426.594C103.013 426.364 102.951 426.054 102.722 425.9L102.166 426.731ZM100.1 423.278C99.9462 423.049 99.6357 422.987 99.4062 423.141C99.1767 423.294 99.1152 423.605 99.2689 423.834L100.1 423.278ZM97.6998 420.049C97.7534 420.32 98.0165 420.496 98.2874 420.442C98.5583 420.389 98.7344 420.125 98.6808 419.855L97.6998 420.049ZM98.5 415.8C98.5 415.524 98.2761 415.3 98 415.3C97.7239 415.3 97.5 415.524 97.5 415.8H98.5ZM97.5 411.4C97.5 411.676 97.7239 411.9 98 411.9C98.2761 411.9 98.5 411.676 98.5 411.4H97.5ZM98.5 407C98.5 406.724 98.2761 406.5 98 406.5C97.7239 406.5 97.5 406.724 97.5 407H98.5ZM97.5 402.6C97.5 402.876 97.7239 403.1 98 403.1C98.2761 403.1 98.5 402.876 98.5 402.6H97.5ZM98.5 398.2C98.5 397.924 98.2761 397.7 98 397.7C97.7239 397.7 97.5 397.924 97.5 398.2H98.5ZM97.5 393.8C97.5 394.076 97.7239 394.3 98 394.3C98.2761 394.3 98.5 394.076 98.5 393.8H97.5ZM98.5 389.4C98.5 389.124 98.2761 388.9 98 388.9C97.7239 388.9 97.5 389.124 97.5 389.4H98.5ZM97.5 385C97.5 385.276 97.7239 385.5 98 385.5C98.2761 385.5 98.5 385.276 98.5 385H97.5ZM98.5 380.6C98.5 380.324 98.2761 380.1 98 380.1C97.7239 380.1 97.5 380.324 97.5 380.6H98.5ZM97.5 376.2C97.5 376.476 97.7239 376.7 98 376.7C98.2761 376.7 98.5 376.476 98.5 376.2H97.5ZM98.5 371.8C98.5 371.524 98.2761 371.3 98 371.3C97.7239 371.3 97.5 371.524 97.5 371.8H98.5ZM97.5 367.4C97.5 367.676 97.7239 367.9 98 367.9C98.2761 367.9 98.5 367.676 98.5 367.4H97.5ZM98.5 363C98.5 362.724 98.2761 362.5 98 362.5C97.7239 362.5 97.5 362.724 97.5 363H98.5ZM97.5 358.6C97.5 358.876 97.7239 359.1 98 359.1C98.2761 359.1 98.5 358.876 98.5 358.6H97.5ZM98.5 354.2C98.5 353.924 98.2761 353.7 98 353.7C97.7239 353.7 97.5 353.924 97.5 354.2H98.5ZM97.5 349.8C97.5 350.076 97.7239 350.3 98 350.3C98.2761 350.3 98.5 350.076 98.5 349.8H97.5ZM98.5 345.4C98.5 345.124 98.2761 344.9 98 344.9C97.7239 344.9 97.5 345.124 97.5 345.4H98.5ZM97.5 341C97.5 341.276 97.7239 341.5 98 341.5C98.2761 341.5 98.5 341.276 98.5 341H97.5ZM98.5 336.6C98.5 336.324 98.2761 336.1 98 336.1C97.7239 336.1 97.5 336.324 97.5 336.6H98.5ZM97.5 332.2C97.5 332.476 97.7239 332.7 98 332.7C98.2761 332.7 98.5 332.476 98.5 332.2H97.5ZM98.6808 328.145C98.7344 327.875 98.5583 327.611 98.2874 327.558C98.0165 327.504 97.7534 327.68 97.6998 327.951L98.6808 328.145ZM99.2689 324.166C99.1152 324.395 99.1767 324.706 99.4062 324.859C99.6357 325.013 99.9462 324.951 100.1 324.722L99.2689 324.166ZM102.722 322.1C102.951 321.946 103.013 321.636 102.859 321.406C102.706 321.177 102.395 321.115 102.166 321.269L102.722 322.1ZM105.951 319.7C105.68 319.753 105.504 320.016 105.558 320.287C105.611 320.558 105.875 320.734 106.145 320.681L105.951 319.7ZM110.167 320.5C110.443 320.5 110.667 320.276 110.667 320C110.667 319.724 110.443 319.5 110.167 319.5V320.5ZM114.5 319.5C114.224 319.5 114 319.724 114 320C114 320.276 114.224 320.5 114.5 320.5V319.5ZM118.833 320.5C119.109 320.5 119.333 320.276 119.333 320C119.333 319.724 119.109 319.5 118.833 319.5V320.5ZM123.167 319.5C122.891 319.5 122.667 319.724 122.667 320C122.667 320.276 122.891 320.5 123.167 320.5V319.5ZM127.5 320.5C127.776 320.5 128 320.276 128 320C128 319.724 127.776 319.5 127.5 319.5V320.5ZM131.833 319.5C131.557 319.5 131.333 319.724 131.333 320C131.333 320.276 131.557 320.5 131.833 320.5V319.5ZM136.049 320.3C136.32 320.247 136.496 319.984 136.442 319.713C136.389 319.442 136.125 319.266 135.855 319.319L136.049 320.3ZM139.278 317.9C139.049 318.054 138.987 318.364 139.141 318.594C139.294 318.823 139.605 318.885 139.834 318.731L139.278 317.9ZM142.731 315.834C142.885 315.605 142.823 315.294 142.594 315.141C142.364 314.987 142.054 315.049 141.9 315.278L142.731 315.834ZM143.319 311.855C143.266 312.125 143.442 312.389 143.713 312.442C143.984 312.496 144.247 312.32 144.3 312.049L143.319 311.855ZM144.5 307.6C144.5 307.324 144.276 307.1 144 307.1C143.724 307.1 143.5 307.324 143.5 307.6H144.5ZM143.5 302.8C143.5 303.076 143.724 303.3 144 303.3C144.276 303.3 144.5 303.076 144.5 302.8H143.5ZM144.5 298C144.5 297.724 144.276 297.5 144 297.5C143.724 297.5 143.5 297.724 143.5 298H144.5ZM143.5 293.2C143.5 293.476 143.724 293.7 144 293.7C144.276 293.7 144.5 293.476 144.5 293.2H143.5ZM144.5 288.4C144.5 288.124 144.276 287.9 144 287.9C143.724 287.9 143.5 288.124 143.5 288.4H144.5ZM143.5 283.6C143.5 283.876 143.724 284.1 144 284.1C144.276 284.1 144.5 283.876 144.5 283.6H143.5ZM144.5 278.8C144.5 278.524 144.276 278.3 144 278.3C143.724 278.3 143.5 278.524 143.5 278.8H144.5ZM143.5 274C143.5 274.276 143.724 274.5 144 274.5C144.276 274.5 144.5 274.276 144.5 274H143.5ZM144.5 269.2C144.5 268.924 144.276 268.7 144 268.7C143.724 268.7 143.5 268.924 143.5 269.2H144.5ZM143.5 264.4C143.5 264.676 143.724 264.9 144 264.9C144.276 264.9 144.5 264.676 144.5 264.4H143.5ZM144.681 260.145C144.734 259.875 144.558 259.611 144.287 259.558C144.016 259.504 143.753 259.68 143.7 259.951L144.681 260.145ZM145.269 256.166C145.115 256.395 145.177 256.706 145.406 256.859C145.636 257.013 145.946 256.951 146.1 256.722L145.269 256.166ZM148.722 254.1C148.951 253.946 149.013 253.636 148.859 253.406C148.706 253.177 148.395 253.115 148.166 253.269L148.722 254.1ZM151.951 251.7C151.68 251.753 151.504 252.016 151.558 252.287C151.611 252.558 151.875 252.734 152.145 252.681L151.951 251.7ZM156.125 252.5C156.401 252.5 156.625 252.276 156.625 252C156.625 251.724 156.401 251.5 156.125 251.5V252.5ZM160.375 251.5C160.099 251.5 159.875 251.724 159.875 252C159.875 252.276 160.099 252.5 160.375 252.5V251.5ZM164.625 252.5C164.901 252.5 165.125 252.276 165.125 252C165.125 251.724 164.901 251.5 164.625 251.5V252.5ZM168.875 251.5C168.599 251.5 168.375 251.724 168.375 252C168.375 252.276 168.599 252.5 168.875 252.5V251.5ZM173.125 252.5C173.401 252.5 173.625 252.276 173.625 252C173.625 251.724 173.401 251.5 173.125 251.5V252.5ZM177.375 251.5C177.099 251.5 176.875 251.724 176.875 252C176.875 252.276 177.099 252.5 177.375 252.5V251.5ZM129 427.5H126.375V428.5H129V427.5ZM121.125 427.5H115.875V428.5H121.125V427.5ZM110.625 427.5H108V428.5H110.625V427.5ZM108 427.5C107.365 427.5 106.745 427.438 106.145 427.319L105.951 428.3C106.614 428.431 107.299 428.5 108 428.5V427.5ZM102.722 425.9C101.686 425.206 100.794 424.314 100.1 423.278L99.2689 423.834C100.035 424.979 101.021 425.965 102.166 426.731L102.722 425.9ZM98.6808 419.855C98.5623 419.255 98.5 418.635 98.5 418H97.5C97.5 418.701 97.5687 419.386 97.6998 420.049L98.6808 419.855ZM98.5 418V415.8H97.5V418H98.5ZM98.5 411.4V407H97.5V411.4H98.5ZM98.5 402.6V398.2H97.5V402.6H98.5ZM98.5 393.8V389.4H97.5V393.8H98.5ZM98.5 385V380.6H97.5V385H98.5ZM98.5 376.2V371.8H97.5V376.2H98.5ZM98.5 367.4V363H97.5V367.4H98.5ZM98.5 358.6V354.2H97.5V358.6H98.5ZM98.5 349.8V345.4H97.5V349.8H98.5ZM98.5 341V336.6H97.5V341H98.5ZM98.5 332.2V330H97.5V332.2H98.5ZM98.5 330C98.5 329.365 98.5623 328.745 98.6808 328.145L97.6998 327.951C97.5687 328.614 97.5 329.299 97.5 330H98.5ZM100.1 324.722C100.794 323.686 101.686 322.794 102.722 322.1L102.166 321.269C101.021 322.035 100.035 323.021 99.2689 324.166L100.1 324.722ZM106.145 320.681C106.745 320.562 107.365 320.5 108 320.5V319.5C107.299 319.5 106.614 319.569 105.951 319.7L106.145 320.681ZM108 320.5H110.167V319.5H108V320.5ZM114.5 320.5H118.833V319.5H114.5V320.5ZM123.167 320.5H127.5V319.5H123.167V320.5ZM131.833 320.5H134V319.5H131.833V320.5ZM134 320.5C134.701 320.5 135.386 320.431 136.049 320.3L135.855 319.319C135.255 319.438 134.635 319.5 134 319.5V320.5ZM139.834 318.731C140.979 317.965 141.965 316.979 142.731 315.834L141.9 315.278C141.206 316.314 140.314 317.206 139.278 317.9L139.834 318.731ZM144.3 312.049C144.431 311.386 144.5 310.701 144.5 310H143.5C143.5 310.635 143.438 311.255 143.319 311.855L144.3 312.049ZM144.5 310V307.6H143.5V310H144.5ZM144.5 302.8V298H143.5V302.8H144.5ZM144.5 293.2V288.4H143.5V293.2H144.5ZM144.5 283.6V278.8H143.5V283.6H144.5ZM144.5 274V269.2H143.5V274H144.5ZM144.5 264.4V262H143.5V264.4H144.5ZM144.5 262C144.5 261.365 144.562 260.745 144.681 260.145L143.7 259.951C143.569 260.614 143.5 261.299 143.5 262H144.5ZM146.1 256.722C146.794 255.686 147.686 254.794 148.722 254.1L148.166 253.269C147.021 254.035 146.035 255.021 145.269 256.166L146.1 256.722ZM152.145 252.681C152.745 252.562 153.365 252.5 154 252.5V251.5C153.299 251.5 152.614 251.569 151.951 251.7L152.145 252.681ZM154 252.5H156.125V251.5H154V252.5ZM160.375 252.5H164.625V251.5H160.375V252.5ZM168.875 252.5H173.125V251.5H168.875V252.5ZM177.375 252.5H179.5V251.5H177.375V252.5Z" fill="#191919"/>
<path d="M145 428.5C145.276 428.5 145.5 428.276 145.5 428C145.5 427.724 145.276 427.5 145 427.5V428.5ZM97.5 288.2C97.5 288.476 97.7239 288.7 98 288.7C98.2761 288.7 98.5 288.476 98.5 288.2H97.5ZM98.5 292.6C98.5 292.324 98.2761 292.1 98 292.1C97.7239 292.1 97.5 292.324 97.5 292.6H98.5ZM97.5 297C97.5 297.276 97.7239 297.5 98 297.5C98.2761 297.5 98.5 297.276 98.5 297H97.5ZM98.5 301.4C98.5 301.124 98.2761 300.9 98 300.9C97.7239 300.9 97.5 301.124 97.5 301.4H98.5ZM97.5 305.8C97.5 306.076 97.7239 306.3 98 306.3C98.2761 306.3 98.5 306.076 98.5 305.8H97.5ZM98.5 310.2C98.5 309.924 98.2761 309.7 98 309.7C97.7239 309.7 97.5 309.924 97.5 310.2H98.5ZM97.5 314.6C97.5 314.876 97.7239 315.1 98 315.1C98.2761 315.1 98.5 314.876 98.5 314.6H97.5ZM98.5 319C98.5 318.724 98.2761 318.5 98 318.5C97.7239 318.5 97.5 318.724 97.5 319H98.5ZM97.5 323.4C97.5 323.676 97.7239 323.9 98 323.9C98.2761 323.9 98.5 323.676 98.5 323.4H97.5ZM98.5 327.8C98.5 327.524 98.2761 327.3 98 327.3C97.7239 327.3 97.5 327.524 97.5 327.8H98.5ZM97.5 332.2C97.5 332.476 97.7239 332.7 98 332.7C98.2761 332.7 98.5 332.476 98.5 332.2H97.5ZM98.5 336.6C98.5 336.324 98.2761 336.1 98 336.1C97.7239 336.1 97.5 336.324 97.5 336.6H98.5ZM97.5 341C97.5 341.276 97.7239 341.5 98 341.5C98.2761 341.5 98.5 341.276 98.5 341H97.5ZM98.5 345.4C98.5 345.124 98.2761 344.9 98 344.9C97.7239 344.9 97.5 345.124 97.5 345.4H98.5ZM97.5 349.8C97.5 350.076 97.7239 350.3 98 350.3C98.2761 350.3 98.5 350.076 98.5 349.8H97.5ZM98.5 354.2C98.5 353.924 98.2761 353.7 98 353.7C97.7239 353.7 97.5 353.924 97.5 354.2H98.5ZM97.5 358.6C97.5 358.876 97.7239 359.1 98 359.1C98.2761 359.1 98.5 358.876 98.5 358.6H97.5ZM98.5 363C98.5 362.724 98.2761 362.5 98 362.5C97.7239 362.5 97.5 362.724 97.5 363H98.5ZM97.5 367.4C97.5 367.676 97.7239 367.9 98 367.9C98.2761 367.9 98.5 367.676 98.5 367.4H97.5ZM98.5 371.8C98.5 371.524 98.2761 371.3 98 371.3C97.7239 371.3 97.5 371.524 97.5 371.8H98.5ZM97.5 376.2C97.5 376.476 97.7239 376.7 98 376.7C98.2761 376.7 98.5 376.476 98.5 376.2H97.5ZM98.5 380.6C98.5 380.324 98.2761 380.1 98 380.1C97.7239 380.1 97.5 380.324 97.5 380.6H98.5ZM97.5 385C97.5 385.276 97.7239 385.5 98 385.5C98.2761 385.5 98.5 385.276 98.5 385H97.5ZM98.5 389.4C98.5 389.124 98.2761 388.9 98 388.9C97.7239 388.9 97.5 389.124 97.5 389.4H98.5ZM97.5 393.8C97.5 394.076 97.7239 394.3 98 394.3C98.2761 394.3 98.5 394.076 98.5 393.8H97.5ZM98.5 398.2C98.5 397.924 98.2761 397.7 98 397.7C97.7239 397.7 97.5 397.924 97.5 398.2H98.5ZM97.5 402.6C97.5 402.876 97.7239 403.1 98 403.1C98.2761 403.1 98.5 402.876 98.5 402.6H97.5ZM98.5 407C98.5 406.724 98.2761 406.5 98 406.5C97.7239 406.5 97.5 406.724 97.5 407H98.5ZM97.5 411.4C97.5 411.676 97.7239 411.9 98 411.9C98.2761 411.9 98.5 411.676 98.5 411.4H97.5ZM98.5 415.8C98.5 415.524 98.2761 415.3 98 415.3C97.7239 415.3 97.5 415.524 97.5 415.8H98.5ZM97.6998 420.049C97.7534 420.32 98.0165 420.496 98.2874 420.442C98.5583 420.389 98.7344 420.125 98.6808 419.855L97.6998 420.049ZM100.1 423.278C99.9462 423.049 99.6357 422.987 99.4062 423.141C99.1767 423.294 99.1152 423.605 99.2689 423.834L100.1 423.278ZM102.166 426.731C102.395 426.885 102.706 426.823 102.859 426.594C103.013 426.364 102.951 426.054 102.722 425.9L102.166 426.731ZM106.145 427.319C105.875 427.266 105.611 427.442 105.558 427.713C105.504 427.984 105.68 428.247 105.951 428.3L106.145 427.319ZM110.312 428.5C110.589 428.5 110.812 428.276 110.812 428C110.812 427.724 110.589 427.5 110.312 427.5V428.5ZM114.937 427.5C114.661 427.5 114.437 427.724 114.437 428C114.437 428.276 114.661 428.5 114.937 428.5V427.5ZM119.562 428.5C119.839 428.5 120.062 428.276 120.062 428C120.062 427.724 119.839 427.5 119.562 427.5V428.5ZM124.188 427.5C123.911 427.5 123.688 427.724 123.688 428C123.688 428.276 123.911 428.5 124.188 428.5V427.5ZM128.812 428.5C129.089 428.5 129.312 428.276 129.312 428C129.312 427.724 129.089 427.5 128.812 427.5V428.5ZM133.438 427.5C133.161 427.5 132.938 427.724 132.938 428C132.938 428.276 133.161 428.5 133.438 428.5V427.5ZM138.062 428.5C138.339 428.5 138.562 428.276 138.562 428C138.562 427.724 138.339 427.5 138.062 427.5V428.5ZM142.688 427.5C142.411 427.5 142.188 427.724 142.188 428C142.188 428.276 142.411 428.5 142.688 428.5V427.5ZM97.5 286V288.2H98.5V286H97.5ZM97.5 292.6V297H98.5V292.6H97.5ZM97.5 301.4V305.8H98.5V301.4H97.5ZM97.5 310.2V314.6H98.5V310.2H97.5ZM97.5 319V323.4H98.5V319H97.5ZM97.5 327.8V332.2H98.5V327.8H97.5ZM97.5 336.6V341H98.5V336.6H97.5ZM97.5 345.4V349.8H98.5V345.4H97.5ZM97.5 354.2V358.6H98.5V354.2H97.5ZM97.5 363V367.4H98.5V363H97.5ZM97.5 371.8V376.2H98.5V371.8H97.5ZM97.5 380.6V385H98.5V380.6H97.5ZM97.5 389.4V393.8H98.5V389.4H97.5ZM97.5 398.2V402.6H98.5V398.2H97.5ZM97.5 407V411.4H98.5V407H97.5ZM97.5 415.8V418H98.5V415.8H97.5ZM97.5 418C97.5 418.701 97.5687 419.386 97.6998 420.049L98.6808 419.855C98.5623 419.255 98.5 418.635 98.5 418H97.5ZM99.2689 423.834C100.035 424.979 101.021 425.965 102.166 426.731L102.722 425.9C101.686 425.206 100.794 424.314 100.1 423.278L99.2689 423.834ZM105.951 428.3C106.614 428.431 107.299 428.5 108 428.5V427.5C107.365 427.5 106.745 427.438 106.145 427.319L105.951 428.3ZM108 428.5H110.312V427.5H108V428.5ZM114.937 428.5H119.562V427.5H114.937V428.5ZM124.188 428.5H128.812V427.5H124.188V428.5ZM133.438 428.5H138.062V427.5H133.438V428.5ZM142.688 428.5H145V427.5H142.688V428.5Z" fill="#191919"/>
<path d="M136 428.5C136.276 428.5 136.5 428.276 136.5 428C136.5 427.724 136.276 427.5 136 427.5V428.5ZM59.5 328.3C59.5 328.576 59.7239 328.8 60 328.8C60.2761 328.8 60.5 328.576 60.5 328.3H59.5ZM60.5 332.9C60.5 332.624 60.2761 332.4 60 332.4C59.7239 332.4 59.5 332.624 59.5 332.9H60.5ZM59.5 337.5C59.5 337.776 59.7239 338 60 338C60.2761 338 60.5 337.776 60.5 337.5H59.5ZM60.5 342.1C60.5 341.824 60.2761 341.6 60 341.6C59.7239 341.6 59.5 341.824 59.5 342.1H60.5ZM59.5 346.7C59.5 346.976 59.7239 347.2 60 347.2C60.2761 347.2 60.5 346.976 60.5 346.7H59.5ZM60.5 351.3C60.5 351.024 60.2761 350.8 60 350.8C59.7239 350.8 59.5 351.024 59.5 351.3H60.5ZM59.5 355.9C59.5 356.176 59.7239 356.4 60 356.4C60.2761 356.4 60.5 356.176 60.5 355.9H59.5ZM60.5 360.5C60.5 360.224 60.2761 360 60 360C59.7239 360 59.5 360.224 59.5 360.5H60.5ZM59.5 365.1C59.5 365.376 59.7239 365.6 60 365.6C60.2761 365.6 60.5 365.376 60.5 365.1H59.5ZM60.5 369.7C60.5 369.424 60.2761 369.2 60 369.2C59.7239 369.2 59.5 369.424 59.5 369.7H60.5ZM59.5 374.3C59.5 374.576 59.7239 374.8 60 374.8C60.2761 374.8 60.5 374.576 60.5 374.3H59.5ZM60.5 378.9C60.5 378.624 60.2761 378.4 60 378.4C59.7239 378.4 59.5 378.624 59.5 378.9H60.5ZM59.5 383.5C59.5 383.776 59.7239 384 60 384C60.2761 384 60.5 383.776 60.5 383.5H59.5ZM60.5 388.1C60.5 387.824 60.2761 387.6 60 387.6C59.7239 387.6 59.5 387.824 59.5 388.1H60.5ZM59.5 392.7C59.5 392.976 59.7239 393.2 60 393.2C60.2761 393.2 60.5 392.976 60.5 392.7H59.5ZM60.5 397.3C60.5 397.024 60.2761 396.8 60 396.8C59.7239 396.8 59.5 397.024 59.5 397.3H60.5ZM59.5 401.9C59.5 402.176 59.7239 402.4 60 402.4C60.2761 402.4 60.5 402.176 60.5 401.9H59.5ZM60.5 406.5C60.5 406.224 60.2761 406 60 406C59.7239 406 59.5 406.224 59.5 406.5H60.5ZM59.5 411.1C59.5 411.376 59.7239 411.6 60 411.6C60.2761 411.6 60.5 411.376 60.5 411.1H59.5ZM60.5 415.7C60.5 415.424 60.2761 415.2 60 415.2C59.7239 415.2 59.5 415.424 59.5 415.7H60.5ZM59.6998 420.049C59.7534 420.32 60.0165 420.496 60.2874 420.442C60.5583 420.389 60.7344 420.125 60.6808 419.855L59.6998 420.049ZM62.0998 423.278C61.9462 423.049 61.6357 422.987 61.4062 423.141C61.1767 423.294 61.1152 423.605 61.2689 423.834L62.0998 423.278ZM64.1657 426.731C64.3951 426.885 64.7057 426.823 64.8593 426.594C65.0129 426.364 64.9515 426.054 64.722 425.9L64.1657 426.731ZM68.1454 427.319C67.8745 427.266 67.6115 427.442 67.5579 427.713C67.5043 427.984 67.6805 428.247 67.9513 428.3L68.1454 427.319ZM72.3571 428.5C72.6333 428.5 72.8571 428.276 72.8571 428C72.8571 427.724 72.6333 427.5 72.3571 427.5V428.5ZM77.0714 427.5C76.7953 427.5 76.5714 427.724 76.5714 428C76.5714 428.276 76.7953 428.5 77.0714 428.5V427.5ZM81.7857 428.5C82.0619 428.5 82.2857 428.276 82.2857 428C82.2857 427.724 82.0619 427.5 81.7857 427.5V428.5ZM86.5 427.5C86.2239 427.5 86 427.724 86 428C86 428.276 86.2239 428.5 86.5 428.5V427.5ZM91.2143 428.5C91.4904 428.5 91.7143 428.276 91.7143 428C91.7143 427.724 91.4904 427.5 91.2143 427.5V428.5ZM95.9286 427.5C95.6524 427.5 95.4286 427.724 95.4286 428C95.4286 428.276 95.6524 428.5 95.9286 428.5V427.5ZM100.643 428.5C100.919 428.5 101.143 428.276 101.143 428C101.143 427.724 100.919 427.5 100.643 427.5V428.5ZM105.357 427.5C105.081 427.5 104.857 427.724 104.857 428C104.857 428.276 105.081 428.5 105.357 428.5V427.5ZM110.071 428.5C110.348 428.5 110.571 428.276 110.571 428C110.571 427.724 110.348 427.5 110.071 427.5V428.5ZM114.786 427.5C114.51 427.5 114.286 427.724 114.286 428C114.286 428.276 114.51 428.5 114.786 428.5V427.5ZM119.5 428.5C119.776 428.5 120 428.276 120 428C120 427.724 119.776 427.5 119.5 427.5V428.5ZM124.214 427.5C123.938 427.5 123.714 427.724 123.714 428C123.714 428.276 123.938 428.5 124.214 428.5V427.5ZM128.929 428.5C129.205 428.5 129.429 428.276 129.429 428C129.429 427.724 129.205 427.5 128.929 427.5V428.5ZM133.643 427.5C133.367 427.5 133.143 427.724 133.143 428C133.143 428.276 133.367 428.5 133.643 428.5V427.5ZM59.5 326V328.3H60.5V326H59.5ZM59.5 332.9V337.5H60.5V332.9H59.5ZM59.5 342.1V346.7H60.5V342.1H59.5ZM59.5 351.3V355.9H60.5V351.3H59.5ZM59.5 360.5V365.1H60.5V360.5H59.5ZM59.5 369.7V374.3H60.5V369.7H59.5ZM59.5 378.9V383.5H60.5V378.9H59.5ZM59.5 388.1V392.7H60.5V388.1H59.5ZM59.5 397.3V401.9H60.5V397.3H59.5ZM59.5 406.5V411.1H60.5V406.5H59.5ZM59.5 415.7V418H60.5V415.7H59.5ZM59.5 418C59.5 418.701 59.5687 419.386 59.6998 420.049L60.6808 419.855C60.5623 419.255 60.5 418.635 60.5 418H59.5ZM61.2689 423.834C62.0353 424.979 63.0209 425.965 64.1657 426.731L64.722 425.9C63.6858 425.206 62.7936 424.314 62.0998 423.278L61.2689 423.834ZM67.9513 428.3C68.6143 428.431 69.2994 428.5 70 428.5V427.5C69.3649 427.5 68.7448 427.438 68.1454 427.319L67.9513 428.3ZM70 428.5H72.3571V427.5H70V428.5ZM77.0714 428.5H81.7857V427.5H77.0714V428.5ZM86.5 428.5H91.2143V427.5H86.5V428.5ZM95.9286 428.5H100.643V427.5H95.9286V428.5ZM105.357 428.5H110.071V427.5H105.357V428.5ZM114.786 428.5H119.5V427.5H114.786V428.5ZM124.214 428.5H128.929V427.5H124.214V428.5ZM133.643 428.5H136V427.5H133.643V428.5Z" fill="#191919"/>
<circle cx="60.5" cy="318.5" r="17" fill="#FFFBA0" stroke="#191919"/>
<g clip-path="url(#clip1_1_595)">
<path d="M68.5 318.549C68.5 314.131 64.918 310.549 60.5 310.549C56.082 310.549 52.5 314.131 52.5 318.549C52.5 322.542 55.4253 325.851 59.25 326.451V320.861H57.2187V318.548H59.25V316.787C59.25 314.782 60.4447 313.674 62.272 313.674C63.1467 313.674 64.0627 313.831 64.0627 313.831V315.799H63.0533C62.0593 315.799 61.7493 316.416 61.7493 317.049V318.549H63.968L63.6133 320.862H61.7493V326.452C65.5747 325.851 68.5 322.541 68.5 318.549Z" fill="#191919"/>
</g>
<circle cx="98.5" cy="276.5" r="17" fill="#FFFBA0" stroke="#191919"/>
<g clip-path="url(#clip2_1_595)">
<path d="M100.812 284.486L105.623 283.445C105.623 283.445 103.887 271.703 103.873 271.625C103.861 271.548 103.797 271.497 103.732 271.497C103.667 271.497 102.446 271.407 102.446 271.407C102.446 271.407 101.596 270.557 101.487 270.466C101.457 270.441 101.437 270.428 101.406 270.417L100.797 284.486H100.812ZM98.3941 276.037C98.3941 276.037 97.8541 275.754 97.2114 275.754C96.2467 275.754 96.2087 276.358 96.2087 276.515C96.2087 277.336 98.3687 277.658 98.3687 279.601C98.3687 281.131 97.4087 282.107 96.0981 282.107C94.5287 282.107 93.7381 281.131 93.7381 281.131L94.1687 279.74C94.1687 279.74 94.9987 280.451 95.6887 280.451C96.1387 280.451 96.3387 280.087 96.3387 279.829C96.3387 278.75 94.5694 278.7 94.5694 276.923C94.5467 275.432 95.6167 273.979 97.7874 273.979C98.6254 273.979 99.0374 274.22 99.0374 274.22L98.4074 276.03L98.3941 276.037ZM98.0341 269.053C98.1247 269.053 98.2147 269.079 98.3041 269.143C97.6481 269.453 96.9281 270.236 96.6321 271.805C96.1947 271.947 95.7701 272.075 95.3727 272.19C95.7187 271 96.5547 269.06 98.0341 269.06V269.053ZM98.8574 271.019V271.109C98.3547 271.264 97.8021 271.432 97.2614 271.6C97.5721 270.415 98.1501 269.837 98.6514 269.619C98.7801 269.953 98.8574 270.403 98.8574 271.019ZM99.2167 269.53C99.6794 269.579 99.9774 270.108 100.169 270.7C99.9367 270.776 99.6794 270.854 99.3974 270.944V270.776C99.3974 270.275 99.3334 269.862 99.2167 269.529V269.53ZM101.211 270.389C101.198 270.389 101.171 270.403 101.159 270.403C101.147 270.403 100.967 270.453 100.683 270.543C100.401 269.721 99.8994 268.963 99.0114 268.963H98.9347C98.6774 268.639 98.3667 268.5 98.0974 268.5C96.0267 268.5 95.0374 271.085 94.7274 272.397C93.9314 272.641 93.3521 272.821 93.2874 272.847C92.8374 272.989 92.8247 273.001 92.7727 273.427C92.7227 273.735 91.5527 282.802 91.5527 282.802L100.593 284.5L101.211 270.389Z" fill="#191919"/>
</g>
<circle cx="184.5" cy="251.5" r="17" fill="#FFFBA0" stroke="#191919"/>
<g clip-path="url(#clip3_1_595)">
<path d="M191.817 245.499V257.498C191.822 258.596 190.937 259.491 189.839 259.497C189.757 259.497 189.675 259.493 189.594 259.483C188.575 259.332 187.828 258.446 187.853 257.416V245.58C187.829 244.55 188.577 243.663 189.597 243.514C190.688 243.386 191.676 244.167 191.803 245.258C191.813 245.338 191.817 245.418 191.817 245.499V245.499ZM179.345 255.537C178.251 255.537 177.363 256.424 177.363 257.518C177.363 258.613 178.251 259.5 179.345 259.5C180.439 259.5 181.327 258.613 181.327 257.518C181.327 256.424 180.439 255.537 179.345 255.537ZM184.594 249.53C184.582 249.53 184.571 249.53 184.559 249.53C183.46 249.591 182.606 250.513 182.632 251.614V256.937C182.632 258.382 183.268 259.259 184.199 259.446C185.274 259.663 186.321 258.969 186.539 257.894C186.566 257.763 186.579 257.629 186.578 257.495V251.522C186.58 250.424 185.692 249.532 184.594 249.53Z" fill="#191919"/>
</g>
<path d="M233 375V418C233 423.523 228.523 428 223 428H202" stroke="#191919" stroke-linejoin="round" stroke-dasharray="4.5 4.5"/>
<circle cx="232.5" cy="370.5" r="17" fill="#FFFBA0" stroke="#191919"/>
<g clip-path="url(#clip4_1_595)">
<path d="M232.937 362.513C233.811 362.5 234.677 362.507 235.544 362.5C235.597 363.52 235.964 364.56 236.711 365.28C237.457 366.02 238.511 366.36 239.537 366.473V369.16C238.577 369.127 237.611 368.927 236.737 368.513C236.357 368.34 236.004 368.12 235.657 367.893C235.651 369.84 235.664 371.787 235.644 373.727C235.591 374.66 235.284 375.587 234.744 376.353C233.871 377.633 232.357 378.467 230.804 378.493C229.851 378.547 228.897 378.287 228.084 377.807C226.737 377.013 225.791 375.56 225.651 374C225.637 373.667 225.631 373.333 225.644 373.007C225.764 371.74 226.391 370.527 227.364 369.7C228.471 368.74 230.017 368.28 231.464 368.553C231.477 369.54 231.437 370.527 231.437 371.513C230.777 371.3 230.004 371.36 229.424 371.76C229.004 372.033 228.684 372.453 228.517 372.927C228.377 373.267 228.417 373.64 228.424 374C228.584 375.093 229.637 376.013 230.757 375.913C231.504 375.907 232.217 375.473 232.604 374.84C232.731 374.62 232.871 374.393 232.877 374.133C232.944 372.94 232.917 371.753 232.924 370.56C232.931 367.873 232.917 365.193 232.937 362.513Z" fill="#191919"/>
</g>
<path d="M309 306V418C309 423.523 304.523 428 299 428H187" stroke="#191919" stroke-linejoin="round" stroke-dasharray="4.5 4.5"/>
<circle cx="309.5" cy="297.5" r="17" fill="#FFFBA0" stroke="#191919"/>
<g clip-path="url(#clip5_1_595)">
<path fill-rule="evenodd" clip-rule="evenodd" d="M317.227 297.494C317.227 301.904 313.652 305.48 309.242 305.48C304.831 305.48 301.256 301.904 301.256 297.494C301.256 293.084 304.831 289.508 309.242 289.508C313.652 289.508 317.227 293.084 317.227 297.494ZM306.046 300.653H310.004C310.065 300.653 310.095 300.578 310.065 300.525L306.866 296.562C306.821 296.509 306.745 296.532 306.73 296.593L305.962 300.555C305.955 300.608 305.993 300.653 306.046 300.653ZM305.971 294.673H309.929C309.983 294.673 310.021 294.718 310.013 294.771L309.246 298.733C309.23 298.794 309.155 298.817 309.109 298.764L305.911 294.794C305.873 294.748 305.903 294.673 305.971 294.673ZM310.332 294.733C310.339 294.703 310.37 294.673 310.408 294.673H313.257C313.302 294.673 313.348 294.718 313.34 294.764L312.808 297.339C312.801 297.377 312.77 297.4 312.732 297.4H312.649C311.243 297.4 310.127 296.104 310.332 294.733Z" fill="#191919"/>
</g>
<path d="M232 428.5C231.724 428.5 231.5 428.276 231.5 428C231.5 427.724 231.724 427.5 232 427.5V428.5ZM234.417 427.5C234.693 427.5 234.917 427.724 234.917 428C234.917 428.276 234.693 428.5 234.417 428.5V427.5ZM239.25 428.5C238.974 428.5 238.75 428.276 238.75 428C238.75 427.724 238.974 427.5 239.25 427.5V428.5ZM244.083 427.5C244.359 427.5 244.583 427.724 244.583 428C244.583 428.276 244.359 428.5 244.083 428.5V427.5ZM248.917 428.5C248.641 428.5 248.417 428.276 248.417 428C248.417 427.724 248.641 427.5 248.917 427.5V428.5ZM253.75 427.5C254.026 427.5 254.25 427.724 254.25 428C254.25 428.276 254.026 428.5 253.75 428.5V427.5ZM258.583 428.5C258.307 428.5 258.083 428.276 258.083 428C258.083 427.724 258.307 427.5 258.583 427.5V428.5ZM262.855 427.319C263.125 427.266 263.389 427.442 263.442 427.713C263.496 427.984 263.32 428.247 263.049 428.3L262.855 427.319ZM266.834 426.731C266.605 426.885 266.294 426.823 266.141 426.594C265.987 426.364 266.049 426.054 266.278 425.9L266.834 426.731ZM268.9 423.278C269.054 423.049 269.364 422.987 269.594 423.141C269.823 423.294 269.885 423.605 269.731 423.834L268.9 423.278ZM271.3 420.049C271.247 420.32 270.984 420.496 270.713 420.442C270.442 420.389 270.266 420.125 270.319 419.855L271.3 420.049ZM270.5 415.852C270.5 415.576 270.724 415.352 271 415.352C271.276 415.352 271.5 415.576 271.5 415.852H270.5ZM271.5 411.557C271.5 411.833 271.276 412.057 271 412.057C270.724 412.057 270.5 411.833 270.5 411.557H271.5ZM270.5 407.261C270.5 406.985 270.724 406.761 271 406.761C271.276 406.761 271.5 406.985 271.5 407.261H270.5ZM271.5 402.966C271.5 403.242 271.276 403.466 271 403.466C270.724 403.466 270.5 403.242 270.5 402.966H271.5ZM270.5 398.67C270.5 398.394 270.724 398.17 271 398.17C271.276 398.17 271.5 398.394 271.5 398.67H270.5ZM271.5 394.375C271.5 394.651 271.276 394.875 271 394.875C270.724 394.875 270.5 394.651 270.5 394.375H271.5ZM270.5 390.08C270.5 389.803 270.724 389.58 271 389.58C271.276 389.58 271.5 389.803 271.5 390.08H270.5ZM271.5 385.784C271.5 386.06 271.276 386.284 271 386.284C270.724 386.284 270.5 386.06 270.5 385.784H271.5ZM270.5 381.489C270.5 381.212 270.724 380.989 271 380.989C271.276 380.989 271.5 381.212 271.5 381.489H270.5ZM271.5 377.193C271.5 377.469 271.276 377.693 271 377.693C270.724 377.693 270.5 377.469 270.5 377.193H271.5ZM270.5 372.898C270.5 372.622 270.724 372.398 271 372.398C271.276 372.398 271.5 372.622 271.5 372.898H270.5ZM271.5 368.602C271.5 368.878 271.276 369.102 271 369.102C270.724 369.102 270.5 368.878 270.5 368.602H271.5ZM270.5 364.307C270.5 364.031 270.724 363.807 271 363.807C271.276 363.807 271.5 364.031 271.5 364.307H270.5ZM271.5 360.011C271.5 360.287 271.276 360.511 271 360.511C270.724 360.511 270.5 360.287 270.5 360.011H271.5ZM270.5 355.716C270.5 355.44 270.724 355.216 271 355.216C271.276 355.216 271.5 355.44 271.5 355.716H270.5ZM271.5 351.42C271.5 351.697 271.276 351.92 271 351.92C270.724 351.92 270.5 351.697 270.5 351.42H271.5ZM270.5 347.125C270.5 346.849 270.724 346.625 271 346.625C271.276 346.625 271.5 346.849 271.5 347.125H270.5ZM271.5 342.83C271.5 343.106 271.276 343.33 271 343.33C270.724 343.33 270.5 343.106 270.5 342.83H271.5ZM270.5 338.534C270.5 338.258 270.724 338.034 271 338.034C271.276 338.034 271.5 338.258 271.5 338.534H270.5ZM271.5 334.239C271.5 334.515 271.276 334.739 271 334.739C270.724 334.739 270.5 334.515 270.5 334.239H271.5ZM270.5 329.943C270.5 329.667 270.724 329.443 271 329.443C271.276 329.443 271.5 329.667 271.5 329.943H270.5ZM271.5 325.648C271.5 325.924 271.276 326.148 271 326.148C270.724 326.148 270.5 325.924 270.5 325.648H271.5ZM270.319 321.645C270.266 321.375 270.442 321.111 270.713 321.058C270.984 321.004 271.247 321.18 271.3 321.451L270.319 321.645ZM269.731 317.666C269.885 317.895 269.823 318.206 269.594 318.359C269.364 318.513 269.054 318.451 268.9 318.222L269.731 317.666ZM266.278 315.6C266.049 315.446 265.987 315.136 266.141 314.906C266.294 314.677 266.605 314.615 266.834 314.769L266.278 315.6ZM263.049 313.2C263.32 313.253 263.496 313.516 263.442 313.787C263.389 314.058 263.125 314.234 262.855 314.181L263.049 313.2ZM258.675 314C258.399 314 258.175 313.776 258.175 313.5C258.175 313.224 258.399 313 258.675 313V314ZM254.025 313C254.301 313 254.525 313.224 254.525 313.5C254.525 313.776 254.301 314 254.025 314V313ZM249.375 314C249.099 314 248.875 313.776 248.875 313.5C248.875 313.224 249.099 313 249.375 313V314ZM244.725 313C245.001 313 245.225 313.224 245.225 313.5C245.225 313.776 245.001 314 244.725 314V313ZM240.075 314C239.799 314 239.575 313.776 239.575 313.5C239.575 313.224 239.799 313 240.075 313V314ZM235.425 313C235.701 313 235.925 313.224 235.925 313.5C235.925 313.776 235.701 314 235.425 314V313ZM230.775 314C230.499 314 230.275 313.776 230.275 313.5C230.275 313.224 230.499 313 230.775 313V314ZM226.125 313C226.401 313 226.625 313.224 226.625 313.5C226.625 313.776 226.401 314 226.125 314V313ZM221.475 314C221.199 314 220.975 313.776 220.975 313.5C220.975 313.224 221.199 313 221.475 313V314ZM216.825 313C217.101 313 217.325 313.224 217.325 313.5C217.325 313.776 217.101 314 216.825 314V313ZM232 427.5H234.417V428.5H232V427.5ZM239.25 427.5H244.083V428.5H239.25V427.5ZM248.917 427.5H253.75V428.5H248.917V427.5ZM258.583 427.5H261V428.5H258.583V427.5ZM261 427.5C261.635 427.5 262.255 427.438 262.855 427.319L263.049 428.3C262.386 428.431 261.701 428.5 261 428.5V427.5ZM266.278 425.9C267.314 425.206 268.206 424.314 268.9 423.278L269.731 423.834C268.965 424.979 267.979 425.965 266.834 426.731L266.278 425.9ZM270.319 419.855C270.438 419.255 270.5 418.635 270.5 418H271.5C271.5 418.701 271.431 419.386 271.3 420.049L270.319 419.855ZM270.5 418V415.852H271.5V418H270.5ZM270.5 411.557V407.261H271.5V411.557H270.5ZM270.5 402.966V398.67H271.5V402.966H270.5ZM270.5 394.375V390.08H271.5V394.375H270.5ZM270.5 385.784V381.489H271.5V385.784H270.5ZM270.5 377.193V372.898H271.5V377.193H270.5ZM270.5 368.602V364.307H271.5V368.602H270.5ZM270.5 360.011V355.716H271.5V360.011H270.5ZM270.5 351.42V347.125H271.5V351.42H270.5ZM270.5 342.83V338.534H271.5V342.83H270.5ZM270.5 334.239V329.943H271.5V334.239H270.5ZM270.5 325.648V323.5H271.5V325.648H270.5ZM270.5 323.5C270.5 322.865 270.438 322.245 270.319 321.645L271.3 321.451C271.431 322.114 271.5 322.799 271.5 323.5H270.5ZM268.9 318.222C268.206 317.186 267.314 316.294 266.278 315.6L266.834 314.769C267.979 315.535 268.965 316.521 269.731 317.666L268.9 318.222ZM262.855 314.181C262.255 314.062 261.635 314 261 314V313C261.701 313 262.386 313.069 263.049 313.2L262.855 314.181ZM261 314H258.675V313H261V314ZM254.025 314H249.375V313H254.025V314ZM244.725 314H240.075V313H244.725V314ZM235.425 314H230.775V313H235.425V314ZM226.125 314H221.475V313H226.125V314ZM216.825 314H214.5V313H216.825V314Z" fill="#191919"/>
<path d="M270.5 348C270.5 347.724 270.724 347.5 271 347.5C271.276 347.5 271.5 347.724 271.5 348H270.5ZM271.5 325.5C271.5 325.776 271.276 326 271 326C270.724 326 270.5 325.776 270.5 325.5H271.5ZM271.5 268.125C271.5 268.401 271.276 268.625 271 268.625C270.724 268.625 270.5 268.401 270.5 268.125H271.5ZM270.5 272.375C270.5 272.099 270.724 271.875 271 271.875C271.276 271.875 271.5 272.099 271.5 272.375H270.5ZM271.5 276.625C271.5 276.901 271.276 277.125 271 277.125C270.724 277.125 270.5 276.901 270.5 276.625H271.5ZM270.5 280.875C270.5 280.599 270.724 280.375 271 280.375C271.276 280.375 271.5 280.599 271.5 280.875H270.5ZM271.5 285.125C271.5 285.401 271.276 285.625 271 285.625C270.724 285.625 270.5 285.401 270.5 285.125H271.5ZM270.5 289.375C270.5 289.099 270.724 288.875 271 288.875C271.276 288.875 271.5 289.099 271.5 289.375H270.5ZM271.5 293.625C271.5 293.901 271.276 294.125 271 294.125C270.724 294.125 270.5 293.901 270.5 293.625H271.5ZM270.5 297.875C270.5 297.599 270.724 297.375 271 297.375C271.276 297.375 271.5 297.599 271.5 297.875H270.5ZM271.5 302.125C271.5 302.401 271.276 302.625 271 302.625C270.724 302.625 270.5 302.401 270.5 302.125H271.5ZM270.5 306.375C270.5 306.099 270.724 305.875 271 305.875C271.276 305.875 271.5 306.099 271.5 306.375H270.5ZM271.5 310.625C271.5 310.901 271.276 311.125 271 311.125C270.724 311.125 270.5 310.901 270.5 310.625H271.5ZM270.5 314.875C270.5 314.599 270.724 314.375 271 314.375C271.276 314.375 271.5 314.599 271.5 314.875H270.5ZM271.5 319.125C271.5 319.401 271.276 319.625 271 319.625C270.724 319.625 270.5 319.401 270.5 319.125H271.5ZM270.5 323.375C270.5 323.099 270.724 322.875 271 322.875C271.276 322.875 271.5 323.099 271.5 323.375H270.5ZM271.5 350.188C271.5 350.464 271.276 350.688 271 350.688C270.724 350.688 270.5 350.464 270.5 350.188H271.5ZM270.5 354.562C270.5 354.286 270.724 354.062 271 354.062C271.276 354.062 271.5 354.286 271.5 354.562H270.5ZM271.5 358.938C271.5 359.214 271.276 359.438 271 359.438C270.724 359.438 270.5 359.214 270.5 358.938H271.5ZM270.5 363.312C270.5 363.036 270.724 362.812 271 362.812C271.276 362.812 271.5 363.036 271.5 363.312H270.5ZM271.5 367.688C271.5 367.964 271.276 368.188 271 368.188C270.724 368.188 270.5 367.964 270.5 367.688H271.5ZM270.5 372.062C270.5 371.786 270.724 371.562 271 371.562C271.276 371.562 271.5 371.786 271.5 372.062H270.5ZM271.5 376.438C271.5 376.714 271.276 376.938 271 376.938C270.724 376.938 270.5 376.714 270.5 376.438H271.5ZM270.5 380.812C270.5 380.536 270.724 380.312 271 380.312C271.276 380.312 271.5 380.536 271.5 380.812H270.5ZM271.5 385.188C271.5 385.464 271.276 385.688 271 385.688C270.724 385.688 270.5 385.464 270.5 385.188H271.5ZM270.5 389.562C270.5 389.286 270.724 389.062 271 389.062C271.276 389.062 271.5 389.286 271.5 389.562H270.5ZM271.5 393.938C271.5 394.214 271.276 394.438 271 394.438C270.724 394.438 270.5 394.214 270.5 393.938H271.5ZM270.5 398.312C270.5 398.036 270.724 397.812 271 397.812C271.276 397.812 271.5 398.036 271.5 398.312H270.5ZM271.5 402.688C271.5 402.964 271.276 403.188 271 403.188C270.724 403.188 270.5 402.964 270.5 402.688H271.5ZM270.5 407.062C270.5 406.786 270.724 406.562 271 406.562C271.276 406.562 271.5 406.786 271.5 407.062H270.5ZM271.5 411.438C271.5 411.714 271.276 411.938 271 411.938C270.724 411.938 270.5 411.714 270.5 411.438H271.5ZM270.5 415.812C270.5 415.536 270.724 415.312 271 415.312C271.276 415.312 271.5 415.536 271.5 415.812H270.5ZM271.3 420.049C271.247 420.32 270.984 420.496 270.713 420.442C270.442 420.389 270.266 420.125 270.319 419.855L271.3 420.049ZM268.9 423.278C269.054 423.049 269.364 422.987 269.594 423.141C269.823 423.294 269.885 423.605 269.731 423.834L268.9 423.278ZM266.834 426.731C266.605 426.885 266.294 426.823 266.141 426.594C265.987 426.364 266.049 426.054 266.278 425.9L266.834 426.731ZM262.855 427.319C263.125 427.266 263.389 427.442 263.442 427.713C263.496 427.984 263.32 428.247 263.049 428.3L262.855 427.319ZM257.75 428.5C257.474 428.5 257.25 428.276 257.25 428C257.25 427.724 257.474 427.5 257.75 427.5V428.5ZM251.25 427.5C251.526 427.5 251.75 427.724 251.75 428C251.75 428.276 251.526 428.5 251.25 428.5V427.5ZM271.5 266V268.125H270.5V266H271.5ZM271.5 272.375V276.625H270.5V272.375H271.5ZM271.5 280.875V285.125H270.5V280.875H271.5ZM271.5 289.375V293.625H270.5V289.375H271.5ZM271.5 297.875V302.125H270.5V297.875H271.5ZM271.5 306.375V310.625H270.5V306.375H271.5ZM271.5 314.875V319.125H270.5V314.875H271.5ZM271.5 323.375V325.5H270.5V323.375H271.5ZM271.5 348V350.188H270.5V348H271.5ZM271.5 354.562V358.938H270.5V354.562H271.5ZM271.5 363.312V367.688H270.5V363.312H271.5ZM271.5 372.062V376.438H270.5V372.062H271.5ZM271.5 380.812V385.188H270.5V380.812H271.5ZM271.5 389.562V393.938H270.5V389.562H271.5ZM271.5 398.312V402.688H270.5V398.312H271.5ZM271.5 407.062V411.438H270.5V407.062H271.5ZM271.5 415.812V418H270.5V415.812H271.5ZM271.5 418C271.5 418.701 271.431 419.386 271.3 420.049L270.319 419.855C270.438 419.255 270.5 418.635 270.5 418H271.5ZM269.731 423.834C268.965 424.979 267.979 425.965 266.834 426.731L266.278 425.9C267.314 425.206 268.206 424.314 268.9 423.278L269.731 423.834ZM263.049 428.3C262.386 428.431 261.701 428.5 261 428.5V427.5C261.635 427.5 262.255 427.438 262.855 427.319L263.049 428.3ZM261 428.5H257.75V427.5H261V428.5ZM251.25 428.5H248V427.5H251.25V428.5Z" fill="#191919"/>
<circle cx="208.5" cy="313.5" r="17" fill="#FFFBA0" stroke="#191919"/>
<g clip-path="url(#clip6_1_595)">
<path d="M208.393 306.028C209.053 306.028 211.291 306.212 212.346 308.576C212.699 309.371 212.615 310.722 212.546 311.807L212.544 311.847C212.536 311.967 212.529 312.077 212.524 312.187C212.574 312.217 212.659 312.247 212.791 312.247C212.991 312.237 213.23 312.167 213.48 312.046C213.59 311.988 213.709 311.977 213.789 311.977C213.91 311.977 214.028 311.996 214.128 312.037C214.428 312.136 214.618 312.357 214.618 312.596C214.628 312.895 214.358 313.155 213.809 313.375C213.75 313.394 213.67 313.425 213.58 313.454C213.28 313.544 212.82 313.694 212.691 313.994C212.631 314.143 212.65 314.343 212.771 314.573L212.781 314.583C212.821 314.673 213.798 316.899 215.975 317.259C216.145 317.288 216.265 317.439 216.255 317.598C216.255 317.648 216.245 317.697 216.225 317.748C216.065 318.127 215.376 318.407 214.128 318.595C214.088 318.656 214.048 318.845 214.018 318.975C213.999 319.095 213.969 319.215 213.929 319.344C213.878 319.525 213.749 319.614 213.559 319.614H213.539C213.449 319.614 213.33 319.593 213.18 319.565C212.94 319.515 212.67 319.475 212.332 319.475C212.132 319.475 211.932 319.485 211.723 319.524C211.323 319.593 210.974 319.833 210.574 320.113C210.006 320.513 209.357 320.972 208.378 320.972C208.338 320.972 208.299 320.962 208.258 320.962H208.159C207.18 320.962 206.541 320.512 205.973 320.103C205.574 319.823 205.235 319.584 204.835 319.514C204.626 319.484 204.416 319.465 204.216 319.465C203.856 319.465 203.578 319.524 203.368 319.564C203.228 319.593 203.108 319.613 203.008 319.613C202.759 319.613 202.66 319.464 202.62 319.333C202.579 319.205 202.56 319.074 202.53 318.955C202.499 318.835 202.46 318.626 202.419 318.575C201.14 318.427 200.452 318.147 200.293 317.758C200.272 317.716 200.258 317.658 200.256 317.608C200.246 317.446 200.366 317.298 200.536 317.269C202.712 316.909 203.69 314.683 203.73 314.589L203.741 314.569C203.861 314.339 203.89 314.139 203.82 313.99C203.69 313.701 203.231 313.551 202.932 313.451C202.852 313.431 202.772 313.401 202.702 313.371C201.964 313.081 201.864 312.751 201.904 312.523C201.964 312.203 202.353 311.994 202.682 311.994C202.78 311.994 202.862 312.013 202.938 312.043C203.218 312.173 203.464 312.243 203.674 312.243C203.83 312.243 203.93 312.203 203.984 312.173L203.953 311.794C203.888 310.71 203.803 309.36 204.158 308.569C205.184 306.218 207.415 306.038 208.074 306.038L208.353 306.028H208.393V306.028Z" fill="#191919"/>
</g>
<circle cx="270.5" cy="262.5" r="17" fill="#FFFBA0" stroke="#191919"/>
<g clip-path="url(#clip7_1_595)">
<path d="M260.656 261.755L269.695 256.075C269.888 255.968 270.107 255.912 270.33 255.912C270.552 255.912 270.771 255.968 270.964 256.075L280.003 261.755C280.125 261.811 280.227 261.898 280.299 262.007C280.371 262.116 280.409 262.242 280.409 262.37C280.409 262.499 280.371 262.624 280.299 262.733C280.227 262.842 280.125 262.929 280.003 262.985L278.791 263.743C277.887 262.388 276.637 261.272 275.156 260.499C273.675 259.726 272.013 259.32 270.322 259.32C268.632 259.32 266.969 259.726 265.489 260.499C264.008 261.272 262.758 262.388 261.854 263.743L260.642 262.985C260.522 262.927 260.422 262.838 260.352 262.729C260.283 262.619 260.247 262.494 260.248 262.366C260.25 262.238 260.289 262.113 260.361 262.005C260.433 261.897 260.535 261.811 260.656 261.755ZM270.322 261.687C269.046 261.69 267.791 261.999 266.674 262.585C265.558 263.172 264.615 264.017 263.935 265.041L266.017 266.353C266.463 265.652 267.092 265.071 267.844 264.668C268.596 264.266 269.445 264.054 270.308 264.054C271.172 264.054 272.021 264.266 272.772 264.668C273.524 265.071 274.154 265.652 274.6 266.353L276.681 265.041C276.011 264.014 275.075 263.167 273.962 262.579C272.849 261.992 271.596 261.685 270.322 261.687ZM270.322 266.434C269.873 266.437 269.431 266.552 269.044 266.768C268.656 266.984 268.334 267.294 268.113 267.665L269.51 268.53C269.737 268.713 270.025 268.813 270.322 268.814C270.621 268.816 270.909 268.715 271.135 268.53L272.532 267.665C272.312 267.292 271.992 266.982 271.603 266.765C271.215 266.549 270.773 266.435 270.322 266.434Z" fill="#191919"/>
</g>
<path d="M33.566 153L34.826 149.58H40.766L42.026 153H43.376L38.588 140.112H36.986L32.252 153H33.566ZM37.616 141.93C37.688 141.75 37.76 141.516 37.778 141.408C37.796 141.534 37.886 141.75 37.94 141.93L40.352 148.446H35.222L37.616 141.93ZM46.1936 153V139.878H44.9516V153H46.1936ZM50.1311 153V139.878H48.8891V153H50.1311ZM56.8828 156.798C57.2788 156.888 57.6748 156.924 58.1968 156.924C59.4388 156.924 60.2848 156.366 60.7888 154.998L64.7848 144.288H63.5068L60.7528 151.884L57.9448 144.288H56.6308L60.1588 153.522L59.7808 154.548C59.3488 155.718 58.5928 155.772 57.8368 155.772H56.8828V156.798ZM65.3266 148.644C65.3266 151.29 67.1986 153.216 69.7546 153.216C72.3106 153.216 74.1826 151.29 74.1826 148.644C74.1826 145.98 72.3106 144.054 69.7546 144.054C67.1986 144.054 65.3266 145.98 65.3266 148.644ZM66.5866 148.626C66.5866 146.61 67.8826 145.17 69.7546 145.17C71.6086 145.17 72.9226 146.61 72.9226 148.626C72.9226 150.678 71.6086 152.1 69.7546 152.1C67.8826 152.1 66.5866 150.678 66.5866 148.626ZM82.0781 144.288V148.914C82.0781 150.984 81.0881 152.1 79.4141 152.1C78.0281 152.1 77.1101 151.362 77.1101 149.292V144.27H75.8501V149.688C75.8501 151.812 76.9661 153.216 79.0181 153.216C80.3861 153.216 81.5921 152.532 82.0781 151.524L82.2401 153H83.3201V144.288H82.0781ZM90.4613 144.18C90.1553 144.108 89.9213 144.09 89.6513 144.09C88.4273 144.09 87.5093 144.702 87.1673 145.638L87.0773 144.288H85.9073V153H87.1493V148.032C87.1493 146.376 88.1753 145.296 89.7773 145.296H90.4613V144.18ZM100.525 153.216C101.983 153.216 103.207 152.568 103.819 151.218L103.945 153H105.025V139.878H103.783V145.944C103.171 144.684 102.019 144.054 100.579 144.054C97.9866 144.054 96.4926 146.034 96.4926 148.662C96.4926 151.272 97.9866 153.216 100.525 153.216ZM100.741 152.082C98.8506 152.082 97.7526 150.642 97.7526 148.626C97.7526 146.628 98.8506 145.17 100.741 145.17C102.649 145.17 103.765 146.628 103.765 148.626C103.765 150.642 102.649 152.082 100.741 152.082ZM110.118 153.216C111.594 153.216 112.782 152.568 113.322 151.47L113.484 153H114.528V147.366C114.528 145.062 113.052 144.054 111.036 144.054C108.894 144.054 107.454 145.188 107.454 146.952H108.588C108.588 145.782 109.488 145.098 111 145.098C112.278 145.098 113.304 145.638 113.304 147.348V147.636L110.424 147.87C108.39 148.032 107.166 149.04 107.166 150.642C107.166 152.172 108.264 153.216 110.118 153.216ZM110.406 152.208C109.218 152.208 108.426 151.668 108.426 150.606C108.426 149.634 109.092 148.914 110.73 148.77L113.304 148.572V149.04C113.304 150.93 112.242 152.208 110.406 152.208ZM118.86 153V145.332H120.606V144.288H118.86V141.534H117.636V144.288H115.89V145.332H117.636V153H118.86ZM124.585 153.216C126.061 153.216 127.249 152.568 127.789 151.47L127.951 153H128.995V147.366C128.995 145.062 127.519 144.054 125.503 144.054C123.361 144.054 121.921 145.188 121.921 146.952H123.055C123.055 145.782 123.955 145.098 125.467 145.098C126.745 145.098 127.771 145.638 127.771 147.348V147.636L124.891 147.87C122.857 148.032 121.633 149.04 121.633 150.642C121.633 152.172 122.731 153.216 124.585 153.216ZM124.873 152.208C123.685 152.208 122.893 151.668 122.893 150.606C122.893 149.634 123.559 148.914 125.197 148.77L127.771 148.572V149.04C127.771 150.93 126.709 152.208 124.873 152.208ZM135.742 150.552C135.742 152.172 136.966 153.216 138.928 153.216C140.908 153.216 142.24 152.19 142.24 150.624C142.24 149.364 141.556 148.662 140.044 148.284L138.55 147.906C137.596 147.672 137.128 147.204 137.128 146.538C137.128 145.602 137.812 145.08 139.036 145.08C140.206 145.08 140.908 145.674 140.944 146.682H142.15C142.096 145.062 140.908 144.054 139.072 144.054C137.2 144.054 135.922 145.026 135.922 146.556C135.922 147.744 136.66 148.536 138.172 148.914L139.666 149.292C140.692 149.544 141.052 149.958 141.052 150.678C141.052 151.614 140.26 152.19 138.91 152.19C137.686 152.19 136.93 151.56 136.93 150.552H135.742ZM143.672 148.644C143.672 151.29 145.544 153.216 148.1 153.216C150.656 153.216 152.528 151.29 152.528 148.644C152.528 145.98 150.656 144.054 148.1 144.054C145.544 144.054 143.672 145.98 143.672 148.644ZM144.932 148.626C144.932 146.61 146.228 145.17 148.1 145.17C149.954 145.17 151.268 146.61 151.268 148.626C151.268 150.678 149.954 152.1 148.1 152.1C146.228 152.1 144.932 150.678 144.932 148.626ZM160.424 144.288V148.914C160.424 150.984 159.434 152.1 157.76 152.1C156.374 152.1 155.456 151.362 155.456 149.292V144.27H154.196V149.688C154.196 151.812 155.312 153.216 157.364 153.216C158.732 153.216 159.938 152.532 160.424 151.524L160.586 153H161.666V144.288H160.424ZM168.807 144.18C168.501 144.108 168.267 144.09 167.997 144.09C166.773 144.09 165.855 144.702 165.513 145.638L165.423 144.288H164.253V153H165.495V148.032C165.495 146.376 166.521 145.296 168.123 145.296H168.807V144.18ZM169.512 148.662C169.512 151.398 171.186 153.216 173.652 153.216C175.632 153.216 177.18 152.046 177.594 150.264H176.334C175.992 151.38 174.948 152.1 173.652 152.1C171.888 152.1 170.736 150.714 170.736 148.644C170.736 146.502 171.978 145.152 173.742 145.152C174.948 145.152 175.992 145.818 176.316 147.024H177.558C177.216 145.224 175.74 144.054 173.724 144.054C171.186 144.054 169.512 145.926 169.512 148.662ZM183.13 153.216C185.182 153.216 186.532 152.226 187 150.39H185.812C185.488 151.542 184.57 152.154 183.148 152.154C181.276 152.154 180.16 150.93 180.07 148.806H187V148.194C187 145.728 185.398 144.054 183.04 144.054C180.556 144.054 178.864 145.926 178.864 148.644C178.864 151.38 180.574 153.216 183.13 153.216ZM183.04 145.116C184.678 145.116 185.758 146.232 185.758 147.906H180.106C180.322 146.196 181.402 145.116 183.04 145.116ZM188.247 150.552C188.247 152.172 189.471 153.216 191.433 153.216C193.413 153.216 194.745 152.19 194.745 150.624C194.745 149.364 194.061 148.662 192.549 148.284L191.055 147.906C190.101 147.672 189.633 147.204 189.633 146.538C189.633 145.602 190.317 145.08 191.541 145.08C192.711 145.08 193.413 145.674 193.449 146.682H194.655C194.601 145.062 193.413 144.054 191.577 144.054C189.705 144.054 188.427 145.026 188.427 146.556C188.427 147.744 189.165 148.536 190.677 148.914L192.171 149.292C193.197 149.544 193.557 149.958 193.557 150.678C193.557 151.614 192.765 152.19 191.415 152.19C190.191 152.19 189.435 151.56 189.435 150.552H188.247ZM203.78 153V145.332H205.526V144.288H203.78V141.534H202.556V144.288H200.81V145.332H202.556V153H203.78ZM206.444 148.644C206.444 151.29 208.316 153.216 210.872 153.216C213.428 153.216 215.3 151.29 215.3 148.644C215.3 145.98 213.428 144.054 210.872 144.054C208.316 144.054 206.444 145.98 206.444 148.644ZM207.704 148.626C207.704 146.61 209 145.17 210.872 145.17C212.726 145.17 214.04 146.61 214.04 148.626C214.04 150.678 212.726 152.1 210.872 152.1C209 152.1 207.704 150.678 207.704 148.626ZM216.692 148.392C216.692 150.768 218.204 152.73 220.688 152.73C222.182 152.73 223.388 152.01 223.982 150.786V152.856C223.982 154.674 222.794 155.88 221.012 155.88C219.446 155.88 218.366 155.052 218.096 153.648H216.854C217.196 155.754 218.762 157.014 220.994 157.014C223.55 157.014 225.206 155.322 225.206 152.73V144.288H224.126L224 146.034C223.442 144.756 222.29 144.054 220.778 144.054C218.222 144.054 216.692 146.016 216.692 148.392ZM217.934 148.374C217.934 146.61 219.014 145.152 220.886 145.152C222.794 145.152 223.874 146.52 223.874 148.374C223.874 150.246 222.758 151.614 220.868 151.614C219.032 151.614 217.934 150.156 217.934 148.374ZM231.452 153.216C233.504 153.216 234.854 152.226 235.322 150.39H234.134C233.81 151.542 232.892 152.154 231.47 152.154C229.598 152.154 228.482 150.93 228.392 148.806H235.322V148.194C235.322 145.728 233.72 144.054 231.362 144.054C228.878 144.054 227.186 145.926 227.186 148.644C227.186 151.38 228.896 153.216 231.452 153.216ZM231.362 145.116C233 145.116 234.08 146.232 234.08 147.906H228.428C228.644 146.196 229.724 145.116 231.362 145.116ZM239.218 153V145.332H240.964V144.288H239.218V141.534H237.994V144.288H236.248V145.332H237.994V153H239.218ZM243.823 152.982V148.248C243.823 146.574 244.795 145.188 246.667 145.188C248.017 145.188 248.971 145.908 248.971 147.942V153H250.213V147.672C250.213 145.476 249.187 144.054 246.901 144.054C245.443 144.054 244.381 144.756 243.823 145.8V139.878H242.581V152.982H243.823ZM256.343 153.216C258.395 153.216 259.745 152.226 260.213 150.39H259.025C258.701 151.542 257.783 152.154 256.361 152.154C254.489 152.154 253.373 150.93 253.283 148.806H260.213V148.194C260.213 145.728 258.611 144.054 256.253 144.054C253.769 144.054 252.077 145.926 252.077 148.644C252.077 151.38 253.787 153.216 256.343 153.216ZM256.253 145.116C257.891 145.116 258.971 146.232 258.971 147.906H253.319C253.535 146.196 254.615 145.116 256.253 145.116ZM266.752 144.18C266.446 144.108 266.212 144.09 265.942 144.09C264.718 144.09 263.8 144.702 263.458 145.638L263.368 144.288H262.198V153H263.44V148.032C263.44 146.376 264.466 145.296 266.068 145.296H266.752V144.18ZM275.394 153V145.332H277.14V144.288H275.394V141.534H274.17V144.288H272.424V145.332H274.17V153H275.394ZM278.057 148.644C278.057 151.29 279.929 153.216 282.485 153.216C285.041 153.216 286.913 151.29 286.913 148.644C286.913 145.98 285.041 144.054 282.485 144.054C279.929 144.054 278.057 145.98 278.057 148.644ZM279.317 148.626C279.317 146.61 280.613 145.17 282.485 145.17C284.339 145.17 285.653 146.61 285.653 148.626C285.653 150.678 284.339 152.1 282.485 152.1C280.613 152.1 279.317 150.678 279.317 148.626ZM33.296 184.798H34.538V179.326C35.15 180.586 36.32 181.216 37.796 181.216C40.37 181.216 41.828 179.236 41.828 176.608C41.828 173.98 40.316 172.054 37.796 172.054C36.338 172.054 35.114 172.702 34.502 174.052L34.376 172.288H33.296V184.798ZM34.556 176.644C34.556 174.628 35.672 173.188 37.58 173.188C39.47 173.188 40.568 174.628 40.568 176.644C40.568 178.642 39.47 180.1 37.58 180.1C35.672 180.1 34.556 178.642 34.556 176.644ZM48.3617 172.18C48.0557 172.108 47.8217 172.09 47.5517 172.09C46.3277 172.09 45.4097 172.702 45.0677 173.638L44.9777 172.288H43.8077V181H45.0497V176.032C45.0497 174.376 46.0757 173.296 47.6777 173.296H48.3617V172.18ZM49.0668 176.644C49.0668 179.29 50.9388 181.216 53.4948 181.216C56.0508 181.216 57.9228 179.29 57.9228 176.644C57.9228 173.98 56.0508 172.054 53.4948 172.054C50.9388 172.054 49.0668 173.98 49.0668 176.644ZM50.3268 176.626C50.3268 174.61 51.6228 173.17 53.4948 173.17C55.3488 173.17 56.6628 174.61 56.6628 176.626C56.6628 178.678 55.3488 180.1 53.4948 180.1C51.6228 180.1 50.3268 178.678 50.3268 176.626ZM61.9526 181H63.1946L66.8126 172.288H65.5346L63.2486 177.904C62.9966 178.534 62.7626 179.11 62.6006 179.704C62.4386 179.128 62.2046 178.534 61.9706 177.904L59.7206 172.288H58.3886L61.9526 181ZM68.8885 169.894C69.3925 169.894 69.8245 169.48 69.8245 168.976C69.8245 168.472 69.3925 168.04 68.8885 168.04C68.3845 168.04 67.9705 168.472 67.9705 168.976C67.9705 169.48 68.3845 169.894 68.8885 169.894ZM68.2765 181H69.5185V172.288H68.2765V181ZM75.5285 181.216C76.9865 181.216 78.2105 180.568 78.8225 179.218L78.9485 181H80.0285V167.878H78.7865V173.944C78.1745 172.684 77.0225 172.054 75.5825 172.054C72.9905 172.054 71.4965 174.034 71.4965 176.662C71.4965 179.272 72.9905 181.216 75.5285 181.216ZM75.7445 180.082C73.8545 180.082 72.7565 178.642 72.7565 176.626C72.7565 174.628 73.8545 173.17 75.7445 173.17C77.6525 173.17 78.7685 174.628 78.7685 176.626C78.7685 178.642 77.6525 180.082 75.7445 180.082ZM86.2742 181.216C88.3262 181.216 89.6762 180.226 90.1442 178.39H88.9562C88.6322 179.542 87.7142 180.154 86.2922 180.154C84.4202 180.154 83.3042 178.93 83.2142 176.806H90.1442V176.194C90.1442 173.728 88.5422 172.054 86.1842 172.054C83.7002 172.054 82.0082 173.926 82.0082 176.644C82.0082 179.38 83.7182 181.216 86.2742 181.216ZM86.1842 173.116C87.8222 173.116 88.9022 174.232 88.9022 175.906H83.2502C83.4662 174.196 84.5462 173.116 86.1842 173.116ZM96.2402 184.798C96.6362 184.888 97.0322 184.924 97.5542 184.924C98.7962 184.924 99.6422 184.366 100.146 182.998L104.142 172.288H102.864L100.11 179.884L97.3022 172.288H95.9882L99.5162 181.522L99.1382 182.548C98.7062 183.718 97.9502 183.772 97.1942 183.772H96.2402V184.798ZM104.684 176.644C104.684 179.29 106.556 181.216 109.112 181.216C111.668 181.216 113.54 179.29 113.54 176.644C113.54 173.98 111.668 172.054 109.112 172.054C106.556 172.054 104.684 173.98 104.684 176.644ZM105.944 176.626C105.944 174.61 107.24 173.17 109.112 173.17C110.966 173.17 112.28 174.61 112.28 176.626C112.28 178.678 110.966 180.1 109.112 180.1C107.24 180.1 105.944 178.678 105.944 176.626ZM121.436 172.288V176.914C121.436 178.984 120.446 180.1 118.772 180.1C117.386 180.1 116.468 179.362 116.468 177.292V172.27H115.208V177.688C115.208 179.812 116.324 181.216 118.376 181.216C119.744 181.216 120.95 180.532 121.436 179.524L121.598 181H122.678V172.288H121.436ZM132.093 181H133.335L135.135 175.528C135.369 174.808 135.513 174.286 135.639 173.818C135.747 174.34 135.891 174.88 136.107 175.528L137.907 181H139.113L142.065 172.288H140.769L139.041 177.544C138.735 178.48 138.699 178.696 138.519 179.416C138.357 178.768 138.141 178.012 137.979 177.544L136.269 172.288H134.991L133.263 177.544C133.173 177.832 132.885 178.714 132.741 179.416C132.561 178.714 132.399 178.12 132.201 177.544L130.491 172.288H129.213L132.093 181ZM144.228 169.894C144.732 169.894 145.164 169.48 145.164 168.976C145.164 168.472 144.732 168.04 144.228 168.04C143.724 168.04 143.31 168.472 143.31 168.976C143.31 169.48 143.724 169.894 144.228 169.894ZM143.616 181H144.858V172.288H143.616V181ZM149.446 181V173.332H151.192V172.288H149.446V169.534H148.222V172.288H146.476V173.332H148.222V181H149.446ZM154.052 180.982V176.248C154.052 174.574 155.024 173.188 156.896 173.188C158.246 173.188 159.2 173.908 159.2 175.942V181H160.442V175.672C160.442 173.476 159.416 172.054 157.13 172.054C155.672 172.054 154.61 172.756 154.052 173.8V167.878H152.81V180.982H154.052ZM170.411 181.216C171.887 181.216 173.075 180.568 173.615 179.47L173.777 181H174.821V175.366C174.821 173.062 173.345 172.054 171.329 172.054C169.187 172.054 167.747 173.188 167.747 174.952H168.881C168.881 173.782 169.781 173.098 171.293 173.098C172.571 173.098 173.597 173.638 173.597 175.348V175.636L170.717 175.87C168.683 176.032 167.459 177.04 167.459 178.642C167.459 180.172 168.557 181.216 170.411 181.216ZM170.699 180.208C169.511 180.208 168.719 179.668 168.719 178.606C168.719 177.634 169.385 176.914 171.023 176.77L173.597 176.572V177.04C173.597 178.93 172.535 180.208 170.699 180.208ZM181.568 178.552C181.568 180.172 182.792 181.216 184.754 181.216C186.734 181.216 188.066 180.19 188.066 178.624C188.066 177.364 187.382 176.662 185.87 176.284L184.376 175.906C183.422 175.672 182.954 175.204 182.954 174.538C182.954 173.602 183.638 173.08 184.862 173.08C186.032 173.08 186.734 173.674 186.77 174.682H187.976C187.922 173.062 186.734 172.054 184.898 172.054C183.026 172.054 181.748 173.026 181.748 174.556C181.748 175.744 182.486 176.536 183.998 176.914L185.492 177.292C186.518 177.544 186.878 177.958 186.878 178.678C186.878 179.614 186.086 180.19 184.736 180.19C183.512 180.19 182.756 179.56 182.756 178.552H181.568ZM190.722 169.894C191.226 169.894 191.658 169.48 191.658 168.976C191.658 168.472 191.226 168.04 190.722 168.04C190.218 168.04 189.804 168.472 189.804 168.976C189.804 169.48 190.218 169.894 190.722 169.894ZM190.11 181H191.352V172.288H190.11V181ZM195.184 181V176.446C195.184 174.484 196.192 173.188 197.974 173.188C199.414 173.188 200.332 173.908 200.332 175.942V181H201.574V175.672C201.574 173.476 200.584 172.054 198.19 172.054C196.93 172.054 195.778 172.684 195.202 173.8L195.022 172.288H193.942V181H195.184ZM203.456 176.392C203.456 178.768 204.968 180.73 207.452 180.73C208.946 180.73 210.152 180.01 210.746 178.786V180.856C210.746 182.674 209.558 183.88 207.776 183.88C206.21 183.88 205.13 183.052 204.86 181.648H203.618C203.96 183.754 205.526 185.014 207.758 185.014C210.314 185.014 211.97 183.322 211.97 180.73V172.288H210.89L210.764 174.034C210.206 172.756 209.054 172.054 207.542 172.054C204.986 172.054 203.456 174.016 203.456 176.392ZM204.698 176.374C204.698 174.61 205.778 173.152 207.65 173.152C209.558 173.152 210.638 174.52 210.638 176.374C210.638 178.246 209.522 179.614 207.632 179.614C205.796 179.614 204.698 178.156 204.698 176.374ZM215.858 181V167.878H214.616V181H215.858ZM222.153 181.216C224.205 181.216 225.555 180.226 226.023 178.39H224.835C224.511 179.542 223.593 180.154 222.171 180.154C220.299 180.154 219.183 178.93 219.093 176.806H226.023V176.194C226.023 173.728 224.421 172.054 222.063 172.054C219.579 172.054 217.887 173.926 217.887 176.644C217.887 179.38 219.597 181.216 222.153 181.216ZM222.063 173.116C223.701 173.116 224.781 174.232 224.781 175.906H219.129C219.345 174.196 220.425 173.116 222.063 173.116ZM232.263 178.552C232.263 180.172 233.487 181.216 235.449 181.216C237.429 181.216 238.761 180.19 238.761 178.624C238.761 177.364 238.077 176.662 236.565 176.284L235.071 175.906C234.117 175.672 233.649 175.204 233.649 174.538C233.649 173.602 234.333 173.08 235.557 173.08C236.727 173.08 237.429 173.674 237.465 174.682H238.671C238.617 173.062 237.429 172.054 235.593 172.054C233.721 172.054 232.443 173.026 232.443 174.556C232.443 175.744 233.181 176.536 234.693 176.914L236.187 177.292C237.213 177.544 237.573 177.958 237.573 178.678C237.573 179.614 236.781 180.19 235.431 180.19C234.207 180.19 233.451 179.56 233.451 178.552H232.263ZM240.194 176.644C240.194 179.29 242.066 181.216 244.622 181.216C247.178 181.216 249.05 179.29 249.05 176.644C249.05 173.98 247.178 172.054 244.622 172.054C242.066 172.054 240.194 173.98 240.194 176.644ZM241.454 176.626C241.454 174.61 242.75 173.17 244.622 173.17C246.476 173.17 247.79 174.61 247.79 176.626C247.79 178.678 246.476 180.1 244.622 180.1C242.75 180.1 241.454 178.678 241.454 176.626ZM256.945 172.288V176.914C256.945 178.984 255.955 180.1 254.281 180.1C252.895 180.1 251.977 179.362 251.977 177.292V172.27H250.717V177.688C250.717 179.812 251.833 181.216 253.885 181.216C255.253 181.216 256.459 180.532 256.945 179.524L257.107 181H258.187V172.288H256.945ZM265.329 172.18C265.023 172.108 264.789 172.09 264.519 172.09C263.295 172.09 262.377 172.702 262.035 173.638L261.945 172.288H260.775V181H262.017V176.032C262.017 174.376 263.043 173.296 264.645 173.296H265.329V172.18ZM266.034 176.662C266.034 179.398 267.708 181.216 270.174 181.216C272.154 181.216 273.702 180.046 274.116 178.264H272.856C272.514 179.38 271.47 180.1 270.174 180.1C268.41 180.1 267.258 178.714 267.258 176.644C267.258 174.502 268.5 173.152 270.264 173.152C271.47 173.152 272.514 173.818 272.838 175.024H274.08C273.738 173.224 272.262 172.054 270.246 172.054C267.708 172.054 266.034 173.926 266.034 176.662ZM279.651 181.216C281.703 181.216 283.053 180.226 283.521 178.39H282.333C282.009 179.542 281.091 180.154 279.669 180.154C277.797 180.154 276.681 178.93 276.591 176.806H283.521V176.194C283.521 173.728 281.919 172.054 279.561 172.054C277.077 172.054 275.385 173.926 275.385 176.644C275.385 179.38 277.095 181.216 279.651 181.216ZM279.561 173.116C281.199 173.116 282.279 174.232 282.279 175.906H276.627C276.843 174.196 277.923 173.116 279.561 173.116ZM289.887 176.644C289.887 179.29 291.759 181.216 294.315 181.216C296.871 181.216 298.743 179.29 298.743 176.644C298.743 173.98 296.871 172.054 294.315 172.054C291.759 172.054 289.887 173.98 289.887 176.644ZM291.147 176.626C291.147 174.61 292.443 173.17 294.315 173.17C296.169 173.17 297.483 174.61 297.483 176.626C297.483 178.678 296.169 180.1 294.315 180.1C292.443 180.1 291.147 178.678 291.147 176.626ZM299.687 172.288V173.332H301.019V181H302.261V173.332H304.313V172.288H302.261V170.596C302.261 169.57 302.549 169.012 303.647 169.012H304.385V167.95C304.097 167.896 303.737 167.878 303.431 167.878C302.099 167.878 301.019 168.634 301.019 170.596V172.288H299.687ZM33.908 197.894C34.412 197.894 34.844 197.48 34.844 196.976C34.844 196.472 34.412 196.04 33.908 196.04C33.404 196.04 32.99 196.472 32.99 196.976C32.99 197.48 33.404 197.894 33.908 197.894ZM33.296 209H34.538V200.288H33.296V209ZM38.37 209V204.446C38.37 202.484 39.378 201.188 41.16 201.188C42.6 201.188 43.518 201.908 43.518 203.942V209H44.76V203.672C44.76 201.476 43.77 200.054 41.376 200.054C40.116 200.054 38.964 200.684 38.388 201.8L38.208 200.288H37.128V209H38.37ZM46.392 206.552C46.392 208.172 47.616 209.216 49.578 209.216C51.558 209.216 52.89 208.19 52.89 206.624C52.89 205.364 52.206 204.662 50.694 204.284L49.2 203.906C48.246 203.672 47.778 203.204 47.778 202.538C47.778 201.602 48.462 201.08 49.686 201.08C50.856 201.08 51.558 201.674 51.594 202.682H52.8C52.746 201.062 51.558 200.054 49.722 200.054C47.85 200.054 46.572 201.026 46.572 202.556C46.572 203.744 47.31 204.536 48.822 204.914L50.316 205.292C51.342 205.544 51.702 205.958 51.702 206.678C51.702 207.614 50.91 208.19 49.56 208.19C48.336 208.19 47.58 207.56 47.58 206.552H46.392ZM55.5467 197.894C56.0507 197.894 56.4827 197.48 56.4827 196.976C56.4827 196.472 56.0507 196.04 55.5467 196.04C55.0427 196.04 54.6287 196.472 54.6287 196.976C54.6287 197.48 55.0427 197.894 55.5467 197.894ZM54.9347 209H56.1767V200.288H54.9347V209ZM58.1727 204.392C58.1727 206.768 59.6847 208.73 62.1687 208.73C63.6627 208.73 64.8687 208.01 65.4627 206.786V208.856C65.4627 210.674 64.2747 211.88 62.4927 211.88C60.9267 211.88 59.8467 211.052 59.5767 209.648H58.3347C58.6767 211.754 60.2427 213.014 62.4747 213.014C65.0307 213.014 66.6867 211.322 66.6867 208.73V200.288H65.6067L65.4807 202.034C64.9227 200.756 63.7707 200.054 62.2587 200.054C59.7027 200.054 58.1727 202.016 58.1727 204.392ZM59.4147 204.374C59.4147 202.61 60.4947 201.152 62.3667 201.152C64.2747 201.152 65.3547 202.52 65.3547 204.374C65.3547 206.246 64.2387 207.614 62.3487 207.614C60.5127 207.614 59.4147 206.156 59.4147 204.374ZM70.5204 208.982V204.248C70.5204 202.574 71.4924 201.188 73.3644 201.188C74.7144 201.188 75.6684 201.908 75.6684 203.942V209H76.9104V203.672C76.9104 201.476 75.8844 200.054 73.5984 200.054C72.1404 200.054 71.0784 200.756 70.5204 201.8V195.878H69.2784V208.982H70.5204ZM81.3838 209V201.332H83.1298V200.288H81.3838V197.534H80.1598V200.288H78.4138V201.332H80.1598V209H81.3838ZM85.2643 209.198C85.8763 209.198 86.3983 208.694 86.3983 208.1C86.3983 207.488 85.8763 206.966 85.2643 206.966C84.6523 206.966 84.1303 207.488 84.1303 208.1C84.1303 208.694 84.6523 209.198 85.2643 209.198Z" fill="#0A0F0D" fill-opacity="0.8"/>
<path d="M38.12 72V61.494C38.12 58.06 38.052 55.544 37.882 54.354L45.022 72H48.15L55.324 54.286C55.154 56.02 55.12 57.686 55.12 62.276V72H58.384V47.418H55.052L46.586 68.09L38.12 47.418H34.856V72H38.12ZM75.056 55.374V64.146C75.056 67.716 73.458 69.586 70.534 69.586C68.086 69.586 66.556 68.226 66.556 64.656V55.374H63.36V65.71C63.36 69.79 65.536 72.408 69.412 72.408C71.86 72.408 74.07 71.218 75.022 69.484L75.362 72H78.218V55.374H75.056ZM86.119 72V46.976H82.923V72H86.119ZM95.5157 72V58.06H98.7797V55.374H95.5157V50.172H92.3197V55.374H89.0557V58.06H92.3197V72H95.5157ZM103.212 51.43C104.368 51.43 105.32 50.478 105.32 49.322C105.32 48.132 104.368 47.214 103.212 47.214C102.056 47.214 101.104 48.132 101.104 49.322C101.104 50.478 102.056 51.43 103.212 51.43ZM101.648 72H104.844V55.374H101.648V72ZM109.484 79.446H112.68V69.28C113.768 71.32 115.978 72.442 118.63 72.442C123.56 72.442 126.348 68.634 126.348 63.568C126.348 58.468 123.39 54.898 118.63 54.898C115.978 54.898 113.734 56.088 112.612 58.366L112.374 55.374H109.484V79.446ZM112.714 63.704C112.714 60.236 114.686 57.822 117.95 57.822C121.214 57.822 123.152 60.27 123.152 63.704C123.152 67.104 121.214 69.552 117.95 69.552C114.686 69.552 112.714 67.104 112.714 63.704ZM133.135 72V46.976H129.939V72H133.135ZM145.013 72.408C149.127 72.408 151.915 70.402 152.731 66.832H149.739C149.195 68.736 147.563 69.756 145.081 69.756C141.919 69.756 140.083 67.818 139.845 64.316L152.697 64.282V63.092C152.697 58.162 149.603 54.898 144.877 54.898C140.049 54.898 136.751 58.502 136.751 63.704C136.751 68.872 140.117 72.408 145.013 72.408ZM144.877 57.584C147.699 57.584 149.501 59.42 149.501 62.174H139.913C140.321 59.25 142.089 57.584 144.877 57.584ZM164.204 67.172C164.204 70.334 166.686 72.408 170.596 72.408C174.54 72.408 177.26 70.402 177.26 67.24C177.26 64.758 175.866 63.466 173.044 62.786L170.12 62.072C168.488 61.664 167.672 60.916 167.672 59.794C167.672 58.264 168.794 57.38 170.8 57.38C172.738 57.38 173.86 58.434 173.928 60.1H176.988C176.92 56.938 174.54 54.898 170.902 54.898C167.23 54.898 164.646 56.836 164.646 59.896C164.646 62.344 166.04 63.806 168.998 64.52L171.922 65.2C173.656 65.642 174.2 66.322 174.2 67.444C174.2 68.974 172.908 69.892 170.664 69.892C168.556 69.892 167.264 68.872 167.264 67.172H164.204ZM179.716 63.67C179.716 68.804 183.388 72.408 188.386 72.408C193.35 72.408 197.022 68.804 197.022 63.67C197.022 58.536 193.35 54.932 188.386 54.932C183.388 54.932 179.716 58.536 179.716 63.67ZM182.946 63.67C182.946 60.202 185.156 57.788 188.386 57.788C191.582 57.788 193.826 60.202 193.826 63.67C193.826 67.138 191.582 69.552 188.386 69.552C185.156 69.552 182.946 67.138 182.946 63.67ZM211.654 55.374V64.146C211.654 67.716 210.056 69.586 207.132 69.586C204.684 69.586 203.154 68.226 203.154 64.656V55.374H199.958V65.71C199.958 69.79 202.134 72.408 206.01 72.408C208.458 72.408 210.668 71.218 211.62 69.484L211.96 72H214.816V55.374H211.654ZM228.973 55.238C228.327 55.102 227.851 55.034 227.273 55.034C224.995 55.034 223.329 56.19 222.649 57.924L222.445 55.408H219.453V72H222.649V63.194C222.649 59.998 224.519 58.162 227.545 58.162H228.973V55.238ZM230.285 63.704C230.285 68.94 233.515 72.408 238.411 72.408C242.423 72.408 245.517 69.994 246.163 66.39H242.967C242.389 68.362 240.689 69.552 238.411 69.552C235.385 69.552 233.447 67.24 233.447 63.67C233.447 60.066 235.521 57.754 238.547 57.754C240.689 57.754 242.389 58.876 242.933 60.984H246.129C245.551 57.278 242.627 54.898 238.445 54.898C233.583 54.898 230.285 58.502 230.285 63.704ZM256.709 72.408C260.823 72.408 263.611 70.402 264.427 66.832H261.435C260.891 68.736 259.259 69.756 256.777 69.756C253.615 69.756 251.779 67.818 251.541 64.316L264.393 64.282V63.092C264.393 58.162 261.299 54.898 256.573 54.898C251.745 54.898 248.447 58.502 248.447 63.704C248.447 68.872 251.813 72.408 256.709 72.408ZM256.573 57.584C259.395 57.584 261.197 59.42 261.197 62.174H251.609C252.017 59.25 253.785 57.584 256.573 57.584ZM266.602 67.172C266.602 70.334 269.084 72.408 272.994 72.408C276.938 72.408 279.658 70.402 279.658 67.24C279.658 64.758 278.264 63.466 275.442 62.786L272.518 62.072C270.886 61.664 270.07 60.916 270.07 59.794C270.07 58.264 271.192 57.38 273.198 57.38C275.136 57.38 276.258 58.434 276.326 60.1H279.386C279.318 56.938 276.938 54.898 273.3 54.898C269.628 54.898 267.044 56.836 267.044 59.896C267.044 62.344 268.438 63.806 271.396 64.52L274.32 65.2C276.054 65.642 276.598 66.322 276.598 67.444C276.598 68.974 275.306 69.892 273.062 69.892C270.954 69.892 269.662 68.872 269.662 67.172H266.602ZM287.797 70.674C287.797 68.804 286.641 67.614 285.213 67.614C283.853 67.614 282.935 68.6 282.935 69.96C282.935 71.218 283.887 72.034 285.009 72.034C285.417 72.034 285.689 71.966 285.927 71.83C285.927 72.884 284.941 73.802 283.547 74.04V75.468C285.961 75.162 287.797 73.122 287.797 70.674ZM33.224 101.67C33.224 106.804 36.896 110.408 41.894 110.408C46.858 110.408 50.53 106.804 50.53 101.67C50.53 96.536 46.858 92.932 41.894 92.932C36.896 92.932 33.224 96.536 33.224 101.67ZM36.454 101.67C36.454 98.202 38.664 95.788 41.894 95.788C45.09 95.788 47.334 98.202 47.334 101.67C47.334 105.138 45.09 107.552 41.894 107.552C38.664 107.552 36.454 105.138 36.454 101.67ZM57.2639 110V101.194C57.2639 97.964 58.9979 95.822 61.9899 95.822C64.4379 95.822 66.0019 97.182 66.0019 100.548V110H69.1979V99.834C69.1979 95.584 67.1919 92.898 62.8059 92.898C60.4599 92.898 58.3519 94.02 57.2979 95.924L56.9579 93.374H54.0679V110H57.2639ZM80.7985 110.408C84.9125 110.408 87.7005 108.402 88.5165 104.832H85.5245C84.9805 106.736 83.3485 107.756 80.8665 107.756C77.7045 107.756 75.8685 105.818 75.6305 102.316L88.4825 102.282V101.092C88.4825 96.162 85.3885 92.898 80.6625 92.898C75.8345 92.898 72.5365 96.502 72.5365 101.704C72.5365 106.872 75.9025 110.408 80.7985 110.408ZM80.6625 95.584C83.4845 95.584 85.2865 97.42 85.2865 100.174H75.6985C76.1065 97.25 77.8745 95.584 80.6625 95.584ZM106.041 110V96.06H109.305V93.374H106.041V88.172H102.845V93.374H99.5811V96.06H102.845V110H106.041ZM121.693 93.238C121.047 93.102 120.571 93.034 119.993 93.034C117.715 93.034 116.049 94.19 115.369 95.924L115.165 93.408H112.173V110H115.369V101.194C115.369 97.998 117.239 96.162 120.265 96.162H121.693V93.238ZM136.183 93.374V102.146C136.183 105.716 134.585 107.586 131.661 107.586C129.213 107.586 127.683 106.226 127.683 102.656V93.374H124.487V103.71C124.487 107.79 126.663 110.408 130.539 110.408C132.987 110.408 135.197 109.218 136.149 107.484L136.489 110H139.345V93.374H136.183ZM148.674 110V96.06H151.938V93.374H148.674V88.172H145.478V93.374H142.214V96.06H145.478V110H148.674ZM158.002 109.966V100.922C158.002 98.066 159.668 95.822 162.762 95.822C165.142 95.822 166.74 97.182 166.74 100.548V110H169.936V99.834C169.936 95.584 167.896 92.898 163.646 92.898C161.062 92.898 159.056 94.122 158.002 95.924V84.976H154.806V109.966H158.002Z" fill="#0A0F0D"/>
<defs>
<clipPath id="clip0_1_595">
<rect width="16" height="16" fill="white" transform="translate(128.5 350.5)"/>
</clipPath>
<clipPath id="clip1_1_595">
<rect width="16" height="16" fill="white" transform="translate(52.5 310.5)"/>
</clipPath>
<clipPath id="clip2_1_595">
<rect width="14.6667" height="16" fill="white" transform="translate(91.166 268.5)"/>
</clipPath>
<clipPath id="clip3_1_595">
<rect width="14.6667" height="16" fill="white" transform="translate(177.168 243.5)"/>
</clipPath>
<clipPath id="clip4_1_595">
<rect width="14.6667" height="16" fill="white" transform="translate(225.166 362.5)"/>
</clipPath>
<clipPath id="clip5_1_595">
<rect width="16.6667" height="16" fill="white" transform="translate(301.168 289.5)"/>
</clipPath>
<clipPath id="clip6_1_595">
<rect width="16.6667" height="16" fill="white" transform="translate(200.168 305.5)"/>
</clipPath>
<clipPath id="clip7_1_595">
<rect width="21" height="13.44" fill="white" transform="translate(260 255.78)"/>
</clipPath>
</defs>
</svg>
