<svg width="370" height="616" viewBox="0 0 370 616" fill="none" xmlns="http://www.w3.org/2000/svg">
<rect x="0.5" y="0.5" width="369" height="615" rx="13.5" fill="#EBFFDB" stroke="#0A0F0D"/>
<rect x="39.5" y="455.5" width="213" height="122" rx="13.5" fill="#FEFEF9" stroke="black"/>
<path d="M57.6 473C57.4409 473 57.2883 473.063 57.1757 473.176C57.0632 473.288 57 473.441 57 473.6C57 473.759 57.0632 473.912 57.1757 474.024C57.2883 474.137 57.4409 474.2 57.6 474.2H58.932L59.4132 476.128L61.2108 485.71C61.2365 485.848 61.3095 485.972 61.4171 486.061C61.5247 486.151 61.6601 486.2 61.8 486.2H63C62.3635 486.2 61.753 486.453 61.3029 486.903C60.8529 487.353 60.6 487.963 60.6 488.6C60.6 489.237 60.8529 489.847 61.3029 490.297C61.753 490.747 62.3635 491 63 491C63.6365 491 64.247 490.747 64.6971 490.297C65.1471 489.847 65.4 489.237 65.4 488.6C65.4 487.963 65.1471 487.353 64.6971 486.903C64.247 486.453 63.6365 486.2 63 486.2H71.4C70.7635 486.2 70.153 486.453 69.7029 486.903C69.2529 487.353 69 487.963 69 488.6C69 489.237 69.2529 489.847 69.7029 490.297C70.153 490.747 70.7635 491 71.4 491C72.0365 491 72.647 490.747 73.0971 490.297C73.5471 489.847 73.8 489.237 73.8 488.6C73.8 487.963 73.5471 487.353 73.0971 486.903C72.647 486.453 72.0365 486.2 71.4 486.2H72.6C72.7399 486.2 72.8753 486.151 72.9829 486.061C73.0905 485.972 73.1635 485.848 73.1892 485.71L74.9892 476.11C75.0054 476.024 75.0024 475.935 74.9802 475.849C74.9581 475.764 74.9175 475.685 74.8613 475.617C74.805 475.549 74.7345 475.495 74.6548 475.457C74.5751 475.42 74.4881 475.4 74.4 475.4H60.468L59.982 473.455C59.9496 473.325 59.8747 473.21 59.7693 473.127C59.6638 473.045 59.5338 473 59.4 473H57.6ZM64.2 488.6C64.2 488.918 64.0736 489.223 63.8485 489.449C63.6235 489.674 63.3183 489.8 63 489.8C62.6817 489.8 62.3765 489.674 62.1515 489.449C61.9264 489.223 61.8 488.918 61.8 488.6C61.8 488.282 61.9264 487.977 62.1515 487.751C62.3765 487.526 62.6817 487.4 63 487.4C63.3183 487.4 63.6235 487.526 63.8485 487.751C64.0736 487.977 64.2 488.282 64.2 488.6ZM72.6 488.6C72.6 488.918 72.4736 489.223 72.2485 489.449C72.0235 489.674 71.7183 489.8 71.4 489.8C71.0817 489.8 70.7765 489.674 70.5515 489.449C70.3264 489.223 70.2 488.918 70.2 488.6C70.2 488.282 70.3264 487.977 70.5515 487.751C70.7765 487.526 71.0817 487.4 71.4 487.4C71.7183 487.4 72.0235 487.526 72.2485 487.751C72.4736 487.977 72.6 488.282 72.6 488.6ZM64.8 480.2H69.6C69.7591 480.2 69.9117 480.263 70.0243 480.376C70.1368 480.488 70.2 480.641 70.2 480.8C70.2 480.959 70.1368 481.112 70.0243 481.224C69.9117 481.337 69.7591 481.4 69.6 481.4H64.8C64.6409 481.4 64.4883 481.337 64.3757 481.224C64.2632 481.112 64.2 480.959 64.2 480.8C64.2 480.641 64.2632 480.488 64.3757 480.376C64.4883 480.263 64.6409 480.2 64.8 480.2Z" fill="#F54446"/>
<path opacity="0.9" d="M60.252 518.53V534H64.282V514.76H55.884V518.53H60.252ZM71.0938 518.53V534H75.1238V514.76H66.7258V518.53H71.0938ZM83.5874 532.674C83.5874 530.88 82.5474 529.632 81.0394 529.632C79.6874 529.632 78.8034 530.594 78.8034 532.024C78.8034 533.168 79.7394 534.078 80.9614 534.078C81.2474 534.078 81.5074 534.026 81.7154 533.922C81.6374 534.988 80.7014 535.69 79.4014 535.924V537.354C81.8454 537.094 83.5874 535.17 83.5874 532.674ZM92.0015 524.952C94.2635 524.952 95.1475 526.252 95.1475 527.786C95.1475 529.502 94.0295 530.62 92.3915 530.62C90.7015 530.62 89.5575 529.606 89.5575 527.708H85.3975C85.3975 532.05 88.5435 534.338 92.2875 534.338C96.1875 534.338 99.4635 531.868 99.4635 527.812C99.4635 524.536 97.3575 522.456 94.7575 521.676L98.8135 518.114V514.76H86.2815V518.452H93.5355L89.3495 522.118C89.2975 522.17 89.2455 522.196 89.1935 522.248V524.952H92.0015ZM116.703 530.594V526.902H114.337V514.76H109.085L100.791 526.902V530.594H110.359V534H114.337V530.594H116.703ZM105.263 526.902L110.359 519.414V526.902H105.263ZM118.295 524.432C118.295 530.386 121.415 534.338 126.693 534.338C131.971 534.338 135.091 530.386 135.091 524.432C135.091 518.478 131.711 514.396 126.693 514.396C121.675 514.396 118.295 518.478 118.295 524.432ZM122.455 524.432C122.455 520.168 124.015 518.088 126.693 518.088C129.371 518.088 130.931 520.168 130.931 524.432C130.931 528.566 129.371 530.646 126.693 530.646C124.015 530.646 122.455 528.566 122.455 524.432ZM139.238 534.338C140.512 534.338 141.63 533.272 141.63 531.998C141.63 530.698 140.512 529.632 139.238 529.632C137.912 529.632 136.846 530.698 136.846 531.998C136.846 533.272 137.912 534.338 139.238 534.338ZM143.381 524.432C143.381 530.386 146.501 534.338 151.779 534.338C157.057 534.338 160.177 530.386 160.177 524.432C160.177 518.478 156.797 514.396 151.779 514.396C146.761 514.396 143.381 518.478 143.381 524.432ZM147.541 524.432C147.541 520.168 149.101 518.088 151.779 518.088C154.457 518.088 156.017 520.168 156.017 524.432C156.017 528.566 154.457 530.646 151.779 530.646C149.101 530.646 147.541 528.566 147.541 524.432ZM162.043 524.432C162.043 530.386 165.163 534.338 170.441 534.338C175.719 534.338 178.839 530.386 178.839 524.432C178.839 518.478 175.459 514.396 170.441 514.396C165.423 514.396 162.043 518.478 162.043 524.432ZM166.203 524.432C166.203 520.168 167.763 518.088 170.441 518.088C173.119 518.088 174.679 520.168 174.679 524.432C174.679 528.566 173.119 530.646 170.441 530.646C167.763 530.646 166.203 528.566 166.203 524.432Z" fill="#0A0F0D"/>
<path opacity="0.6" d="M55.18 550.25H58.48V560H59.56V550.25H62.875V549.26H55.18V550.25ZM62.5134 556.37C62.5134 558.575 64.0734 560.18 66.2034 560.18C68.3334 560.18 69.8934 558.575 69.8934 556.37C69.8934 554.15 68.3334 552.545 66.2034 552.545C64.0734 552.545 62.5134 554.15 62.5134 556.37ZM63.5634 556.355C63.5634 554.675 64.6434 553.475 66.2034 553.475C67.7484 553.475 68.8434 554.675 68.8434 556.355C68.8434 558.065 67.7484 559.25 66.2034 559.25C64.6434 559.25 63.5634 558.065 63.5634 556.355ZM73.1405 560V553.61H74.5955V552.74H73.1405V550.445H72.1205V552.74H70.6655V553.61H72.1205V560H73.1405ZM77.9111 560.18C79.1411 560.18 80.1311 559.64 80.5811 558.725L80.7161 560H81.5861V555.305C81.5861 553.385 80.3561 552.545 78.6761 552.545C76.8911 552.545 75.6911 553.49 75.6911 554.96H76.6361C76.6361 553.985 77.3861 553.415 78.6461 553.415C79.7111 553.415 80.5661 553.865 80.5661 555.29V555.53L78.1661 555.725C76.4711 555.86 75.4511 556.7 75.4511 558.035C75.4511 559.31 76.3661 560.18 77.9111 560.18ZM78.1511 559.34C77.1611 559.34 76.5011 558.89 76.5011 558.005C76.5011 557.195 77.0561 556.595 78.4211 556.475L80.5661 556.31V556.7C80.5661 558.275 79.6811 559.34 78.1511 559.34ZM84.743 560V549.065H83.708V560H84.743ZM100.899 554.63C100.899 551.36 98.7994 549.065 95.7844 549.065C92.7844 549.065 90.6694 551.375 90.6694 554.63C90.6694 557.885 92.7694 560.18 95.7844 560.18C98.7844 560.18 100.899 557.885 100.899 554.63ZM99.7894 554.63C99.7894 557.3 98.1544 559.145 95.7844 559.145C93.4144 559.145 91.7944 557.315 91.7944 554.63C91.7944 551.945 93.4144 550.115 95.7844 550.115C98.1544 550.115 99.7894 551.945 99.7894 554.63ZM106.428 552.65C106.173 552.59 105.978 552.575 105.753 552.575C104.733 552.575 103.968 553.085 103.683 553.865L103.608 552.74H102.633V560H103.668V555.86C103.668 554.48 104.523 553.58 105.858 553.58H106.428V552.65ZM110.375 560.18C111.59 560.18 112.61 559.64 113.12 558.515L113.225 560H114.125V549.065H113.09V554.12C112.58 553.07 111.62 552.545 110.42 552.545C108.26 552.545 107.015 554.195 107.015 556.385C107.015 558.56 108.26 560.18 110.375 560.18ZM110.555 559.235C108.98 559.235 108.065 558.035 108.065 556.355C108.065 554.69 108.98 553.475 110.555 553.475C112.145 553.475 113.075 554.69 113.075 556.355C113.075 558.035 112.145 559.235 110.555 559.235ZM119.33 560.18C121.04 560.18 122.165 559.355 122.555 557.825H121.565C121.295 558.785 120.53 559.295 119.345 559.295C117.785 559.295 116.855 558.275 116.78 556.505H122.555V555.995C122.555 553.94 121.22 552.545 119.255 552.545C117.185 552.545 115.775 554.105 115.775 556.37C115.775 558.65 117.2 560.18 119.33 560.18ZM119.255 553.43C120.62 553.43 121.52 554.36 121.52 555.755H116.81C116.99 554.33 117.89 553.43 119.255 553.43ZM128.005 552.65C127.75 552.59 127.555 552.575 127.33 552.575C126.31 552.575 125.545 553.085 125.26 553.865L125.185 552.74H124.21V560H125.245V555.86C125.245 554.48 126.1 553.58 127.435 553.58H128.005V552.65ZM128.766 557.96C128.766 559.31 129.786 560.18 131.421 560.18C133.071 560.18 134.181 559.325 134.181 558.02C134.181 556.97 133.611 556.385 132.351 556.07L131.106 555.755C130.311 555.56 129.921 555.17 129.921 554.615C129.921 553.835 130.491 553.4 131.511 553.4C132.486 553.4 133.071 553.895 133.101 554.735H134.106C134.061 553.385 133.071 552.545 131.541 552.545C129.981 552.545 128.916 553.355 128.916 554.63C128.916 555.62 129.531 556.28 130.791 556.595L132.036 556.91C132.891 557.12 133.191 557.465 133.191 558.065C133.191 558.845 132.531 559.325 131.406 559.325C130.386 559.325 129.756 558.8 129.756 557.96H128.766Z" fill="#0A0F0D"/>
<path d="M207.265 482.853V483.733H209.575V486.054H210.455V483.733H212.765V482.853H210.455V480.543H209.575V482.853H207.265ZM219.52 486.989V485.988H215.846L217.496 484.558C218.904 483.337 219.465 482.534 219.465 481.401C219.465 479.872 218.442 478.904 216.847 478.904C215.23 478.904 214.152 480.015 214.119 481.72H215.197C215.219 480.587 215.857 479.872 216.836 479.872C217.793 479.872 218.365 480.466 218.365 481.467C218.365 482.314 218.002 482.853 216.715 483.964L214.152 486.175V487L219.52 486.989ZM226.227 485.394V484.437H225.281V479.047H223.884L220.133 484.437V485.394H224.247V487H225.281V485.394H226.227ZM221.299 484.437L224.247 480.191V484.437H221.299ZM231.229 480.928C231.229 479.74 230.393 478.893 229.216 478.893C228.05 478.893 227.214 479.74 227.214 480.928C227.214 482.105 228.05 482.952 229.216 482.952C230.393 482.952 231.229 482.105 231.229 480.928ZM235.42 479.058H234.364L228.325 487H229.381L235.42 479.058ZM230.382 480.928C230.382 481.632 229.898 482.127 229.216 482.127C228.534 482.127 228.061 481.632 228.061 480.928C228.061 480.213 228.534 479.718 229.216 479.718C229.909 479.718 230.382 480.213 230.382 480.928ZM236.553 485.119C236.553 483.931 235.706 483.095 234.54 483.095C233.374 483.095 232.527 483.931 232.527 485.119C232.527 486.296 233.374 487.143 234.54 487.143C235.706 487.143 236.553 486.296 236.553 485.119ZM235.695 485.119C235.695 485.823 235.222 486.318 234.54 486.318C233.858 486.318 233.385 485.823 233.385 485.119C233.385 484.404 233.858 483.909 234.54 483.909C235.233 483.909 235.695 484.404 235.695 485.119Z" fill="#F54446"/>
<rect x="65.5" y="423.5" width="213" height="122" rx="13.5" fill="#FEFEF9" stroke="black"/>
<path d="M90.8125 450.102C90.9078 450.046 90.9868 449.966 91.0416 449.87C91.0964 449.774 91.1252 449.665 91.125 449.555V443.93C91.1259 443.829 91.1024 443.73 91.0566 443.64C91.0108 443.55 90.944 443.473 90.8619 443.415C90.7799 443.356 90.6849 443.319 90.5852 443.305C90.4854 443.291 90.3838 443.302 90.2891 443.336C88.7067 443.9 87.3373 444.939 86.3681 446.31C85.3989 447.682 84.8775 449.32 84.875 451C84.8758 451.498 84.9203 451.994 85.0078 452.484C85.0266 452.582 85.0682 452.674 85.1293 452.753C85.1904 452.832 85.2692 452.895 85.3594 452.938C85.4426 452.977 85.5331 452.998 85.625 453C85.7349 452.999 85.8427 452.97 85.9375 452.914L90.8125 450.102Z" fill="#9954E1"/>
<path d="M100.057 446.969C100.049 446.96 100.043 446.949 100.041 446.938L100.01 446.898C99.2951 445.674 98.2719 444.659 97.0424 443.953C95.8129 443.247 94.42 442.875 93.0023 442.875C92.8365 442.875 92.6775 442.941 92.5603 443.058C92.4431 443.175 92.3773 443.334 92.3773 443.5V450.641L86.1976 454.211C86.1256 454.251 86.0622 454.305 86.0113 454.369C85.9604 454.434 85.9229 454.508 85.901 454.587C85.8792 454.667 85.8734 454.75 85.8841 454.831C85.8948 454.913 85.9217 454.991 85.9632 455.062V455.078L85.9866 455.117C86.8879 456.66 88.2724 457.863 89.9261 458.539C91.5797 459.215 93.4102 459.328 95.1343 458.859C96.8583 458.39 98.3798 457.366 99.4632 455.946C100.547 454.525 101.131 452.787 101.127 451C101.129 449.586 100.76 448.196 100.057 446.969Z" fill="#9954E1"/>
<path opacity="0.9" d="M87.838 504.418H90.23V502.234C93.792 501.74 96.054 499.478 96.054 496.202C96.054 493.264 94.52 491.678 90.984 490.95L90.23 490.794V486.192C91.166 486.53 91.686 487.258 91.686 488.324H95.742C95.742 485.048 93.636 482.89 90.23 482.474V480.316H87.838V482.474C84.328 482.89 81.936 485.204 81.936 488.35C81.936 491.418 83.652 493.316 87.136 494.018L87.838 494.148V498.646C86.538 498.412 85.836 497.658 85.836 496.41H81.65C81.65 499.764 84.042 502 87.838 502.312V504.418ZM86.044 488.194C86.044 487.128 86.694 486.4 87.838 486.14V490.3C86.564 489.962 86.044 489.312 86.044 488.194ZM91.972 496.618C91.972 497.554 91.322 498.23 90.23 498.542V494.642C91.374 494.876 91.972 495.5 91.972 496.618ZM111.794 501.948V498.048H104.774L107.66 495.63C110.052 493.628 111.638 491.496 111.638 488.87C111.638 484.762 109.012 482.396 104.618 482.396C100.38 482.396 97.6238 485.204 97.6238 489.52H101.81C101.81 487.362 102.85 486.14 104.644 486.14C106.36 486.14 107.322 487.18 107.322 489.13C107.322 490.716 106.464 491.912 104.41 493.602L98.0658 498.88V502L111.794 501.948ZM112.716 482.76V486.66H122.752L115.992 502H120.36L126.99 486.66V482.76H112.716ZM130.636 500.674C130.636 498.88 129.596 497.632 128.088 497.632C126.736 497.632 125.852 498.594 125.852 500.024C125.852 501.168 126.788 502.078 128.01 502.078C128.296 502.078 128.556 502.026 128.764 501.922C128.686 502.988 127.75 503.69 126.45 503.924V505.354C128.894 505.094 130.636 503.17 130.636 500.674ZM139.05 492.952C141.312 492.952 142.196 494.252 142.196 495.786C142.196 497.502 141.078 498.62 139.44 498.62C137.75 498.62 136.606 497.606 136.606 495.708H132.446C132.446 500.05 135.592 502.338 139.336 502.338C143.236 502.338 146.512 499.868 146.512 495.812C146.512 492.536 144.406 490.456 141.806 489.676L145.862 486.114V482.76H133.33V486.452H140.584L136.398 490.118C136.346 490.17 136.294 490.196 136.242 490.248V492.952H139.05ZM163.752 498.594V494.902H161.386V482.76H156.134L147.84 494.902V498.594H157.408V502H161.386V498.594H163.752ZM152.312 494.902L157.408 487.414V494.902H152.312ZM165.344 492.432C165.344 498.386 168.464 502.338 173.742 502.338C179.02 502.338 182.14 498.386 182.14 492.432C182.14 486.478 178.76 482.396 173.742 482.396C168.724 482.396 165.344 486.478 165.344 492.432ZM169.504 492.432C169.504 488.168 171.064 486.088 173.742 486.088C176.42 486.088 177.98 488.168 177.98 492.432C177.98 496.566 176.42 498.646 173.742 498.646C171.064 498.646 169.504 496.566 169.504 492.432ZM186.287 502.338C187.561 502.338 188.679 501.272 188.679 499.998C188.679 498.698 187.561 497.632 186.287 497.632C184.961 497.632 183.895 498.698 183.895 499.998C183.895 501.272 184.961 502.338 186.287 502.338ZM190.43 492.432C190.43 498.386 193.55 502.338 198.828 502.338C204.106 502.338 207.226 498.386 207.226 492.432C207.226 486.478 203.846 482.396 198.828 482.396C193.81 482.396 190.43 486.478 190.43 492.432ZM194.59 492.432C194.59 488.168 196.15 486.088 198.828 486.088C201.506 486.088 203.066 488.168 203.066 492.432C203.066 496.566 201.506 498.646 198.828 498.646C196.15 498.646 194.59 496.566 194.59 492.432ZM209.092 492.432C209.092 498.386 212.212 502.338 217.49 502.338C222.768 502.338 225.888 498.386 225.888 492.432C225.888 486.478 222.508 482.396 217.49 482.396C212.472 482.396 209.092 486.478 209.092 492.432ZM213.252 492.432C213.252 488.168 214.812 486.088 217.49 486.088C220.168 486.088 221.728 488.168 221.728 492.432C221.728 496.566 220.168 498.646 217.49 498.646C214.812 498.646 213.252 496.566 213.252 492.432Z" fill="#0A0F0D"/>
<path opacity="0.6" d="M81.18 518.25H84.48V528H85.56V518.25H88.875V517.26H81.18V518.25ZM88.5134 524.37C88.5134 526.575 90.0734 528.18 92.2034 528.18C94.3334 528.18 95.8934 526.575 95.8934 524.37C95.8934 522.15 94.3334 520.545 92.2034 520.545C90.0734 520.545 88.5134 522.15 88.5134 524.37ZM89.5634 524.355C89.5634 522.675 90.6434 521.475 92.2034 521.475C93.7484 521.475 94.8434 522.675 94.8434 524.355C94.8434 526.065 93.7484 527.25 92.2034 527.25C90.6434 527.25 89.5634 526.065 89.5634 524.355ZM99.1405 528V521.61H100.596V520.74H99.1405V518.445H98.1205V520.74H96.6655V521.61H98.1205V528H99.1405ZM103.911 528.18C105.141 528.18 106.131 527.64 106.581 526.725L106.716 528H107.586V523.305C107.586 521.385 106.356 520.545 104.676 520.545C102.891 520.545 101.691 521.49 101.691 522.96H102.636C102.636 521.985 103.386 521.415 104.646 521.415C105.711 521.415 106.566 521.865 106.566 523.29V523.53L104.166 523.725C102.471 523.86 101.451 524.7 101.451 526.035C101.451 527.31 102.366 528.18 103.911 528.18ZM104.151 527.34C103.161 527.34 102.501 526.89 102.501 526.005C102.501 525.195 103.056 524.595 104.421 524.475L106.566 524.31V524.7C106.566 526.275 105.681 527.34 104.151 527.34ZM110.743 528V517.065H109.708V528H110.743ZM123.764 528V527.01H118.409V523.095H123.254V522.12H118.409V518.25H123.749V517.26H117.329V528H123.764ZM126.017 528L128.042 525.09L130.082 528H131.312L128.747 524.385L131.327 520.74H130.127L128.087 523.65L126.032 520.74H124.817L127.397 524.37L124.802 528H126.017ZM132.559 531.165H133.594V526.605C134.104 527.655 135.079 528.18 136.309 528.18C138.454 528.18 139.669 526.53 139.669 524.34C139.669 522.15 138.409 520.545 136.309 520.545C135.094 520.545 134.074 521.085 133.564 522.21L133.459 520.74H132.559V531.165ZM133.609 524.37C133.609 522.69 134.539 521.49 136.129 521.49C137.704 521.49 138.619 522.69 138.619 524.37C138.619 526.035 137.704 527.25 136.129 527.25C134.539 527.25 133.609 526.035 133.609 524.37ZM144.363 528.18C146.073 528.18 147.198 527.355 147.588 525.825H146.598C146.328 526.785 145.563 527.295 144.378 527.295C142.818 527.295 141.888 526.275 141.813 524.505H147.588V523.995C147.588 521.94 146.253 520.545 144.288 520.545C142.218 520.545 140.808 522.105 140.808 524.37C140.808 526.65 142.233 528.18 144.363 528.18ZM144.288 521.43C145.653 521.43 146.553 522.36 146.553 523.755H141.843C142.023 522.33 142.923 521.43 144.288 521.43ZM150.278 528V524.205C150.278 522.57 151.118 521.49 152.603 521.49C153.803 521.49 154.568 522.09 154.568 523.785V528H155.603V523.56C155.603 521.73 154.778 520.545 152.783 520.545C151.733 520.545 150.773 521.07 150.293 522L150.143 520.74H149.243V528H150.278ZM156.963 525.96C156.963 527.31 157.983 528.18 159.618 528.18C161.268 528.18 162.378 527.325 162.378 526.02C162.378 524.97 161.808 524.385 160.548 524.07L159.303 523.755C158.508 523.56 158.118 523.17 158.118 522.615C158.118 521.835 158.688 521.4 159.708 521.4C160.683 521.4 161.268 521.895 161.298 522.735H162.303C162.258 521.385 161.268 520.545 159.738 520.545C158.178 520.545 157.113 521.355 157.113 522.63C157.113 523.62 157.728 524.28 158.988 524.595L160.233 524.91C161.088 525.12 161.388 525.465 161.388 526.065C161.388 526.845 160.728 527.325 159.603 527.325C158.583 527.325 157.953 526.8 157.953 525.96H156.963ZM167.127 528.18C168.837 528.18 169.962 527.355 170.352 525.825H169.362C169.092 526.785 168.327 527.295 167.142 527.295C165.582 527.295 164.652 526.275 164.577 524.505H170.352V523.995C170.352 521.94 169.017 520.545 167.052 520.545C164.982 520.545 163.572 522.105 163.572 524.37C163.572 526.65 164.997 528.18 167.127 528.18ZM167.052 521.43C168.417 521.43 169.317 522.36 169.317 523.755H164.607C164.787 522.33 165.687 521.43 167.052 521.43ZM171.392 525.96C171.392 527.31 172.412 528.18 174.047 528.18C175.697 528.18 176.807 527.325 176.807 526.02C176.807 524.97 176.237 524.385 174.977 524.07L173.732 523.755C172.937 523.56 172.547 523.17 172.547 522.615C172.547 521.835 173.117 521.4 174.137 521.4C175.112 521.4 175.697 521.895 175.727 522.735H176.732C176.687 521.385 175.697 520.545 174.167 520.545C172.607 520.545 171.542 521.355 171.542 522.63C171.542 523.62 172.157 524.28 173.417 524.595L174.662 524.91C175.517 525.12 175.817 525.465 175.817 526.065C175.817 526.845 175.157 527.325 174.032 527.325C173.012 527.325 172.382 526.8 172.382 525.96H171.392Z" fill="#0A0F0D"/>
<path d="M233.265 451.853V452.733H235.575V455.054H236.455V452.733H238.765V451.853H236.455V449.543H235.575V451.853H233.265ZM245.52 455.989V454.988H241.846L243.496 453.558C244.904 452.337 245.465 451.534 245.465 450.401C245.465 448.872 244.442 447.904 242.847 447.904C241.23 447.904 240.152 449.015 240.119 450.72H241.197C241.219 449.587 241.857 448.872 242.836 448.872C243.793 448.872 244.365 449.466 244.365 450.467C244.365 451.314 244.002 451.853 242.715 452.964L240.152 455.175V456L245.52 455.989ZM252.227 454.394V453.437H251.281V448.047H249.884L246.133 453.437V454.394H250.247V456H251.281V454.394H252.227ZM247.299 453.437L250.247 449.191V453.437H247.299ZM257.229 449.928C257.229 448.74 256.393 447.893 255.216 447.893C254.05 447.893 253.214 448.74 253.214 449.928C253.214 451.105 254.05 451.952 255.216 451.952C256.393 451.952 257.229 451.105 257.229 449.928ZM261.42 448.058H260.364L254.325 456H255.381L261.42 448.058ZM256.382 449.928C256.382 450.632 255.898 451.127 255.216 451.127C254.534 451.127 254.061 450.632 254.061 449.928C254.061 449.213 254.534 448.718 255.216 448.718C255.909 448.718 256.382 449.213 256.382 449.928ZM262.553 454.119C262.553 452.931 261.706 452.095 260.54 452.095C259.374 452.095 258.527 452.931 258.527 454.119C258.527 455.296 259.374 456.143 260.54 456.143C261.706 456.143 262.553 455.296 262.553 454.119ZM261.695 454.119C261.695 454.823 261.222 455.318 260.54 455.318C259.858 455.318 259.385 454.823 259.385 454.119C259.385 453.404 259.858 452.909 260.54 452.909C261.233 452.909 261.695 453.404 261.695 454.119Z" fill="#9954E1"/>
<rect x="91.5" y="391.5" width="213" height="122" rx="13.5" fill="#FEFEF9" stroke="black"/>
<path opacity="0.9" d="M112.252 454.53V470H116.282V450.76H107.884V454.53H112.252ZM119.032 464.436C119.032 468.05 121.97 470.312 126.65 470.312C131.33 470.312 134.294 468.024 134.294 464.41C134.294 462.174 133.072 460.354 131.148 459.626C132.734 458.924 133.592 457.546 133.592 455.752C133.592 452.528 130.836 450.396 126.702 450.396C122.568 450.396 119.734 452.554 119.734 455.7C119.734 457.494 120.566 458.846 122.1 459.6C120.228 460.354 119.032 462.2 119.032 464.436ZM123.53 456.116C123.53 454.79 124.726 453.958 126.624 453.958C128.522 453.958 129.718 454.79 129.718 456.116C129.718 457.416 128.522 458.222 126.624 458.222C124.726 458.222 123.53 457.416 123.53 456.116ZM123.166 464.15C123.166 462.59 124.492 461.654 126.65 461.654C128.808 461.654 130.134 462.59 130.134 464.15C130.134 465.71 128.834 466.62 126.65 466.62C124.466 466.62 123.166 465.71 123.166 464.15ZM141.63 468.674C141.63 466.88 140.59 465.632 139.082 465.632C137.73 465.632 136.846 466.594 136.846 468.024C136.846 469.168 137.782 470.078 139.004 470.078C139.29 470.078 139.55 470.026 139.758 469.922C139.68 470.988 138.744 471.69 137.444 471.924V473.354C139.888 473.094 141.63 471.17 141.63 468.674ZM158.182 469.948V466.048H151.162L154.048 463.63C156.44 461.628 158.026 459.496 158.026 456.87C158.026 452.762 155.4 450.396 151.006 450.396C146.768 450.396 144.012 453.204 144.012 457.52H148.198C148.198 455.362 149.238 454.14 151.032 454.14C152.748 454.14 153.71 455.18 153.71 457.13C153.71 458.716 152.852 459.912 150.798 461.602L144.454 466.88V470L158.182 469.948ZM162.953 455.934C160.613 459.132 159.755 460.874 159.755 463.24C159.755 467.27 162.901 470.338 167.217 470.338C171.481 470.338 174.575 467.478 174.575 463.266C174.575 459.314 171.871 456.584 167.919 456.584C167.659 456.584 167.399 456.61 167.139 456.662L171.533 450.76H166.723L162.953 455.934ZM164.071 463.292C164.071 461.316 165.319 459.99 167.217 459.99C169.063 459.99 170.311 461.316 170.311 463.292C170.311 465.268 169.037 466.62 167.217 466.62C165.345 466.62 164.071 465.268 164.071 463.292ZM176.288 460.432C176.288 466.386 179.408 470.338 184.686 470.338C189.964 470.338 193.084 466.386 193.084 460.432C193.084 454.478 189.704 450.396 184.686 450.396C179.668 450.396 176.288 454.478 176.288 460.432ZM180.448 460.432C180.448 456.168 182.008 454.088 184.686 454.088C187.364 454.088 188.924 456.168 188.924 460.432C188.924 464.566 187.364 466.646 184.686 466.646C182.008 466.646 180.448 464.566 180.448 460.432ZM197.231 470.338C198.505 470.338 199.623 469.272 199.623 467.998C199.623 466.698 198.505 465.632 197.231 465.632C195.905 465.632 194.839 466.698 194.839 467.998C194.839 469.272 195.905 470.338 197.231 470.338ZM201.374 460.432C201.374 466.386 204.494 470.338 209.772 470.338C215.05 470.338 218.17 466.386 218.17 460.432C218.17 454.478 214.79 450.396 209.772 450.396C204.754 450.396 201.374 454.478 201.374 460.432ZM205.534 460.432C205.534 456.168 207.094 454.088 209.772 454.088C212.45 454.088 214.01 456.168 214.01 460.432C214.01 464.566 212.45 466.646 209.772 466.646C207.094 466.646 205.534 464.566 205.534 460.432ZM220.036 460.432C220.036 466.386 223.156 470.338 228.434 470.338C233.712 470.338 236.832 466.386 236.832 460.432C236.832 454.478 233.452 450.396 228.434 450.396C223.416 450.396 220.036 454.478 220.036 460.432ZM224.196 460.432C224.196 456.168 225.756 454.088 228.434 454.088C231.112 454.088 232.672 456.168 232.672 460.432C232.672 464.566 231.112 466.646 228.434 466.646C225.756 466.646 224.196 464.566 224.196 460.432Z" fill="#0A0F0D"/>
<path d="M114.5 421.031C114.501 421.122 114.484 421.212 114.45 421.296C114.416 421.38 114.365 421.456 114.301 421.52C114.237 421.584 114.161 421.635 114.077 421.669C113.993 421.703 113.903 421.72 113.813 421.719H110.031C109.904 421.718 109.779 421.682 109.67 421.615C109.561 421.549 109.472 421.454 109.413 421.341C109.357 421.225 109.335 421.097 109.347 420.97C109.359 420.843 109.405 420.721 109.481 420.619C110.09 419.802 110.902 419.159 111.836 418.754C111.434 418.386 111.126 417.929 110.936 417.419C110.746 416.909 110.68 416.361 110.743 415.82C110.806 415.279 110.996 414.761 111.299 414.309C111.601 413.856 112.007 413.482 112.482 413.217C112.957 412.951 113.489 412.803 114.033 412.783C114.577 412.763 115.117 412.873 115.611 413.103C116.104 413.333 116.536 413.678 116.87 414.107C117.204 414.537 117.432 415.039 117.534 415.574C117.559 415.713 117.541 415.857 117.483 415.986C117.425 416.115 117.328 416.223 117.207 416.296C116.096 416.955 115.25 417.983 114.818 419.201C114.605 419.787 114.497 420.407 114.5 421.031ZM130.519 420.619C129.91 419.802 129.098 419.159 128.164 418.754C128.566 418.386 128.874 417.929 129.064 417.419C129.254 416.909 129.32 416.361 129.257 415.82C129.194 415.279 129.004 414.761 128.701 414.309C128.399 413.856 127.994 413.482 127.518 413.217C127.043 412.951 126.511 412.803 125.967 412.783C125.423 412.763 124.883 412.873 124.389 413.103C123.896 413.333 123.465 413.678 123.13 414.107C122.796 414.537 122.568 415.039 122.466 415.574C122.441 415.713 122.459 415.857 122.517 415.986C122.575 416.115 122.672 416.223 122.793 416.296C123.906 416.953 124.752 417.982 125.182 419.201C125.395 419.787 125.503 420.407 125.5 421.031C125.499 421.122 125.516 421.212 125.55 421.296C125.584 421.38 125.635 421.456 125.699 421.52C125.763 421.584 125.839 421.635 125.923 421.669C126.007 421.703 126.097 421.72 126.188 421.719H129.969C130.096 421.719 130.222 421.683 130.33 421.616C130.439 421.549 130.527 421.453 130.584 421.339C130.641 421.224 130.665 421.097 130.654 420.969C130.642 420.842 130.595 420.721 130.519 420.619ZM122.509 424.305C123.194 423.781 123.696 423.055 123.947 422.23C124.198 421.406 124.183 420.523 123.906 419.707C123.63 418.89 123.104 418.181 122.403 417.679C121.703 417.177 120.862 416.906 120 416.906C119.138 416.906 118.298 417.177 117.597 417.679C116.896 418.181 116.37 418.89 116.094 419.707C115.817 420.523 115.803 421.406 116.053 422.23C116.304 423.055 116.806 423.781 117.491 424.305C116.154 424.899 115.07 425.946 114.431 427.262C114.38 427.366 114.358 427.482 114.365 427.598C114.373 427.714 114.41 427.826 114.474 427.923C114.534 428.023 114.618 428.105 114.719 428.163C114.82 428.22 114.934 428.25 115.05 428.25H124.95C125.066 428.25 125.18 428.22 125.281 428.163C125.382 428.105 125.466 428.023 125.526 427.923C125.59 427.826 125.627 427.714 125.635 427.598C125.642 427.482 125.62 427.366 125.569 427.262C124.93 425.946 123.846 424.899 122.509 424.305Z" fill="#F27B38"/>
<path opacity="0.6" d="M107.18 486.25H110.48V496H111.56V486.25H114.875V485.26H107.18V486.25ZM114.513 492.37C114.513 494.575 116.073 496.18 118.203 496.18C120.333 496.18 121.893 494.575 121.893 492.37C121.893 490.15 120.333 488.545 118.203 488.545C116.073 488.545 114.513 490.15 114.513 492.37ZM115.563 492.355C115.563 490.675 116.643 489.475 118.203 489.475C119.748 489.475 120.843 490.675 120.843 492.355C120.843 494.065 119.748 495.25 118.203 495.25C116.643 495.25 115.563 494.065 115.563 492.355ZM125.141 496V489.61H126.596V488.74H125.141V486.445H124.121V488.74H122.666V489.61H124.121V496H125.141ZM129.911 496.18C131.141 496.18 132.131 495.64 132.581 494.725L132.716 496H133.586V491.305C133.586 489.385 132.356 488.545 130.676 488.545C128.891 488.545 127.691 489.49 127.691 490.96H128.636C128.636 489.985 129.386 489.415 130.646 489.415C131.711 489.415 132.566 489.865 132.566 491.29V491.53L130.166 491.725C128.471 491.86 127.451 492.7 127.451 494.035C127.451 495.31 128.366 496.18 129.911 496.18ZM130.151 495.34C129.161 495.34 128.501 494.89 128.501 494.005C128.501 493.195 129.056 492.595 130.421 492.475L132.566 492.31V492.7C132.566 494.275 131.681 495.34 130.151 495.34ZM136.743 496V485.065H135.708V496H136.743ZM146.284 496H147.409L151.489 485.26H150.379L147.529 492.715C147.364 493.12 147.094 493.87 146.869 494.65C146.629 493.9 146.419 493.315 146.194 492.73L143.329 485.26H142.174L146.284 496ZM153.224 486.745C153.644 486.745 154.004 486.4 154.004 485.98C154.004 485.56 153.644 485.2 153.224 485.2C152.804 485.2 152.459 485.56 152.459 485.98C152.459 486.4 152.804 486.745 153.224 486.745ZM152.714 496H153.749V488.74H152.714V496ZM155.292 493.96C155.292 495.31 156.312 496.18 157.947 496.18C159.597 496.18 160.707 495.325 160.707 494.02C160.707 492.97 160.137 492.385 158.877 492.07L157.632 491.755C156.837 491.56 156.447 491.17 156.447 490.615C156.447 489.835 157.017 489.4 158.037 489.4C159.012 489.4 159.597 489.895 159.627 490.735H160.632C160.587 489.385 159.597 488.545 158.067 488.545C156.507 488.545 155.442 489.355 155.442 490.63C155.442 491.62 156.057 492.28 157.317 492.595L158.562 492.91C159.417 493.12 159.717 493.465 159.717 494.065C159.717 494.845 159.057 495.325 157.932 495.325C156.912 495.325 156.282 494.8 156.282 493.96H155.292ZM162.921 486.745C163.341 486.745 163.701 486.4 163.701 485.98C163.701 485.56 163.341 485.2 162.921 485.2C162.501 485.2 162.156 485.56 162.156 485.98C162.156 486.4 162.501 486.745 162.921 486.745ZM162.411 496H163.446V488.74H162.411V496ZM167.269 496V489.61H168.724V488.74H167.269V486.445H166.249V488.74H164.794V489.61H166.249V496H167.269ZM169.489 492.37C169.489 494.575 171.049 496.18 173.179 496.18C175.309 496.18 176.869 494.575 176.869 492.37C176.869 490.15 175.309 488.545 173.179 488.545C171.049 488.545 169.489 490.15 169.489 492.37ZM170.539 492.355C170.539 490.675 171.619 489.475 173.179 489.475C174.724 489.475 175.819 490.675 175.819 492.355C175.819 494.065 174.724 495.25 173.179 495.25C171.619 495.25 170.539 494.065 170.539 492.355ZM182.319 488.65C182.064 488.59 181.869 488.575 181.644 488.575C180.624 488.575 179.859 489.085 179.574 489.865L179.499 488.74H178.524V496H179.559V491.86C179.559 490.48 180.414 489.58 181.749 489.58H182.319V488.65ZM183.08 493.96C183.08 495.31 184.1 496.18 185.735 496.18C187.385 496.18 188.495 495.325 188.495 494.02C188.495 492.97 187.925 492.385 186.665 492.07L185.42 491.755C184.625 491.56 184.235 491.17 184.235 490.615C184.235 489.835 184.805 489.4 185.825 489.4C186.8 489.4 187.385 489.895 187.415 490.735H188.42C188.375 489.385 187.385 488.545 185.855 488.545C184.295 488.545 183.23 489.355 183.23 490.63C183.23 491.62 183.845 492.28 185.105 492.595L186.35 492.91C187.205 493.12 187.505 493.465 187.505 494.065C187.505 494.845 186.845 495.325 185.72 495.325C184.7 495.325 184.07 494.8 184.07 493.96H183.08Z" fill="#0A0F0D"/>
<path d="M259.265 420.853V421.733H261.575V424.054H262.455V421.733H264.765V420.853H262.455V418.543H261.575V420.853H259.265ZM271.52 424.989V423.988H267.846L269.496 422.558C270.904 421.337 271.465 420.534 271.465 419.401C271.465 417.872 270.442 416.904 268.847 416.904C267.23 416.904 266.152 418.015 266.119 419.72H267.197C267.219 418.587 267.857 417.872 268.836 417.872C269.793 417.872 270.365 418.466 270.365 419.467C270.365 420.314 270.002 420.853 268.715 421.964L266.152 424.175V425L271.52 424.989ZM278.227 423.394V422.437H277.281V417.047H275.884L272.133 422.437V423.394H276.247V425H277.281V423.394H278.227ZM273.299 422.437L276.247 418.191V422.437H273.299ZM283.229 418.928C283.229 417.74 282.393 416.893 281.216 416.893C280.05 416.893 279.214 417.74 279.214 418.928C279.214 420.105 280.05 420.952 281.216 420.952C282.393 420.952 283.229 420.105 283.229 418.928ZM287.42 417.058H286.364L280.325 425H281.381L287.42 417.058ZM282.382 418.928C282.382 419.632 281.898 420.127 281.216 420.127C280.534 420.127 280.061 419.632 280.061 418.928C280.061 418.213 280.534 417.718 281.216 417.718C281.909 417.718 282.382 418.213 282.382 418.928ZM288.553 423.119C288.553 421.931 287.706 421.095 286.54 421.095C285.374 421.095 284.527 421.931 284.527 423.119C284.527 424.296 285.374 425.143 286.54 425.143C287.706 425.143 288.553 424.296 288.553 423.119ZM287.695 423.119C287.695 423.823 287.222 424.318 286.54 424.318C285.858 424.318 285.385 423.823 285.385 423.119C285.385 422.404 285.858 421.909 286.54 421.909C287.233 421.909 287.695 422.404 287.695 423.119Z" fill="#F27B38"/>
<rect x="117.5" y="355.5" width="213" height="122" rx="13.5" fill="#FEFEF9" stroke="black"/>
<g clip-path="url(#clip0_1_457)">
<path d="M145.852 390.984L151.264 389.813C151.264 389.813 149.311 376.604 149.296 376.516C149.282 376.429 149.21 376.372 149.137 376.372C149.065 376.372 147.691 376.27 147.691 376.27C147.691 376.27 146.734 375.314 146.611 375.212C146.578 375.184 146.555 375.169 146.521 375.156L145.835 390.984H145.852ZM143.132 381.479C143.132 381.479 142.525 381.161 141.802 381.161C140.716 381.161 140.674 381.84 140.674 382.017C140.674 382.941 143.104 383.303 143.104 385.488C143.104 387.209 142.024 388.308 140.549 388.308C138.784 388.308 137.894 387.209 137.894 387.209L138.379 385.645C138.379 385.645 139.312 386.444 140.089 386.444C140.595 386.444 140.82 386.036 140.82 385.745C140.82 384.531 138.829 384.475 138.829 382.476C138.804 380.799 140.008 379.164 142.45 379.164C143.392 379.164 143.856 379.435 143.856 379.435L143.147 381.471L143.132 381.479ZM142.727 373.623C142.829 373.623 142.93 373.651 143.031 373.724C142.293 374.072 141.483 374.953 141.15 376.718C140.658 376.877 140.18 377.022 139.733 377.151C140.122 375.812 141.063 373.63 142.727 373.63V373.623ZM143.653 375.834V375.936C143.088 376.109 142.466 376.299 141.858 376.488C142.207 375.155 142.858 374.504 143.422 374.259C143.566 374.635 143.653 375.141 143.653 375.834ZM144.058 374.159C144.578 374.214 144.913 374.809 145.129 375.475C144.868 375.56 144.578 375.648 144.261 375.749V375.561C144.261 374.997 144.189 374.532 144.058 374.157V374.159ZM146.302 375.126C146.287 375.126 146.257 375.141 146.243 375.141C146.23 375.141 146.026 375.197 145.708 375.299C145.39 374.374 144.826 373.521 143.827 373.521H143.74C143.451 373.157 143.101 373 142.798 373C140.469 373 139.356 375.908 139.007 377.385C138.112 377.658 137.46 377.861 137.387 377.89C136.881 378.05 136.867 378.064 136.808 378.543C136.752 378.889 135.436 389.09 135.436 389.09L145.606 391L146.302 375.126Z" fill="#56BE73"/>
</g>
<path opacity="0.9" d="M139.838 436.418H142.23V434.234C145.792 433.74 148.054 431.478 148.054 428.202C148.054 425.264 146.52 423.678 142.984 422.95L142.23 422.794V418.192C143.166 418.53 143.686 419.258 143.686 420.324H147.742C147.742 417.048 145.636 414.89 142.23 414.474V412.316H139.838V414.474C136.328 414.89 133.936 417.204 133.936 420.35C133.936 423.418 135.652 425.316 139.136 426.018L139.838 426.148V430.646C138.538 430.412 137.836 429.658 137.836 428.41H133.65C133.65 431.764 136.042 434 139.838 434.312V436.418ZM138.044 420.194C138.044 419.128 138.694 418.4 139.838 418.14V422.3C138.564 421.962 138.044 421.312 138.044 420.194ZM143.972 428.618C143.972 429.554 143.322 430.23 142.23 430.542V426.642C143.374 426.876 143.972 427.5 143.972 428.618ZM163.794 433.948V430.048H156.774L159.66 427.63C162.052 425.628 163.638 423.496 163.638 420.87C163.638 416.762 161.012 414.396 156.618 414.396C152.38 414.396 149.624 417.204 149.624 421.52H153.81C153.81 419.362 154.85 418.14 156.644 418.14C158.36 418.14 159.322 419.18 159.322 421.13C159.322 422.716 158.464 423.912 156.41 425.602L150.066 430.88V434L163.794 433.948ZM164.716 414.76V418.66H174.752L167.992 434H172.36L178.99 418.66V414.76H164.716ZM182.636 432.674C182.636 430.88 181.596 429.632 180.088 429.632C178.736 429.632 177.852 430.594 177.852 432.024C177.852 433.168 178.788 434.078 180.01 434.078C180.296 434.078 180.556 434.026 180.764 433.922C180.686 434.988 179.75 435.69 178.45 435.924V437.354C180.894 437.094 182.636 435.17 182.636 432.674ZM191.05 424.952C193.312 424.952 194.196 426.252 194.196 427.786C194.196 429.502 193.078 430.62 191.44 430.62C189.75 430.62 188.606 429.606 188.606 427.708H184.446C184.446 432.05 187.592 434.338 191.336 434.338C195.236 434.338 198.512 431.868 198.512 427.812C198.512 424.536 196.406 422.456 193.806 421.676L197.862 418.114V414.76H185.33V418.452H192.584L188.398 422.118C188.346 422.17 188.294 422.196 188.242 422.248V424.952H191.05ZM215.752 430.594V426.902H213.386V414.76H208.134L199.84 426.902V430.594H209.408V434H213.386V430.594H215.752ZM204.312 426.902L209.408 419.414V426.902H204.312ZM217.344 424.432C217.344 430.386 220.464 434.338 225.742 434.338C231.02 434.338 234.14 430.386 234.14 424.432C234.14 418.478 230.76 414.396 225.742 414.396C220.724 414.396 217.344 418.478 217.344 424.432ZM221.504 424.432C221.504 420.168 223.064 418.088 225.742 418.088C228.42 418.088 229.98 420.168 229.98 424.432C229.98 428.566 228.42 430.646 225.742 430.646C223.064 430.646 221.504 428.566 221.504 424.432ZM238.287 434.338C239.561 434.338 240.679 433.272 240.679 431.998C240.679 430.698 239.561 429.632 238.287 429.632C236.961 429.632 235.895 430.698 235.895 431.998C235.895 433.272 236.961 434.338 238.287 434.338ZM242.43 424.432C242.43 430.386 245.55 434.338 250.828 434.338C256.106 434.338 259.226 430.386 259.226 424.432C259.226 418.478 255.846 414.396 250.828 414.396C245.81 414.396 242.43 418.478 242.43 424.432ZM246.59 424.432C246.59 420.168 248.15 418.088 250.828 418.088C253.506 418.088 255.066 420.168 255.066 424.432C255.066 428.566 253.506 430.646 250.828 430.646C248.15 430.646 246.59 428.566 246.59 424.432ZM261.092 424.432C261.092 430.386 264.212 434.338 269.49 434.338C274.768 434.338 277.888 430.386 277.888 424.432C277.888 418.478 274.508 414.396 269.49 414.396C264.472 414.396 261.092 418.478 261.092 424.432ZM265.252 424.432C265.252 420.168 266.812 418.088 269.49 418.088C272.168 418.088 273.728 420.168 273.728 424.432C273.728 428.566 272.168 430.646 269.49 430.646C266.812 430.646 265.252 428.566 265.252 424.432Z" fill="#0A0F0D"/>
<path opacity="0.6" d="M133.18 450.25H136.48V460H137.56V450.25H140.875V449.26H133.18V450.25ZM140.513 456.37C140.513 458.575 142.073 460.18 144.203 460.18C146.333 460.18 147.893 458.575 147.893 456.37C147.893 454.15 146.333 452.545 144.203 452.545C142.073 452.545 140.513 454.15 140.513 456.37ZM141.563 456.355C141.563 454.675 142.643 453.475 144.203 453.475C145.748 453.475 146.843 454.675 146.843 456.355C146.843 458.065 145.748 459.25 144.203 459.25C142.643 459.25 141.563 458.065 141.563 456.355ZM151.141 460V453.61H152.596V452.74H151.141V450.445H150.121V452.74H148.666V453.61H150.121V460H151.141ZM155.911 460.18C157.141 460.18 158.131 459.64 158.581 458.725L158.716 460H159.586V455.305C159.586 453.385 158.356 452.545 156.676 452.545C154.891 452.545 153.691 453.49 153.691 454.96H154.636C154.636 453.985 155.386 453.415 156.646 453.415C157.711 453.415 158.566 453.865 158.566 455.29V455.53L156.166 455.725C154.471 455.86 153.451 456.7 153.451 458.035C153.451 459.31 154.366 460.18 155.911 460.18ZM156.151 459.34C155.161 459.34 154.501 458.89 154.501 458.005C154.501 457.195 155.056 456.595 156.421 456.475L158.566 456.31V456.7C158.566 458.275 157.681 459.34 156.151 459.34ZM162.743 460V449.065H161.708V460H162.743ZM168.684 452.05C168.684 453.52 169.569 454.48 171.249 454.885L173.064 455.335C174.219 455.605 174.759 456.235 174.759 457.195C174.759 458.425 173.754 459.19 172.179 459.19C170.709 459.19 169.719 458.455 169.659 457.33H168.549C168.684 459.085 170.094 460.18 172.179 460.18C174.399 460.18 175.839 458.995 175.839 457.135C175.839 455.68 174.969 454.72 173.289 454.315L171.444 453.865C170.319 453.58 169.764 452.98 169.764 452.035C169.764 450.82 170.754 450.04 172.269 450.04C173.619 450.04 174.444 450.73 174.564 451.945H175.659C175.494 450.145 174.219 449.065 172.284 449.065C170.124 449.065 168.684 450.25 168.684 452.05ZM179.642 460.18C180.872 460.18 181.862 459.64 182.312 458.725L182.447 460H183.317V455.305C183.317 453.385 182.087 452.545 180.407 452.545C178.622 452.545 177.422 453.49 177.422 454.96H178.367C178.367 453.985 179.117 453.415 180.377 453.415C181.442 453.415 182.297 453.865 182.297 455.29V455.53L179.897 455.725C178.202 455.86 177.182 456.7 177.182 458.035C177.182 459.31 178.097 460.18 179.642 460.18ZM179.882 459.34C178.892 459.34 178.232 458.89 178.232 458.005C178.232 457.195 178.787 456.595 180.152 456.475L182.297 456.31V456.7C182.297 458.275 181.412 459.34 179.882 459.34ZM186.473 460V449.065H185.438V460H186.473ZM191.72 460.18C193.43 460.18 194.555 459.355 194.945 457.825H193.955C193.685 458.785 192.92 459.295 191.735 459.295C190.175 459.295 189.245 458.275 189.17 456.505H194.945V455.995C194.945 453.94 193.61 452.545 191.645 452.545C189.575 452.545 188.165 454.105 188.165 456.37C188.165 458.65 189.59 460.18 191.72 460.18ZM191.645 453.43C193.01 453.43 193.91 454.36 193.91 455.755H189.2C189.38 454.33 190.28 453.43 191.645 453.43ZM195.985 457.96C195.985 459.31 197.005 460.18 198.64 460.18C200.29 460.18 201.4 459.325 201.4 458.02C201.4 456.97 200.83 456.385 199.57 456.07L198.325 455.755C197.53 455.56 197.14 455.17 197.14 454.615C197.14 453.835 197.71 453.4 198.73 453.4C199.705 453.4 200.29 453.895 200.32 454.735H201.325C201.28 453.385 200.29 452.545 198.76 452.545C197.2 452.545 196.135 453.355 196.135 454.63C196.135 455.62 196.75 456.28 198.01 456.595L199.255 456.91C200.11 457.12 200.41 457.465 200.41 458.065C200.41 458.845 199.75 459.325 198.625 459.325C197.605 459.325 196.975 458.8 196.975 457.96H195.985Z" fill="#0A0F0D"/>
<path d="M285.265 382.853V383.733H287.575V386.054H288.455V383.733H290.765V382.853H288.455V380.543H287.575V382.853H285.265ZM297.52 386.989V385.988H293.846L295.496 384.558C296.904 383.337 297.465 382.534 297.465 381.401C297.465 379.872 296.442 378.904 294.847 378.904C293.23 378.904 292.152 380.015 292.119 381.72H293.197C293.219 380.587 293.857 379.872 294.836 379.872C295.793 379.872 296.365 380.466 296.365 381.467C296.365 382.314 296.002 382.853 294.715 383.964L292.152 386.175V387L297.52 386.989ZM304.227 385.394V384.437H303.281V379.047H301.884L298.133 384.437V385.394H302.247V387H303.281V385.394H304.227ZM299.299 384.437L302.247 380.191V384.437H299.299ZM309.229 380.928C309.229 379.74 308.393 378.893 307.216 378.893C306.05 378.893 305.214 379.74 305.214 380.928C305.214 382.105 306.05 382.952 307.216 382.952C308.393 382.952 309.229 382.105 309.229 380.928ZM313.42 379.058H312.364L306.325 387H307.381L313.42 379.058ZM308.382 380.928C308.382 381.632 307.898 382.127 307.216 382.127C306.534 382.127 306.061 381.632 306.061 380.928C306.061 380.213 306.534 379.718 307.216 379.718C307.909 379.718 308.382 380.213 308.382 380.928ZM314.553 385.119C314.553 383.931 313.706 383.095 312.54 383.095C311.374 383.095 310.527 383.931 310.527 385.119C310.527 386.296 311.374 387.143 312.54 387.143C313.706 387.143 314.553 386.296 314.553 385.119ZM313.695 385.119C313.695 385.823 313.222 386.318 312.54 386.318C311.858 386.318 311.385 385.823 311.385 385.119C311.385 384.404 311.858 383.909 312.54 383.909C313.233 383.909 313.695 384.404 313.695 385.119Z" fill="#56BE73"/>
<path d="M72.048 175.216V180H73.2V175.216L77.04 168.544H75.776L72.976 173.488C72.768 173.888 72.768 173.888 72.624 174.176C72.512 173.92 72.416 173.728 72.288 173.488L69.456 168.544H68.16L72.048 175.216ZM76.3111 176.128C76.3111 178.48 77.9751 180.192 80.2471 180.192C82.5191 180.192 84.1831 178.48 84.1831 176.128C84.1831 173.76 82.5191 172.048 80.2471 172.048C77.9751 172.048 76.3111 173.76 76.3111 176.128ZM77.4311 176.112C77.4311 174.32 78.5831 173.04 80.2471 173.04C81.8951 173.04 83.0631 174.32 83.0631 176.112C83.0631 177.936 81.8951 179.2 80.2471 179.2C78.5831 179.2 77.4311 177.936 77.4311 176.112ZM91.2014 172.256V176.368C91.2014 178.208 90.3214 179.2 88.8334 179.2C87.6014 179.2 86.7854 178.544 86.7854 176.704V172.24H85.6654V177.056C85.6654 178.944 86.6574 180.192 88.4814 180.192C89.6974 180.192 90.7694 179.584 91.2014 178.688L91.3454 180H92.3054V172.256H91.2014ZM98.6531 172.16C98.3811 172.096 98.1731 172.08 97.9331 172.08C96.8451 172.08 96.0291 172.624 95.7251 173.456L95.6451 172.256H94.6051V180H95.7091V175.584C95.7091 174.112 96.6211 173.152 98.0451 173.152H98.6531V172.16ZM105.95 180V170.464L112.27 180H113.406V168.544H112.27V178.08L105.966 168.544H104.798V180H105.95ZM119.213 180.192C121.037 180.192 122.237 179.312 122.653 177.68H121.597C121.309 178.704 120.493 179.248 119.229 179.248C117.565 179.248 116.573 178.16 116.493 176.272H122.653V175.728C122.653 173.536 121.229 172.048 119.133 172.048C116.924 172.048 115.421 173.712 115.421 176.128C115.421 178.56 116.941 180.192 119.213 180.192ZM119.133 172.992C120.589 172.992 121.549 173.984 121.549 175.472H116.525C116.717 173.952 117.677 172.992 119.133 172.992ZM126.116 180V173.184H127.668V172.256H126.116V169.808H125.028V172.256H123.476V173.184H125.028V180H126.116ZM133.095 171.52C133.095 173.088 134.039 174.112 135.831 174.544L137.767 175.024C138.999 175.312 139.575 175.984 139.575 177.008C139.575 178.32 138.503 179.136 136.823 179.136C135.255 179.136 134.199 178.352 134.135 177.152H132.951C133.095 179.024 134.599 180.192 136.823 180.192C139.191 180.192 140.727 178.928 140.727 176.944C140.727 175.392 139.799 174.368 138.007 173.936L136.039 173.456C134.839 173.152 134.247 172.512 134.247 171.504C134.247 170.208 135.303 169.376 136.919 169.376C138.359 169.376 139.239 170.112 139.367 171.408H140.535C140.359 169.488 138.999 168.336 136.935 168.336C134.631 168.336 133.095 169.6 133.095 171.52ZM144.782 180.192C146.094 180.192 147.15 179.616 147.63 178.64L147.774 180H148.702V174.992C148.702 172.944 147.39 172.048 145.598 172.048C143.694 172.048 142.414 173.056 142.414 174.624H143.422C143.422 173.584 144.222 172.976 145.566 172.976C146.702 172.976 147.614 173.456 147.614 174.976V175.232L145.054 175.44C143.246 175.584 142.158 176.48 142.158 177.904C142.158 179.264 143.134 180.192 144.782 180.192ZM145.038 179.296C143.982 179.296 143.278 178.816 143.278 177.872C143.278 177.008 143.87 176.368 145.326 176.24L147.614 176.064V176.48C147.614 178.16 146.67 179.296 145.038 179.296ZM152.07 180V168.336H150.966V180H152.07ZM157.666 180.192C159.49 180.192 160.69 179.312 161.106 177.68H160.05C159.762 178.704 158.946 179.248 157.682 179.248C156.018 179.248 155.026 178.16 154.946 176.272H161.106V175.728C161.106 173.536 159.682 172.048 157.586 172.048C155.378 172.048 153.874 173.712 153.874 176.128C153.874 178.56 155.394 180.192 157.666 180.192ZM157.586 172.992C159.042 172.992 160.002 173.984 160.002 175.472H154.978C155.17 173.952 156.13 172.992 157.586 172.992ZM162.215 177.824C162.215 179.264 163.303 180.192 165.047 180.192C166.807 180.192 167.991 179.28 167.991 177.888C167.991 176.768 167.383 176.144 166.039 175.808L164.711 175.472C163.863 175.264 163.447 174.848 163.447 174.256C163.447 173.424 164.055 172.96 165.143 172.96C166.183 172.96 166.807 173.488 166.839 174.384H167.911C167.863 172.944 166.807 172.048 165.175 172.048C163.511 172.048 162.375 172.912 162.375 174.272C162.375 175.328 163.031 176.032 164.375 176.368L165.703 176.704C166.615 176.928 166.935 177.296 166.935 177.936C166.935 178.768 166.231 179.28 165.031 179.28C163.943 179.28 163.271 178.72 163.271 177.824H162.215ZM171.635 179.456C171.635 178.656 171.139 178.192 170.563 178.192C170.003 178.192 169.619 178.592 169.619 179.152C169.619 179.696 170.003 180.016 170.451 180.016C170.643 180.016 170.771 179.968 170.867 179.904C170.867 180.352 170.451 180.768 169.875 180.864V181.456C170.867 181.312 171.635 180.448 171.635 179.456ZM177.348 169.6H180.868V180H182.02V169.6H185.556V168.544H177.348V169.6ZM185.171 176.128C185.171 178.48 186.835 180.192 189.107 180.192C191.379 180.192 193.043 178.48 193.043 176.128C193.043 173.76 191.379 172.048 189.107 172.048C186.835 172.048 185.171 173.76 185.171 176.128ZM186.291 176.112C186.291 174.32 187.443 173.04 189.107 173.04C190.755 173.04 191.923 174.32 191.923 176.112C191.923 177.936 190.755 179.2 189.107 179.2C187.443 179.2 186.291 177.936 186.291 176.112ZM196.506 180V173.184H198.058V172.256H196.506V169.808H195.418V172.256H193.866V173.184H195.418V180H196.506ZM201.595 180.192C202.907 180.192 203.963 179.616 204.443 178.64L204.587 180H205.515V174.992C205.515 172.944 204.203 172.048 202.411 172.048C200.507 172.048 199.227 173.056 199.227 174.624H200.235C200.235 173.584 201.035 172.976 202.379 172.976C203.515 172.976 204.427 173.456 204.427 174.976V175.232L201.867 175.44C200.059 175.584 198.971 176.48 198.971 177.904C198.971 179.264 199.947 180.192 201.595 180.192ZM201.851 179.296C200.795 179.296 200.091 178.816 200.091 177.872C200.091 177.008 200.683 176.368 202.139 176.24L204.427 176.064V176.48C204.427 178.16 203.483 179.296 201.851 179.296ZM208.882 180V168.336H207.778V180H208.882ZM215.22 171.52C215.22 173.088 216.164 174.112 217.956 174.544L219.892 175.024C221.124 175.312 221.7 175.984 221.7 177.008C221.7 178.32 220.628 179.136 218.948 179.136C217.38 179.136 216.324 178.352 216.26 177.152H215.076C215.22 179.024 216.724 180.192 218.948 180.192C221.316 180.192 222.852 178.928 222.852 176.944C222.852 175.392 221.924 174.368 220.132 173.936L218.164 173.456C216.964 173.152 216.372 172.512 216.372 171.504C216.372 170.208 217.428 169.376 219.044 169.376C220.484 169.376 221.364 170.112 221.492 171.408H222.66C222.484 169.488 221.124 168.336 219.06 168.336C216.756 168.336 215.22 169.6 215.22 171.52ZM224.683 183.376H225.787V178.512C226.331 179.632 227.371 180.192 228.683 180.192C230.971 180.192 232.267 178.432 232.267 176.096C232.267 173.76 230.923 172.048 228.683 172.048C227.387 172.048 226.299 172.624 225.755 173.824L225.643 172.256H224.683V183.376ZM225.803 176.128C225.803 174.336 226.795 173.056 228.491 173.056C230.171 173.056 231.147 174.336 231.147 176.128C231.147 177.904 230.171 179.2 228.491 179.2C226.795 179.2 225.803 177.904 225.803 176.128ZM237.275 180.192C239.099 180.192 240.299 179.312 240.715 177.68H239.659C239.371 178.704 238.555 179.248 237.291 179.248C235.627 179.248 234.635 178.16 234.555 176.272H240.715V175.728C240.715 173.536 239.291 172.048 237.195 172.048C234.987 172.048 233.483 173.712 233.483 176.128C233.483 178.56 235.003 180.192 237.275 180.192ZM237.195 172.992C238.651 172.992 239.611 173.984 239.611 175.472H234.587C234.779 173.952 235.739 172.992 237.195 172.992ZM243.584 180V175.952C243.584 174.208 244.48 173.056 246.064 173.056C247.344 173.056 248.16 173.696 248.16 175.504V180H249.264V175.264C249.264 173.312 248.384 172.048 246.256 172.048C245.136 172.048 244.112 172.608 243.6 173.6L243.44 172.256H242.48V180H243.584ZM254.505 180.192C255.801 180.192 256.889 179.616 257.433 178.416L257.545 180H258.505V168.336H257.401V173.728C256.857 172.608 255.833 172.048 254.553 172.048C252.249 172.048 250.921 173.808 250.921 176.144C250.921 178.464 252.249 180.192 254.505 180.192ZM254.697 179.184C253.017 179.184 252.041 177.904 252.041 176.112C252.041 174.336 253.017 173.04 254.697 173.04C256.393 173.04 257.385 174.336 257.385 176.112C257.385 177.904 256.393 179.184 254.697 179.184ZM262.76 179.456C262.76 178.656 262.264 178.192 261.688 178.192C261.128 178.192 260.744 178.592 260.744 179.152C260.744 179.696 261.128 180.016 261.576 180.016C261.768 180.016 261.896 179.968 261.992 179.904C261.992 180.352 261.576 180.768 261 180.864V181.456C261.992 181.312 262.76 180.448 262.76 179.456ZM269.593 176.016C269.593 178.624 271.193 180.192 273.849 180.192C276.457 180.192 278.057 178.608 278.057 176.016V168.544H276.905V175.968C276.905 177.952 275.801 179.072 273.849 179.072C271.849 179.072 270.745 177.984 270.745 175.968V168.544H269.593V176.016ZM279.84 177.824C279.84 179.264 280.928 180.192 282.672 180.192C284.432 180.192 285.616 179.28 285.616 177.888C285.616 176.768 285.008 176.144 283.664 175.808L282.336 175.472C281.488 175.264 281.072 174.848 281.072 174.256C281.072 173.424 281.68 172.96 282.768 172.96C283.808 172.96 284.432 173.488 284.464 174.384H285.536C285.488 172.944 284.432 172.048 282.8 172.048C281.136 172.048 280 172.912 280 174.272C280 175.328 280.656 176.032 282 176.368L283.328 176.704C284.24 176.928 284.56 177.296 284.56 177.936C284.56 178.768 283.856 179.28 282.656 179.28C281.568 179.28 280.896 178.72 280.896 177.824H279.84ZM290.681 180.192C292.505 180.192 293.705 179.312 294.121 177.68H293.065C292.777 178.704 291.961 179.248 290.697 179.248C289.033 179.248 288.041 178.16 287.961 176.272H294.121V175.728C294.121 173.536 292.697 172.048 290.601 172.048C288.393 172.048 286.889 173.712 286.889 176.128C286.889 178.56 288.409 180.192 290.681 180.192ZM290.601 172.992C292.057 172.992 293.017 173.984 293.017 175.472H287.993C288.185 173.952 289.145 172.992 290.601 172.992ZM299.934 172.16C299.662 172.096 299.454 172.08 299.214 172.08C298.126 172.08 297.31 172.624 297.006 173.456L296.926 172.256H295.886V180H296.99V175.584C296.99 174.112 297.902 173.152 299.326 173.152H299.934V172.16ZM300.746 177.824C300.746 179.264 301.834 180.192 303.578 180.192C305.338 180.192 306.522 179.28 306.522 177.888C306.522 176.768 305.914 176.144 304.57 175.808L303.242 175.472C302.394 175.264 301.978 174.848 301.978 174.256C301.978 173.424 302.586 172.96 303.674 172.96C304.714 172.96 305.338 173.488 305.37 174.384H306.442C306.394 172.944 305.338 172.048 303.706 172.048C302.042 172.048 300.906 172.912 300.906 174.272C300.906 175.328 301.562 176.032 302.906 176.368L304.234 176.704C305.146 176.928 305.466 177.296 305.466 177.936C305.466 178.768 304.762 179.28 303.562 179.28C302.474 179.28 301.802 178.72 301.802 177.824H300.746ZM310.167 179.456C310.167 178.656 309.671 178.192 309.095 178.192C308.535 178.192 308.151 178.592 308.151 179.152C308.151 179.696 308.535 180.016 308.983 180.016C309.174 180.016 309.303 179.968 309.399 179.904C309.399 180.352 308.983 180.768 308.407 180.864V181.456C309.399 181.312 310.167 180.448 310.167 179.456ZM74.064 204.176C76.528 204.176 78.528 202.72 79.056 200.56H77.824C77.328 202.096 75.888 203.072 74.08 203.072C71.568 203.072 69.888 201.152 69.888 198.272C69.888 195.376 71.568 193.456 74.08 193.456C75.872 193.456 77.28 194.464 77.76 196.112H78.992C78.528 193.84 76.592 192.352 74.128 192.352C70.896 192.352 68.688 194.752 68.688 198.272C68.688 201.792 70.864 204.176 74.064 204.176ZM80.2643 200.128C80.2643 202.48 81.9283 204.192 84.2003 204.192C86.4723 204.192 88.1363 202.48 88.1363 200.128C88.1363 197.76 86.4723 196.048 84.2003 196.048C81.9283 196.048 80.2643 197.76 80.2643 200.128ZM81.3843 200.112C81.3843 198.32 82.5363 197.04 84.2003 197.04C85.8483 197.04 87.0163 198.32 87.0163 200.112C87.0163 201.936 85.8483 203.2 84.2003 203.2C82.5363 203.2 81.3843 201.936 81.3843 200.112ZM91.006 204V199.952C91.006 198.208 91.902 197.056 93.486 197.056C94.766 197.056 95.582 197.696 95.582 199.504V204H96.686V199.264C96.686 197.312 95.806 196.048 93.678 196.048C92.558 196.048 91.534 196.608 91.022 197.6L90.862 196.256H89.902V204H91.006ZM100.89 204H101.994L105.21 196.256H104.074L102.042 201.248C101.818 201.808 101.61 202.32 101.466 202.848C101.322 202.336 101.114 201.808 100.906 201.248L98.9061 196.256H97.7221L100.89 204ZM109.416 204.192C111.24 204.192 112.44 203.312 112.856 201.68H111.8C111.512 202.704 110.696 203.248 109.432 203.248C107.768 203.248 106.776 202.16 106.696 200.272H112.856V199.728C112.856 197.536 111.432 196.048 109.336 196.048C107.128 196.048 105.624 197.712 105.624 200.128C105.624 202.56 107.144 204.192 109.416 204.192ZM109.336 196.992C110.792 196.992 111.752 197.984 111.752 199.472H106.728C106.92 197.952 107.88 196.992 109.336 196.992ZM118.669 196.16C118.397 196.096 118.189 196.08 117.949 196.08C116.861 196.08 116.045 196.624 115.741 197.456L115.661 196.256H114.621V204H115.725V199.584C115.725 198.112 116.637 197.152 118.061 197.152H118.669V196.16ZM119.48 201.824C119.48 203.264 120.568 204.192 122.312 204.192C124.072 204.192 125.256 203.28 125.256 201.888C125.256 200.768 124.648 200.144 123.304 199.808L121.976 199.472C121.128 199.264 120.712 198.848 120.712 198.256C120.712 197.424 121.32 196.96 122.408 196.96C123.448 196.96 124.072 197.488 124.104 198.384H125.176C125.128 196.944 124.072 196.048 122.44 196.048C120.776 196.048 119.64 196.912 119.64 198.272C119.64 199.328 120.296 200.032 121.64 200.368L122.968 200.704C123.88 200.928 124.2 201.296 124.2 201.936C124.2 202.768 123.496 203.28 122.296 203.28C121.208 203.28 120.536 202.72 120.536 201.824H119.48ZM127.618 194.128C128.066 194.128 128.45 193.76 128.45 193.312C128.45 192.864 128.066 192.48 127.618 192.48C127.17 192.48 126.802 192.864 126.802 193.312C126.802 193.76 127.17 194.128 127.618 194.128ZM127.074 204H128.178V196.256H127.074V204ZM129.936 200.128C129.936 202.48 131.6 204.192 133.872 204.192C136.144 204.192 137.808 202.48 137.808 200.128C137.808 197.76 136.144 196.048 133.872 196.048C131.6 196.048 129.936 197.76 129.936 200.128ZM131.056 200.112C131.056 198.32 132.208 197.04 133.872 197.04C135.52 197.04 136.688 198.32 136.688 200.112C136.688 201.936 135.52 203.2 133.872 203.2C132.208 203.2 131.056 201.936 131.056 200.112ZM140.678 204V199.952C140.678 198.208 141.574 197.056 143.158 197.056C144.438 197.056 145.254 197.696 145.254 199.504V204H146.358V199.264C146.358 197.312 145.478 196.048 143.35 196.048C142.23 196.048 141.206 196.608 140.694 197.6L140.534 196.256H139.574V204H140.678ZM154.388 204V199.248H157.732L160.068 204H161.348L158.9 199.056C160.372 198.656 161.236 197.504 161.236 195.856C161.236 193.824 159.828 192.544 157.508 192.544H153.236V204H154.388ZM154.388 193.584H157.508C159.076 193.584 160.052 194.4 160.052 195.888C160.052 197.344 159.124 198.208 157.54 198.208H154.388V193.584ZM165.142 204.192C166.454 204.192 167.51 203.616 167.99 202.64L168.134 204H169.062V198.992C169.062 196.944 167.75 196.048 165.958 196.048C164.054 196.048 162.774 197.056 162.774 198.624H163.782C163.782 197.584 164.582 196.976 165.926 196.976C167.062 196.976 167.974 197.456 167.974 198.976V199.232L165.414 199.44C163.606 199.584 162.518 200.48 162.518 201.904C162.518 203.264 163.494 204.192 165.142 204.192ZM165.398 203.296C164.342 203.296 163.638 202.816 163.638 201.872C163.638 201.008 164.23 200.368 165.686 200.24L167.974 200.064V200.48C167.974 202.16 167.03 203.296 165.398 203.296ZM172.912 204V197.184H174.464V196.256H172.912V193.808H171.824V196.256H170.272V197.184H171.824V204H172.912ZM179.072 204.192C180.896 204.192 182.096 203.312 182.512 201.68H181.456C181.168 202.704 180.352 203.248 179.088 203.248C177.424 203.248 176.432 202.16 176.352 200.272H182.512V199.728C182.512 197.536 181.088 196.048 178.992 196.048C176.784 196.048 175.28 197.712 175.28 200.128C175.28 202.56 176.8 204.192 179.072 204.192ZM178.992 196.992C180.448 196.992 181.408 197.984 181.408 199.472H176.384C176.576 197.952 177.536 196.992 178.992 196.992ZM185.745 203.456C185.745 202.656 185.249 202.192 184.673 202.192C184.113 202.192 183.729 202.592 183.729 203.152C183.729 203.696 184.113 204.016 184.561 204.016C184.753 204.016 184.881 203.968 184.977 203.904C184.977 204.352 184.561 204.768 183.985 204.864V205.456C184.977 205.312 185.745 204.448 185.745 203.456ZM194.642 204.192C195.954 204.192 197.01 203.616 197.49 202.64L197.634 204H198.562V198.992C198.562 196.944 197.25 196.048 195.458 196.048C193.554 196.048 192.274 197.056 192.274 198.624H193.282C193.282 197.584 194.082 196.976 195.426 196.976C196.562 196.976 197.474 197.456 197.474 198.976V199.232L194.914 199.44C193.106 199.584 192.018 200.48 192.018 201.904C192.018 203.264 192.994 204.192 194.642 204.192ZM194.898 203.296C193.842 203.296 193.138 202.816 193.138 201.872C193.138 201.008 193.73 200.368 195.186 200.24L197.474 200.064V200.48C197.474 202.16 196.53 203.296 194.898 203.296ZM201.881 204V199.952C201.881 198.208 202.777 197.056 204.361 197.056C205.641 197.056 206.457 197.696 206.457 199.504V204H207.561V199.264C207.561 197.312 206.681 196.048 204.553 196.048C203.433 196.048 202.409 196.608 201.897 197.6L201.737 196.256H200.777V204H201.881ZM212.801 204.192C214.097 204.192 215.185 203.616 215.729 202.416L215.841 204H216.801V192.336H215.697V197.728C215.153 196.608 214.129 196.048 212.849 196.048C210.545 196.048 209.217 197.808 209.217 200.144C209.217 202.464 210.545 204.192 212.801 204.192ZM212.993 203.184C211.313 203.184 210.337 201.904 210.337 200.112C210.337 198.336 211.313 197.04 212.993 197.04C214.689 197.04 215.681 198.336 215.681 200.112C215.681 201.904 214.689 203.184 212.993 203.184ZM223.783 204L224.903 200.96H230.183L231.303 204H232.503L228.247 192.544H226.823L222.615 204H223.783ZM227.383 194.16C227.447 194 227.511 193.792 227.527 193.696C227.543 193.808 227.623 194 227.671 194.16L229.815 199.952H225.255L227.383 194.16ZM243.85 198.272C243.85 194.784 241.61 192.336 238.394 192.336C235.194 192.336 232.938 194.8 232.938 198.272C232.938 201.744 235.178 204.192 238.394 204.192C241.594 204.192 243.85 201.744 243.85 198.272ZM242.666 198.272C242.666 201.12 240.922 203.088 238.394 203.088C235.866 203.088 234.138 201.136 234.138 198.272C234.138 195.408 235.866 193.456 238.394 193.456C240.922 193.456 242.666 195.408 242.666 198.272ZM248.638 204H249.838L254.19 192.544H253.006L249.966 200.496C249.79 200.928 249.502 201.728 249.262 202.56C249.006 201.76 248.782 201.136 248.542 200.512L245.486 192.544H244.254L248.638 204ZM255.979 203.456C255.979 202.656 255.483 202.192 254.907 202.192C254.347 202.192 253.963 202.592 253.963 203.152C253.963 203.696 254.347 204.016 254.795 204.016C254.987 204.016 255.115 203.968 255.211 203.904C255.211 204.352 254.795 204.768 254.219 204.864V205.456C255.211 205.312 255.979 204.448 255.979 203.456ZM264.876 204.192C266.188 204.192 267.244 203.616 267.724 202.64L267.868 204H268.796V198.992C268.796 196.944 267.484 196.048 265.692 196.048C263.788 196.048 262.508 197.056 262.508 198.624H263.516C263.516 197.584 264.316 196.976 265.66 196.976C266.796 196.976 267.708 197.456 267.708 198.976V199.232L265.148 199.44C263.34 199.584 262.252 200.48 262.252 201.904C262.252 203.264 263.228 204.192 264.876 204.192ZM265.132 203.296C264.076 203.296 263.372 202.816 263.372 201.872C263.372 201.008 263.964 200.368 265.42 200.24L267.708 200.064V200.48C267.708 202.16 266.764 203.296 265.132 203.296ZM272.163 204V192.336H271.059V204H272.163ZM275.663 204V192.336H274.559V204H275.663ZM284.673 204.192C285.985 204.192 287.041 203.616 287.521 202.64L287.665 204H288.593V198.992C288.593 196.944 287.281 196.048 285.489 196.048C283.585 196.048 282.305 197.056 282.305 198.624H283.313C283.313 197.584 284.113 196.976 285.457 196.976C286.593 196.976 287.505 197.456 287.505 198.976V199.232L284.945 199.44C283.137 199.584 282.049 200.48 282.049 201.904C282.049 203.264 283.025 204.192 284.673 204.192ZM284.929 203.296C283.873 203.296 283.169 202.816 283.169 201.872C283.169 201.008 283.761 200.368 285.217 200.24L287.505 200.064V200.48C287.505 202.16 286.561 203.296 284.929 203.296ZM292.444 204V197.184H293.996V196.256H292.444V193.808H291.356V196.256H289.804V197.184H291.356V204H292.444ZM302.095 204.192C303.407 204.192 304.463 203.616 304.943 202.64L305.087 204H306.015V198.992C306.015 196.944 304.703 196.048 302.911 196.048C301.007 196.048 299.727 197.056 299.727 198.624H300.735C300.735 197.584 301.535 196.976 302.879 196.976C304.015 196.976 304.927 197.456 304.927 198.976V199.232L302.367 199.44C300.559 199.584 299.471 200.48 299.471 201.904C299.471 203.264 300.447 204.192 302.095 204.192ZM302.351 203.296C301.295 203.296 300.591 202.816 300.591 201.872C300.591 201.008 301.183 200.368 302.639 200.24L304.927 200.064V200.48C304.927 202.16 303.983 203.296 302.351 203.296ZM68.624 223.904C68.624 226.016 69.968 227.76 72.176 227.76C73.504 227.76 74.576 227.12 75.104 226.032V227.872C75.104 229.488 74.048 230.56 72.464 230.56C71.072 230.56 70.112 229.824 69.872 228.576H68.768C69.072 230.448 70.464 231.568 72.448 231.568C74.72 231.568 76.192 230.064 76.192 227.76V220.256H75.232L75.12 221.808C74.624 220.672 73.6 220.048 72.256 220.048C69.984 220.048 68.624 221.792 68.624 223.904ZM69.728 223.888C69.728 222.32 70.688 221.024 72.352 221.024C74.048 221.024 75.008 222.24 75.008 223.888C75.008 225.552 74.016 226.768 72.336 226.768C70.704 226.768 69.728 225.472 69.728 223.888ZM79.6478 228V216.336H78.5438V228H79.6478ZM84.2198 228.192C85.5318 228.192 86.5878 227.616 87.0678 226.64L87.2118 228H88.1398V222.992C88.1398 220.944 86.8278 220.048 85.0358 220.048C83.1318 220.048 81.8518 221.056 81.8518 222.624H82.8598C82.8598 221.584 83.6598 220.976 85.0038 220.976C86.1398 220.976 87.0518 221.456 87.0518 222.976V223.232L84.4918 223.44C82.6838 223.584 81.5958 224.48 81.5958 225.904C81.5958 227.264 82.5718 228.192 84.2198 228.192ZM84.4758 227.296C83.4198 227.296 82.7158 226.816 82.7158 225.872C82.7158 225.008 83.3078 224.368 84.7638 224.24L87.0518 224.064V224.48C87.0518 226.16 86.1078 227.296 84.4758 227.296ZM91.4591 228V223.952C91.4591 222.208 92.3551 221.056 93.9391 221.056C95.2191 221.056 96.0351 221.696 96.0351 223.504V228H97.1391V223.264C97.1391 221.312 96.2591 220.048 94.1311 220.048C93.0111 220.048 91.9871 220.608 91.4751 221.6L91.3151 220.256H90.3551V228H91.4591ZM98.7955 224.144C98.7955 226.576 100.284 228.192 102.476 228.192C104.236 228.192 105.612 227.152 105.98 225.568H104.86C104.556 226.56 103.628 227.2 102.476 227.2C100.908 227.2 99.8835 225.968 99.8835 224.128C99.8835 222.224 100.988 221.024 102.556 221.024C103.628 221.024 104.556 221.616 104.844 222.688H105.948C105.644 221.088 104.332 220.048 102.54 220.048C100.284 220.048 98.7955 221.712 98.7955 224.144ZM110.9 228.192C112.724 228.192 113.924 227.312 114.34 225.68H113.284C112.996 226.704 112.18 227.248 110.916 227.248C109.252 227.248 108.26 226.16 108.18 224.272H114.34V223.728C114.34 221.536 112.916 220.048 110.82 220.048C108.612 220.048 107.108 221.712 107.108 224.128C107.108 226.56 108.628 228.192 110.9 228.192ZM110.82 220.992C112.276 220.992 113.236 221.984 113.236 223.472H108.212C108.404 221.952 109.364 220.992 110.82 220.992ZM116.565 228.176C117.109 228.176 117.573 227.728 117.573 227.2C117.573 226.656 117.109 226.192 116.565 226.192C116.021 226.192 115.557 226.656 115.557 227.2C115.557 227.728 116.021 228.176 116.565 228.176Z" fill="#0A0F0D" fill-opacity="0.8"/>
<g clip-path="url(#clip1_1_457)">
<path d="M48 178.26C46.2318 178.26 44.799 176.845 44.799 175.099V174.899C44.799 173.154 46.2318 171.738 48 171.738C49.7682 171.738 51.201 173.154 51.201 174.899V175.099C51.201 176.845 49.7682 178.26 48 178.26ZM48 167C43.5815 167 40 170.537 40 174.9V175.1C40 179.462 43.5815 183 48 183C52.4185 183 56 179.463 56 175.1V174.9C56 170.537 52.4177 167 48 167Z" fill="black"/>
</g>
<path d="M69.392 118L70.512 114.96H75.792L76.912 118H78.112L73.856 106.544H72.432L68.224 118H69.392ZM72.992 108.16C73.056 108 73.12 107.792 73.136 107.696C73.152 107.808 73.232 108 73.28 108.16L75.424 113.952H70.864L72.992 108.16ZM85.006 117.984V113.776C85.006 112.288 85.87 111.056 87.534 111.056C88.734 111.056 89.582 111.696 89.582 113.504V118H90.686V113.264C90.686 111.312 89.774 110.048 87.742 110.048C86.446 110.048 85.502 110.672 85.006 111.6V106.336H83.902V117.984H85.006ZM93.4304 108.128C93.8784 108.128 94.2624 107.76 94.2624 107.312C94.2624 106.864 93.8784 106.48 93.4304 106.48C92.9824 106.48 92.6144 106.864 92.6144 107.312C92.6144 107.76 92.9824 108.128 93.4304 108.128ZM92.8864 118H93.9904V110.256H92.8864V118ZM95.7646 113.904C95.7646 116.016 97.1086 117.76 99.3166 117.76C100.645 117.76 101.717 117.12 102.245 116.032V117.872C102.245 119.488 101.189 120.56 99.6046 120.56C98.2126 120.56 97.2526 119.824 97.0126 118.576H95.9086C96.2126 120.448 97.6046 121.568 99.5886 121.568C101.861 121.568 103.333 120.064 103.333 117.76V110.256H102.373L102.261 111.808C101.765 110.672 100.741 110.048 99.3966 110.048C97.1246 110.048 95.7646 111.792 95.7646 113.904ZM96.8686 113.888C96.8686 112.32 97.8286 111.024 99.4926 111.024C101.189 111.024 102.149 112.24 102.149 113.888C102.149 115.552 101.157 116.768 99.4766 116.768C97.8446 116.768 96.8686 115.472 96.8686 113.888ZM106.74 117.984V113.776C106.74 112.288 107.604 111.056 109.268 111.056C110.468 111.056 111.316 111.696 111.316 113.504V118H112.42V113.264C112.42 111.312 111.508 110.048 109.476 110.048C108.18 110.048 107.236 110.672 106.74 111.6V106.336H105.636V117.984H106.74ZM114.493 114.288H119.133V113.296H114.493V114.288ZM122.46 118V106.336H121.356V118H122.46ZM128.056 118.192C129.88 118.192 131.08 117.312 131.496 115.68H130.44C130.152 116.704 129.336 117.248 128.072 117.248C126.408 117.248 125.416 116.16 125.336 114.272H131.496V113.728C131.496 111.536 130.072 110.048 127.976 110.048C125.768 110.048 124.264 111.712 124.264 114.128C124.264 116.56 125.784 118.192 128.056 118.192ZM127.976 110.992C129.432 110.992 130.392 111.984 130.392 113.472H125.368C125.56 111.952 126.52 110.992 127.976 110.992ZM135.218 118H136.322L139.538 110.256H138.402L136.37 115.248C136.146 115.808 135.938 116.32 135.794 116.848C135.65 116.336 135.442 115.808 135.234 115.248L133.234 110.256H132.05L135.218 118ZM143.744 118.192C145.568 118.192 146.768 117.312 147.184 115.68H146.128C145.84 116.704 145.024 117.248 143.76 117.248C142.096 117.248 141.104 116.16 141.024 114.272H147.184V113.728C147.184 111.536 145.76 110.048 143.664 110.048C141.456 110.048 139.952 111.712 139.952 114.128C139.952 116.56 141.472 118.192 143.744 118.192ZM143.664 110.992C145.12 110.992 146.08 111.984 146.08 113.472H141.056C141.248 111.952 142.208 110.992 143.664 110.992ZM150.101 118V106.336H148.997V118H150.101ZM156.342 114.128C156.342 116.48 158.006 118.192 160.278 118.192C162.55 118.192 164.214 116.48 164.214 114.128C164.214 111.76 162.55 110.048 160.278 110.048C158.006 110.048 156.342 111.76 156.342 114.128ZM157.462 114.112C157.462 112.32 158.614 111.04 160.278 111.04C161.926 111.04 163.094 112.32 163.094 114.112C163.094 115.936 161.926 117.2 160.278 117.2C158.614 117.2 157.462 115.936 157.462 114.112ZM167.796 118H168.9L172.116 110.256H170.98L168.948 115.248C168.724 115.808 168.516 116.32 168.372 116.848C168.228 116.336 168.02 115.808 167.812 115.248L165.812 110.256H164.628L167.796 118ZM176.322 118.192C178.146 118.192 179.346 117.312 179.762 115.68H178.706C178.418 116.704 177.602 117.248 176.338 117.248C174.674 117.248 173.682 116.16 173.602 114.272H179.762V113.728C179.762 111.536 178.338 110.048 176.242 110.048C174.034 110.048 172.53 111.712 172.53 114.128C172.53 116.56 174.05 118.192 176.322 118.192ZM176.242 110.992C177.698 110.992 178.658 111.984 178.658 113.472H173.634C173.826 111.952 174.786 110.992 176.242 110.992ZM185.575 110.16C185.303 110.096 185.095 110.08 184.855 110.08C183.767 110.08 182.951 110.624 182.647 111.456L182.567 110.256H181.527V118H182.631V113.584C182.631 112.112 183.543 111.152 184.967 111.152H185.575V110.16ZM189.437 118H190.541L193.757 110.256H192.621L190.589 115.248C190.365 115.808 190.157 116.32 190.013 116.848C189.869 116.336 189.661 115.808 189.453 115.248L187.453 110.256H186.269L189.437 118ZM195.602 108.128C196.05 108.128 196.434 107.76 196.434 107.312C196.434 106.864 196.05 106.48 195.602 106.48C195.154 106.48 194.786 106.864 194.786 107.312C194.786 107.76 195.154 108.128 195.602 108.128ZM195.058 118H196.162V110.256H195.058V118ZM201.713 118.192C203.537 118.192 204.737 117.312 205.153 115.68H204.097C203.809 116.704 202.993 117.248 201.729 117.248C200.065 117.248 199.073 116.16 198.993 114.272H205.153V113.728C205.153 111.536 203.729 110.048 201.633 110.048C199.424 110.048 197.921 111.712 197.921 114.128C197.921 116.56 199.441 118.192 201.713 118.192ZM201.633 110.992C203.089 110.992 204.049 111.984 204.049 113.472H199.025C199.217 111.952 200.177 110.992 201.633 110.992ZM208.347 118H209.451L211.051 113.136C211.259 112.496 211.387 112.032 211.499 111.616C211.595 112.08 211.723 112.56 211.915 113.136L213.515 118H214.587L217.211 110.256H216.059L214.523 114.928C214.251 115.76 214.219 115.952 214.059 116.592C213.915 116.016 213.723 115.344 213.579 114.928L212.059 110.256H210.923L209.387 114.928C209.307 115.184 209.051 115.968 208.923 116.592C208.763 115.968 208.619 115.44 208.443 114.928L206.923 110.256H205.787L208.347 118ZM222.483 114.128C222.483 116.48 224.147 118.192 226.419 118.192C228.691 118.192 230.355 116.48 230.355 114.128C230.355 111.76 228.691 110.048 226.419 110.048C224.147 110.048 222.483 111.76 222.483 114.128ZM223.603 114.112C223.603 112.32 224.755 111.04 226.419 111.04C228.067 111.04 229.235 112.32 229.235 114.112C229.235 115.936 228.067 117.2 226.419 117.2C224.755 117.2 223.603 115.936 223.603 114.112ZM231.194 110.256V111.184H232.378V118H233.482V111.184H235.306V110.256H233.482V108.752C233.482 107.84 233.738 107.344 234.714 107.344H235.37V106.4C235.114 106.352 234.794 106.336 234.522 106.336C233.338 106.336 232.378 107.008 232.378 108.752V110.256H231.194ZM240.462 121.376C240.814 121.456 241.166 121.488 241.63 121.488C242.734 121.488 243.486 120.992 243.934 119.776L247.486 110.256H246.35L243.902 117.008L241.406 110.256H240.238L243.374 118.464L243.038 119.376C242.654 120.416 241.982 120.464 241.31 120.464H240.462V121.376ZM247.967 114.128C247.967 116.48 249.631 118.192 251.903 118.192C254.175 118.192 255.839 116.48 255.839 114.128C255.839 111.76 254.175 110.048 251.903 110.048C249.631 110.048 247.967 111.76 247.967 114.128ZM249.087 114.112C249.087 112.32 250.239 111.04 251.903 111.04C253.551 111.04 254.719 112.32 254.719 114.112C254.719 115.936 253.551 117.2 251.903 117.2C250.239 117.2 249.087 115.936 249.087 114.112ZM262.858 110.256V114.368C262.858 116.208 261.978 117.2 260.49 117.2C259.258 117.2 258.442 116.544 258.442 114.704V110.24H257.322V115.056C257.322 116.944 258.314 118.192 260.138 118.192C261.354 118.192 262.426 117.584 262.858 116.688L263.002 118H263.962V110.256H262.858ZM270.309 110.16C270.037 110.096 269.829 110.08 269.589 110.08C268.501 110.08 267.685 110.624 267.381 111.456L267.301 110.256H266.261V118H267.365V113.584C267.365 112.112 268.277 111.152 269.701 111.152H270.309V110.16ZM277.367 118V115.68L278.871 114.128L281.335 118H282.615L279.623 113.344L282.599 110.256H281.207L277.367 114.256V106.336H276.263V118H277.367ZM286.916 118.192C288.74 118.192 289.94 117.312 290.356 115.68H289.3C289.012 116.704 288.196 117.248 286.932 117.248C285.268 117.248 284.276 116.16 284.196 114.272H290.356V113.728C290.356 111.536 288.932 110.048 286.836 110.048C284.628 110.048 283.124 111.712 283.124 114.128C283.124 116.56 284.644 118.192 286.916 118.192ZM286.836 110.992C288.292 110.992 289.252 111.984 289.252 113.472H284.228C284.42 111.952 285.38 110.992 286.836 110.992ZM291.149 121.376C291.501 121.456 291.853 121.488 292.317 121.488C293.421 121.488 294.173 120.992 294.621 119.776L298.173 110.256H297.037L294.589 117.008L292.093 110.256H290.925L294.061 118.464L293.725 119.376C293.341 120.416 292.669 120.464 291.997 120.464H291.149V121.376ZM69.152 145.376H70.256V140.512C70.8 141.632 71.84 142.192 73.152 142.192C75.44 142.192 76.736 140.432 76.736 138.096C76.736 135.76 75.392 134.048 73.152 134.048C71.856 134.048 70.768 134.624 70.224 135.824L70.112 134.256H69.152V145.376ZM70.272 138.128C70.272 136.336 71.264 135.056 72.96 135.056C74.64 135.056 75.616 136.336 75.616 138.128C75.616 139.904 74.64 141.2 72.96 141.2C71.264 141.2 70.272 139.904 70.272 138.128ZM81.7438 142.192C83.5678 142.192 84.7678 141.312 85.1838 139.68H84.1278C83.8398 140.704 83.0238 141.248 81.7598 141.248C80.0958 141.248 79.1038 140.16 79.0238 138.272H85.1838V137.728C85.1838 135.536 83.7598 134.048 81.6638 134.048C79.4557 134.048 77.9518 135.712 77.9518 138.128C77.9518 140.56 79.4718 142.192 81.7438 142.192ZM81.6638 134.992C83.1198 134.992 84.0798 135.984 84.0798 137.472H79.0558C79.2478 135.952 80.2078 134.992 81.6638 134.992ZM90.9969 134.16C90.7249 134.096 90.5169 134.08 90.2769 134.08C89.1889 134.08 88.3729 134.624 88.0689 135.456L87.9889 134.256H86.9489V142H88.0529V137.584C88.0529 136.112 88.9649 135.152 90.3889 135.152H90.9969V134.16ZM91.913 134.256V135.184H93.097V142H94.201V135.184H96.025V134.256H94.201V132.752C94.201 131.84 94.457 131.344 95.433 131.344H96.089V130.4C95.833 130.352 95.513 130.336 95.241 130.336C94.057 130.336 93.097 131.008 93.097 132.752V134.256H91.913ZM96.7486 138.128C96.7486 140.48 98.4126 142.192 100.685 142.192C102.957 142.192 104.621 140.48 104.621 138.128C104.621 135.76 102.957 134.048 100.685 134.048C98.4126 134.048 96.7486 135.76 96.7486 138.128ZM97.8686 138.112C97.8686 136.32 99.0206 135.04 100.685 135.04C102.333 135.04 103.501 136.32 103.501 138.112C103.501 139.936 102.333 141.2 100.685 141.2C99.0206 141.2 97.8686 139.936 97.8686 138.112ZM110.434 134.16C110.162 134.096 109.954 134.08 109.714 134.08C108.626 134.08 107.81 134.624 107.506 135.456L107.426 134.256H106.386V142H107.49V137.584C107.49 136.112 108.402 135.152 109.826 135.152H110.434V134.16ZM113.006 142V137.2C113.006 136.016 113.79 135.056 115.086 135.056C116.254 135.056 117.006 135.824 117.006 137.136V142H118.094V137.216C118.094 136.016 118.862 135.04 120.158 135.04C121.342 135.04 122.078 135.824 122.078 137.152V142H123.15V136.928C123.15 135.136 122.046 134.048 120.366 134.048C119.118 134.048 118.174 134.688 117.822 135.696C117.454 134.688 116.542 134.048 115.326 134.048C114.238 134.048 113.374 134.544 112.99 135.36L112.862 134.256H111.902V142H113.006ZM127.595 142.192C128.907 142.192 129.963 141.616 130.443 140.64L130.587 142H131.515V136.992C131.515 134.944 130.203 134.048 128.411 134.048C126.507 134.048 125.227 135.056 125.227 136.624H126.235C126.235 135.584 127.035 134.976 128.379 134.976C129.515 134.976 130.427 135.456 130.427 136.976V137.232L127.867 137.44C126.059 137.584 124.971 138.48 124.971 139.904C124.971 141.264 125.947 142.192 127.595 142.192ZM127.851 141.296C126.795 141.296 126.091 140.816 126.091 139.872C126.091 139.008 126.683 138.368 128.139 138.24L130.427 138.064V138.48C130.427 140.16 129.483 141.296 127.851 141.296ZM134.834 142V137.952C134.834 136.208 135.73 135.056 137.314 135.056C138.594 135.056 139.41 135.696 139.41 137.504V142H140.514V137.264C140.514 135.312 139.634 134.048 137.506 134.048C136.386 134.048 135.362 134.608 134.85 135.6L134.69 134.256H133.73V142H134.834ZM142.171 138.144C142.171 140.576 143.659 142.192 145.851 142.192C147.611 142.192 148.987 141.152 149.355 139.568H148.235C147.931 140.56 147.003 141.2 145.851 141.2C144.283 141.2 143.259 139.968 143.259 138.128C143.259 136.224 144.363 135.024 145.931 135.024C147.003 135.024 147.931 135.616 148.219 136.688H149.323C149.019 135.088 147.707 134.048 145.915 134.048C143.659 134.048 142.171 135.712 142.171 138.144ZM154.275 142.192C156.099 142.192 157.299 141.312 157.715 139.68H156.659C156.371 140.704 155.555 141.248 154.291 141.248C152.627 141.248 151.635 140.16 151.555 138.272H157.715V137.728C157.715 135.536 156.291 134.048 154.195 134.048C151.987 134.048 150.483 135.712 150.483 138.128C150.483 140.56 152.003 142.192 154.275 142.192ZM154.195 134.992C155.651 134.992 156.611 135.984 156.611 137.472H151.587C151.779 135.952 152.739 134.992 154.195 134.992ZM165.022 142V137.2C165.022 136.016 165.806 135.056 167.102 135.056C168.27 135.056 169.022 135.824 169.022 137.136V142H170.11V137.216C170.11 136.016 170.878 135.04 172.174 135.04C173.358 135.04 174.094 135.824 174.094 137.152V142H175.166V136.928C175.166 135.136 174.062 134.048 172.382 134.048C171.134 134.048 170.19 134.688 169.838 135.696C169.47 134.688 168.558 134.048 167.342 134.048C166.254 134.048 165.39 134.544 165.006 135.36L164.878 134.256H163.918V142H165.022ZM180.634 142.192C182.458 142.192 183.658 141.312 184.074 139.68H183.018C182.73 140.704 181.914 141.248 180.65 141.248C178.986 141.248 177.994 140.16 177.914 138.272H184.074V137.728C184.074 135.536 182.65 134.048 180.554 134.048C178.346 134.048 176.842 135.712 176.842 138.128C176.842 140.56 178.362 142.192 180.634 142.192ZM180.554 134.992C182.01 134.992 182.97 135.984 182.97 137.472H177.946C178.138 135.952 179.098 134.992 180.554 134.992ZM187.537 142V135.184H189.089V134.256H187.537V131.808H186.449V134.256H184.897V135.184H186.449V142H187.537ZM194.575 134.16C194.303 134.096 194.095 134.08 193.855 134.08C192.767 134.08 191.951 134.624 191.647 135.456L191.567 134.256H190.527V142H191.631V137.584C191.631 136.112 192.543 135.152 193.967 135.152H194.575V134.16ZM196.587 132.128C197.035 132.128 197.419 131.76 197.419 131.312C197.419 130.864 197.035 130.48 196.587 130.48C196.139 130.48 195.771 130.864 195.771 131.312C195.771 131.76 196.139 132.128 196.587 132.128ZM196.043 142H197.147V134.256H196.043V142ZM198.905 138.144C198.905 140.576 200.393 142.192 202.585 142.192C204.345 142.192 205.721 141.152 206.089 139.568H204.969C204.665 140.56 203.737 141.2 202.585 141.2C201.017 141.2 199.993 139.968 199.993 138.128C199.993 136.224 201.097 135.024 202.665 135.024C203.737 135.024 204.665 135.616 204.953 136.688H206.057C205.753 135.088 204.441 134.048 202.649 134.048C200.393 134.048 198.905 135.712 198.905 138.144ZM207.105 139.824C207.105 141.264 208.193 142.192 209.937 142.192C211.697 142.192 212.881 141.28 212.881 139.888C212.881 138.768 212.273 138.144 210.929 137.808L209.601 137.472C208.753 137.264 208.337 136.848 208.337 136.256C208.337 135.424 208.945 134.96 210.033 134.96C211.073 134.96 211.697 135.488 211.729 136.384H212.801C212.753 134.944 211.697 134.048 210.065 134.048C208.401 134.048 207.265 134.912 207.265 136.272C207.265 137.328 207.921 138.032 209.265 138.368L210.593 138.704C211.505 138.928 211.825 139.296 211.825 139.936C211.825 140.768 211.121 141.28 209.921 141.28C208.833 141.28 208.161 140.72 208.161 139.824H207.105ZM215.518 142.176C216.062 142.176 216.526 141.728 216.526 141.2C216.526 140.656 216.062 140.192 215.518 140.192C214.974 140.192 214.51 140.656 214.51 141.2C214.51 141.728 214.974 142.176 215.518 142.176Z" fill="#0A0F0D" fill-opacity="0.8"/>
<g clip-path="url(#clip2_1_457)">
<path d="M48 116.26C46.2318 116.26 44.799 114.845 44.799 113.099V112.899C44.799 111.154 46.2318 109.738 48 109.738C49.7682 109.738 51.201 111.154 51.201 112.899V113.099C51.201 114.845 49.7682 116.26 48 116.26ZM48 105C43.5815 105 40 108.537 40 112.9V113.1C40 117.462 43.5815 121 48 121C52.4185 121 56 117.463 56 113.1V112.9C56 108.537 52.4177 105 48 105Z" fill="black"/>
</g>
<path d="M62.236 71.632L64.412 69.66L61.828 66.736C63.834 64.492 65.024 61.364 65.024 57.692C65.024 50.212 60.162 44.976 53.192 44.976C46.256 44.976 41.394 50.246 41.394 57.692C41.394 65.172 46.222 70.408 53.158 70.408C55.572 70.408 57.748 69.762 59.584 68.64L62.236 71.632ZM61.522 57.692C61.522 60.31 60.808 62.554 59.55 64.186L56.286 60.514L54.11 62.486L57.34 66.124C56.15 66.838 54.756 67.212 53.192 67.212C48.194 67.212 44.896 63.404 44.896 57.692C44.896 51.98 48.194 48.206 53.192 48.206C58.19 48.206 61.522 51.98 61.522 57.692ZM80.2337 53.374V62.146C80.2337 65.716 78.6357 67.586 75.7117 67.586C73.2637 67.586 71.7337 66.226 71.7337 62.656V53.374H68.5377V63.71C68.5377 67.79 70.7137 70.408 74.5897 70.408C77.0377 70.408 79.2477 69.218 80.1997 67.484L80.5397 70H83.3957V53.374H80.2337ZM89.5967 49.43C90.7527 49.43 91.7047 48.478 91.7047 47.322C91.7047 46.132 90.7527 45.214 89.5967 45.214C88.4407 45.214 87.4887 46.132 87.4887 47.322C87.4887 48.478 88.4407 49.43 89.5967 49.43ZM88.0327 70H91.2287V53.374H88.0327V70ZM94.7806 61.704C94.7806 66.94 98.0106 70.408 102.907 70.408C106.919 70.408 110.013 67.994 110.659 64.39H107.463C106.885 66.362 105.185 67.552 102.907 67.552C99.8806 67.552 97.9426 65.24 97.9426 61.67C97.9426 58.066 100.017 55.754 103.043 55.754C105.185 55.754 106.885 56.876 107.429 58.984H110.625C110.047 55.278 107.123 52.898 102.941 52.898C98.0786 52.898 94.7806 56.502 94.7806 61.704ZM117.295 70V65.274L120.117 62.316L124.979 70H128.651L122.327 60.004L128.685 53.374H124.673L117.295 61.194V44.976H114.099V70H117.295ZM147.971 70H151.439L160.687 45.418H157.219L151.269 61.092C150.861 62.18 150.283 63.812 149.705 65.75C149.195 63.914 148.719 62.52 148.175 61.126L142.191 45.418H138.621L147.971 70ZM164.901 49.43C166.057 49.43 167.009 48.478 167.009 47.322C167.009 46.132 166.057 45.214 164.901 45.214C163.745 45.214 162.793 46.132 162.793 47.322C162.793 48.478 163.745 49.43 164.901 49.43ZM163.337 70H166.533V53.374H163.337V70ZM178.347 70.408C182.461 70.408 185.249 68.402 186.065 64.832H183.073C182.529 66.736 180.897 67.756 178.415 67.756C175.253 67.756 173.417 65.818 173.179 62.316L186.031 62.282V61.092C186.031 56.162 182.937 52.898 178.211 52.898C173.383 52.898 170.085 56.502 170.085 61.704C170.085 66.872 173.451 70.408 178.347 70.408ZM178.211 55.584C181.033 55.584 182.835 57.42 182.835 60.174H173.247C173.655 57.25 175.423 55.584 178.211 55.584ZM192.607 70H195.769L198.659 61.126C199.271 59.12 199.577 58.032 199.747 57.216C199.917 58.134 200.257 59.426 200.801 61.092L203.691 70H206.717L212.395 53.374H209.063L206.275 62.01C205.799 63.472 205.493 64.628 205.221 65.954C204.949 64.764 204.405 62.826 204.133 62.01L201.379 53.374H198.115L195.327 62.01C194.953 63.098 194.511 64.492 194.239 65.954C193.933 64.492 193.593 63.234 193.219 62.01L190.465 53.374H187.167L192.607 70Z" fill="#0A0F0D"/>
<defs>
<clipPath id="clip0_1_457">
<rect width="16.5" height="18" fill="white" transform="translate(135 373)"/>
</clipPath>
<clipPath id="clip1_1_457">
<rect width="16" height="16" fill="white" transform="translate(40 167)"/>
</clipPath>
<clipPath id="clip2_1_457">
<rect width="16" height="16" fill="white" transform="translate(40 105)"/>
</clipPath>
</defs>
</svg>
