<svg width="37" height="36" viewBox="0 0 37 36" fill="none" xmlns="http://www.w3.org/2000/svg">
<path d="M22.6138 13.4998H14.5138C14.2751 13.4998 14.0462 13.5946 13.8774 13.7634C13.7086 13.9321 13.6138 14.1611 13.6138 14.3998V23.9998M13.6138 31.4998H22.6138H13.6138ZM13.6138 31.4998V23.9998V31.4998ZM13.6138 31.4998H5.51377C5.27507 31.4998 5.04616 31.4049 4.87737 31.2362C4.70859 31.0674 4.61377 30.8385 4.61377 30.5998V24.8998C4.61377 24.6611 4.70859 24.4321 4.87737 24.2634C5.04616 24.0946 5.27507 23.9998 5.51377 23.9998H13.6138V31.4998ZM22.6138 31.4998V13.4998V31.4998ZM22.6138 31.4998H30.7138C30.9525 31.4998 31.1814 31.4049 31.3502 31.2362C31.5189 31.0674 31.6138 30.8385 31.6138 30.5998V5.39976C31.6138 5.16106 31.5189 4.93214 31.3502 4.76336C31.1814 4.59458 30.9525 4.49976 30.7138 4.49976H23.5138C23.2751 4.49976 23.0462 4.59458 22.8774 4.76336C22.7086 4.93214 22.6138 5.16106 22.6138 5.39976V13.4998V31.4998Z" stroke="#0A0F0D" stroke-width="2.5"/>
</svg>
