<svg width="770" height="286" viewBox="0 0 770 286" fill="none" xmlns="http://www.w3.org/2000/svg">
<rect x="0.5" y="0.5" width="769" height="285" rx="13.5" fill="#C5B6F0" stroke="#0A0F0D"/>
<path d="M505.5 49C505.5 41.5442 511.544 35.5 519 35.5H769.5V272C769.5 279.456 763.456 285.5 756 285.5H505.5V49Z" fill="white" stroke="black"/>
<path d="M528.5 231.5C531.667 239.167 538.3 257.3 539.5 268.5C541 282.5 546.5 294 550 265.5C553.5 237 560.5 177 565 162C569.5 147 575.5 155.5 577.5 184.5C579.5 213.5 582.5 265 596.5 256C610.5 247 611 246.5 616.5 249.5C622 252.5 628.5 250.5 632.5 218.5C636.5 186.5 639.705 157.955 644 178C651.5 213 653 203 656.5 215.5C660 228 671.5 258.5 675 224C678.5 189.5 681.5 171 686.5 163.5C691.5 156 696.5 164 704 179.5C714 200.167 718 190.5 724 198.5C730 206.5 741.5 230 769 192" stroke="#9F84EB" stroke-width="1.2"/>
<path d="M528.5 257.5C534 247.833 549.2 222.8 566 200C572 190.5 590 204 599.5 179.5C609 155 615 155.5 619 171.5C623 187.5 624.5 186 627.5 159C629 146 632 140 641.5 150.5C646 156 649 160.5 654 150.5C659 140.5 659.5 145 662 161.5C664.5 178 668 222.5 673.5 181C679 139.5 692 134.5 695.5 161.5C699 188.5 699 204.5 706.5 230.5C714 256.5 722 245 734 213C746 181 745.5 181.5 753 174.5C760.5 167.5 762.5 136 769 120" stroke="#0A0F0D" stroke-width="1.2" stroke-dasharray="4 4"/>
<path opacity="0.5" d="M529.82 88.51C529.82 90.14 530.82 91.12 532.48 91.12C534.11 91.12 535.11 90.13 535.11 88.51V83.84H534.39V88.48C534.39 89.72 533.7 90.42 532.48 90.42C531.23 90.42 530.54 89.74 530.54 88.48V83.84H529.82V88.51ZM536.224 89.64C536.224 90.54 536.904 91.12 537.994 91.12C539.094 91.12 539.834 90.55 539.834 89.68C539.834 88.98 539.454 88.59 538.614 88.38L537.784 88.17C537.254 88.04 536.994 87.78 536.994 87.41C536.994 86.89 537.374 86.6 538.054 86.6C538.704 86.6 539.094 86.93 539.114 87.49H539.784C539.754 86.59 539.094 86.03 538.074 86.03C537.034 86.03 536.324 86.57 536.324 87.42C536.324 88.08 536.734 88.52 537.574 88.73L538.404 88.94C538.974 89.08 539.174 89.31 539.174 89.71C539.174 90.23 538.734 90.55 537.984 90.55C537.304 90.55 536.884 90.2 536.884 89.64H536.224ZM543 91.12C544.14 91.12 544.89 90.57 545.15 89.55H544.49C544.31 90.19 543.8 90.53 543.01 90.53C541.97 90.53 541.35 89.85 541.3 88.67H545.15V88.33C545.15 86.96 544.26 86.03 542.95 86.03C541.57 86.03 540.63 87.07 540.63 88.58C540.63 90.1 541.58 91.12 543 91.12ZM542.95 86.62C543.86 86.62 544.46 87.24 544.46 88.17H541.32C541.44 87.22 542.04 86.62 542.95 86.62ZM548.783 86.1C548.613 86.06 548.483 86.05 548.333 86.05C547.653 86.05 547.143 86.39 546.953 86.91L546.903 86.16H546.253V91H546.943V88.24C546.943 87.32 547.513 86.72 548.403 86.72H548.783V86.1ZM549.29 89.64C549.29 90.54 549.97 91.12 551.06 91.12C552.16 91.12 552.9 90.55 552.9 89.68C552.9 88.98 552.52 88.59 551.68 88.38L550.85 88.17C550.32 88.04 550.06 87.78 550.06 87.41C550.06 86.89 550.44 86.6 551.12 86.6C551.77 86.6 552.16 86.93 552.18 87.49H552.85C552.82 86.59 552.16 86.03 551.14 86.03C550.1 86.03 549.39 86.57 549.39 87.42C549.39 88.08 549.8 88.52 550.64 88.73L551.47 88.94C552.04 89.08 552.24 89.31 552.24 89.71C552.24 90.23 551.8 90.55 551.05 90.55C550.37 90.55 549.95 90.2 549.95 89.64H549.29Z" fill="#0A0F0D"/>
<path d="M531.805 99.475V109H533.215V98.155H529.525V99.475H531.805ZM542.474 108.985V107.62H537.464L539.714 105.67C541.634 104.005 542.399 102.91 542.399 101.365C542.399 99.28 541.004 97.96 538.829 97.96C536.624 97.96 535.154 99.475 535.109 101.8H536.579C536.609 100.255 537.479 99.28 538.814 99.28C540.119 99.28 540.899 100.09 540.899 101.455C540.899 102.61 540.404 103.345 538.649 104.86L535.154 107.875V109L542.474 108.985ZM546.359 108.415C546.359 107.59 545.849 107.065 545.219 107.065C544.619 107.065 544.214 107.5 544.214 108.1C544.214 108.655 544.634 109.015 545.129 109.015C545.309 109.015 545.429 108.985 545.534 108.925C545.534 109.39 545.099 109.795 544.484 109.9V110.53C545.549 110.395 546.359 109.495 546.359 108.415ZM547.489 103.585C547.489 106.96 549.154 109.195 551.959 109.195C554.749 109.195 556.414 106.96 556.414 103.585C556.414 100.225 554.674 97.945 551.959 97.945C549.229 97.945 547.489 100.225 547.489 103.585ZM548.944 103.585C548.944 100.885 550.054 99.265 551.959 99.265C553.864 99.265 554.959 100.885 554.959 103.585C554.959 106.255 553.864 107.875 551.959 107.875C550.054 107.875 548.944 106.255 548.944 103.585ZM565.164 108.985V107.62H560.154L562.404 105.67C564.324 104.005 565.089 102.91 565.089 101.365C565.089 99.28 563.694 97.96 561.519 97.96C559.314 97.96 557.844 99.475 557.799 101.8H559.269C559.299 100.255 560.169 99.28 561.504 99.28C562.809 99.28 563.589 100.09 563.589 101.455C563.589 102.61 563.094 103.345 561.339 104.86L557.844 107.875V109L565.164 108.985ZM569.681 103.39C571.406 103.39 572.306 104.26 572.306 105.565C572.306 106.96 571.391 107.86 569.981 107.86C568.616 107.86 567.746 107.035 567.746 105.625H566.291C566.291 107.875 567.821 109.18 569.951 109.18C572.156 109.18 573.806 107.785 573.806 105.595C573.806 103.645 572.411 102.4 570.566 102.175L573.536 99.34V98.155H566.801V99.46H571.676L568.601 102.415V103.39H569.681Z" fill="#0A0F0D"/>
<line opacity="0.8" x1="529" y1="116.5" x2="575" y2="116.5" stroke="#0A0F0D"/>
<path opacity="0.5" d="M610.25 87.42C610.25 85.24 608.85 83.71 606.84 83.71C604.84 83.71 603.43 85.25 603.43 87.42C603.43 89.59 604.83 91.12 606.84 91.12C608.84 91.12 610.25 89.59 610.25 87.42ZM609.51 87.42C609.51 89.2 608.42 90.43 606.84 90.43C605.26 90.43 604.18 89.21 604.18 87.42C604.18 85.63 605.26 84.41 606.84 84.41C608.42 84.41 609.51 85.63 609.51 87.42ZM613.936 86.1C613.766 86.06 613.636 86.05 613.486 86.05C612.806 86.05 612.296 86.39 612.106 86.91L612.056 86.16H611.406V91H612.096V88.24C612.096 87.32 612.666 86.72 613.556 86.72H613.936V86.1ZM616.567 91.12C617.377 91.12 618.057 90.76 618.397 90.01L618.467 91H619.067V83.71H618.377V87.08C618.037 86.38 617.397 86.03 616.597 86.03C615.157 86.03 614.327 87.13 614.327 88.59C614.327 90.04 615.157 91.12 616.567 91.12ZM616.687 90.49C615.637 90.49 615.027 89.69 615.027 88.57C615.027 87.46 615.637 86.65 616.687 86.65C617.747 86.65 618.367 87.46 618.367 88.57C618.367 89.69 617.747 90.49 616.687 90.49ZM622.537 91.12C623.677 91.12 624.427 90.57 624.687 89.55H624.027C623.847 90.19 623.337 90.53 622.547 90.53C621.507 90.53 620.887 89.85 620.837 88.67H624.687V88.33C624.687 86.96 623.797 86.03 622.487 86.03C621.107 86.03 620.167 87.07 620.167 88.58C620.167 90.1 621.117 91.12 622.537 91.12ZM622.487 86.62C623.397 86.62 623.997 87.24 623.997 88.17H620.857C620.977 87.22 621.577 86.62 622.487 86.62ZM628.32 86.1C628.15 86.06 628.02 86.05 627.87 86.05C627.19 86.05 626.68 86.39 626.49 86.91L626.44 86.16H625.79V91H626.48V88.24C626.48 87.32 627.05 86.72 627.94 86.72H628.32V86.1ZM628.828 89.64C628.828 90.54 629.508 91.12 630.598 91.12C631.698 91.12 632.438 90.55 632.438 89.68C632.438 88.98 632.058 88.59 631.218 88.38L630.388 88.17C629.858 88.04 629.598 87.78 629.598 87.41C629.598 86.89 629.978 86.6 630.658 86.6C631.308 86.6 631.698 86.93 631.718 87.49H632.388C632.358 86.59 631.698 86.03 630.678 86.03C629.638 86.03 628.928 86.57 628.928 87.42C628.928 88.08 629.338 88.52 630.178 88.73L631.008 88.94C631.578 89.08 631.778 89.31 631.778 89.71C631.778 90.23 631.338 90.55 630.588 90.55C629.908 90.55 629.488 90.2 629.488 89.64H628.828Z" fill="#0A0F0D"/>
<path d="M607.38 109.18C609.72 109.18 611.325 107.605 611.325 105.355C611.325 103.27 609.9 101.725 607.695 101.725C606.885 101.725 606.165 101.95 605.595 102.385L606.315 99.505H610.68V98.155H605.25L603.93 103.72L605.175 104.035C605.67 103.42 606.51 102.985 607.425 102.985C608.94 102.985 609.825 104.02 609.825 105.415C609.825 106.885 608.88 107.86 607.41 107.86C606.03 107.86 605.175 107.005 605.175 105.61H603.72C603.72 107.77 605.16 109.18 607.38 109.18ZM612.567 105.985C612.567 107.905 614.142 109.18 616.557 109.18C618.957 109.18 620.547 107.905 620.547 106C620.547 104.665 619.767 103.585 618.552 103.195C619.572 102.79 620.142 101.935 620.142 100.825C620.142 99.115 618.702 97.96 616.572 97.96C614.412 97.96 612.957 99.115 612.957 100.81C612.957 101.905 613.512 102.76 614.532 103.195C613.332 103.63 612.567 104.68 612.567 105.985ZM614.307 100.9C614.307 99.895 615.192 99.235 616.542 99.235C617.907 99.235 618.762 99.895 618.762 100.93C618.762 101.98 617.907 102.655 616.542 102.655C615.192 102.655 614.307 101.965 614.307 100.9ZM614.007 105.88C614.007 104.68 614.997 103.915 616.542 103.915C618.102 103.915 619.092 104.68 619.092 105.88C619.092 107.095 618.087 107.875 616.557 107.875C615.012 107.875 614.007 107.095 614.007 105.88ZM628.287 105.565C629.397 104.05 629.787 103.135 629.787 101.86C629.787 99.655 628.047 97.96 625.797 97.96C623.562 97.96 621.852 99.595 621.852 101.845C621.852 104.005 623.367 105.625 625.617 105.625C625.992 105.625 626.382 105.55 626.757 105.4L624.042 109H625.752L628.287 105.565ZM628.287 101.845C628.287 103.33 627.267 104.38 625.797 104.38C624.357 104.38 623.337 103.33 623.337 101.845C623.337 100.36 624.357 99.28 625.797 99.28C627.267 99.28 628.287 100.36 628.287 101.845Z" fill="#0A0F0D"/>
<line opacity="0.8" x1="603" y1="116.5" x2="631" y2="116.5" stroke="#0A0F0D" stroke-dasharray="3 3"/>
<path opacity="0.5" d="M664.79 91.11C666.33 91.11 667.58 90.2 667.91 88.85H667.14C666.83 89.81 665.93 90.42 664.8 90.42C663.23 90.42 662.18 89.22 662.18 87.42C662.18 85.61 663.23 84.41 664.8 84.41C665.92 84.41 666.8 85.04 667.1 86.07H667.87C667.58 84.65 666.37 83.72 664.83 83.72C662.81 83.72 661.43 85.22 661.43 87.42C661.43 89.62 662.79 91.11 664.79 91.11ZM668.665 88.58C668.665 90.05 669.705 91.12 671.125 91.12C672.545 91.12 673.585 90.05 673.585 88.58C673.585 87.1 672.545 86.03 671.125 86.03C669.705 86.03 668.665 87.1 668.665 88.58ZM669.365 88.57C669.365 87.45 670.085 86.65 671.125 86.65C672.155 86.65 672.885 87.45 672.885 88.57C672.885 89.71 672.155 90.5 671.125 90.5C670.085 90.5 669.365 89.71 669.365 88.57ZM675.379 91V88.47C675.379 87.38 675.939 86.66 676.929 86.66C677.729 86.66 678.239 87.06 678.239 88.19V91H678.929V88.04C678.929 86.82 678.379 86.03 677.049 86.03C676.349 86.03 675.709 86.38 675.389 87L675.289 86.16H674.689V91H675.379ZM681.556 91H682.246L684.256 86.16H683.546L682.276 89.28C682.136 89.63 682.006 89.95 681.916 90.28C681.826 89.96 681.696 89.63 681.566 89.28L680.316 86.16H679.576L681.556 91ZM686.885 91.12C688.025 91.12 688.775 90.57 689.035 89.55H688.375C688.195 90.19 687.685 90.53 686.895 90.53C685.855 90.53 685.235 89.85 685.185 88.67H689.035V88.33C689.035 86.96 688.145 86.03 686.835 86.03C685.455 86.03 684.515 87.07 684.515 88.58C684.515 90.1 685.465 91.12 686.885 91.12ZM686.835 86.62C687.745 86.62 688.345 87.24 688.345 88.17H685.205C685.325 87.22 685.925 86.62 686.835 86.62ZM692.668 86.1C692.498 86.06 692.368 86.05 692.218 86.05C691.538 86.05 691.028 86.39 690.838 86.91L690.788 86.16H690.138V91H690.828V88.24C690.828 87.32 691.398 86.72 692.288 86.72H692.668V86.1ZM693.175 89.64C693.175 90.54 693.855 91.12 694.945 91.12C696.045 91.12 696.785 90.55 696.785 89.68C696.785 88.98 696.405 88.59 695.565 88.38L694.735 88.17C694.205 88.04 693.945 87.78 693.945 87.41C693.945 86.89 694.325 86.6 695.005 86.6C695.655 86.6 696.045 86.93 696.065 87.49H696.735C696.705 86.59 696.045 86.03 695.025 86.03C693.985 86.03 693.275 86.57 693.275 87.42C693.275 88.08 693.685 88.52 694.525 88.73L695.355 88.94C695.925 89.08 696.125 89.31 696.125 89.71C696.125 90.23 695.685 90.55 694.935 90.55C694.255 90.55 693.835 90.2 693.835 89.64H693.175ZM698.261 84.83C698.541 84.83 698.781 84.6 698.781 84.32C698.781 84.04 698.541 83.8 698.261 83.8C697.981 83.8 697.751 84.04 697.751 84.32C697.751 84.6 697.981 84.83 698.261 84.83ZM697.921 91H698.611V86.16H697.921V91ZM699.71 88.58C699.71 90.05 700.75 91.12 702.17 91.12C703.59 91.12 704.63 90.05 704.63 88.58C704.63 87.1 703.59 86.03 702.17 86.03C700.75 86.03 699.71 87.1 699.71 88.58ZM700.41 88.57C700.41 87.45 701.13 86.65 702.17 86.65C703.2 86.65 703.93 87.45 703.93 88.57C703.93 89.71 703.2 90.5 702.17 90.5C701.13 90.5 700.41 89.71 700.41 88.57ZM706.424 91V88.47C706.424 87.38 706.984 86.66 707.974 86.66C708.774 86.66 709.284 87.06 709.284 88.19V91H709.974V88.04C709.974 86.82 709.424 86.03 708.094 86.03C707.394 86.03 706.754 86.38 706.434 87L706.334 86.16H705.734V91H706.424ZM716.652 86.1C716.482 86.06 716.352 86.05 716.202 86.05C715.522 86.05 715.012 86.39 714.822 86.91L714.772 86.16H714.122V91H714.812V88.24C714.812 87.32 715.382 86.72 716.272 86.72H716.652V86.1ZM718.764 91.12C719.584 91.12 720.244 90.76 720.544 90.15L720.634 91H721.214V87.87C721.214 86.59 720.394 86.03 719.274 86.03C718.084 86.03 717.284 86.66 717.284 87.64H717.914C717.914 86.99 718.414 86.61 719.254 86.61C719.964 86.61 720.534 86.91 720.534 87.86V88.02L718.934 88.15C717.804 88.24 717.124 88.8 717.124 89.69C717.124 90.54 717.734 91.12 718.764 91.12ZM718.924 90.56C718.264 90.56 717.824 90.26 717.824 89.67C717.824 89.13 718.194 88.73 719.104 88.65L720.534 88.54V88.8C720.534 89.85 719.944 90.56 718.924 90.56ZM723.621 91V86.74H724.591V86.16H723.621V84.63H722.941V86.16H721.971V86.74H722.941V91H723.621ZM727.471 91.12C728.611 91.12 729.361 90.57 729.621 89.55H728.961C728.781 90.19 728.271 90.53 727.481 90.53C726.441 90.53 725.821 89.85 725.771 88.67H729.621V88.33C729.621 86.96 728.731 86.03 727.421 86.03C726.041 86.03 725.101 87.07 725.101 88.58C725.101 90.1 726.051 91.12 727.471 91.12ZM727.421 86.62C728.331 86.62 728.931 87.24 728.931 88.17H725.791C725.911 87.22 726.511 86.62 727.421 86.62Z" fill="#0A0F0D"/>
<path d="M663.805 99.475V109H665.215V98.155H661.525V99.475H663.805ZM668.534 109.18C669.104 109.18 669.599 108.7 669.599 108.13C669.599 107.545 669.104 107.065 668.534 107.065C667.949 107.065 667.454 107.545 667.454 108.13C667.454 108.7 667.949 109.18 668.534 109.18ZM678.619 108.985V107.62H673.609L675.859 105.67C677.779 104.005 678.544 102.91 678.544 101.365C678.544 99.28 677.149 97.96 674.974 97.96C672.769 97.96 671.299 99.475 671.254 101.8H672.724C672.754 100.255 673.624 99.28 674.959 99.28C676.264 99.28 677.044 100.09 677.044 101.455C677.044 102.61 676.549 103.345 674.794 104.86L671.299 107.875V109L678.619 108.985ZM685.342 100.72C685.342 99.1 684.202 97.945 682.597 97.945C681.007 97.945 679.867 99.1 679.867 100.72C679.867 102.325 681.007 103.48 682.597 103.48C684.202 103.48 685.342 102.325 685.342 100.72ZM691.057 98.17H689.617L681.382 109H682.822L691.057 98.17ZM684.187 100.72C684.187 101.68 683.527 102.355 682.597 102.355C681.667 102.355 681.022 101.68 681.022 100.72C681.022 99.745 681.667 99.07 682.597 99.07C683.542 99.07 684.187 99.745 684.187 100.72ZM692.602 106.435C692.602 104.815 691.447 103.675 689.857 103.675C688.267 103.675 687.112 104.815 687.112 106.435C687.112 108.04 688.267 109.195 689.857 109.195C691.447 109.195 692.602 108.04 692.602 106.435ZM691.432 106.435C691.432 107.395 690.787 108.07 689.857 108.07C688.927 108.07 688.282 107.395 688.282 106.435C688.282 105.46 688.927 104.785 689.857 104.785C690.802 104.785 691.432 105.46 691.432 106.435Z" fill="#0A0F0D"/>
<line opacity="0.8" x1="661.5" y1="116.5" x2="730.5" y2="116.5" stroke="#8766E7" stroke-linecap="round"/>
<path opacity="0.06" d="M589 84V117" stroke="#0A0F0D" stroke-linecap="round"/>
<path opacity="0.06" d="M647 84V117" stroke="#0A0F0D" stroke-linecap="round"/>
<path opacity="0.8" d="M527.484 57.17C527.484 58.248 528.133 58.952 529.365 59.249L530.696 59.579C531.543 59.777 531.939 60.239 531.939 60.943C531.939 61.845 531.202 62.406 530.047 62.406C528.969 62.406 528.243 61.867 528.199 61.042H527.385C527.484 62.329 528.518 63.132 530.047 63.132C531.675 63.132 532.731 62.263 532.731 60.899C532.731 59.832 532.093 59.128 530.861 58.831L529.508 58.501C528.683 58.292 528.276 57.852 528.276 57.159C528.276 56.268 529.002 55.696 530.113 55.696C531.103 55.696 531.708 56.202 531.796 57.093H532.599C532.478 55.773 531.543 54.981 530.124 54.981C528.54 54.981 527.484 55.85 527.484 57.17ZM534.364 56.213C534.672 56.213 534.936 55.96 534.936 55.652C534.936 55.344 534.672 55.08 534.364 55.08C534.056 55.08 533.803 55.344 533.803 55.652C533.803 55.96 534.056 56.213 534.364 56.213ZM533.99 63H534.749V57.676H533.99V63ZM537.553 63V58.314H538.62V57.676H537.553V55.993H536.805V57.676H535.738V58.314H536.805V63H537.553ZM541.788 63.132C543.042 63.132 543.867 62.527 544.153 61.405H543.427C543.229 62.109 542.668 62.483 541.799 62.483C540.655 62.483 539.973 61.735 539.918 60.437H544.153V60.063C544.153 58.556 543.174 57.533 541.733 57.533C540.215 57.533 539.181 58.677 539.181 60.338C539.181 62.01 540.226 63.132 541.788 63.132ZM541.733 58.182C542.734 58.182 543.394 58.864 543.394 59.887H539.94C540.072 58.842 540.732 58.182 541.733 58.182ZM548.417 65.321H549.176V61.977C549.55 62.747 550.265 63.132 551.167 63.132C552.74 63.132 553.631 61.922 553.631 60.316C553.631 58.71 552.707 57.533 551.167 57.533C550.276 57.533 549.528 57.929 549.154 58.754L549.077 57.676H548.417V65.321ZM549.187 60.338C549.187 59.106 549.869 58.226 551.035 58.226C552.19 58.226 552.861 59.106 552.861 60.338C552.861 61.559 552.19 62.45 551.035 62.45C549.869 62.45 549.187 61.559 549.187 60.338ZM557.074 63.132C558.328 63.132 559.153 62.527 559.439 61.405H558.713C558.515 62.109 557.954 62.483 557.085 62.483C555.941 62.483 555.259 61.735 555.204 60.437H559.439V60.063C559.439 58.556 558.46 57.533 557.019 57.533C555.501 57.533 554.467 58.677 554.467 60.338C554.467 62.01 555.512 63.132 557.074 63.132ZM557.019 58.182C558.02 58.182 558.68 58.864 558.68 59.887H555.226C555.358 58.842 556.018 58.182 557.019 58.182ZM563.435 57.61C563.248 57.566 563.105 57.555 562.94 57.555C562.192 57.555 561.631 57.929 561.422 58.501L561.367 57.676H560.652V63H561.411V59.964C561.411 58.952 562.038 58.292 563.017 58.292H563.435V57.61ZM564.065 57.676V58.314H564.879V63H565.638V58.314H566.892V57.676H565.638V56.642C565.638 56.015 565.814 55.674 566.485 55.674H566.936V55.025C566.76 54.992 566.54 54.981 566.353 54.981C565.539 54.981 564.879 55.443 564.879 56.642V57.676H564.065ZM567.39 60.338C567.39 61.955 568.534 63.132 570.096 63.132C571.658 63.132 572.802 61.955 572.802 60.338C572.802 58.71 571.658 57.533 570.096 57.533C568.534 57.533 567.39 58.71 567.39 60.338ZM568.16 60.327C568.16 59.095 568.952 58.215 570.096 58.215C571.229 58.215 572.032 59.095 572.032 60.327C572.032 61.581 571.229 62.45 570.096 62.45C568.952 62.45 568.16 61.581 568.16 60.327ZM576.799 57.61C576.612 57.566 576.469 57.555 576.304 57.555C575.556 57.555 574.995 57.929 574.786 58.501L574.731 57.676H574.016V63H574.775V59.964C574.775 58.952 575.402 58.292 576.381 58.292H576.799V57.61ZM578.567 63V59.7C578.567 58.886 579.106 58.226 579.997 58.226C580.8 58.226 581.317 58.754 581.317 59.656V63H582.065V59.711C582.065 58.886 582.593 58.215 583.484 58.215C584.298 58.215 584.804 58.754 584.804 59.667V63H585.541V59.513C585.541 58.281 584.782 57.533 583.627 57.533C582.769 57.533 582.12 57.973 581.878 58.666C581.625 57.973 580.998 57.533 580.162 57.533C579.414 57.533 578.82 57.874 578.556 58.435L578.468 57.676H577.808V63H578.567ZM588.596 63.132C589.498 63.132 590.224 62.736 590.554 62.065L590.653 63H591.291V59.557C591.291 58.149 590.389 57.533 589.157 57.533C587.848 57.533 586.968 58.226 586.968 59.304H587.661C587.661 58.589 588.211 58.171 589.135 58.171C589.916 58.171 590.543 58.501 590.543 59.546V59.722L588.783 59.865C587.54 59.964 586.792 60.58 586.792 61.559C586.792 62.494 587.463 63.132 588.596 63.132ZM588.772 62.516C588.046 62.516 587.562 62.186 587.562 61.537C587.562 60.943 587.969 60.503 588.97 60.415L590.543 60.294V60.58C590.543 61.735 589.894 62.516 588.772 62.516ZM593.573 63V60.217C593.573 59.018 594.189 58.226 595.278 58.226C596.158 58.226 596.719 58.666 596.719 59.909V63H597.478V59.744C597.478 58.402 596.873 57.533 595.41 57.533C594.64 57.533 593.936 57.918 593.584 58.6L593.474 57.676H592.814V63H593.573ZM598.617 60.349C598.617 62.021 599.64 63.132 601.147 63.132C602.357 63.132 603.303 62.417 603.556 61.328H602.786C602.577 62.01 601.939 62.45 601.147 62.45C600.069 62.45 599.365 61.603 599.365 60.338C599.365 59.029 600.124 58.204 601.202 58.204C601.939 58.204 602.577 58.611 602.775 59.348H603.534C603.325 58.248 602.423 57.533 601.191 57.533C599.64 57.533 598.617 58.677 598.617 60.349ZM606.939 63.132C608.193 63.132 609.018 62.527 609.304 61.405H608.578C608.38 62.109 607.819 62.483 606.95 62.483C605.806 62.483 605.124 61.735 605.069 60.437H609.304V60.063C609.304 58.556 608.325 57.533 606.884 57.533C605.366 57.533 604.332 58.677 604.332 60.338C604.332 62.01 605.377 63.132 606.939 63.132ZM606.884 58.182C607.885 58.182 608.545 58.864 608.545 59.887H605.091C605.223 58.842 605.883 58.182 606.884 58.182Z" fill="#0A0F0D"/>
<path d="M70.192 103.6H73.712V114H74.864V103.6H78.4V102.544H70.192V103.6ZM82.8406 106.16C82.5686 106.096 82.3606 106.08 82.1206 106.08C81.0326 106.08 80.2166 106.624 79.9126 107.456L79.8326 106.256H78.7926V114H79.8966V109.584C79.8966 108.112 80.8086 107.152 82.2326 107.152H82.8406V106.16ZM86.2198 114.192C87.5318 114.192 88.5878 113.616 89.0678 112.64L89.2118 114H90.1398V108.992C90.1398 106.944 88.8278 106.048 87.0358 106.048C85.1318 106.048 83.8518 107.056 83.8518 108.624H84.8598C84.8598 107.584 85.6598 106.976 87.0038 106.976C88.1398 106.976 89.0518 107.456 89.0518 108.976V109.232L86.4918 109.44C84.6838 109.584 83.5958 110.48 83.5958 111.904C83.5958 113.264 84.5718 114.192 86.2198 114.192ZM86.4758 113.296C85.4198 113.296 84.7158 112.816 84.7158 111.872C84.7158 111.008 85.3078 110.368 86.7638 110.24L89.0518 110.064V110.48C89.0518 112.16 88.1078 113.296 86.4758 113.296ZM91.8111 110.144C91.8111 112.576 93.2991 114.192 95.4911 114.192C97.2511 114.192 98.6271 113.152 98.9951 111.568H97.8751C97.5711 112.56 96.6431 113.2 95.4911 113.2C93.9231 113.2 92.8991 111.968 92.8991 110.128C92.8991 108.224 94.0031 107.024 95.5711 107.024C96.6431 107.024 97.5711 107.616 97.8591 108.688H98.9631C98.6591 107.088 97.3471 106.048 95.5551 106.048C93.2991 106.048 91.8111 107.712 91.8111 110.144ZM101.82 114V111.68L103.324 110.128L105.788 114H107.068L104.076 109.344L107.052 106.256H105.66L101.82 110.256V102.336H100.716V114H101.82ZM112.04 117.376C112.392 117.456 112.744 117.488 113.208 117.488C114.312 117.488 115.064 116.992 115.512 115.776L119.064 106.256H117.928L115.48 113.008L112.984 106.256H111.816L114.952 114.464L114.616 115.376C114.232 116.416 113.56 116.464 112.888 116.464H112.04V117.376ZM119.546 110.128C119.546 112.48 121.21 114.192 123.482 114.192C125.754 114.192 127.418 112.48 127.418 110.128C127.418 107.76 125.754 106.048 123.482 106.048C121.21 106.048 119.546 107.76 119.546 110.128ZM120.666 110.112C120.666 108.32 121.818 107.04 123.482 107.04C125.13 107.04 126.298 108.32 126.298 110.112C126.298 111.936 125.13 113.2 123.482 113.2C121.818 113.2 120.666 111.936 120.666 110.112ZM134.436 106.256V110.368C134.436 112.208 133.556 113.2 132.068 113.2C130.836 113.2 130.02 112.544 130.02 110.704V106.24H128.9V111.056C128.9 112.944 129.892 114.192 131.716 114.192C132.932 114.192 134.004 113.584 134.436 112.688L134.58 114H135.54V106.256H134.436ZM141.888 106.16C141.616 106.096 141.408 106.08 141.168 106.08C140.08 106.08 139.264 106.624 138.96 107.456L138.88 106.256H137.84V114H138.944V109.584C138.944 108.112 139.856 107.152 141.28 107.152H141.888V106.16ZM147.137 111.824C147.137 113.264 148.225 114.192 149.969 114.192C151.729 114.192 152.913 113.28 152.913 111.888C152.913 110.768 152.305 110.144 150.961 109.808L149.633 109.472C148.785 109.264 148.369 108.848 148.369 108.256C148.369 107.424 148.977 106.96 150.065 106.96C151.105 106.96 151.729 107.488 151.761 108.384H152.833C152.785 106.944 151.729 106.048 150.097 106.048C148.433 106.048 147.297 106.912 147.297 108.272C147.297 109.328 147.953 110.032 149.297 110.368L150.625 110.704C151.537 110.928 151.857 111.296 151.857 111.936C151.857 112.768 151.153 113.28 149.953 113.28C148.865 113.28 148.193 112.72 148.193 111.824H147.137ZM155.274 104.128C155.722 104.128 156.106 103.76 156.106 103.312C156.106 102.864 155.722 102.48 155.274 102.48C154.826 102.48 154.458 102.864 154.458 103.312C154.458 103.76 154.826 104.128 155.274 104.128ZM154.73 114H155.834V106.256H154.73V114ZM159.912 114V107.184H161.464V106.256H159.912V103.808H158.824V106.256H157.272V107.184H158.824V114H159.912ZM166.072 114.192C167.896 114.192 169.096 113.312 169.512 111.68H168.456C168.168 112.704 167.352 113.248 166.088 113.248C164.424 113.248 163.432 112.16 163.352 110.272H169.512V109.728C169.512 107.536 168.088 106.048 165.992 106.048C163.784 106.048 162.28 107.712 162.28 110.128C162.28 112.56 163.8 114.192 166.072 114.192ZM165.992 106.992C167.448 106.992 168.408 107.984 168.408 109.472H163.384C163.576 107.952 164.536 106.992 165.992 106.992ZM175.715 117.376H176.819V112.512C177.363 113.632 178.403 114.192 179.715 114.192C182.003 114.192 183.299 112.432 183.299 110.096C183.299 107.76 181.955 106.048 179.715 106.048C178.419 106.048 177.331 106.624 176.787 107.824L176.674 106.256H175.715V117.376ZM176.835 110.128C176.835 108.336 177.827 107.056 179.523 107.056C181.203 107.056 182.179 108.336 182.179 110.128C182.179 111.904 181.203 113.2 179.523 113.2C177.827 113.2 176.835 111.904 176.835 110.128ZM188.306 114.192C190.13 114.192 191.33 113.312 191.746 111.68H190.69C190.402 112.704 189.586 113.248 188.322 113.248C186.658 113.248 185.666 112.16 185.586 110.272H191.746V109.728C191.746 107.536 190.322 106.048 188.226 106.048C186.018 106.048 184.514 107.712 184.514 110.128C184.514 112.56 186.034 114.192 188.306 114.192ZM188.226 106.992C189.682 106.992 190.642 107.984 190.642 109.472H185.618C185.81 107.952 186.77 106.992 188.226 106.992ZM197.559 106.16C197.287 106.096 197.079 106.08 196.839 106.08C195.751 106.08 194.935 106.624 194.631 107.456L194.551 106.256H193.511V114H194.615V109.584C194.615 108.112 195.527 107.152 196.951 107.152H197.559V106.16ZM198.476 106.256V107.184H199.66V114H200.764V107.184H202.588V106.256H200.764V104.752C200.764 103.84 201.02 103.344 201.996 103.344H202.652V102.4C202.396 102.352 202.076 102.336 201.804 102.336C200.62 102.336 199.66 103.008 199.66 104.752V106.256H198.476ZM203.311 110.128C203.311 112.48 204.975 114.192 207.247 114.192C209.519 114.192 211.183 112.48 211.183 110.128C211.183 107.76 209.519 106.048 207.247 106.048C204.975 106.048 203.311 107.76 203.311 110.128ZM204.431 110.112C204.431 108.32 205.583 107.04 207.247 107.04C208.895 107.04 210.063 108.32 210.063 110.112C210.063 111.936 208.895 113.2 207.247 113.2C205.583 113.2 204.431 111.936 204.431 110.112ZM216.997 106.16C216.725 106.096 216.517 106.08 216.277 106.08C215.189 106.08 214.373 106.624 214.069 107.456L213.989 106.256H212.949V114H214.053V109.584C214.053 108.112 214.965 107.152 216.389 107.152H216.997V106.16ZM219.569 114V109.2C219.569 108.016 220.353 107.056 221.649 107.056C222.817 107.056 223.569 107.824 223.569 109.136V114H224.657V109.216C224.657 108.016 225.425 107.04 226.72 107.04C227.905 107.04 228.641 107.824 228.641 109.152V114H229.713V108.928C229.713 107.136 228.609 106.048 226.929 106.048C225.681 106.048 224.737 106.688 224.385 107.696C224.017 106.688 223.105 106.048 221.889 106.048C220.801 106.048 219.937 106.544 219.553 107.36L219.424 106.256H218.465V114H219.569ZM234.157 114.192C235.469 114.192 236.525 113.616 237.005 112.64L237.149 114H238.077V108.992C238.077 106.944 236.765 106.048 234.973 106.048C233.069 106.048 231.789 107.056 231.789 108.624H232.797C232.797 107.584 233.597 106.976 234.941 106.976C236.077 106.976 236.989 107.456 236.989 108.976V109.232L234.429 109.44C232.621 109.584 231.533 110.48 231.533 111.904C231.533 113.264 232.509 114.192 234.157 114.192ZM234.413 113.296C233.357 113.296 232.653 112.816 232.653 111.872C232.653 111.008 233.245 110.368 234.701 110.24L236.989 110.064V110.48C236.989 112.16 236.045 113.296 234.413 113.296ZM241.397 114V109.952C241.397 108.208 242.293 107.056 243.877 107.056C245.157 107.056 245.973 107.696 245.973 109.504V114H247.077V109.264C247.077 107.312 246.197 106.048 244.069 106.048C242.949 106.048 241.925 106.608 241.413 107.6L241.253 106.256H240.293V114H241.397ZM248.733 110.144C248.733 112.576 250.221 114.192 252.413 114.192C254.173 114.192 255.549 113.152 255.917 111.568H254.797C254.493 112.56 253.565 113.2 252.413 113.2C250.845 113.2 249.821 111.968 249.821 110.128C249.821 108.224 250.925 107.024 252.493 107.024C253.565 107.024 254.493 107.616 254.781 108.688H255.885C255.581 107.088 254.269 106.048 252.477 106.048C250.221 106.048 248.733 107.712 248.733 110.144ZM260.838 114.192C262.662 114.192 263.862 113.312 264.278 111.68H263.222C262.934 112.704 262.118 113.248 260.854 113.248C259.19 113.248 258.198 112.16 258.118 110.272H264.278V109.728C264.278 107.536 262.854 106.048 260.758 106.048C258.549 106.048 257.046 107.712 257.046 110.128C257.046 112.56 258.566 114.192 260.838 114.192ZM260.758 106.992C262.214 106.992 263.174 107.984 263.174 109.472H258.15C258.342 107.952 259.302 106.992 260.758 106.992ZM269.936 110.128C269.936 112.48 271.6 114.192 273.872 114.192C276.144 114.192 277.808 112.48 277.808 110.128C277.808 107.76 276.144 106.048 273.872 106.048C271.6 106.048 269.936 107.76 269.936 110.128ZM271.056 110.112C271.056 108.32 272.208 107.04 273.872 107.04C275.52 107.04 276.688 108.32 276.688 110.112C276.688 111.936 275.52 113.2 273.872 113.2C272.208 113.2 271.056 111.936 271.056 110.112ZM281.39 114H282.494L285.71 106.256H284.574L282.542 111.248C282.318 111.808 282.11 112.32 281.966 112.848C281.822 112.336 281.614 111.808 281.406 111.248L279.406 106.256H278.222L281.39 114ZM289.916 114.192C291.74 114.192 292.94 113.312 293.356 111.68H292.3C292.012 112.704 291.196 113.248 289.932 113.248C288.268 113.248 287.276 112.16 287.196 110.272H293.356V109.728C293.356 107.536 291.932 106.048 289.836 106.048C287.628 106.048 286.124 107.712 286.124 110.128C286.124 112.56 287.644 114.192 289.916 114.192ZM289.836 106.992C291.292 106.992 292.252 107.984 292.252 109.472H287.228C287.42 107.952 288.38 106.992 289.836 106.992ZM299.169 106.16C298.897 106.096 298.689 106.08 298.449 106.08C297.361 106.08 296.545 106.624 296.241 107.456L296.161 106.256H295.121V114H296.225V109.584C296.225 108.112 297.137 107.152 298.561 107.152H299.169V106.16ZM306.85 114V107.184H308.402V106.256H306.85V103.808H305.762V106.256H304.21V107.184H305.762V114H306.85ZM310.384 104.128C310.832 104.128 311.216 103.76 311.216 103.312C311.216 102.864 310.832 102.48 310.384 102.48C309.936 102.48 309.568 102.864 309.568 103.312C309.568 103.76 309.936 104.128 310.384 104.128ZM309.84 114H310.944V106.256H309.84V114ZM314.35 114V109.2C314.35 108.016 315.134 107.056 316.43 107.056C317.598 107.056 318.35 107.824 318.35 109.136V114H319.438V109.216C319.438 108.016 320.206 107.04 321.502 107.04C322.686 107.04 323.422 107.824 323.422 109.152V114H324.494V108.928C324.494 107.136 323.39 106.048 321.71 106.048C320.462 106.048 319.518 106.688 319.166 107.696C318.798 106.688 317.886 106.048 316.67 106.048C315.582 106.048 314.718 106.544 314.334 107.36L314.206 106.256H313.246V114H314.35ZM329.963 114.192C331.787 114.192 332.987 113.312 333.403 111.68H332.347C332.059 112.704 331.243 113.248 329.979 113.248C328.315 113.248 327.323 112.16 327.243 110.272H333.403V109.728C333.403 107.536 331.979 106.048 329.883 106.048C327.674 106.048 326.171 107.712 326.171 110.128C326.171 112.56 327.691 114.192 329.963 114.192ZM329.883 106.992C331.339 106.992 332.299 107.984 332.299 109.472H327.275C327.467 107.952 328.427 106.992 329.883 106.992ZM335.627 114.176C336.171 114.176 336.635 113.728 336.635 113.2C336.635 112.656 336.171 112.192 335.627 112.192C335.083 112.192 334.619 112.656 334.619 113.2C334.619 113.728 335.083 114.176 335.627 114.176Z" fill="#0A0F0D" fill-opacity="0.8"/>
<g clip-path="url(#clip0_1_364)">
<path d="M51.2016 113.261H44.7993V106.739H51.2016V113.261ZM56 102H40V118H56V102Z" fill="black"/>
</g>
<g clip-path="url(#clip1_1_364)">
<path d="M51.2016 151.261H44.7993V144.739H51.2016V151.261ZM56 140H40V156H56V140Z" fill="black"/>
</g>
<g clip-path="url(#clip2_1_364)">
<path d="M51.2016 213.261H44.7993V206.739H51.2016V213.261ZM56 202H40V218H56V202Z" fill="black"/>
</g>
<path d="M71.312 148.016C71.312 150.624 72.912 152.192 75.568 152.192C78.176 152.192 79.776 150.608 79.776 148.016V140.544H78.624V147.968C78.624 149.952 77.52 151.072 75.568 151.072C73.568 151.072 72.464 149.984 72.464 147.968V140.544H71.312V148.016ZM83.3498 152V147.952C83.3498 146.208 84.2458 145.056 85.8298 145.056C87.1098 145.056 87.9258 145.696 87.9258 147.504V152H89.0298V147.264C89.0298 145.312 88.1498 144.048 86.0218 144.048C84.9018 144.048 83.8778 144.608 83.3658 145.6L83.2057 144.256H82.2458V152H83.3498ZM91.2301 155.376H92.3341V150.512C92.8781 151.632 93.9181 152.192 95.2301 152.192C97.5181 152.192 98.8141 150.432 98.8141 148.096C98.8141 145.76 97.4701 144.048 95.2301 144.048C93.9341 144.048 92.8461 144.624 92.3021 145.824L92.1901 144.256H91.2301V155.376ZM92.3501 148.128C92.3501 146.336 93.3421 145.056 95.0381 145.056C96.7181 145.056 97.6941 146.336 97.6941 148.128C97.6941 149.904 96.7181 151.2 95.0381 151.2C93.3421 151.2 92.3501 149.904 92.3501 148.128ZM102.798 152.192C104.11 152.192 105.166 151.616 105.646 150.64L105.79 152H106.718V146.992C106.718 144.944 105.406 144.048 103.614 144.048C101.71 144.048 100.43 145.056 100.43 146.624H101.438C101.438 145.584 102.238 144.976 103.582 144.976C104.718 144.976 105.63 145.456 105.63 146.976V147.232L103.07 147.44C101.262 147.584 100.174 148.48 100.174 149.904C100.174 151.264 101.15 152.192 102.798 152.192ZM103.054 151.296C101.998 151.296 101.294 150.816 101.294 149.872C101.294 149.008 101.886 148.368 103.342 148.24L105.63 148.064V148.48C105.63 150.16 104.686 151.296 103.054 151.296ZM108.389 148.144C108.389 150.576 109.877 152.192 112.069 152.192C113.829 152.192 115.205 151.152 115.573 149.568H114.453C114.149 150.56 113.221 151.2 112.069 151.2C110.501 151.2 109.477 149.968 109.477 148.128C109.477 146.224 110.581 145.024 112.149 145.024C113.221 145.024 114.149 145.616 114.437 146.688H115.541C115.237 145.088 113.925 144.048 112.133 144.048C109.877 144.048 108.389 145.712 108.389 148.144ZM118.398 152V149.68L119.902 148.128L122.366 152H123.646L120.654 147.344L123.63 144.256H122.238L118.398 148.256V140.336H117.294V152H118.398ZM131.178 152V145.184H132.73V144.256H131.178V141.808H130.09V144.256H128.538V145.184H130.09V152H131.178ZM135.272 151.984V147.776C135.272 146.288 136.136 145.056 137.8 145.056C139 145.056 139.848 145.696 139.848 147.504V152H140.952V147.264C140.952 145.312 140.04 144.048 138.008 144.048C136.712 144.048 135.768 144.672 135.272 145.6V140.336H134.168V151.984H135.272ZM146.4 152.192C148.224 152.192 149.424 151.312 149.84 149.68H148.784C148.496 150.704 147.68 151.248 146.416 151.248C144.752 151.248 143.76 150.16 143.68 148.272H149.84V147.728C149.84 145.536 148.416 144.048 146.32 144.048C144.112 144.048 142.608 145.712 142.608 148.128C142.608 150.56 144.128 152.192 146.4 152.192ZM146.32 144.992C147.776 144.992 148.736 145.984 148.736 147.472H143.712C143.904 145.952 144.864 144.992 146.32 144.992ZM155.499 148.144C155.499 150.576 156.987 152.192 159.179 152.192C160.939 152.192 162.315 151.152 162.683 149.568H161.563C161.259 150.56 160.331 151.2 159.179 151.2C157.611 151.2 156.587 149.968 156.587 148.128C156.587 146.224 157.691 145.024 159.259 145.024C160.331 145.024 161.259 145.616 161.547 146.688H162.651C162.347 145.088 161.035 144.048 159.243 144.048C156.987 144.048 155.499 145.712 155.499 148.144ZM169.795 144.256V148.368C169.795 150.208 168.915 151.2 167.427 151.2C166.195 151.2 165.379 150.544 165.379 148.704V144.24H164.259V149.056C164.259 150.944 165.251 152.192 167.075 152.192C168.291 152.192 169.363 151.584 169.795 150.688L169.939 152H170.899V144.256H169.795ZM172.387 149.824C172.387 151.264 173.475 152.192 175.219 152.192C176.979 152.192 178.163 151.28 178.163 149.888C178.163 148.768 177.555 148.144 176.211 147.808L174.883 147.472C174.035 147.264 173.619 146.848 173.619 146.256C173.619 145.424 174.227 144.96 175.315 144.96C176.355 144.96 176.979 145.488 177.011 146.384H178.083C178.035 144.944 176.979 144.048 175.347 144.048C173.683 144.048 172.547 144.912 172.547 146.272C172.547 147.328 173.203 148.032 174.547 148.368L175.875 148.704C176.787 148.928 177.107 149.296 177.107 149.936C177.107 150.768 176.403 151.28 175.203 151.28C174.115 151.28 173.443 150.72 173.443 149.824H172.387ZM181.756 152V145.184H183.308V144.256H181.756V141.808H180.668V144.256H179.116V145.184H180.668V152H181.756ZM184.124 148.128C184.124 150.48 185.788 152.192 188.06 152.192C190.332 152.192 191.996 150.48 191.996 148.128C191.996 145.76 190.332 144.048 188.06 144.048C185.788 144.048 184.124 145.76 184.124 148.128ZM185.244 148.112C185.244 146.32 186.396 145.04 188.06 145.04C189.708 145.04 190.876 146.32 190.876 148.112C190.876 149.936 189.708 151.2 188.06 151.2C186.396 151.2 185.244 149.936 185.244 148.112ZM194.865 152V147.2C194.865 146.016 195.649 145.056 196.945 145.056C198.113 145.056 198.865 145.824 198.865 147.136V152H199.953V147.216C199.953 146.016 200.721 145.04 202.017 145.04C203.201 145.04 203.937 145.824 203.937 147.152V152H205.009V146.928C205.009 145.136 203.905 144.048 202.225 144.048C200.977 144.048 200.033 144.688 199.681 145.696C199.313 144.688 198.401 144.048 197.185 144.048C196.097 144.048 195.233 144.544 194.849 145.36L194.721 144.256H193.761V152H194.865ZM210.478 152.192C212.302 152.192 213.502 151.312 213.918 149.68H212.862C212.574 150.704 211.758 151.248 210.494 151.248C208.83 151.248 207.838 150.16 207.758 148.272H213.918V147.728C213.918 145.536 212.494 144.048 210.398 144.048C208.19 144.048 206.686 145.712 206.686 148.128C206.686 150.56 208.206 152.192 210.478 152.192ZM210.398 144.992C211.854 144.992 212.814 145.984 212.814 147.472H207.79C207.982 145.952 208.942 144.992 210.398 144.992ZM219.731 144.16C219.459 144.096 219.251 144.08 219.011 144.08C217.923 144.08 217.107 144.624 216.803 145.456L216.723 144.256H215.683V152H216.787V147.584C216.787 146.112 217.699 145.152 219.123 145.152H219.731V144.16ZM226.196 142.128C226.628 142.128 227.012 141.76 227.012 141.312C227.012 140.864 226.628 140.48 226.196 140.48C225.732 140.48 225.364 140.864 225.364 141.312C225.364 141.76 225.732 142.128 226.196 142.128ZM223.572 155.392C223.972 155.504 224.196 155.536 224.612 155.536C225.972 155.536 226.74 154.64 226.74 153.168V144.256H225.636V153.104C225.636 154.048 225.3 154.496 224.532 154.496C224.292 154.496 224.1 154.464 223.78 154.384L223.572 155.392ZM228.499 148.128C228.499 150.48 230.163 152.192 232.435 152.192C234.707 152.192 236.371 150.48 236.371 148.128C236.371 145.76 234.707 144.048 232.435 144.048C230.163 144.048 228.499 145.76 228.499 148.128ZM229.619 148.112C229.619 146.32 230.771 145.04 232.435 145.04C234.083 145.04 235.251 146.32 235.251 148.112C235.251 149.936 234.083 151.2 232.435 151.2C230.771 151.2 229.619 149.936 229.619 148.112ZM243.389 144.256V148.368C243.389 150.208 242.509 151.2 241.021 151.2C239.789 151.2 238.973 150.544 238.973 148.704V144.24H237.853V149.056C237.853 150.944 238.845 152.192 240.669 152.192C241.885 152.192 242.957 151.584 243.389 150.688L243.533 152H244.493V144.256H243.389ZM250.841 144.16C250.569 144.096 250.361 144.08 250.121 144.08C249.033 144.08 248.217 144.624 247.913 145.456L247.833 144.256H246.793V152H247.897V147.584C247.897 146.112 248.809 145.152 250.233 145.152H250.841V144.16ZM253.412 152V147.952C253.412 146.208 254.308 145.056 255.892 145.056C257.172 145.056 257.988 145.696 257.988 147.504V152H259.092V147.264C259.092 145.312 258.212 144.048 256.084 144.048C254.964 144.048 253.94 144.608 253.428 145.6L253.268 144.256H252.308V152H253.412ZM264.541 152.192C266.365 152.192 267.565 151.312 267.981 149.68H266.925C266.637 150.704 265.821 151.248 264.557 151.248C262.893 151.248 261.901 150.16 261.821 148.272H267.981V147.728C267.981 145.536 266.557 144.048 264.461 144.048C262.253 144.048 260.749 145.712 260.749 148.128C260.749 150.56 262.269 152.192 264.541 152.192ZM264.461 144.992C265.917 144.992 266.877 145.984 266.877 147.472H261.853C262.045 145.952 263.005 144.992 264.461 144.992ZM268.774 155.376C269.126 155.456 269.478 155.488 269.942 155.488C271.046 155.488 271.798 154.992 272.246 153.776L275.798 144.256H274.662L272.214 151.008L269.718 144.256H268.55L271.686 152.464L271.35 153.376C270.966 154.416 270.294 154.464 269.622 154.464H268.774V155.376ZM276.603 148.288H292.699V147.312H276.603V148.288ZM293.726 144.256V145.184H294.91V152H296.014V145.184H297.838V144.256H296.014V142.752C296.014 141.84 296.27 141.344 297.246 141.344H297.902V140.4C297.646 140.352 297.326 140.336 297.054 140.336C295.87 140.336 294.91 141.008 294.91 142.752V144.256H293.726ZM303.388 144.16C303.116 144.096 302.908 144.08 302.668 144.08C301.58 144.08 300.764 144.624 300.46 145.456L300.38 144.256H299.34V152H300.444V147.584C300.444 146.112 301.356 145.152 302.78 145.152H303.388V144.16ZM304.014 148.128C304.014 150.48 305.678 152.192 307.95 152.192C310.222 152.192 311.886 150.48 311.886 148.128C311.886 145.76 310.222 144.048 307.95 144.048C305.678 144.048 304.014 145.76 304.014 148.128ZM305.134 148.112C305.134 146.32 306.286 145.04 307.95 145.04C309.598 145.04 310.766 146.32 310.766 148.112C310.766 149.936 309.598 151.2 307.95 151.2C306.286 151.2 305.134 149.936 305.134 148.112ZM314.756 152V147.2C314.756 146.016 315.54 145.056 316.836 145.056C318.004 145.056 318.756 145.824 318.756 147.136V152H319.844V147.216C319.844 146.016 320.612 145.04 321.908 145.04C323.092 145.04 323.828 145.824 323.828 147.152V152H324.9V146.928C324.9 145.136 323.796 144.048 322.116 144.048C320.868 144.048 319.924 144.688 319.572 145.696C319.204 144.688 318.292 144.048 317.076 144.048C315.988 144.048 315.124 144.544 314.74 145.36L314.612 144.256H313.652V152H314.756ZM333.718 152H334.822L338.038 144.256H336.902L334.87 149.248C334.646 149.808 334.438 150.32 334.294 150.848C334.15 150.336 333.942 149.808 333.734 149.248L331.734 144.256H330.55L333.718 152ZM339.884 142.128C340.332 142.128 340.716 141.76 340.716 141.312C340.716 140.864 340.332 140.48 339.884 140.48C339.436 140.48 339.068 140.864 339.068 141.312C339.068 141.76 339.436 142.128 339.884 142.128ZM339.34 152H340.444V144.256H339.34V152ZM342.09 149.824C342.09 151.264 343.178 152.192 344.922 152.192C346.682 152.192 347.866 151.28 347.866 149.888C347.866 148.768 347.258 148.144 345.914 147.808L344.586 147.472C343.738 147.264 343.322 146.848 343.322 146.256C343.322 145.424 343.93 144.96 345.018 144.96C346.058 144.96 346.682 145.488 346.714 146.384H347.786C347.738 144.944 346.682 144.048 345.05 144.048C343.386 144.048 342.25 144.912 342.25 146.272C342.25 147.328 342.906 148.032 344.25 148.368L345.578 148.704C346.49 148.928 346.81 149.296 346.81 149.936C346.81 150.768 346.106 151.28 344.906 151.28C343.818 151.28 343.146 150.72 343.146 149.824H342.09ZM350.227 142.128C350.675 142.128 351.059 141.76 351.059 141.312C351.059 140.864 350.675 140.48 350.227 140.48C349.779 140.48 349.411 140.864 349.411 141.312C349.411 141.76 349.779 142.128 350.227 142.128ZM349.683 152H350.787V144.256H349.683V152ZM354.866 152V145.184H356.418V144.256H354.866V141.808H353.778V144.256H352.226V145.184H353.778V152H354.866ZM357.233 148.128C357.233 150.48 358.897 152.192 361.169 152.192C363.441 152.192 365.105 150.48 365.105 148.128C365.105 145.76 363.441 144.048 361.169 144.048C358.897 144.048 357.233 145.76 357.233 148.128ZM358.353 148.112C358.353 146.32 359.505 145.04 361.169 145.04C362.817 145.04 363.985 146.32 363.985 148.112C363.985 149.936 362.817 151.2 361.169 151.2C359.505 151.2 358.353 149.936 358.353 148.112ZM370.919 144.16C370.647 144.096 370.439 144.08 370.199 144.08C369.111 144.08 368.295 144.624 367.991 145.456L367.911 144.256H366.871V152H367.975V147.584C367.975 146.112 368.887 145.152 370.311 145.152H370.919V144.16ZM378.6 152V145.184H380.152V144.256H378.6V141.808H377.512V144.256H375.96V145.184H377.512V152H378.6ZM380.967 148.128C380.967 150.48 382.631 152.192 384.903 152.192C387.175 152.192 388.839 150.48 388.839 148.128C388.839 145.76 387.175 144.048 384.903 144.048C382.631 144.048 380.967 145.76 380.967 148.128ZM382.087 148.112C382.087 146.32 383.239 145.04 384.903 145.04C386.551 145.04 387.719 146.32 387.719 148.112C387.719 149.936 386.551 151.2 384.903 151.2C383.239 151.2 382.087 149.936 382.087 148.112ZM71.152 179.376H72.256V174.512C72.8 175.632 73.84 176.192 75.152 176.192C77.44 176.192 78.736 174.432 78.736 172.096C78.736 169.76 77.392 168.048 75.152 168.048C73.856 168.048 72.768 168.624 72.224 169.824L72.112 168.256H71.152V179.376ZM72.272 172.128C72.272 170.336 73.264 169.056 74.96 169.056C76.64 169.056 77.616 170.336 77.616 172.128C77.616 173.904 76.64 175.2 74.96 175.2C73.264 175.2 72.272 173.904 72.272 172.128ZM85.7483 168.256V172.368C85.7483 174.208 84.8683 175.2 83.3802 175.2C82.1483 175.2 81.3323 174.544 81.3323 172.704V168.24H80.2122V173.056C80.2122 174.944 81.2043 176.192 83.0283 176.192C84.2443 176.192 85.3163 175.584 85.7483 174.688L85.8923 176H86.8523V168.256H85.7483ZM93.2 168.16C92.928 168.096 92.72 168.08 92.48 168.08C91.392 168.08 90.576 168.624 90.272 169.456L90.192 168.256H89.152V176H90.256V171.584C90.256 170.112 91.168 169.152 92.592 169.152H93.2V168.16ZM93.8268 172.144C93.8268 174.576 95.3148 176.192 97.5068 176.192C99.2668 176.192 100.643 175.152 101.011 173.568H99.8908C99.5868 174.56 98.6588 175.2 97.5068 175.2C95.9388 175.2 94.9148 173.968 94.9148 172.128C94.9148 170.224 96.0188 169.024 97.5868 169.024C98.6588 169.024 99.5868 169.616 99.8748 170.688H100.979C100.675 169.088 99.3628 168.048 97.5708 168.048C95.3148 168.048 93.8268 169.712 93.8268 172.144ZM103.787 175.984V171.776C103.787 170.288 104.651 169.056 106.315 169.056C107.515 169.056 108.363 169.696 108.363 171.504V176H109.467V171.264C109.467 169.312 108.555 168.048 106.523 168.048C105.227 168.048 104.283 168.672 103.787 169.6V164.336H102.683V175.984H103.787ZM113.892 176.192C115.204 176.192 116.26 175.616 116.74 174.64L116.884 176H117.812V170.992C117.812 168.944 116.5 168.048 114.708 168.048C112.804 168.048 111.524 169.056 111.524 170.624H112.532C112.532 169.584 113.332 168.976 114.676 168.976C115.812 168.976 116.724 169.456 116.724 170.976V171.232L114.164 171.44C112.356 171.584 111.268 172.48 111.268 173.904C111.268 175.264 112.244 176.192 113.892 176.192ZM114.148 175.296C113.092 175.296 112.388 174.816 112.388 173.872C112.388 173.008 112.98 172.368 114.436 172.24L116.724 172.064V172.48C116.724 174.16 115.78 175.296 114.148 175.296ZM119.371 173.824C119.371 175.264 120.459 176.192 122.203 176.192C123.963 176.192 125.147 175.28 125.147 173.888C125.147 172.768 124.539 172.144 123.195 171.808L121.867 171.472C121.019 171.264 120.603 170.848 120.603 170.256C120.603 169.424 121.211 168.96 122.299 168.96C123.339 168.96 123.963 169.488 123.995 170.384H125.067C125.019 168.944 123.963 168.048 122.331 168.048C120.667 168.048 119.531 168.912 119.531 170.272C119.531 171.328 120.187 172.032 121.531 172.368L122.859 172.704C123.771 172.928 124.091 173.296 124.091 173.936C124.091 174.768 123.387 175.28 122.187 175.28C121.099 175.28 120.427 174.72 120.427 173.824H119.371ZM130.213 176.192C132.037 176.192 133.237 175.312 133.653 173.68H132.597C132.309 174.704 131.493 175.248 130.229 175.248C128.565 175.248 127.573 174.16 127.493 172.272H133.653V171.728C133.653 169.536 132.229 168.048 130.133 168.048C127.924 168.048 126.421 169.712 126.421 172.128C126.421 174.56 127.941 176.192 130.213 176.192ZM130.133 168.992C131.589 168.992 132.549 169.984 132.549 171.472H127.525C127.717 169.952 128.677 168.992 130.133 168.992ZM139.466 168.16C139.194 168.096 138.986 168.08 138.746 168.08C137.658 168.08 136.842 168.624 136.538 169.456L136.458 168.256H135.418V176H136.522V171.584C136.522 170.112 137.434 169.152 138.858 169.152H139.466V168.16ZM140.69 176.176C141.234 176.176 141.698 175.728 141.698 175.2C141.698 174.656 141.234 174.192 140.69 174.192C140.146 174.192 139.682 174.656 139.682 175.2C139.682 175.728 140.146 176.176 140.69 176.176Z" fill="#0A0F0D" fill-opacity="0.8"/>
<path d="M76.192 203.44C77.872 203.44 79.216 204.24 79.696 205.808H80.944C80.496 203.728 78.624 202.352 76.208 202.352C72.928 202.352 70.688 204.816 70.688 208.32C70.688 211.856 72.928 214.192 76.176 214.192C78.032 214.192 79.472 213.328 80.08 212.192L80.192 214.016H81.104V207.808H75.872V208.832H80.016V209.424C80.016 212.176 78.144 213.104 76.224 213.104C73.648 213.104 71.888 211.296 71.888 208.32C71.888 205.392 73.552 203.44 76.192 203.44ZM85.376 214.192C86.688 214.192 87.744 213.616 88.224 212.64L88.368 214H89.296V208.992C89.296 206.944 87.984 206.048 86.192 206.048C84.288 206.048 83.008 207.056 83.008 208.624H84.016C84.016 207.584 84.816 206.976 86.16 206.976C87.296 206.976 88.208 207.456 88.208 208.976V209.232L85.648 209.44C83.84 209.584 82.752 210.48 82.752 211.904C82.752 213.264 83.728 214.192 85.376 214.192ZM85.632 213.296C84.576 213.296 83.872 212.816 83.872 211.872C83.872 211.008 84.464 210.368 85.92 210.24L88.208 210.064V210.48C88.208 212.16 87.264 213.296 85.632 213.296ZM92.0554 204.128C92.5034 204.128 92.8874 203.76 92.8874 203.312C92.8874 202.864 92.5034 202.48 92.0554 202.48C91.6074 202.48 91.2394 202.864 91.2394 203.312C91.2394 203.76 91.6074 204.128 92.0554 204.128ZM91.5114 214H92.6154V206.256H91.5114V214ZM96.0216 214V209.952C96.0216 208.208 96.9176 207.056 98.5016 207.056C99.7816 207.056 100.598 207.696 100.598 209.504V214H101.702V209.264C101.702 207.312 100.822 206.048 98.6936 206.048C97.5736 206.048 96.5496 206.608 96.0376 207.6L95.8776 206.256H94.9176V214H96.0216ZM110.564 214.192C111.876 214.192 112.932 213.616 113.412 212.64L113.556 214H114.484V208.992C114.484 206.944 113.172 206.048 111.38 206.048C109.476 206.048 108.196 207.056 108.196 208.624H109.204C109.204 207.584 110.004 206.976 111.348 206.976C112.484 206.976 113.396 207.456 113.396 208.976V209.232L110.836 209.44C109.028 209.584 107.94 210.48 107.94 211.904C107.94 213.264 108.916 214.192 110.564 214.192ZM110.82 213.296C109.764 213.296 109.06 212.816 109.06 211.872C109.06 211.008 109.652 210.368 111.108 210.24L113.396 210.064V210.48C113.396 212.16 112.452 213.296 110.82 213.296ZM122.096 214L122.208 212.416C122.752 213.616 123.824 214.192 125.12 214.192C127.376 214.192 128.72 212.464 128.72 210.144C128.72 207.808 127.408 206.048 125.152 206.048C123.84 206.048 122.784 206.624 122.24 207.76V202.336H121.136V214H122.096ZM122.256 210.112C122.256 208.336 123.248 207.04 124.944 207.04C126.624 207.04 127.6 208.336 127.6 210.112C127.6 211.904 126.624 213.184 124.944 213.184C123.248 213.184 122.256 211.904 122.256 210.112ZM133.728 214.192C135.552 214.192 136.752 213.312 137.168 211.68H136.112C135.824 212.704 135.008 213.248 133.744 213.248C132.08 213.248 131.088 212.16 131.008 210.272H137.168V209.728C137.168 207.536 135.744 206.048 133.648 206.048C131.44 206.048 129.936 207.712 129.936 210.128C129.936 212.56 131.456 214.192 133.728 214.192ZM133.648 206.992C135.104 206.992 136.064 207.984 136.064 209.472H131.04C131.232 207.952 132.192 206.992 133.648 206.992ZM140.631 214V207.184H142.183V206.256H140.631V203.808H139.543V206.256H137.991V207.184H139.543V214H140.631ZM145.459 214V207.184H147.011V206.256H145.459V203.808H144.371V206.256H142.819V207.184H144.371V214H145.459ZM151.619 214.192C153.443 214.192 154.643 213.312 155.059 211.68H154.003C153.715 212.704 152.899 213.248 151.635 213.248C149.971 213.248 148.979 212.16 148.899 210.272H155.059V209.728C155.059 207.536 153.635 206.048 151.539 206.048C149.331 206.048 147.827 207.712 147.827 210.128C147.827 212.56 149.347 214.192 151.619 214.192ZM151.539 206.992C152.995 206.992 153.955 207.984 153.955 209.472H148.931C149.123 207.952 150.083 206.992 151.539 206.992ZM160.872 206.16C160.6 206.096 160.392 206.08 160.152 206.08C159.064 206.08 158.248 206.624 157.944 207.456L157.864 206.256H156.824V214H157.928V209.584C157.928 208.112 158.84 207.152 160.264 207.152H160.872V206.16ZM166.121 211.824C166.121 213.264 167.209 214.192 168.953 214.192C170.713 214.192 171.897 213.28 171.897 211.888C171.897 210.768 171.289 210.144 169.945 209.808L168.617 209.472C167.769 209.264 167.353 208.848 167.353 208.256C167.353 207.424 167.961 206.96 169.049 206.96C170.089 206.96 170.713 207.488 170.745 208.384H171.817C171.769 206.944 170.713 206.048 169.081 206.048C167.417 206.048 166.281 206.912 166.281 208.272C166.281 209.328 166.937 210.032 168.281 210.368L169.609 210.704C170.521 210.928 170.841 211.296 170.841 211.936C170.841 212.768 170.137 213.28 168.937 213.28C167.849 213.28 167.177 212.72 167.177 211.824H166.121ZM176.963 214.192C178.787 214.192 179.987 213.312 180.403 211.68H179.347C179.059 212.704 178.243 213.248 176.979 213.248C175.315 213.248 174.323 212.16 174.243 210.272H180.403V209.728C180.403 207.536 178.979 206.048 176.883 206.048C174.674 206.048 173.171 207.712 173.171 210.128C173.171 212.56 174.691 214.192 176.963 214.192ZM176.883 206.992C178.339 206.992 179.299 207.984 179.299 209.472H174.275C174.467 207.952 175.427 206.992 176.883 206.992ZM183.272 214V209.952C183.272 208.208 184.168 207.056 185.752 207.056C187.032 207.056 187.848 207.696 187.848 209.504V214H188.952V209.264C188.952 207.312 188.072 206.048 185.944 206.048C184.824 206.048 183.8 206.608 183.288 207.6L183.128 206.256H182.168V214H183.272ZM190.402 211.824C190.402 213.264 191.49 214.192 193.234 214.192C194.994 214.192 196.178 213.28 196.178 211.888C196.178 210.768 195.57 210.144 194.226 209.808L192.898 209.472C192.05 209.264 191.634 208.848 191.634 208.256C191.634 207.424 192.242 206.96 193.33 206.96C194.37 206.96 194.994 207.488 195.026 208.384H196.098C196.05 206.944 194.994 206.048 193.362 206.048C191.698 206.048 190.562 206.912 190.562 208.272C190.562 209.328 191.218 210.032 192.562 210.368L193.89 210.704C194.802 210.928 195.122 211.296 195.122 211.936C195.122 212.768 194.418 213.28 193.218 213.28C192.13 213.28 191.458 212.72 191.458 211.824H190.402ZM201.244 214.192C203.068 214.192 204.268 213.312 204.684 211.68H203.628C203.34 212.704 202.524 213.248 201.26 213.248C199.596 213.248 198.604 212.16 198.524 210.272H204.684V209.728C204.684 207.536 203.26 206.048 201.164 206.048C198.956 206.048 197.452 207.712 197.452 210.128C197.452 212.56 198.972 214.192 201.244 214.192ZM201.164 206.992C202.62 206.992 203.58 207.984 203.58 209.472H198.556C198.748 207.952 199.708 206.992 201.164 206.992ZM210.342 210.128C210.342 212.48 212.006 214.192 214.278 214.192C216.55 214.192 218.214 212.48 218.214 210.128C218.214 207.76 216.55 206.048 214.278 206.048C212.006 206.048 210.342 207.76 210.342 210.128ZM211.462 210.112C211.462 208.32 212.614 207.04 214.278 207.04C215.926 207.04 217.094 208.32 217.094 210.112C217.094 211.936 215.926 213.2 214.278 213.2C212.614 213.2 211.462 211.936 211.462 210.112ZM219.054 206.256V207.184H220.238V214H221.342V207.184H223.166V206.256H221.342V204.752C221.342 203.84 221.598 203.344 222.574 203.344H223.23V202.4C222.974 202.352 222.654 202.336 222.382 202.336C221.198 202.336 220.238 203.008 220.238 204.752V206.256H219.054ZM230.881 214V207.184H232.433V206.256H230.881V203.808H229.793V206.256H228.241V207.184H229.793V214H230.881ZM234.975 213.984V209.776C234.975 208.288 235.839 207.056 237.503 207.056C238.703 207.056 239.551 207.696 239.551 209.504V214H240.655V209.264C240.655 207.312 239.743 206.048 237.711 206.048C236.415 206.048 235.471 206.672 234.975 207.6V202.336H233.871V213.984H234.975ZM246.103 214.192C247.927 214.192 249.127 213.312 249.543 211.68H248.487C248.199 212.704 247.383 213.248 246.119 213.248C244.455 213.248 243.463 212.16 243.383 210.272H249.543V209.728C249.543 207.536 248.119 206.048 246.023 206.048C243.815 206.048 242.311 207.712 242.311 210.128C242.311 212.56 243.831 214.192 246.103 214.192ZM246.023 206.992C247.479 206.992 248.439 207.984 248.439 209.472H243.415C243.607 207.952 244.567 206.992 246.023 206.992ZM255.202 210.096C255.202 212.432 256.498 214.192 258.786 214.192C260.098 214.192 261.138 213.632 261.682 212.512V217.376H262.786V206.256H261.826L261.714 207.824C261.154 206.624 260.082 206.048 258.786 206.048C256.546 206.048 255.202 207.76 255.202 210.096ZM256.322 210.128C256.322 208.336 257.298 207.056 258.978 207.056C260.674 207.056 261.666 208.336 261.666 210.128C261.666 211.904 260.674 213.2 258.978 213.2C257.298 213.2 256.322 211.904 256.322 210.128ZM270.53 206.256V210.368C270.53 212.208 269.65 213.2 268.161 213.2C266.93 213.2 266.114 212.544 266.114 210.704V206.24H264.993V211.056C264.993 212.944 265.986 214.192 267.81 214.192C269.026 214.192 270.098 213.584 270.53 212.688L270.674 214H271.634V206.256H270.53ZM276.157 214.192C277.469 214.192 278.525 213.616 279.005 212.64L279.149 214H280.077V208.992C280.077 206.944 278.765 206.048 276.973 206.048C275.069 206.048 273.789 207.056 273.789 208.624H274.797C274.797 207.584 275.597 206.976 276.941 206.976C278.077 206.976 278.989 207.456 278.989 208.976V209.232L276.429 209.44C274.621 209.584 273.533 210.48 273.533 211.904C273.533 213.264 274.509 214.192 276.157 214.192ZM276.413 213.296C275.357 213.296 274.653 212.816 274.653 211.872C274.653 211.008 275.245 210.368 276.701 210.24L278.989 210.064V210.48C278.989 212.16 278.045 213.296 276.413 213.296ZM283.445 214V202.336H282.341V214H283.445ZM286.337 204.128C286.785 204.128 287.169 203.76 287.169 203.312C287.169 202.864 286.785 202.48 286.337 202.48C285.889 202.48 285.521 202.864 285.521 203.312C285.521 203.76 285.889 204.128 286.337 204.128ZM285.793 214H286.897V206.256H285.793V214ZM290.975 214V207.184H292.527V206.256H290.975V203.808H289.887V206.256H288.335V207.184H289.887V214H290.975ZM293.181 217.376C293.533 217.456 293.885 217.488 294.349 217.488C295.453 217.488 296.205 216.992 296.653 215.776L300.205 206.256H299.069L296.621 213.008L294.125 206.256H292.957L296.093 214.464L295.757 215.376C295.373 216.416 294.701 216.464 294.029 216.464H293.181V217.376ZM305.389 210.128C305.389 212.48 307.053 214.192 309.325 214.192C311.597 214.192 313.261 212.48 313.261 210.128C313.261 207.76 311.597 206.048 309.325 206.048C307.053 206.048 305.389 207.76 305.389 210.128ZM306.509 210.112C306.509 208.32 307.661 207.04 309.325 207.04C310.973 207.04 312.141 208.32 312.141 210.112C312.141 211.936 310.973 213.2 309.325 213.2C307.661 213.2 306.509 211.936 306.509 210.112ZM314.101 206.256V207.184H315.285V214H316.389V207.184H318.213V206.256H316.389V204.752C316.389 203.84 316.645 203.344 317.621 203.344H318.277V202.4C318.021 202.352 317.701 202.336 317.429 202.336C316.245 202.336 315.285 203.008 315.285 204.752V206.256H314.101ZM325.928 214V207.184H327.48V206.256H325.928V203.808H324.84V206.256H323.288V207.184H324.84V214H325.928ZM332.966 206.16C332.694 206.096 332.486 206.08 332.246 206.08C331.158 206.08 330.342 206.624 330.038 207.456L329.958 206.256H328.918V214H330.022V209.584C330.022 208.112 330.934 207.152 332.358 207.152H332.966V206.16ZM336.345 214.192C337.657 214.192 338.713 213.616 339.193 212.64L339.337 214H340.265V208.992C340.265 206.944 338.953 206.048 337.161 206.048C335.257 206.048 333.977 207.056 333.977 208.624H334.985C334.985 207.584 335.785 206.976 337.129 206.976C338.265 206.976 339.177 207.456 339.177 208.976V209.232L336.617 209.44C334.809 209.584 333.721 210.48 333.721 211.904C333.721 213.264 334.697 214.192 336.345 214.192ZM336.601 213.296C335.545 213.296 334.841 212.816 334.841 211.872C334.841 211.008 335.433 210.368 336.889 210.24L339.177 210.064V210.48C339.177 212.16 338.233 213.296 336.601 213.296ZM341.554 206.256V207.184H342.738V214H343.842V207.184H347.522V214H348.626V207.184H352.306V214H353.41V206.256H348.626V204.752C348.626 203.84 348.882 203.36 349.826 203.36H350.482V202.4C350.226 202.352 349.906 202.336 349.634 202.336C348.482 202.336 347.522 203.008 347.522 204.752V206.256H343.842V204.752C343.842 203.84 344.098 203.36 345.058 203.36H345.73V202.4C345.474 202.352 345.154 202.336 344.882 202.336C343.682 202.336 342.738 203.008 342.738 204.752V206.256H341.554ZM352.85 203.888C353.298 203.888 353.618 203.568 353.618 203.136C353.618 202.688 353.298 202.336 352.85 202.336C352.418 202.336 352.082 202.688 352.082 203.136C352.082 203.568 352.418 203.888 352.85 203.888ZM355.124 210.144C355.124 212.576 356.612 214.192 358.804 214.192C360.564 214.192 361.94 213.152 362.308 211.568H361.188C360.884 212.56 359.956 213.2 358.804 213.2C357.236 213.2 356.212 211.968 356.212 210.128C356.212 208.224 357.316 207.024 358.884 207.024C359.956 207.024 360.884 207.616 361.172 208.688H362.276C361.972 207.088 360.66 206.048 358.868 206.048C356.612 206.048 355.124 207.712 355.124 210.144ZM70.368 241.376C70.72 241.456 71.072 241.488 71.536 241.488C72.64 241.488 73.392 240.992 73.84 239.776L77.392 230.256H76.256L73.808 237.008L71.312 230.256H70.144L73.28 238.464L72.944 239.376C72.56 240.416 71.888 240.464 71.216 240.464H70.368V241.376ZM77.8736 234.128C77.8736 236.48 79.5376 238.192 81.8096 238.192C84.0816 238.192 85.7456 236.48 85.7456 234.128C85.7456 231.76 84.0816 230.048 81.8096 230.048C79.5376 230.048 77.8736 231.76 77.8736 234.128ZM78.9936 234.112C78.9936 232.32 80.1456 231.04 81.8096 231.04C83.4576 231.04 84.6256 232.32 84.6256 234.112C84.6256 235.936 83.4576 237.2 81.8096 237.2C80.1456 237.2 78.9936 235.936 78.9936 234.112ZM92.7639 230.256V234.368C92.7639 236.208 91.8839 237.2 90.3959 237.2C89.1639 237.2 88.3479 236.544 88.3479 234.704V230.24H87.2279V235.056C87.2279 236.944 88.2199 238.192 90.0439 238.192C91.2599 238.192 92.3319 237.584 92.7639 236.688L92.9079 238H93.8679V230.256H92.7639ZM97.4753 227.568C97.4753 226.784 96.9953 226.32 96.4513 226.32C95.8913 226.32 95.5073 226.72 95.5073 227.264C95.5073 227.808 95.8753 228.112 96.2913 228.112C96.4833 228.112 96.6273 228.08 96.7233 228.016C96.7233 228.464 96.3073 228.864 95.7473 228.976V229.568C96.7393 229.424 97.4753 228.576 97.4753 227.568ZM103.653 230.16C103.381 230.096 103.173 230.08 102.933 230.08C101.845 230.08 101.029 230.624 100.725 231.456L100.645 230.256H99.6051V238H100.709V233.584C100.709 232.112 101.621 231.152 103.045 231.152H103.653V230.16ZM108.072 238.192C109.896 238.192 111.096 237.312 111.512 235.68H110.456C110.168 236.704 109.352 237.248 108.088 237.248C106.424 237.248 105.432 236.16 105.352 234.272H111.512V233.728C111.512 231.536 110.088 230.048 107.992 230.048C105.784 230.048 104.28 231.712 104.28 234.128C104.28 236.56 105.8 238.192 108.072 238.192ZM107.992 230.992C109.448 230.992 110.408 231.984 110.408 233.472H105.384C105.576 231.952 106.536 230.992 107.992 230.992ZM120.755 238.192C122.051 238.192 123.139 237.616 123.683 236.416L123.795 238H124.755V226.336H123.651V231.728C123.107 230.608 122.083 230.048 120.803 230.048C118.499 230.048 117.171 231.808 117.171 234.144C117.171 236.464 118.499 238.192 120.755 238.192ZM120.947 237.184C119.267 237.184 118.291 235.904 118.291 234.112C118.291 232.336 119.267 231.04 120.947 231.04C122.643 231.04 123.635 232.336 123.635 234.112C123.635 235.904 122.643 237.184 120.947 237.184ZM131.106 230.16C130.834 230.096 130.626 230.08 130.386 230.08C129.298 230.08 128.482 230.624 128.178 231.456L128.098 230.256H127.058V238H128.162V233.584C128.162 232.112 129.074 231.152 130.498 231.152H131.106V230.16ZM133.118 228.128C133.566 228.128 133.95 227.76 133.95 227.312C133.95 226.864 133.566 226.48 133.118 226.48C132.67 226.48 132.302 226.864 132.302 227.312C132.302 227.76 132.67 228.128 133.118 228.128ZM132.574 238H133.678V230.256H132.574V238ZM138.14 238H139.244L142.46 230.256H141.324L139.292 235.248C139.068 235.808 138.86 236.32 138.716 236.848C138.572 236.336 138.364 235.808 138.156 235.248L136.156 230.256H134.972L138.14 238ZM144.305 228.128C144.753 228.128 145.137 227.76 145.137 227.312C145.137 226.864 144.753 226.48 144.305 226.48C143.857 226.48 143.489 226.864 143.489 227.312C143.489 227.76 143.857 228.128 144.305 228.128ZM143.761 238H144.865V230.256H143.761V238ZM148.272 238V233.952C148.272 232.208 149.168 231.056 150.752 231.056C152.032 231.056 152.848 231.696 152.848 233.504V238H153.952V233.264C153.952 231.312 153.072 230.048 150.944 230.048C149.824 230.048 148.8 230.608 148.288 231.6L148.128 230.256H147.168V238H148.272ZM155.624 233.904C155.624 236.016 156.968 237.76 159.176 237.76C160.504 237.76 161.576 237.12 162.104 236.032V237.872C162.104 239.488 161.048 240.56 159.464 240.56C158.072 240.56 157.112 239.824 156.872 238.576H155.768C156.072 240.448 157.464 241.568 159.448 241.568C161.72 241.568 163.192 240.064 163.192 237.76V230.256H162.232L162.12 231.808C161.624 230.672 160.6 230.048 159.256 230.048C156.984 230.048 155.624 231.792 155.624 233.904ZM156.728 233.888C156.728 232.32 157.688 231.024 159.352 231.024C161.048 231.024 162.008 232.24 162.008 233.888C162.008 235.552 161.016 236.768 159.336 236.768C157.704 236.768 156.728 235.472 156.728 233.888ZM166.44 238.176C166.984 238.176 167.448 237.728 167.448 237.2C167.448 236.656 166.984 236.192 166.44 236.192C165.896 236.192 165.432 236.656 165.432 237.2C165.432 237.728 165.896 238.176 166.44 238.176Z" fill="#0A0F0D" fill-opacity="0.8"/>
<path d="M41.428 54.048C41.428 57.584 43.502 59.896 47.514 60.814L51.56 61.732C53.906 62.276 54.96 63.5 54.96 65.438C54.96 67.886 52.886 69.416 49.622 69.416C46.528 69.416 44.556 67.92 44.488 65.574H41.088C41.292 69.79 44.624 72.408 49.622 72.408C54.858 72.408 58.292 69.586 58.292 65.166C58.292 61.698 56.252 59.522 52.24 58.604L48.194 57.652C45.882 57.108 44.76 55.918 44.76 53.946C44.76 51.532 46.766 49.968 49.86 49.968C52.614 49.968 54.348 51.396 54.518 53.844H57.884C57.612 49.594 54.586 46.976 49.894 46.976C44.828 46.976 41.428 49.832 41.428 54.048ZM63.499 51.43C64.655 51.43 65.607 50.478 65.607 49.322C65.607 48.132 64.655 47.214 63.499 47.214C62.343 47.214 61.391 48.132 61.391 49.322C61.391 50.478 62.343 51.43 63.499 51.43ZM61.935 72H65.131V55.374H61.935V72ZM74.463 72V58.06H77.727V55.374H74.463V50.172H71.267V55.374H68.003V58.06H71.267V72H74.463ZM87.6032 72.408C91.7172 72.408 94.5052 70.402 95.3212 66.832H92.3292C91.7852 68.736 90.1532 69.756 87.6712 69.756C84.5092 69.756 82.6732 67.818 82.4352 64.316L95.2872 64.282V63.092C95.2872 58.162 92.1932 54.898 87.4672 54.898C82.6392 54.898 79.3412 58.502 79.3412 63.704C79.3412 68.872 82.7072 72.408 87.6032 72.408ZM87.4672 57.584C90.2892 57.584 92.0912 59.42 92.0912 62.174H82.5032C82.9112 59.25 84.6792 57.584 87.4672 57.584ZM118.252 63.228C123.046 63.228 126.174 59.896 126.174 55.306C126.174 50.58 123.08 47.418 118.252 47.418H108.698V72H112.03V63.228H118.252ZM117.674 50.41C120.802 50.41 122.672 52.178 122.672 55.272C122.672 58.298 120.836 60.236 117.538 60.236H112.03V50.41H117.674ZM135.814 72.408C139.928 72.408 142.716 70.402 143.532 66.832H140.54C139.996 68.736 138.364 69.756 135.882 69.756C132.72 69.756 130.884 67.818 130.646 64.316L143.498 64.282V63.092C143.498 58.162 140.404 54.898 135.678 54.898C130.85 54.898 127.552 58.502 127.552 63.704C127.552 68.872 130.918 72.408 135.814 72.408ZM135.678 57.584C138.5 57.584 140.302 59.42 140.302 62.174H130.714C131.122 59.25 132.89 57.584 135.678 57.584ZM156.588 55.238C155.942 55.102 155.466 55.034 154.888 55.034C152.61 55.034 150.944 56.19 150.264 57.924L150.06 55.408H147.068V72H150.264V63.194C150.264 59.998 152.134 58.162 155.16 58.162H156.588V55.238ZM158.482 55.374V58.06H160.93V72H164.126V58.06H168.07V55.374H164.126V52.722C164.126 50.92 164.67 49.866 166.744 49.866H168.172V47.112C167.526 47.01 166.812 46.976 166.2 46.976C163.174 46.976 160.93 48.642 160.93 52.722V55.374H158.482ZM169.454 63.67C169.454 68.804 173.126 72.408 178.124 72.408C183.088 72.408 186.76 68.804 186.76 63.67C186.76 58.536 183.088 54.932 178.124 54.932C173.126 54.932 169.454 58.536 169.454 63.67ZM172.684 63.67C172.684 60.202 174.894 57.788 178.124 57.788C181.32 57.788 183.564 60.202 183.564 63.67C183.564 67.138 181.32 69.552 178.124 69.552C174.894 69.552 172.684 67.138 172.684 63.67ZM199.818 55.238C199.172 55.102 198.696 55.034 198.118 55.034C195.84 55.034 194.174 56.19 193.494 57.924L193.29 55.408H190.298V72H193.494V63.194C193.494 59.998 195.364 58.162 198.39 58.162H199.818V55.238ZM206.012 72V62.14C206.012 59.488 207.61 57.822 210.024 57.822C212.268 57.822 213.696 59.25 213.696 61.868V72H216.858V62.14C216.858 59.488 218.456 57.788 220.87 57.788C223.114 57.788 224.576 59.284 224.576 61.902V72H227.704V61.12C227.704 57.278 225.392 54.898 221.584 54.898C219 54.898 216.994 56.19 216.212 58.264C215.362 56.19 213.526 54.898 210.942 54.898C208.596 54.898 206.828 55.986 205.978 57.55L205.672 55.374H202.816V72H206.012ZM236.996 72.408C239.682 72.408 241.96 71.218 242.81 69.314L243.15 72H245.87V61.562C245.87 57.074 243.082 54.898 238.968 54.898C234.684 54.898 231.828 57.176 231.828 60.644H234.616C234.616 58.638 236.146 57.448 238.832 57.448C241.076 57.448 242.742 58.434 242.742 61.222V61.698L237.506 62.106C233.596 62.412 231.318 64.316 231.318 67.376C231.318 70.402 233.426 72.408 236.996 72.408ZM237.914 69.926C235.84 69.926 234.548 69.042 234.548 67.274C234.548 65.642 235.704 64.554 238.526 64.282L242.776 63.942V64.826C242.776 67.954 240.94 69.926 237.914 69.926ZM253.492 72V63.194C253.492 59.964 255.226 57.822 258.218 57.822C260.666 57.822 262.23 59.182 262.23 62.548V72H265.426V61.834C265.426 57.584 263.42 54.898 259.034 54.898C256.688 54.898 254.58 56.02 253.526 57.924L253.186 55.374H250.296V72H253.492ZM268.765 63.704C268.765 68.94 271.995 72.408 276.891 72.408C280.903 72.408 283.997 69.994 284.643 66.39H281.447C280.869 68.362 279.169 69.552 276.891 69.552C273.865 69.552 271.927 67.24 271.927 63.67C271.927 60.066 274.001 57.754 277.027 57.754C279.169 57.754 280.869 58.876 281.413 60.984H284.609C284.031 57.278 281.107 54.898 276.925 54.898C272.063 54.898 268.765 58.502 268.765 63.704ZM295.189 72.408C299.303 72.408 302.091 70.402 302.907 66.832H299.915C299.371 68.736 297.739 69.756 295.257 69.756C292.095 69.756 290.259 67.818 290.021 64.316L302.873 64.282V63.092C302.873 58.162 299.779 54.898 295.053 54.898C290.225 54.898 286.927 58.502 286.927 63.704C286.927 68.872 290.293 72.408 295.189 72.408ZM295.053 57.584C297.875 57.584 299.677 59.42 299.677 62.174H290.089C290.497 59.25 292.265 57.584 295.053 57.584Z" fill="#0A0F0D"/>
<defs>
<clipPath id="clip0_1_364">
<rect width="16" height="16" fill="white" transform="translate(40 102)"/>
</clipPath>
<clipPath id="clip1_1_364">
<rect width="16" height="16" fill="white" transform="translate(40 140)"/>
</clipPath>
<clipPath id="clip2_1_364">
<rect width="16" height="16" fill="white" transform="translate(40 202)"/>
</clipPath>
</defs>
</svg>
