<svg width="34" height="34" viewBox="0 0 34 34" fill="none" xmlns="http://www.w3.org/2000/svg">
<circle cx="17" cy="17" r="16" stroke="#0A0F0D" stroke-opacity="0.8"/>
<path d="M26.2419 11.5876C25.5905 11.8607 24.9139 12.079 24.2099 12.1613C24.9586 11.7088 25.5175 10.9996 25.7825 10.1659C25.0892 10.5849 24.3287 10.8807 23.5345 11.0402C23.1982 10.6791 22.7914 10.3909 22.3393 10.1933C21.8872 9.99578 21.3993 9.89308 20.9059 9.8916C18.9288 9.8916 17.3585 11.5053 17.3585 13.4733C17.3585 13.7476 17.3848 14.0207 17.4385 14.2939C14.4876 14.1567 11.8602 12.7076 10.1265 10.5487C9.81097 11.0977 9.64322 11.719 9.63963 12.3522C9.63963 13.6093 10.2625 14.7042 11.2099 15.3327C10.6514 15.3077 10.1055 15.1582 9.6122 14.895V14.9499C9.6122 16.6985 10.8305 18.1487 12.4556 18.4767C12.1469 18.5644 11.8279 18.6105 11.5071 18.6139C11.2911 18.6139 11.0476 18.5853 10.8305 18.559C11.0563 19.2697 11.4991 19.8917 12.0966 20.3378C12.6941 20.7838 13.4164 21.0315 14.1619 21.0459C12.9033 22.0363 11.3486 22.5756 9.74706 22.5773C9.46668 22.5735 9.18669 22.5552 8.9082 22.5225C10.5374 23.5526 12.4241 24.1024 14.3516 24.1087C20.9059 24.1087 24.4808 18.6402 24.4808 13.8836V13.4185C25.167 12.9124 25.7622 12.2933 26.2408 11.5876H26.2419Z" fill="#0A0F0D" fill-opacity="0.8"/>
</svg>
